<svg xmlns="http://www.w3.org/2000/svg" xmlns:xlink="http://www.w3.org/1999/xlink" preserveAspectRatio="xMidYMid meet" width="1300" height="1300" viewBox="0 0 1300 1300" style="width:100%;height:100%"><defs><animateMotion repeatCount="indefinite" dur="4.9583333s" begin="0s" xlink:href="#_R_G_L_12_G_D_0_P_0_G_0_T_0" fill="freeze" keyTimes="0;0.1344538;0.1680672;0.2016807;0.3445378;0.3697479;0.4033613;0.4369748;1" path="M5.09 640.2 C5.09,640.2 5.09,640.2 5.09,640.2 C5.09,640.2 5.09,680.2 5.09,680.2 C5.09,680.2 5.09,640.2 5.09,640.2 C5.09,640.2 5.09,640.2 5.09,640.2 C5.09,640.2 5.78,694.2 5.09,694.2 C5.09,694.2 5.32,695.7 5.09,695.7 C5.09,695.7 5.09,640.2 5.09,640.2 C5.09,640.2 5.09,640.2 5.09,640.2 " keyPoints="0;0;0.21;0.42;0.42;0.7;0.71;1;1" keySplines="0.333 0 0 1;0.333 0 0 1;1 0 0.667 1;0.333 0 0.833 1;0.333 0 0.046 1;1 0 0.046 1;1 0 0.667 1;0 0 0 0" calcMode="spline"/><animateTransform repeatCount="indefinite" dur="4.9583333s" begin="0s" xlink:href="#_R_G_L_12_G_D_0_P_0_G_0_T_0" fill="freeze" attributeName="transform" from="1.114" to="1.114" type="rotate" additive="sum" keyTimes="0;0.7983193;1" values="1.114;1.114;1.114" keySplines="0 0 1 1;0 0 0 0" calcMode="spline"/><animateTransform repeatCount="indefinite" dur="4.9583333s" begin="0s" xlink:href="#_R_G_L_12_G_D_0_P_0_G_0_T_0" fill="freeze" attributeName="transform" from="1 1" to="1 1" type="scale" additive="sum" keyTimes="0;0.3445377;0.3445378;0.3529411;0.3529412;0.3613445;0.3697479;0.4117646;0.4117647;0.420168;0.4201681;0.4285714;0.4369748;0.4453782;1" values="1 1;1 1;1 1;1 1;0.9940000000000001 1.006;0.745 1.248;0.66666 1.3230000000000002;0.66666 1.3230000000000002;0.6666 1.33333;0.6666 1.33333;0.674 1.324;0.7133 1.28;0.86666 1.10667;1 1;1 1" keySplines="0 0 1 1;0 0 1 1;0 0 1 1;0 0 1 1;0.167 0.085 0.833 0.89;0.167 0.348 0.833 0.972;0 0 1 1;0 0 1 1;0 0 1 1;0 0 1 1;0.167 0.099 0.833 0.591;0.167 0.105 0.833 0.844;0.167 0.179 0.833 0.833;0 0 1 1" calcMode="spline"/><animateMotion repeatCount="indefinite" dur="4.9583333s" begin="0s" xlink:href="#_R_G_L_11_G_D_0_P_0_G_0_T_0" fill="freeze" keyTimes="0;0.1512605;0.1848739;0.2184874;0.3613445;0.3865546;0.4201681;0.4537815;1" path="M5.09 640.2 C5.09,640.2 5.09,640.2 5.09,640.2 C5.09,640.2 5.09,680.2 5.09,680.2 C5.09,680.2 5.09,640.2 5.09,640.2 C5.09,640.2 5.09,640.2 5.09,640.2 C5.09,640.2 5.78,694.2 5.09,694.2 C5.09,694.2 5.32,695.7 5.09,695.7 C5.09,695.7 5.09,640.2 5.09,640.2 C5.09,640.2 5.09,640.2 5.09,640.2 " keyPoints="0;0;0.21;0.42;0.42;0.7;0.71;1;1" keySplines="0.333 0 0 1;0.333 0 0 1;1 0 0.667 1;0.333 0 0.833 1;0.333 0 0.046 1;1 0 0.046 1;1 0 0.667 1;0 0 0 0" calcMode="spline"/><animateTransform repeatCount="indefinite" dur="4.9583333s" begin="0s" xlink:href="#_R_G_L_11_G_D_0_P_0_G_0_T_0" fill="freeze" attributeName="transform" from="1 1" to="1 1" type="scale" additive="sum" keyTimes="0;0.3613445;0.3613445;0.3697478;0.3697479;0.3781513;0.3865546;0.4285713;0.4285714;0.4369747;0.4369748;0.4453782;0.4537815;0.4621849;1" values="1 1;1 1;1 1;1 1;0.9940000000000001 1.006;0.745 1.248;0.66666 1.3230000000000002;0.66666 1.3230000000000002;0.6666 1.33333;0.6666 1.33333;0.674 1.324;0.7133 1.28;0.86666 1.10667;1 1;1 1" keySplines="0 0 1 1;0 0 1 1;0 0 1 1;0 0 1 1;0.167 0.085 0.833 0.89;0.167 0.348 0.833 0.972;0 0 1 1;0 0 1 1;0 0 1 1;0 0 1 1;0.167 0.099 0.833 0.591;0.167 0.105 0.833 0.844;0.167 0.179 0.833 0.833;0 0 1 1" calcMode="spline"/><animateMotion repeatCount="indefinite" dur="4.9583333s" begin="0s" xlink:href="#_R_G_L_10_G_D_0_P_0_G_0_T_0" fill="freeze" keyTimes="0;0.1596639;0.1932773;0.2268908;0.3697479;0.394958;0.4285714;0.4621849;1" path="M5.09 640.2 C5.09,640.2 5.09,640.2 5.09,640.2 C5.09,640.2 5.09,680.2 5.09,680.2 C5.09,680.2 5.09,640.2 5.09,640.2 C5.09,640.2 5.09,640.2 5.09,640.2 C5.09,640.2 5.78,694.2 5.09,694.2 C5.09,694.2 5.32,695.7 5.09,695.7 C5.09,695.7 5.09,640.2 5.09,640.2 C5.09,640.2 5.09,640.2 5.09,640.2 " keyPoints="0;0;0.21;0.42;0.42;0.7;0.71;1;1" keySplines="0.333 0 0 1;0.333 0 0 1;1 0 0.667 1;0.333 0 0.833 1;0.333 0 0.046 1;1 0 0.046 1;1 0 0.667 1;0 0 0 0" calcMode="spline"/><animateTransform repeatCount="indefinite" dur="4.9583333s" begin="0s" xlink:href="#_R_G_L_10_G_D_0_P_0_G_0_T_0" fill="freeze" attributeName="transform" from="1 1" to="1 1" type="scale" additive="sum" keyTimes="0;0.3781512;0.3781513;0.3865545;0.3865546;0.394958;0.4033613;0.4453781;0.4453782;0.4537814;0.4537815;0.4621849;0.4705882;0.4789916;1" values="1 1;1 1;1 1;1 1;0.9940000000000001 1.006;0.745 1.248;0.66666 1.3230000000000002;0.66666 1.3230000000000002;0.6666 1.33333;0.6666 1.33333;0.674 1.324;0.7133 1.28;0.86666 1.10667;1 1;1 1" keySplines="0 0 1 1;0 0 1 1;0 0 1 1;0 0 1 1;0.167 0.085 0.833 0.89;0.167 0.348 0.833 0.972;0 0 1 1;0 0 1 1;0 0 1 1;0 0 1 1;0.167 0.099 0.833 0.591;0.167 0.105 0.833 0.844;0.167 0.179 0.833 0.833;0 0 1 1" calcMode="spline"/><animateMotion repeatCount="indefinite" dur="4.9583333s" begin="0s" xlink:href="#_R_G_L_9_G_D_0_P_0_G_0_T_0" fill="freeze" keyTimes="0;0.1932773;0.2268908;0.2605042;0.4033613;0.4285714;0.4621849;0.4957983;1" path="M5.09 640.2 C5.09,640.2 5.09,640.2 5.09,640.2 C5.09,640.2 5.09,680.2 5.09,680.2 C5.09,680.2 5.09,640.2 5.09,640.2 C5.09,640.2 5.09,640.2 5.09,640.2 C5.09,640.2 5.78,694.2 5.09,694.2 C5.09,694.2 5.32,695.7 5.09,695.7 C5.09,695.7 5.09,640.2 5.09,640.2 C5.09,640.2 5.09,640.2 5.09,640.2 " keyPoints="0;0;0.21;0.42;0.42;0.7;0.71;1;1" keySplines="0.333 0 0 1;0.333 0 0 1;1 0 0.667 1;0.333 0 0.833 1;0.333 0 0.046 1;1 0 0.046 1;1 0 0.667 1;0 0 0 0" calcMode="spline"/><animateTransform repeatCount="indefinite" dur="4.9583333s" begin="0s" xlink:href="#_R_G_L_9_G_D_0_P_0_G_0_T_0" fill="freeze" attributeName="transform" from="1 1" to="1 1" type="scale" additive="sum" keyTimes="0;0.4033613;0.4033613;0.4117646;0.4117647;0.4201681;0.4285714;0.4705882;0.4705882;0.4789915;0.4789916;0.487395;0.4957983;0.5042017;1" values="1 1;1 1;1 1;1 1;0.9940000000000001 1.006;0.745 1.248;0.66666 1.3230000000000002;0.66666 1.3230000000000002;0.6666 1.33333;0.6666 1.33333;0.674 1.324;0.7133 1.28;0.86666 1.10667;1 1;1 1" keySplines="0 0 1 1;0 0 1 1;0 0 1 1;0 0 1 1;0.167 0.085 0.833 0.89;0.167 0.348 0.833 0.972;0 0 1 1;0 0 1 1;0 0 1 1;0 0 1 1;0.167 0.099 0.833 0.591;0.167 0.105 0.833 0.844;0.167 0.179 0.833 0.833;0 0 1 1" calcMode="spline"/><animateMotion repeatCount="indefinite" dur="4.9583333s" begin="0s" xlink:href="#_R_G_L_8_G_D_0_P_0_G_0_T_0" fill="freeze" keyTimes="0;0.210084;0.2436975;0.2773109;0.4201681;0.4453782;0.4789916;0.512605;1" path="M5.09 640.2 C5.09,640.2 5.09,640.2 5.09,640.2 C5.09,640.2 5.09,680.2 5.09,680.2 C5.09,680.2 5.09,640.2 5.09,640.2 C5.09,640.2 5.09,640.2 5.09,640.2 C5.09,640.2 5.78,694.2 5.09,694.2 C5.09,694.2 5.32,695.7 5.09,695.7 C5.09,695.7 5.09,640.2 5.09,640.2 C5.09,640.2 5.09,640.2 5.09,640.2 " keyPoints="0;0;0.21;0.42;0.42;0.7;0.71;1;1" keySplines="0.333 0 0 1;0.333 0 0 1;1 0 0.667 1;0.333 0 0.833 1;0.333 0 0.046 1;1 0 0.046 1;1 0 0.667 1;0 0 0 0" calcMode="spline"/><animateTransform repeatCount="indefinite" dur="4.9583333s" begin="0s" xlink:href="#_R_G_L_8_G_D_0_P_0_G_0_T_0" fill="freeze" attributeName="transform" from="1 1" to="1 1" type="scale" additive="sum" keyTimes="0;0.420168;0.4201681;0.4285713;0.4285714;0.4369748;0.4453782;0.4873949;0.487395;0.4957982;0.4957983;0.5042017;0.512605;0.5210084;1" values="1 1;1 1;1 1;1 1;0.9940000000000001 1.006;0.745 1.248;0.66666 1.3230000000000002;0.66666 1.3230000000000002;0.6666 1.33333;0.6666 1.33333;0.674 1.324;0.7133 1.28;0.86666 1.10667;1 1;1 1" keySplines="0 0 1 1;0 0 1 1;0 0 1 1;0 0 1 1;0.167 0.085 0.833 0.89;0.167 0.348 0.833 0.972;0 0 1 1;0 0 1 1;0 0 1 1;0 0 1 1;0.167 0.099 0.833 0.591;0.167 0.105 0.833 0.844;0.167 0.179 0.833 0.833;0 0 1 1" calcMode="spline"/><animateMotion repeatCount="indefinite" dur="4.9583333s" begin="0s" xlink:href="#_R_G_L_7_G_D_0_P_0_G_0_T_0" fill="freeze" keyTimes="0;0.2352941;0.2689076;0.302521;0.4453782;0.4705882;0.5042017;0.5378151;1" path="M5.09 640.2 C5.09,640.2 5.09,640.2 5.09,640.2 C5.09,640.2 5.09,680.2 5.09,680.2 C5.09,680.2 5.09,640.2 5.09,640.2 C5.09,640.2 5.09,640.2 5.09,640.2 C5.09,640.2 5.78,694.2 5.09,694.2 C5.09,694.2 5.32,695.7 5.09,695.7 C5.09,695.7 5.09,640.2 5.09,640.2 C5.09,640.2 5.09,640.2 5.09,640.2 " keyPoints="0;0;0.21;0.42;0.42;0.7;0.71;1;1" keySplines="0.333 0 0 1;0.333 0 0 1;1 0 0.667 1;0.333 0 0.833 1;0.333 0 0.046 1;1 0 0.046 1;1 0 0.667 1;0 0 0 0" calcMode="spline"/><animateTransform repeatCount="indefinite" dur="4.9583333s" begin="0s" xlink:href="#_R_G_L_7_G_D_0_P_0_G_0_T_0" fill="freeze" attributeName="transform" from="1 1" to="1 1" type="scale" additive="sum" keyTimes="0;0.4453781;0.4453782;0.4537814;0.4537815;0.4621849;0.4705882;0.512605;0.512605;0.5210083;0.5210084;0.5294118;0.5378151;0.5462185;1" values="1 1;1 1;1 1;1 1;0.9940000000000001 1.006;0.745 1.248;0.66666 1.3230000000000002;0.66666 1.3230000000000002;0.6666 1.33333;0.6666 1.33333;0.674 1.324;0.7133 1.28;0.86666 1.10667;1 1;1 1" keySplines="0 0 1 1;0 0 1 1;0 0 1 1;0 0 1 1;0.167 0.085 0.833 0.89;0.167 0.348 0.833 0.972;0 0 1 1;0 0 1 1;0 0 1 1;0 0 1 1;0.167 0.099 0.833 0.591;0.167 0.105 0.833 0.844;0.167 0.179 0.833 0.833;0 0 1 1" calcMode="spline"/><animateMotion repeatCount="indefinite" dur="4.9583333s" begin="0s" xlink:href="#_R_G_L_6_G_D_0_P_0_G_0_T_0" fill="freeze" keyTimes="0;0.2352941;0.2689076;0.302521;0.4453782;0.4705882;0.5042017;0.5378151;1" path="M5.09 640.2 C5.09,640.2 5.09,640.2 5.09,640.2 C5.09,640.2 5.09,680.2 5.09,680.2 C5.09,680.2 5.09,640.2 5.09,640.2 C5.09,640.2 5.09,640.2 5.09,640.2 C5.09,640.2 5.78,694.2 5.09,694.2 C5.09,694.2 5.32,695.7 5.09,695.7 C5.09,695.7 5.09,640.2 5.09,640.2 C5.09,640.2 5.09,640.2 5.09,640.2 " keyPoints="0;0;0.21;0.42;0.42;0.7;0.71;1;1" keySplines="0.333 0 0 1;0.333 0 0 1;1 0 0.667 1;0.333 0 0.833 1;0.333 0 0.046 1;1 0 0.046 1;1 0 0.667 1;0 0 0 0" calcMode="spline"/><animateTransform repeatCount="indefinite" dur="4.9583333s" begin="0s" xlink:href="#_R_G_L_6_G_D_0_P_0_G_0_T_0" fill="freeze" attributeName="transform" from="1 1" to="1 1" type="scale" additive="sum" keyTimes="0;0.4453781;0.4453782;0.4537814;0.4537815;0.4621849;0.4705882;0.512605;0.512605;0.5210083;0.5210084;0.5294118;0.5378151;0.5462185;1" values="1 1;1 1;1 1;1 1;0.9940000000000001 1.006;0.745 1.248;0.66666 1.3230000000000002;0.66666 1.3230000000000002;0.6666 1.33333;0.6666 1.33333;0.674 1.324;0.7133 1.28;0.86666 1.10667;1 1;1 1" keySplines="0 0 1 1;0 0 1 1;0 0 1 1;0 0 1 1;0.167 0.085 0.833 0.89;0.167 0.348 0.833 0.972;0 0 1 1;0 0 1 1;0 0 1 1;0 0 1 1;0.167 0.099 0.833 0.591;0.167 0.105 0.833 0.844;0.167 0.179 0.833 0.833;0 0 1 1" calcMode="spline"/><animateMotion repeatCount="indefinite" dur="4.9583333s" begin="0s" xlink:href="#_R_G_L_5_G_D_0_P_0_G_0_T_0" fill="freeze" keyTimes="0;0.210084;0.2436975;0.2773109;0.4201681;0.4453782;0.4789916;0.512605;1" path="M5.09 640.2 C5.09,640.2 5.09,640.2 5.09,640.2 C5.09,640.2 5.09,680.2 5.09,680.2 C5.09,680.2 5.09,640.2 5.09,640.2 C5.09,640.2 5.09,640.2 5.09,640.2 C5.09,640.2 5.78,694.2 5.09,694.2 C5.09,694.2 5.32,695.7 5.09,695.7 C5.09,695.7 5.09,640.2 5.09,640.2 C5.09,640.2 5.09,640.2 5.09,640.2 " keyPoints="0;0;0.21;0.42;0.42;0.7;0.71;1;1" keySplines="0.333 0 0 1;0.333 0 0 1;1 0 0.667 1;0.333 0 0.833 1;0.333 0 0.046 1;1 0 0.046 1;1 0 0.667 1;0 0 0 0" calcMode="spline"/><animateTransform repeatCount="indefinite" dur="4.9583333s" begin="0s" xlink:href="#_R_G_L_5_G_D_0_P_0_G_0_T_0" fill="freeze" attributeName="transform" from="1 1" to="1 1" type="scale" additive="sum" keyTimes="0;0.420168;0.4201681;0.4285713;0.4285714;0.4369748;0.4453782;0.4873949;0.487395;0.4957982;0.4957983;0.5042017;0.512605;0.5210084;1" values="1 1;1 1;1 1;1 1;0.9940000000000001 1.006;0.745 1.248;0.66666 1.3230000000000002;0.66666 1.3230000000000002;0.6666 1.33333;0.6666 1.33333;0.674 1.324;0.7133 1.28;0.86666 1.10667;1 1;1 1" keySplines="0 0 1 1;0 0 1 1;0 0 1 1;0 0 1 1;0.167 0.085 0.833 0.89;0.167 0.348 0.833 0.972;0 0 1 1;0 0 1 1;0 0 1 1;0 0 1 1;0.167 0.099 0.833 0.591;0.167 0.105 0.833 0.844;0.167 0.179 0.833 0.833;0 0 1 1" calcMode="spline"/><animateMotion repeatCount="indefinite" dur="4.9583333s" begin="0s" xlink:href="#_R_G_L_4_G_D_0_P_0_G_0_T_0" fill="freeze" keyTimes="0;0.1932773;0.2268908;0.2605042;0.4033613;0.4285714;0.4621849;0.4957983;1" path="M5.09 640.2 C5.09,640.2 5.09,640.2 5.09,640.2 C5.09,640.2 5.09,680.2 5.09,680.2 C5.09,680.2 5.09,640.2 5.09,640.2 C5.09,640.2 5.09,640.2 5.09,640.2 C5.09,640.2 5.78,694.2 5.09,694.2 C5.09,694.2 5.32,695.7 5.09,695.7 C5.09,695.7 5.09,640.2 5.09,640.2 C5.09,640.2 5.09,640.2 5.09,640.2 " keyPoints="0;0;0.21;0.42;0.42;0.7;0.71;1;1" keySplines="0.333 0 0 1;0.333 0 0 1;1 0 0.667 1;0.333 0 0.833 1;0.333 0 0.046 1;1 0 0.046 1;1 0 0.667 1;0 0 0 0" calcMode="spline"/><animateTransform repeatCount="indefinite" dur="4.9583333s" begin="0s" xlink:href="#_R_G_L_4_G_D_0_P_0_G_0_T_0" fill="freeze" attributeName="transform" from="1 1" to="1 1" type="scale" additive="sum" keyTimes="0;0.4033613;0.4033613;0.4117646;0.4117647;0.4201681;0.4285714;0.4705882;0.4705882;0.4789915;0.4789916;0.487395;0.4957983;0.5042017;1" values="1 1;1 1;1 1;1 1;0.9940000000000001 1.006;0.745 1.248;0.66666 1.3230000000000002;0.66666 1.3230000000000002;0.6666 1.33333;0.6666 1.33333;0.674 1.324;0.7133 1.28;0.86666 1.10667;1 1;1 1" keySplines="0 0 1 1;0 0 1 1;0 0 1 1;0 0 1 1;0.167 0.085 0.833 0.89;0.167 0.348 0.833 0.972;0 0 1 1;0 0 1 1;0 0 1 1;0 0 1 1;0.167 0.099 0.833 0.591;0.167 0.105 0.833 0.844;0.167 0.179 0.833 0.833;0 0 1 1" calcMode="spline"/><animateMotion repeatCount="indefinite" dur="4.9583333s" begin="0s" xlink:href="#_R_G_L_3_G_D_0_P_0_G_0_T_0" fill="freeze" keyTimes="0;0.1680672;0.2016807;0.2352941;0.3781513;0.4033613;0.4369748;0.4705882;1" path="M5.09 640.2 C5.09,640.2 5.09,640.2 5.09,640.2 C5.09,640.2 5.09,680.2 5.09,680.2 C5.09,680.2 5.09,640.2 5.09,640.2 C5.09,640.2 5.09,640.2 5.09,640.2 C5.09,640.2 5.78,694.2 5.09,694.2 C5.09,694.2 5.32,695.7 5.09,695.7 C5.09,695.7 5.09,640.2 5.09,640.2 C5.09,640.2 5.09,640.2 5.09,640.2 " keyPoints="0;0;0.21;0.42;0.42;0.7;0.71;1;1" keySplines="0.333 0 0 1;0.333 0 0 1;1 0 0.667 1;0.333 0 0.833 1;0.333 0 0.046 1;1 0 0.046 1;1 0 0.667 1;0 0 0 0" calcMode="spline"/><animateTransform repeatCount="indefinite" dur="4.9583333s" begin="0s" xlink:href="#_R_G_L_3_G_D_0_P_0_G_0_T_0" fill="freeze" attributeName="transform" from="1 1" to="1 1" type="scale" additive="sum" keyTimes="0;0.3781512;0.3781513;0.3865545;0.3865546;0.394958;0.4033613;0.4453781;0.4453782;0.4537814;0.4537815;0.4621849;0.4705882;0.4789916;1" values="1 1;1 1;1 1;1 1;0.9940000000000001 1.006;0.745 1.248;0.66666 1.3230000000000002;0.66666 1.3230000000000002;0.6666 1.33333;0.6666 1.33333;0.674 1.324;0.7133 1.28;0.86666 1.10667;1 1;1 1" keySplines="0 0 1 1;0 0 1 1;0 0 1 1;0 0 1 1;0.167 0.085 0.833 0.89;0.167 0.348 0.833 0.972;0 0 1 1;0 0 1 1;0 0 1 1;0 0 1 1;0.167 0.099 0.833 0.591;0.167 0.105 0.833 0.844;0.167 0.179 0.833 0.833;0 0 1 1" calcMode="spline"/><animateMotion repeatCount="indefinite" dur="4.9583333s" begin="0s" xlink:href="#_R_G_L_2_G_D_0_P_0_G_0_T_0" fill="freeze" keyTimes="0;0.1512605;0.1848739;0.2184874;0.3613445;0.3865546;0.4201681;0.4537815;1" path="M5.09 640.2 C5.09,640.2 5.09,640.2 5.09,640.2 C5.09,640.2 5.09,680.2 5.09,680.2 C5.09,680.2 5.09,640.2 5.09,640.2 C5.09,640.2 5.09,640.2 5.09,640.2 C5.09,640.2 5.78,694.2 5.09,694.2 C5.09,694.2 5.32,695.7 5.09,695.7 C5.09,695.7 5.09,640.2 5.09,640.2 C5.09,640.2 5.09,640.2 5.09,640.2 " keyPoints="0;0;0.21;0.42;0.42;0.7;0.71;1;1" keySplines="0.333 0 0 1;0.333 0 0 1;1 0 0.667 1;0.333 0 0.833 1;0.333 0 0.046 1;1 0 0.046 1;1 0 0.667 1;0 0 0 0" calcMode="spline"/><animateTransform repeatCount="indefinite" dur="4.9583333s" begin="0s" xlink:href="#_R_G_L_2_G_D_0_P_0_G_0_T_0" fill="freeze" attributeName="transform" from="1 1" to="1 1" type="scale" additive="sum" keyTimes="0;0.3613445;0.3613445;0.3697478;0.3697479;0.3781513;0.3865546;0.4285713;0.4285714;0.4369747;0.4369748;0.4453782;0.4537815;0.4621849;1" values="1 1;1 1;1 1;1 1;0.9940000000000001 1.006;0.745 1.248;0.66666 1.3230000000000002;0.66666 1.3230000000000002;0.6666 1.33333;0.6666 1.33333;0.674 1.324;0.7133 1.28;0.86666 1.10667;1 1;1 1" keySplines="0 0 1 1;0 0 1 1;0 0 1 1;0 0 1 1;0.167 0.085 0.833 0.89;0.167 0.348 0.833 0.972;0 0 1 1;0 0 1 1;0 0 1 1;0 0 1 1;0.167 0.099 0.833 0.591;0.167 0.105 0.833 0.844;0.167 0.179 0.833 0.833;0 0 1 1" calcMode="spline"/><animateTransform repeatCount="indefinite" dur="4.9583333s" begin="0s" xlink:href="#_R_G_L_1_G_D_0_P_0_G_0_T_0" fill="freeze" attributeName="transform" from="1 1" to="1 1" type="scale" additive="sum" keyTimes="0;0.1512605;0.2058824;0.2521008;0.2815126;0.3109244;0.3529412;0.3806723;0.3857143;0.4134454;0.4184874;0.4462185;0.4621849;0.489916;0.6302521;0.6638655;0.697479;1" values="1 1;1 1;1 1;1 1;1 0;1 1;1 1;0.75 1.25;0.75 1.25;1.5 1.5;1 1;0.75 1.25;0.75 1.25;1 1;1 1;1 0;1 1;1 1" keySplines="0.736 0 0.316 1;0.736 0 0.316 1;0.333 0 0.843 1;0.898 0 0.583 1;0.417 0 0.001 1;0.211 0 0.565 1;0.317 0 0.064 1;0.323 0 0.651 1;1 0 0.657 1;0.323 0 0.565 1;0.317 0 0.064 1;0.323 0 0.651 1;1 0 0.657 1;0.323 0 0.66 1;0.468 0 0.486 1;0.167 0 0.66 1;0 0 0 0" calcMode="spline"/><animateMotion repeatCount="indefinite" dur="4.9583333s" begin="0s" xlink:href="#_R_G_L_1_G_N_4_T_0" fill="freeze" keyTimes="0;0.1512605;0.1789916;0.2159664;0.2436975;0.3529412;0.3806723;0.3857143;0.4134454;0.4184874;0.4462185;0.4621849;0.4899143;1" path="M0 0 C0,0 0,0 0,0 C-21.83,10.83 -77.71,18.52 -116,2 C-46.79,41.48 89.07,26.21 136.29,-3.14 C93,15.5 35.21,15.48 0,0 C-0.11,0.01 0,0 0,0 C0,0 0,-87 0,-87 C0,-87 0,-87 0,-87 C0,-87 0,0 0,0 C0,0 0,0 0,0 C0,0 0,-133 0,-133 C0,-133 0,-133 0,-133 C0,-133 0,0 0,0 C0,0 0,0 0,0 " keyPoints="0;0;0.12;0.4;0.54;0.54;0.63;0.63;0.72;0.72;0.86;0.86;1;1" keySplines="0.509 0 0.153 0.489;0.509 0 0.153 0.489;0.556 0.205 0.232 0.717;0.693 0.358 0.423 1;0.167 0.167 0.833 0.833;0.193 0 0 1;1 1 0 0;1 0 0.814 1;0.167 0.167 0.833 0.833;0.193 0 0 1;1 1 0 0;1 0 0.814 1;0 0 0 0" calcMode="spline"/><animateTransform repeatCount="indefinite" dur="4.9583333s" begin="0s" xlink:href="#_R_G_L_1_G_N_4_T_0" fill="freeze" attributeName="transform" from="0" to="0" type="rotate" additive="sum" keyTimes="0;0.1512605;0.1789916;0.2159664;0.2436975;1" values="0;0;9;-9.143;0;0" keySplines="0.466 0 0.368 0.736;0.466 0 0.368 0.736;0.685 0.196 0.393 0.826;0.736 0.302 0.423 1;0 0 0 0" calcMode="spline"/><animateTransform repeatCount="indefinite" dur="4.9583333s" begin="0s" xlink:href="#_R_G_L_0_G_D_0_P_0_G_0_T_0" fill="freeze" attributeName="transform" from="1 1" to="1 1" type="scale" additive="sum" keyTimes="0;0.1512605;0.2058824;0.2521008;0.2815126;0.3109244;0.3529412;0.3806723;0.3857143;0.4134454;0.4184874;0.4462185;0.4621849;0.489916;0.6302521;0.6638655;0.697479;1" values="1 1;1 1;1 1;1 1;1 0;1 1;1 1;0.75 1.25;0.75 1.25;1.5 1.5;1 1;0.75 1.25;0.75 1.25;1 1;1 1;1 0;1 1;1 1" keySplines="0.736 0 0.316 1;0.736 0 0.316 1;0.333 0 0.843 1;0.898 0 0.583 1;0.417 0 0.001 1;0.211 0 0.565 1;0.317 0 0.064 1;0.323 0 0.651 1;1 0 0.657 1;0.323 0 0.565 1;0.317 0 0.064 1;0.323 0 0.651 1;1 0 0.657 1;0.323 0 0.66 1;0.468 0 0.486 1;0.167 0 0.66 1;0 0 0 0" calcMode="spline"/><animateMotion repeatCount="indefinite" dur="4.9583333s" begin="0s" xlink:href="#_R_G_L_0_G_N_4_T_0" fill="freeze" keyTimes="0;0.1512605;0.1789916;0.2159664;0.2436975;0.3529412;0.3806723;0.3857143;0.4134454;0.4184874;0.4462185;0.4621849;0.4899143;1" path="M0 0 C0,0 0,0 0,0 C-21.83,10.83 -77.71,18.52 -116,2 C-46.79,41.48 89.07,26.21 136.29,-3.14 C93,15.5 35.21,15.48 0,0 C-0.11,0.01 0,0 0,0 C0,0 0,-87 0,-87 C0,-87 0,-87 0,-87 C0,-87 0,0 0,0 C0,0 0,0 0,0 C0,0 0,-133 0,-133 C0,-133 0,-133 0,-133 C0,-133 0,0 0,0 C0,0 0,0 0,0 " keyPoints="0;0;0.12;0.4;0.54;0.54;0.63;0.63;0.72;0.72;0.86;0.86;1;1" keySplines="0.509 0 0.153 0.489;0.509 0 0.153 0.489;0.556 0.205 0.232 0.717;0.693 0.358 0.423 1;0.167 0.167 0.833 0.833;0.193 0 0 1;1 1 0 0;1 0 0.814 1;0.167 0.167 0.833 0.833;0.193 0 0 1;1 1 0 0;1 0 0.814 1;0 0 0 0" calcMode="spline"/><animateTransform repeatCount="indefinite" dur="4.9583333s" begin="0s" xlink:href="#_R_G_L_0_G_N_4_T_0" fill="freeze" attributeName="transform" from="0" to="0" type="rotate" additive="sum" keyTimes="0;0.1512605;0.1789916;0.2159664;0.2436975;1" values="0;0;9;-9.143;0;0" keySplines="0.466 0 0.368 0.736;0.466 0 0.368 0.736;0.685 0.196 0.393 0.826;0.736 0.302 0.423 1;0 0 0 0" calcMode="spline"/><animate attributeType="XML" attributeName="opacity" dur="4s" from="0" to="1" xlink:href="#time_group"/></defs><g id="_R_G"><g id="_R_G_L_12_G_N_3_N_2_T_0" transform=" translate(650, 650) scale(0.93, 0.93) translate(0, 0)"><g id="_R_G_L_12_G_N_3_T_0" transform=" rotate(180.5) scale(0.85, 0.85)"><g id="_R_G_L_12_G" transform=" translate(0, 0) translate(0, 4)" class="1"><g id="_R_G_L_12_G_D_0_P_0_G_0_T_0"><path id="_R_G_L_12_G_D_0_P_0" fill="#9ae095" fill-opacity="1" fill-rule="nonzero" d=" M75 -35 C75,-35 75,35 75,35 C75,57.08 57.08,75 35,75 C35,75 -35,75 -35,75 C-57.08,75 -75,57.08 -75,35 C-75,35 -75,-35 -75,-35 C-75,-57.08 -57.08,-75 -35,-75 C-35,-75 35,-75 35,-75 C57.08,-75 75,-57.08 75,-35z "/></g></g></g></g><g id="_R_G_L_11_G_N_3_N_2_T_0" transform=" translate(650, 650) scale(0.93, 0.93) translate(0, 0)"><g id="_R_G_L_11_G_N_3_T_0" transform=" rotate(180.5) scale(0.85, 0.85)"><g id="_R_G_L_11_G" transform=" translate(0, 0) rotate(327.273) translate(0, 4)" class="2"><g id="_R_G_L_11_G_D_0_P_0_G_0_T_0"><path id="_R_G_L_11_G_D_0_P_0" fill="#9ae095" fill-opacity="1" fill-rule="nonzero" d=" M75 -35 C75,-35 75,35 75,35 C75,57.08 57.08,75 35,75 C35,75 -35,75 -35,75 C-57.08,75 -75,57.08 -75,35 C-75,35 -75,-35 -75,-35 C-75,-57.08 -57.08,-75 -35,-75 C-35,-75 35,-75 35,-75 C57.08,-75 75,-57.08 75,-35z "/></g></g></g></g><g id="_R_G_L_10_G_N_3_N_2_T_0" transform=" translate(650, 650) scale(0.93, 0.93) translate(0, 0)"><g id="_R_G_L_10_G_N_3_T_0" transform=" rotate(180.5) scale(0.85, 0.85)"><g id="_R_G_L_10_G" transform=" translate(0, 0) rotate(294.545) translate(0, 4)" class="3"><g id="_R_G_L_10_G_D_0_P_0_G_0_T_0"><path id="_R_G_L_10_G_D_0_P_0" fill="#9ae095" fill-opacity="1" fill-rule="nonzero" d=" M75 -35 C75,-35 75,35 75,35 C75,57.08 57.08,75 35,75 C35,75 -35,75 -35,75 C-57.08,75 -75,57.08 -75,35 C-75,35 -75,-35 -75,-35 C-75,-57.08 -57.08,-75 -35,-75 C-35,-75 35,-75 35,-75 C57.08,-75 75,-57.08 75,-35z "/></g></g></g></g><g id="_R_G_L_9_G_N_3_N_2_T_0" transform=" translate(650, 650) scale(0.93, 0.93) translate(0, 0)"><g id="_R_G_L_9_G_N_3_T_0" transform=" rotate(180.5) scale(0.85, 0.85)"><g id="_R_G_L_9_G" transform=" translate(0, 0) rotate(261.818) translate(0, 4)" class="4"><g id="_R_G_L_9_G_D_0_P_0_G_0_T_0"><path id="_R_G_L_9_G_D_0_P_0" fill="#9ae095" fill-opacity="1" fill-rule="nonzero" d=" M75 -35 C75,-35 75,35 75,35 C75,57.08 57.08,75 35,75 C35,75 -35,75 -35,75 C-57.08,75 -75,57.08 -75,35 C-75,35 -75,-35 -75,-35 C-75,-57.08 -57.08,-75 -35,-75 C-35,-75 35,-75 35,-75 C57.08,-75 75,-57.08 75,-35z "/></g></g></g></g><g id="_R_G_L_8_G_N_3_N_2_T_0" transform=" translate(650, 650) scale(0.93, 0.93) translate(0, 0)"><g id="_R_G_L_8_G_N_3_T_0" transform=" rotate(180.5) scale(0.85, 0.85)"><g id="_R_G_L_8_G" transform=" translate(0, 0) rotate(229.091) translate(0, 4)" class="5"><g id="_R_G_L_8_G_D_0_P_0_G_0_T_0"><path id="_R_G_L_8_G_D_0_P_0" fill="#9ae095" fill-opacity="1" fill-rule="nonzero" d=" M75 -35 C75,-35 75,35 75,35 C75,57.08 57.08,75 35,75 C35,75 -35,75 -35,75 C-57.08,75 -75,57.08 -75,35 C-75,35 -75,-35 -75,-35 C-75,-57.08 -57.08,-75 -35,-75 C-35,-75 35,-75 35,-75 C57.08,-75 75,-57.08 75,-35z "/></g></g></g></g><g id="_R_G_L_7_G_N_3_N_2_T_0" transform=" translate(650, 650) scale(0.93, 0.93) translate(0, 0)"><g id="_R_G_L_7_G_N_3_T_0" transform=" rotate(180.5) scale(0.85, 0.85)"><g id="_R_G_L_7_G" transform=" translate(0, 0) rotate(196.363) translate(0, 4)" class="6"><g id="_R_G_L_7_G_D_0_P_0_G_0_T_0"><path id="_R_G_L_7_G_D_0_P_0" fill="#9ae095" fill-opacity="1" fill-rule="nonzero" d=" M75 -35 C75,-35 75,35 75,35 C75,57.08 57.08,75 35,75 C35,75 -35,75 -35,75 C-57.08,75 -75,57.08 -75,35 C-75,35 -75,-35 -75,-35 C-75,-57.08 -57.08,-75 -35,-75 C-35,-75 35,-75 35,-75 C57.08,-75 75,-57.08 75,-35z "/></g></g></g></g><g id="_R_G_L_6_G_N_3_N_2_T_0" transform=" translate(650, 650) scale(0.93, 0.93) translate(0, 0)"><g id="_R_G_L_6_G_N_3_T_0" transform=" rotate(180.5) scale(0.85, 0.85)"><g id="_R_G_L_6_G" transform=" translate(0, 0) rotate(163.636) translate(0, 4)" class="7"><g id="_R_G_L_6_G_D_0_P_0_G_0_T_0"><path id="_R_G_L_6_G_D_0_P_0" fill="#9ae095" fill-opacity="1" fill-rule="nonzero" d=" M75 -35 C75,-35 75,35 75,35 C75,57.08 57.08,75 35,75 C35,75 -35,75 -35,75 C-57.08,75 -75,57.08 -75,35 C-75,35 -75,-35 -75,-35 C-75,-57.08 -57.08,-75 -35,-75 C-35,-75 35,-75 35,-75 C57.08,-75 75,-57.08 75,-35z "/></g></g></g></g><g id="_R_G_L_5_G_N_3_N_2_T_0" transform=" translate(650, 650) scale(0.93, 0.93) translate(0, 0)"><g id="_R_G_L_5_G_N_3_T_0" transform=" rotate(180.5) scale(0.85, 0.85)"><g id="_R_G_L_5_G" transform=" translate(0, 0) rotate(130.909) translate(0, 4)" class="8"><g id="_R_G_L_5_G_D_0_P_0_G_0_T_0"><path id="_R_G_L_5_G_D_0_P_0" fill="#9ae095" fill-opacity="1" fill-rule="nonzero" d=" M75 -35 C75,-35 75,35 75,35 C75,57.08 57.08,75 35,75 C35,75 -35,75 -35,75 C-57.08,75 -75,57.08 -75,35 C-75,35 -75,-35 -75,-35 C-75,-57.08 -57.08,-75 -35,-75 C-35,-75 35,-75 35,-75 C57.08,-75 75,-57.08 75,-35z "/></g></g></g></g><g id="_R_G_L_4_G_N_3_N_2_T_0" transform=" translate(650, 650) scale(0.93, 0.93) translate(0, 0)"><g id="_R_G_L_4_G_N_3_T_0" transform=" rotate(180.5) scale(0.85, 0.85)"><g id="_R_G_L_4_G" transform=" translate(0, 0) rotate(98.182) translate(0, 4)" class="9"><g id="_R_G_L_4_G_D_0_P_0_G_0_T_0"><path id="_R_G_L_4_G_D_0_P_0" fill="#9ae095" fill-opacity="1" fill-rule="nonzero" d=" M75 -35 C75,-35 75,35 75,35 C75,57.08 57.08,75 35,75 C35,75 -35,75 -35,75 C-57.08,75 -75,57.08 -75,35 C-75,35 -75,-35 -75,-35 C-75,-57.08 -57.08,-75 -35,-75 C-35,-75 35,-75 35,-75 C57.08,-75 75,-57.08 75,-35z "/></g></g></g></g><g id="_R_G_L_3_G_N_3_N_2_T_0" transform=" translate(650, 650) scale(0.93, 0.93) translate(0, 0)"><g id="_R_G_L_3_G_N_3_T_0" transform=" rotate(180.5) scale(0.85, 0.85)"><g id="_R_G_L_3_G" transform=" translate(0, 0) rotate(65.454) translate(0, 4)" class="10"><g id="_R_G_L_3_G_D_0_P_0_G_0_T_0"><path id="_R_G_L_3_G_D_0_P_0" fill="#9ae095" fill-opacity="1" fill-rule="nonzero" d=" M75 -35 C75,-35 75,35 75,35 C75,57.08 57.08,75 35,75 C35,75 -35,75 -35,75 C-57.08,75 -75,57.08 -75,35 C-75,35 -75,-35 -75,-35 C-75,-57.08 -57.08,-75 -35,-75 C-35,-75 35,-75 35,-75 C57.08,-75 75,-57.08 75,-35z "/></g></g></g></g><g id="_R_G_L_2_G_N_3_N_2_T_0" transform=" translate(650, 650) scale(0.93, 0.93) translate(0, 0)"><g id="_R_G_L_2_G_N_3_T_0" transform=" rotate(180.5) scale(0.85, 0.85)"><g id="_R_G_L_2_G" transform=" translate(0, 0) rotate(32.727) translate(0, 4)" class="11"><g id="_R_G_L_2_G_D_0_P_0_G_0_T_0"><path id="_R_G_L_2_G_D_0_P_0" fill="#9ae095" fill-opacity="1" fill-rule="nonzero" d=" M75 -35 C75,-35 75,35 75,35 C75,57.08 57.08,75 35,75 C35,75 -35,75 -35,75 C-57.08,75 -75,57.08 -75,35 C-75,35 -75,-35 -75,-35 C-75,-57.08 -57.08,-75 -35,-75 C-35,-75 35,-75 35,-75 C57.08,-75 75,-57.08 75,-35z "/></g></g></g></g><g id="_R_G_L_1_G_N_4_N_2_T_0" transform=" translate(650, 650) scale(0.93, 0.93) translate(0, 0)"><g id="_R_G_L_1_G_N_4_T_0"><g id="_R_G_L_1_G" transform=" translate(-159.59, 8.792) scale(0.85, 0.85) translate(-5.093, -640.196)"><g id="_R_G_L_1_G_D_0_P_0_G_0_T_0" transform=" translate(5.093, 640.196)"><path id="_R_G_L_1_G_D_0_P_0" fill="#048a0e" fill-opacity="1" fill-rule="nonzero" d=" M75 -35 C75,-35 75,35 75,35 C75,57.08 57.08,75 35,75 C35,75 -35,75 -35,75 C-57.08,75 -75,57.08 -75,35 C-75,35 -75,-35 -75,-35 C-75,-57.08 -57.08,-75 -35,-75 C-35,-75 35,-75 35,-75 C57.08,-75 75,-57.08 75,-35z "/></g></g></g></g><g id="_R_G_L_0_G_N_4_N_2_T_0" transform=" translate(650, 650) scale(0.93, 0.93) translate(0, 0)"><g id="_R_G_L_0_G_N_4_T_0"><g id="_R_G_L_0_G" transform=" translate(159.029, 8.967) scale(0.85, 0.85) translate(-5.093, -640.196)"><g id="_R_G_L_0_G_D_0_P_0_G_0_T_0" transform=" translate(0.792, 640.196)"><path id="_R_G_L_0_G_D_0_P_0" fill="#048a0e" fill-opacity="1" fill-rule="nonzero" d=" M75 -35 C75,-35 75,35 75,35 C75,57.08 57.08,75 35,75 C35,75 -35,75 -35,75 C-57.08,75 -75,57.08 -75,35 C-75,35 -75,-35 -75,-35 C-75,-57.08 -57.08,-75 -35,-75 C-35,-75 35,-75 35,-75 C57.08,-75 75,-57.08 75,-35z "/></g></g></g></g></g><g id="time_group"/></svg>