<svg xmlns="http://www.w3.org/2000/svg" viewBox="0 0 1300 1300" width="1300" height="1300" preserveAspectRatio="xMidYMid meet" style="width: 100%; height: 100%; transform: translate3d(0px, 0px, 0px); content-visibility: visible;">
  <defs>
    <clipPath id="__lottie_element_1355">
      <rect width="1300" height="1300" x="0" y="0"></rect>
    </clipPath>
    <clipPath id="__lottie_element_1357">
      <path d="M0,0 L1300,0 L1300,1300 L0,1300z"></path>
    </clipPath>
  </defs>
  <g clip-path="url(#__lottie_element_1355)">
    <g transform="matrix(0,0,0,0,1233.2044677734375,860.9866943359375)" opacity="1" style="display: block;">
      <g opacity="1" transform="matrix(1,0,0,1,0,0)">
        <path fill="rgb(250,210,252)" fill-opacity="1" d=" M-1.062000036239624,-16.101999282836914 C-1.062000036239624,-16.101999282836914 10.324000358581543,-12.402999877929688 10.324000358581543,-12.402999877929688 C15.050999641418457,-10.866999626159668 17.63800048828125,-5.789000034332275 16.101999282836914,-1.062000036239624 C16.101999282836914,-1.062000036239624 12.402999877929688,10.324000358581543 12.402999877929688,10.324000358581543 C10.866999626159668,15.050999641418457 5.789000034332275,17.63800048828125 1.062000036239624,16.101999282836914 C1.062000036239624,16.101999282836914 -10.324000358581543,12.402999877929688 -10.324000358581543,12.402999877929688 C-15.050999641418457,10.866999626159668 -17.63800048828125,5.789000034332275 -16.101999282836914,1.062000036239624 C-16.101999282836914,1.062000036239624 -12.402999877929688,-10.324000358581543 -12.402999877929688,-10.324000358581543 C-10.866999626159668,-15.050999641418457 -5.789000034332275,-17.63800048828125 -1.062000036239624,-16.101999282836914z"></path>
      </g>
    </g>
    <g transform="matrix(0,0,0,0,1254.7794189453125,510.677734375)" opacity="1" style="display: block;">
      <g opacity="1" transform="matrix(1,0,0,1,0,0)">
        <path fill="rgb(250,210,252)" fill-opacity="1" d=" M-9.614999771118164,-12.960000038146973 C-9.614999771118164,-12.960000038146973 1.9589999914169312,-16.01799964904785 1.9589999914169312,-16.01799964904785 C6.764999866485596,-17.288000106811523 11.6899995803833,-14.420999526977539 12.960000038146973,-9.614999771118164 C12.960000038146973,-9.614999771118164 16.01799964904785,1.9589999914169312 16.01799964904785,1.9589999914169312 C17.288000106811523,6.764999866485596 14.420999526977539,11.6899995803833 9.614999771118164,12.960000038146973 C9.614999771118164,12.960000038146973 -1.9589999914169312,16.01799964904785 -1.9589999914169312,16.01799964904785 C-6.764999866485596,17.288000106811523 -11.6899995803833,14.420999526977539 -12.960000038146973,9.614999771118164 C-12.960000038146973,9.614999771118164 -16.01799964904785,-1.9589999914169312 -16.01799964904785,-1.9589999914169312 C-17.288000106811523,-6.764999866485596 -14.420999526977539,-11.6899995803833 -9.614999771118164,-12.960000038146973z"></path>
      </g>
    </g>
    <g transform="matrix(0,0,0,0,1083.1453857421875,204.53729248046875)" opacity="1" style="display: block;">
      <g opacity="1" transform="matrix(1,0,0,1,0,0)">
        <path fill="rgb(250,210,252)" fill-opacity="1" d=" M-15.102999687194824,-5.684999942779541 C-15.102999687194824,-5.684999942779541 -7.03000020980835,-14.524999618530273 -7.03000020980835,-14.524999618530273 C-3.677999973297119,-18.195999145507812 2.0139999389648438,-18.454999923706055 5.684999942779541,-15.102999687194824 C5.684999942779541,-15.102999687194824 14.524999618530273,-7.03000020980835 14.524999618530273,-7.03000020980835 C18.195999145507812,-3.677999973297119 18.454999923706055,2.0139999389648438 15.102999687194824,5.684999942779541 C15.102999687194824,5.684999942779541 7.03000020980835,14.524999618530273 7.03000020980835,14.524999618530273 C3.677999973297119,18.195999145507812 -2.0139999389648438,18.454999923706055 -5.684999942779541,15.102999687194824 C-5.684999942779541,15.102999687194824 -14.524999618530273,7.03000020980835 -14.524999618530273,7.03000020980835 C-18.195999145507812,3.677999973297119 -18.454999923706055,-2.0139999389648438 -15.102999687194824,-5.684999942779541z"></path>
      </g>
    </g>
    <g transform="matrix(0,0,0,0,773.0435791015625,40.1686897277832)" opacity="1" style="display: block;">
      <g opacity="1" transform="matrix(1,0,0,1,0,0)">
        <path fill="rgb(250,210,252)" fill-opacity="1" d=" M-15.77400016784668,3.4030001163482666 C-15.77400016784668,3.4030001163482666 -13.777999877929688,-8.401000022888184 -13.777999877929688,-8.401000022888184 C-12.949000358581543,-13.302000045776367 -8.303999900817871,-16.60300064086914 -3.4030001163482666,-15.77400016784668 C-3.4030001163482666,-15.77400016784668 8.401000022888184,-13.777999877929688 8.401000022888184,-13.777999877929688 C13.302000045776367,-12.949000358581543 16.60300064086914,-8.303999900817871 15.77400016784668,-3.4030001163482666 C15.77400016784668,-3.4030001163482666 13.777999877929688,8.401000022888184 13.777999877929688,8.401000022888184 C12.949000358581543,13.302000045776367 8.303999900817871,16.60300064086914 3.4030001163482666,15.77400016784668 C3.4030001163482666,15.77400016784668 -8.401000022888184,13.777999877929688 -8.401000022888184,13.777999877929688 C-13.302000045776367,12.949000358581543 -16.60300064086914,8.303999900817871 -15.77400016784668,3.4030001163482666z"></path>
      </g>
    </g>
    <g transform="matrix(0,0,0,0,423.3370666503906,70.00389862060547)" opacity="1" style="display: block;">
      <g opacity="1" transform="matrix(1,0,0,1,0,0)">
        <path fill="rgb(250,210,252)" fill-opacity="1" d=" M-11.416000366210938,11.404999732971191 C-11.416000366210938,11.404999732971191 -16.131999969482422,0.4020000100135803 -16.131999969482422,0.4020000100135803 C-18.09000015258789,-4.166999816894531 -15.973999977111816,-9.458000183105469 -11.404999732971191,-11.416000366210938 C-11.404999732971191,-11.416000366210938 -0.4020000100135803,-16.131999969482422 -0.4020000100135803,-16.131999969482422 C4.166999816894531,-18.09000015258789 9.458000183105469,-15.973999977111816 11.416000366210938,-11.404999732971191 C11.416000366210938,-11.404999732971191 16.131999969482422,-0.4020000100135803 16.131999969482422,-0.4020000100135803 C18.09000015258789,4.166999816894531 15.973999977111816,9.458000183105469 11.404999732971191,11.416000366210938 C11.404999732971191,11.416000366210938 0.4020000100135803,16.131999969482422 0.4020000100135803,16.131999969482422 C-4.166999816894531,18.09000015258789 -9.458000183105469,15.973999977111816 -11.416000366210938,11.404999732971191z"></path>
      </g>
    </g>
    <g transform="matrix(0,0,0,0,145.550048828125,284.5144348144531)" opacity="1" style="display: block;">
      <g opacity="1" transform="matrix(1,0,0,1,0,0)">
        <path fill="rgb(250,210,252)" fill-opacity="1" d=" M-3.4170000553131104,15.770999908447266 C-3.4170000553131104,15.770999908447266 -13.342000007629395,9.07699966430664 -13.342000007629395,9.07699966430664 C-17.46299934387207,6.296999931335449 -18.551000595092773,0.7039999961853027 -15.770999908447266,-3.4170000553131104 C-15.770999908447266,-3.4170000553131104 -9.07699966430664,-13.342000007629395 -9.07699966430664,-13.342000007629395 C-6.296999931335449,-17.46299934387207 -0.7039999961853027,-18.551000595092773 3.4170000553131104,-15.770999908447266 C3.4170000553131104,-15.770999908447266 13.342000007629395,-9.07699966430664 13.342000007629395,-9.07699966430664 C17.46299934387207,-6.296999931335449 18.551000595092773,-0.7039999961853027 15.770999908447266,3.4170000553131104 C15.770999908447266,3.4170000553131104 9.07699966430664,13.342000007629395 9.07699966430664,13.342000007629395 C6.296999931335449,17.46299934387207 0.7039999961853027,18.551000595092773 -3.4170000553131104,15.770999908447266z"></path>
      </g>
    </g>
    <g transform="matrix(0,0,0,0,28.250585556030273,615.3062744140625)" opacity="1" style="display: block;">
      <g opacity="1" transform="matrix(1,0,0,1,0,0)">
        <path fill="rgb(250,210,252)" fill-opacity="1" d=" M5.671000003814697,15.107999801635742 C5.671000003814697,15.107999801635742 -6.297999858856201,14.857000350952148 -6.297999858856201,14.857000350952148 C-11.267000198364258,14.753000259399414 -15.211999893188477,10.640000343322754 -15.107999801635742,5.671000003814697 C-15.107999801635742,5.671000003814697 -14.857000350952148,-6.297999858856201 -14.857000350952148,-6.297999858856201 C-14.753000259399414,-11.267000198364258 -10.640000343322754,-15.211999893188477 -5.671000003814697,-15.107999801635742 C-5.671000003814697,-15.107999801635742 6.297999858856201,-14.857000350952148 6.297999858856201,-14.857000350952148 C11.267000198364258,-14.753000259399414 15.211999893188477,-10.640000343322754 15.107999801635742,-5.671000003814697 C15.107999801635742,-5.671000003814697 14.857000350952148,6.297999858856201 14.857000350952148,6.297999858856201 C14.753000259399414,11.267000198364258 10.640000343322754,15.211999893188477 5.671000003814697,15.107999801635742z"></path>
      </g>
    </g>
    <g transform="matrix(0,0,0,0,108.85025787353516,956.8978271484375)" opacity="1" style="display: block;">
      <g opacity="1" transform="matrix(1,0,0,1,0,0)">
        <path fill="rgb(250,210,252)" fill-opacity="1" d=" M12.951000213623047,9.626999855041504 C12.951000213623047,9.626999855041504 2.753999948501587,15.899999618530273 2.753999948501587,15.899999618530273 C-1.4800000190734863,18.5049991607666 -7.021999835968018,17.184999465942383 -9.626999855041504,12.951000213623047 C-9.626999855041504,12.951000213623047 -15.899999618530273,2.753999948501587 -15.899999618530273,2.753999948501587 C-18.5049991607666,-1.4800000190734863 -17.184999465942383,-7.021999835968018 -12.951000213623047,-9.626999855041504 C-12.951000213623047,-9.626999855041504 -2.753999948501587,-15.899999618530273 -2.753999948501587,-15.899999618530273 C1.4800000190734863,-18.5049991607666 7.021999835968018,-17.184999465942383 9.626999855041504,-12.951000213623047 C9.626999855041504,-12.951000213623047 15.899999618530273,-2.753999948501587 15.899999618530273,-2.753999948501587 C18.5049991607666,1.4800000190734863 17.184999465942383,7.021999835968018 12.951000213623047,9.626999855041504z"></path>
      </g>
    </g>
    <g transform="matrix(0,0,0,0,361.6390380859375,1200.3707275390625)" opacity="1" style="display: block;">
      <g opacity="1" transform="matrix(1,0,0,1,0,0)">
        <path fill="rgb(250,210,252)" fill-opacity="1" d=" M16.10099983215332,1.0770000219345093 C16.10099983215332,1.0770000219345093 10.928000450134277,11.873000144958496 10.928000450134277,11.873000144958496 C8.779999732971191,16.356000900268555 3.4059998989105225,18.249000549316406 -1.0770000219345093,16.10099983215332 C-1.0770000219345093,16.10099983215332 -11.873000144958496,10.928000450134277 -11.873000144958496,10.928000450134277 C-16.356000900268555,8.779999732971191 -18.249000549316406,3.4059998989105225 -16.10099983215332,-1.0770000219345093 C-16.10099983215332,-1.0770000219345093 -10.928000450134277,-11.873000144958496 -10.928000450134277,-11.873000144958496 C-8.779999732971191,-16.356000900268555 -3.4059998989105225,-18.249000549316406 1.0770000219345093,-16.10099983215332 C1.0770000219345093,-16.10099983215332 11.873000144958496,-10.928000450134277 11.873000144958496,-10.928000450134277 C16.356000900268555,-8.779999732971191 18.249000549316406,-3.4059998989105225 16.10099983215332,1.0770000219345093z"></path>
      </g>
    </g>
    <g transform="matrix(0,0,0,0,706.0201416015625,1268.090087890625)" opacity="1" style="display: block;">
      <g opacity="1" transform="matrix(1,0,0,1,0,0)">
        <path fill="rgb(250,210,252)" fill-opacity="1" d=" M14.116999626159668,-7.816999912261963 C14.116999626159668,-7.816999912261963 15.618000030517578,4.059999942779541 15.618000030517578,4.059999942779541 C16.240999221801758,8.991000175476074 12.748000144958496,13.494000434875488 7.816999912261963,14.116999626159668 C7.816999912261963,14.116999626159668 -4.059999942779541,15.618000030517578 -4.059999942779541,15.618000030517578 C-8.991000175476074,16.240999221801758 -13.494000434875488,12.748000144958496 -14.116999626159668,7.816999912261963 C-14.116999626159668,7.816999912261963 -15.618000030517578,-4.059999942779541 -15.618000030517578,-4.059999942779541 C-16.240999221801758,-8.991000175476074 -12.748000144958496,-13.494000434875488 -7.816999912261963,-14.116999626159668 C-7.816999912261963,-14.116999626159668 4.059999942779541,-15.618000030517578 4.059999942779541,-15.618000030517578 C8.991000175476074,-16.240999221801758 13.494000434875488,-12.748000144958496 14.116999626159668,-7.816999912261963z"></path>
      </g>
    </g>
    <g transform="matrix(0,0,0,0,1032.17041015625,1138.455078125)" opacity="1" style="display: block;">
      <g opacity="1" transform="matrix(1,0,0,1,0,0)">
        <path fill="rgb(250,210,252)" fill-opacity="1" d=" M7.631999969482422,-14.218000411987305 C7.631999969482422,-14.218000411987305 15.32699966430664,-5.046999931335449 15.32699966430664,-5.046999931335449 C18.52199935913086,-1.2389999628067017 18.025999069213867,4.436999797821045 14.218000411987305,7.631999969482422 C14.218000411987305,7.631999969482422 5.046999931335449,15.32699966430664 5.046999931335449,15.32699966430664 C1.2389999628067017,18.52199935913086 -4.436999797821045,18.025999069213867 -7.631999969482422,14.218000411987305 C-7.631999969482422,14.218000411987305 -15.32699966430664,5.046999931335449 -15.32699966430664,5.046999931335449 C-18.52199935913086,1.2389999628067017 -18.025999069213867,-4.436999797821045 -14.218000411987305,-7.631999969482422 C-14.218000411987305,-7.631999969482422 -5.046999931335449,-15.32699966430664 -5.046999931335449,-15.32699966430664 C-1.2389999628067017,-18.52199935913086 4.436999797821045,-18.025999069213867 7.631999969482422,-14.218000411987305z"></path>
      </g>
    </g>
    <g transform="matrix(0,0,0,0,1174.680419921875,980.6860961914062)" opacity="1" style="display: block;">
      <g opacity="1" transform="matrix(1,0,0,1,0,0)">
        <path fill="rgb(250,210,252)" fill-opacity="1" d=" M-1.062000036239624,-16.101999282836914 C-1.062000036239624,-16.101999282836914 10.324000358581543,-12.402999877929688 10.324000358581543,-12.402999877929688 C15.050999641418457,-10.866999626159668 17.63800048828125,-5.789000034332275 16.101999282836914,-1.062000036239624 C16.101999282836914,-1.062000036239624 12.402999877929688,10.324000358581543 12.402999877929688,10.324000358581543 C10.866999626159668,15.050999641418457 5.789000034332275,17.63800048828125 1.062000036239624,16.101999282836914 C1.062000036239624,16.101999282836914 -10.324000358581543,12.402999877929688 -10.324000358581543,12.402999877929688 C-15.050999641418457,10.866999626159668 -17.63800048828125,5.789000034332275 -16.101999282836914,1.062000036239624 C-16.101999282836914,1.062000036239624 -12.402999877929688,-10.324000358581543 -12.402999877929688,-10.324000358581543 C-10.866999626159668,-15.050999641418457 -5.789000034332275,-17.63800048828125 -1.062000036239624,-16.101999282836914z"></path>
      </g>
    </g>
    <g transform="matrix(0,0,0,0,1270.5810546875,643.0696411132812)" opacity="1" style="display: block;">
      <g opacity="1" transform="matrix(1,0,0,1,0,0)">
        <path fill="rgb(250,210,252)" fill-opacity="1" d=" M-9.614999771118164,-12.960000038146973 C-9.614999771118164,-12.960000038146973 1.9589999914169312,-16.01799964904785 1.9589999914169312,-16.01799964904785 C6.764999866485596,-17.288000106811523 11.6899995803833,-14.420999526977539 12.960000038146973,-9.614999771118164 C12.960000038146973,-9.614999771118164 16.01799964904785,1.9589999914169312 16.01799964904785,1.9589999914169312 C17.288000106811523,6.764999866485596 14.420999526977539,11.6899995803833 9.614999771118164,12.960000038146973 C9.614999771118164,12.960000038146973 -1.9589999914169312,16.01799964904785 -1.9589999914169312,16.01799964904785 C-6.764999866485596,17.288000106811523 -11.6899995803833,14.420999526977539 -12.960000038146973,9.614999771118164 C-12.960000038146973,9.614999771118164 -16.01799964904785,-1.9589999914169312 -16.01799964904785,-1.9589999914169312 C-17.288000106811523,-6.764999866485596 -14.420999526977539,-11.6899995803833 -9.614999771118164,-12.960000038146973z"></path>
      </g>
    </g>
    <g transform="matrix(0,0,0,0,1168.29736328125,307.334228515625)" opacity="1" style="display: block;">
      <g opacity="1" transform="matrix(1,0,0,1,0,0)">
        <path fill="rgb(250,210,252)" fill-opacity="1" d=" M-15.102999687194824,-5.684999942779541 C-15.102999687194824,-5.684999942779541 -7.03000020980835,-14.524999618530273 -7.03000020980835,-14.524999618530273 C-3.677999973297119,-18.195999145507812 2.0139999389648438,-18.454999923706055 5.684999942779541,-15.102999687194824 C5.684999942779541,-15.102999687194824 14.524999618530273,-7.03000020980835 14.524999618530273,-7.03000020980835 C18.195999145507812,-3.677999973297119 18.454999923706055,2.0139999389648438 15.102999687194824,5.684999942779541 C15.102999687194824,5.684999942779541 7.03000020980835,14.524999618530273 7.03000020980835,14.524999618530273 C3.677999973297119,18.195999145507812 -2.0139999389648438,18.454999923706055 -5.684999942779541,15.102999687194824 C-5.684999942779541,15.102999687194824 -14.524999618530273,7.03000020980835 -14.524999618530273,7.03000020980835 C-18.195999145507812,3.677999973297119 -18.454999923706055,-2.0139999389648438 -15.102999687194824,-5.684999942779541z"></path>
      </g>
    </g>
    <g transform="matrix(0,0,0,0,900.4598388671875,80.52318572998047)" opacity="1" style="display: block;">
      <g opacity="1" transform="matrix(1,0,0,1,0,0)">
        <path fill="rgb(250,210,252)" fill-opacity="1" d=" M-15.77400016784668,3.4030001163482666 C-15.77400016784668,3.4030001163482666 -13.777999877929688,-8.401000022888184 -13.777999877929688,-8.401000022888184 C-12.949000358581543,-13.302000045776367 -8.303999900817871,-16.60300064086914 -3.4030001163482666,-15.77400016784668 C-3.4030001163482666,-15.77400016784668 8.401000022888184,-13.777999877929688 8.401000022888184,-13.777999877929688 C13.302000045776367,-12.949000358581543 16.60300064086914,-8.303999900817871 15.77400016784668,-3.4030001163482666 C15.77400016784668,-3.4030001163482666 13.777999877929688,8.401000022888184 13.777999877929688,8.401000022888184 C12.949000358581543,13.302000045776367 8.303999900817871,16.60300064086914 3.4030001163482666,15.77400016784668 C3.4030001163482666,15.77400016784668 -8.401000022888184,13.777999877929688 -8.401000022888184,13.777999877929688 C-13.302000045776367,12.949000358581543 -16.60300064086914,8.303999900817871 -15.77400016784668,3.4030001163482666z"></path>
      </g>
    </g>
    <g transform="matrix(0,0,0,0,552.4509887695312,34.97498321533203)" opacity="1" style="display: block;">
      <g opacity="1" transform="matrix(1,0,0,1,0,0)">
        <path fill="rgb(250,210,252)" fill-opacity="1" d=" M-11.416000366210938,11.404999732971191 C-11.416000366210938,11.404999732971191 -16.131999969482422,0.4020000100135803 -16.131999969482422,0.4020000100135803 C-18.09000015258789,-4.166999816894531 -15.973999977111816,-9.458000183105469 -11.404999732971191,-11.416000366210938 C-11.404999732971191,-11.416000366210938 -0.4020000100135803,-16.131999969482422 -0.4020000100135803,-16.131999969482422 C4.166999816894531,-18.09000015258789 9.458000183105469,-15.973999977111816 11.416000366210938,-11.404999732971191 C11.416000366210938,-11.404999732971191 16.131999969482422,-0.4020000100135803 16.131999969482422,-0.4020000100135803 C18.09000015258789,4.166999816894531 15.973999977111816,9.458000183105469 11.404999732971191,11.416000366210938 C11.404999732971191,11.416000366210938 0.4020000100135803,16.131999969482422 0.4020000100135803,16.131999969482422 C-4.166999816894531,18.09000015258789 -9.458000183105469,15.973999977111816 -11.416000366210938,11.404999732971191z"></path>
      </g>
    </g>
    <g transform="matrix(0,0,0,0,235.2565460205078,185.2018280029297)" opacity="1" style="display: block;">
      <g opacity="1" transform="matrix(1,0,0,1,0,0)">
        <path fill="rgb(250,210,252)" fill-opacity="1" d=" M-3.4170000553131104,15.770999908447266 C-3.4170000553131104,15.770999908447266 -13.342000007629395,9.07699966430664 -13.342000007629395,9.07699966430664 C-17.46299934387207,6.296999931335449 -18.551000595092773,0.7039999961853027 -15.770999908447266,-3.4170000553131104 C-15.770999908447266,-3.4170000553131104 -9.07699966430664,-13.342000007629395 -9.07699966430664,-13.342000007629395 C-6.296999931335449,-17.46299934387207 -0.7039999961853027,-18.551000595092773 3.4170000553131104,-15.770999908447266 C3.4170000553131104,-15.770999908447266 13.342000007629395,-9.07699966430664 13.342000007629395,-9.07699966430664 C17.46299934387207,-6.296999931335449 18.551000595092773,-0.7039999961853027 15.770999908447266,3.4170000553131104 C15.770999908447266,3.4170000553131104 9.07699966430664,13.342000007629395 9.07699966430664,13.342000007629395 C6.296999931335449,17.46299934387207 0.7039999961853027,18.551000595092773 -3.4170000553131104,15.770999908447266z"></path>
      </g>
    </g>
    <g transform="matrix(0,0,0,0,50.009193420410156,483.3055725097656)" opacity="1" style="display: block;">
      <g opacity="1" transform="matrix(1,0,0,1,0,0)">
        <path fill="rgb(250,210,252)" fill-opacity="1" d=" M5.671000003814697,15.107999801635742 C5.671000003814697,15.107999801635742 -6.297999858856201,14.857000350952148 -6.297999858856201,14.857000350952148 C-11.267000198364258,14.753000259399414 -15.211999893188477,10.640000343322754 -15.107999801635742,5.671000003814697 C-15.107999801635742,5.671000003814697 -14.857000350952148,-6.297999858856201 -14.857000350952148,-6.297999858856201 C-14.753000259399414,-11.267000198364258 -10.640000343322754,-15.211999893188477 -5.671000003814697,-15.107999801635742 C-5.671000003814697,-15.107999801635742 6.297999858856201,-14.857000350952148 6.297999858856201,-14.857000350952148 C11.267000198364258,-14.753000259399414 15.211999893188477,-10.640000343322754 15.107999801635742,-5.671000003814697 C15.107999801635742,-5.671000003814697 14.857000350952148,6.297999858856201 14.857000350952148,6.297999858856201 C14.753000259399414,11.267000198364258 10.640000343322754,15.211999893188477 5.671000003814697,15.107999801635742z"></path>
      </g>
    </g>
    <g transform="matrix(0,0,0,0,55.78726577758789,834.2296142578125)" opacity="1" style="display: block;">
      <g opacity="1" transform="matrix(1,0,0,1,0,0)">
        <path fill="rgb(250,210,252)" fill-opacity="1" d=" M12.951000213623047,9.626999855041504 C12.951000213623047,9.626999855041504 2.753999948501587,15.899999618530273 2.753999948501587,15.899999618530273 C-1.4800000190734863,18.5049991607666 -7.021999835968018,17.184999465942383 -9.626999855041504,12.951000213623047 C-9.626999855041504,12.951000213623047 -15.899999618530273,2.753999948501587 -15.899999618530273,2.753999948501587 C-18.5049991607666,-1.4800000190734863 -17.184999465942383,-7.021999835968018 -12.951000213623047,-9.626999855041504 C-12.951000213623047,-9.626999855041504 -2.753999948501587,-15.899999618530273 -2.753999948501587,-15.899999618530273 C1.4800000190734863,-18.5049991607666 7.021999835968018,-17.184999465942383 9.626999855041504,-12.951000213623047 C9.626999855041504,-12.951000213623047 15.899999618530273,-2.753999948501587 15.899999618530273,-2.753999948501587 C18.5049991607666,1.4800000190734863 17.184999465942383,7.021999835968018 12.951000213623047,9.626999855041504z"></path>
      </g>
    </g>
    <g transform="matrix(0,0,0,0,250.7382354736328,1126.0777587890625)" opacity="1" style="display: block;">
      <g opacity="1" transform="matrix(1,0,0,1,0,0)">
        <path fill="rgb(250,210,252)" fill-opacity="1" d=" M16.10099983215332,1.0770000219345093 C16.10099983215332,1.0770000219345093 10.928000450134277,11.873000144958496 10.928000450134277,11.873000144958496 C8.779999732971191,16.356000900268555 3.4059998989105225,18.249000549316406 -1.0770000219345093,16.10099983215332 C-1.0770000219345093,16.10099983215332 -11.873000144958496,10.928000450134277 -11.873000144958496,10.928000450134277 C-16.356000900268555,8.779999732971191 -18.249000549316406,3.4059998989105225 -16.10099983215332,-1.0770000219345093 C-16.10099983215332,-1.0770000219345093 -10.928000450134277,-11.873000144958496 -10.928000450134277,-11.873000144958496 C-8.779999732971191,-16.356000900268555 -3.4059998989105225,-18.249000549316406 1.0770000219345093,-16.10099983215332 C1.0770000219345093,-16.10099983215332 11.873000144958496,-10.928000450134277 11.873000144958496,-10.928000450134277 C16.356000900268555,-8.779999732971191 18.249000549316406,-3.4059998989105225 16.10099983215332,1.0770000219345093z"></path>
      </g>
    </g>
    <g transform="matrix(0,0,0,0,572.7075805664062,1265.7918701171875)" opacity="1" style="display: block;">
      <g opacity="1" transform="matrix(1,0,0,1,0,0)">
        <path fill="rgb(250,210,252)" fill-opacity="1" d=" M14.116999626159668,-7.816999912261963 C14.116999626159668,-7.816999912261963 15.618000030517578,4.059999942779541 15.618000030517578,4.059999942779541 C16.240999221801758,8.991000175476074 12.748000144958496,13.494000434875488 7.816999912261963,14.116999626159668 C7.816999912261963,14.116999626159668 -4.059999942779541,15.618000030517578 -4.059999942779541,15.618000030517578 C-8.991000175476074,16.240999221801758 -13.494000434875488,12.748000144958496 -14.116999626159668,7.816999912261963 C-14.116999626159668,7.816999912261963 -15.618000030517578,-4.059999942779541 -15.618000030517578,-4.059999942779541 C-16.240999221801758,-8.991000175476074 -12.748000144958496,-13.494000434875488 -7.816999912261963,-14.116999626159668 C-7.816999912261963,-14.116999626159668 4.059999942779541,-15.618000030517578 4.059999942779541,-15.618000030517578 C8.991000175476074,-16.240999221801758 13.494000434875488,-12.748000144958496 14.116999626159668,-7.816999912261963z"></path>
      </g>
    </g>
    <g transform="matrix(0,0,0,0,919.0203857421875,1208.8118896484375)" opacity="1" style="display: block;">
      <g opacity="1" transform="matrix(1,0,0,1,0,0)">
        <path fill="rgb(250,210,252)" fill-opacity="1" d=" M7.631999969482422,-14.218000411987305 C7.631999969482422,-14.218000411987305 15.32699966430664,-5.046999931335449 15.32699966430664,-5.046999931335449 C18.52199935913086,-1.2389999628067017 18.025999069213867,4.436999797821045 14.218000411987305,7.631999969482422 C14.218000411987305,7.631999969482422 5.046999931335449,15.32699966430664 5.046999931335449,15.32699966430664 C1.2389999628067017,18.52199935913086 -4.436999797821045,18.025999069213867 -7.631999969482422,14.218000411987305 C-7.631999969482422,14.218000411987305 -15.32699966430664,5.046999931335449 -15.32699966430664,5.046999931335449 C-18.52199935913086,1.2389999628067017 -18.025999069213867,-4.436999797821045 -14.218000411987305,-7.631999969482422 C-14.218000411987305,-7.631999969482422 -5.046999931335449,-15.32699966430664 -5.046999931335449,-15.32699966430664 C-1.2389999628067017,-18.52199935913086 4.436999797821045,-18.025999069213867 7.631999969482422,-14.218000411987305z"></path>
      </g>
    </g>
    <g transform="matrix(3.340655565261841,2.205601930618286,-2.205601930618286,3.340655565261841,1043.05126953125,331.97076416015625)" opacity="1" style="display: block;">
      <g opacity="1" transform="matrix(1,0,0,1,0,0)">
        <path fill="rgb(221,4,168)" fill-opacity="1" d=" M-1.062000036239624,-16.101999282836914 C-1.062000036239624,-16.101999282836914 10.324000358581543,-12.402999877929688 10.324000358581543,-12.402999877929688 C15.050999641418457,-10.866999626159668 17.63800048828125,-5.789000034332275 16.101999282836914,-1.062000036239624 C16.101999282836914,-1.062000036239624 12.402999877929688,10.324000358581543 12.402999877929688,10.324000358581543 C10.866999626159668,15.050999641418457 5.789000034332275,17.63800048828125 1.062000036239624,16.101999282836914 C1.062000036239624,16.101999282836914 -10.324000358581543,12.402999877929688 -10.324000358581543,12.402999877929688 C-15.050999641418457,10.866999626159668 -17.63800048828125,5.789000034332275 -16.101999282836914,1.062000036239624 C-16.101999282836914,1.062000036239624 -12.402999877929688,-10.324000358581543 -12.402999877929688,-10.324000358581543 C-10.866999626159668,-15.050999641418457 -5.789000034332275,-17.63800048828125 -1.062000036239624,-16.101999282836914z"></path>
      </g>
    </g>
    <g transform="matrix(3.340655565261841,2.205601930618286,-2.205601930618286,3.340655565261841,807.6989135742188,169.25830078125)" opacity="1" style="display: block;">
      <g opacity="1" transform="matrix(1,0,0,1,0,0)">
        <path fill="rgb(221,4,168)" fill-opacity="1" d=" M-9.614999771118164,-12.960000038146973 C-9.614999771118164,-12.960000038146973 1.9589999914169312,-16.01799964904785 1.9589999914169312,-16.01799964904785 C6.764999866485596,-17.288000106811523 11.6899995803833,-14.420999526977539 12.960000038146973,-9.614999771118164 C12.960000038146973,-9.614999771118164 16.01799964904785,1.9589999914169312 16.01799964904785,1.9589999914169312 C17.288000106811523,6.764999866485596 14.420999526977539,11.6899995803833 9.614999771118164,12.960000038146973 C9.614999771118164,12.960000038146973 -1.9589999914169312,16.01799964904785 -1.9589999914169312,16.01799964904785 C-6.764999866485596,17.288000106811523 -11.6899995803833,14.420999526977539 -12.960000038146973,9.614999771118164 C-12.960000038146973,9.614999771118164 -16.01799964904785,-1.9589999914169312 -16.01799964904785,-1.9589999914169312 C-17.288000106811523,-6.764999866485596 -14.420999526977539,-11.6899995803833 -9.614999771118164,-12.960000038146973z"></path>
      </g>
    </g>
    <g transform="matrix(3.340655565261841,2.205601930618286,-2.205601930618286,3.340655565261841,521.7285766601562,159.98477172851562)" opacity="1" style="display: block;">
      <g opacity="1" transform="matrix(1,0,0,1,0,0)">
        <path fill="rgb(221,4,168)" fill-opacity="1" d=" M-15.102999687194824,-5.684999942779541 C-15.102999687194824,-5.684999942779541 -7.03000020980835,-14.524999618530273 -7.03000020980835,-14.524999618530273 C-3.677999973297119,-18.195999145507812 2.0139999389648438,-18.454999923706055 5.684999942779541,-15.102999687194824 C5.684999942779541,-15.102999687194824 14.524999618530273,-7.03000020980835 14.524999618530273,-7.03000020980835 C18.195999145507812,-3.677999973297119 18.454999923706055,2.0139999389648438 15.102999687194824,5.684999942779541 C15.102999687194824,5.684999942779541 7.03000020980835,14.524999618530273 7.03000020980835,14.524999618530273 C3.677999973297119,18.195999145507812 -2.0139999389648438,18.454999923706055 -5.684999942779541,15.102999687194824 C-5.684999942779541,15.102999687194824 -14.524999618530273,7.03000020980835 -14.524999618530273,7.03000020980835 C-18.195999145507812,3.677999973297119 -18.454999923706055,-2.0139999389648438 -15.102999687194824,-5.684999942779541z"></path>
      </g>
    </g>
    <g transform="matrix(3.340655565261841,2.205601930618286,-2.205601930618286,3.340655565261841,276.3219299316406,307.0921630859375)" opacity="1" style="display: block;">
      <g opacity="1" transform="matrix(1,0,0,1,0,0)">
        <path fill="rgb(221,4,168)" fill-opacity="1" d=" M-15.77400016784668,3.4030001163482666 C-15.77400016784668,3.4030001163482666 -13.777999877929688,-8.401000022888184 -13.777999877929688,-8.401000022888184 C-12.949000358581543,-13.302000045776367 -8.303999900817871,-16.60300064086914 -3.4030001163482666,-15.77400016784668 C-3.4030001163482666,-15.77400016784668 8.401000022888184,-13.777999877929688 8.401000022888184,-13.777999877929688 C13.302000045776367,-12.949000358581543 16.60300064086914,-8.303999900817871 15.77400016784668,-3.4030001163482666 C15.77400016784668,-3.4030001163482666 13.777999877929688,8.401000022888184 13.777999877929688,8.401000022888184 C12.949000358581543,13.302000045776367 8.303999900817871,16.60300064086914 3.4030001163482666,15.77400016784668 C3.4030001163482666,15.77400016784668 -8.401000022888184,13.777999877929688 -8.401000022888184,13.777999877929688 C-13.302000045776367,12.949000358581543 -16.60300064086914,8.303999900817871 -15.77400016784668,3.4030001163482666z"></path>
      </g>
    </g>
    <g transform="matrix(3.340655565261841,2.205601930618286,-2.205601930618286,3.340655565261841,149.7375030517578,563.6939697265625)" opacity="1" style="display: block;">
      <g opacity="1" transform="matrix(1,0,0,1,0,0)">
        <path fill="rgb(221,4,168)" fill-opacity="1" d=" M-11.416000366210938,11.404999732971191 C-11.416000366210938,11.404999732971191 -16.131999969482422,0.4020000100135803 -16.131999969482422,0.4020000100135803 C-18.09000015258789,-4.166999816894531 -15.973999977111816,-9.458000183105469 -11.404999732971191,-11.416000366210938 C-11.404999732971191,-11.416000366210938 -0.4020000100135803,-16.131999969482422 -0.4020000100135803,-16.131999969482422 C4.166999816894531,-18.09000015258789 9.458000183105469,-15.973999977111816 11.416000366210938,-11.404999732971191 C11.416000366210938,-11.404999732971191 16.131999969482422,-0.4020000100135803 16.131999969482422,-0.4020000100135803 C18.09000015258789,4.166999816894531 15.973999977111816,9.458000183105469 11.404999732971191,11.416000366210938 C11.404999732971191,11.416000366210938 0.4020000100135803,16.131999969482422 0.4020000100135803,16.131999969482422 C-4.166999816894531,18.09000015258789 -9.458000183105469,15.973999977111816 -11.416000366210938,11.404999732971191z"></path>
      </g>
    </g>
    <g transform="matrix(3.340655565261841,2.205601930618286,-2.205601930618286,3.340655565261841,182.33450317382812,847.951904296875)" opacity="1" style="display: block;">
      <g opacity="1" transform="matrix(1,0,0,1,0,0)">
        <path fill="rgb(221,4,168)" fill-opacity="1" d=" M-3.4170000553131104,15.770999908447266 C-3.4170000553131104,15.770999908447266 -13.342000007629395,9.07699966430664 -13.342000007629395,9.07699966430664 C-17.46299934387207,6.296999931335449 -18.551000595092773,0.7039999961853027 -15.770999908447266,-3.4170000553131104 C-15.770999908447266,-3.4170000553131104 -9.07699966430664,-13.342000007629395 -9.07699966430664,-13.342000007629395 C-6.296999931335449,-17.46299934387207 -0.7039999961853027,-18.551000595092773 3.4170000553131104,-15.770999908447266 C3.4170000553131104,-15.770999908447266 13.342000007629395,-9.07699966430664 13.342000007629395,-9.07699966430664 C17.46299934387207,-6.296999931335449 18.551000595092773,-0.7039999961853027 15.770999908447266,3.4170000553131104 C15.770999908447266,3.4170000553131104 9.07699966430664,13.342000007629395 9.07699966430664,13.342000007629395 C6.296999931335449,17.46299934387207 0.7039999961853027,18.551000595092773 -3.4170000553131104,15.770999908447266z"></path>
      </g>
    </g>
    <g transform="matrix(3.340655565261841,2.205601930618286,-2.205601930618286,3.340655565261841,363.7193908691406,1069.234619140625)" opacity="1" style="display: block;">
      <g opacity="1" transform="matrix(1,0,0,1,0,0)">
        <path fill="rgb(221,4,168)" fill-opacity="1" d=" M5.671000003814697,15.107999801635742 C5.671000003814697,15.107999801635742 -6.297999858856201,14.857000350952148 -6.297999858856201,14.857000350952148 C-11.267000198364258,14.753000259399414 -15.211999893188477,10.640000343322754 -15.107999801635742,5.671000003814697 C-15.107999801635742,5.671000003814697 -14.857000350952148,-6.297999858856201 -14.857000350952148,-6.297999858856201 C-14.753000259399414,-11.267000198364258 -10.640000343322754,-15.211999893188477 -5.671000003814697,-15.107999801635742 C-5.671000003814697,-15.107999801635742 6.297999858856201,-14.857000350952148 6.297999858856201,-14.857000350952148 C11.267000198364258,-14.753000259399414 15.211999893188477,-10.640000343322754 15.107999801635742,-5.671000003814697 C15.107999801635742,-5.671000003814697 14.857000350952148,6.297999858856201 14.857000350952148,6.297999858856201 C14.753000259399414,11.267000198364258 10.640000343322754,15.211999893188477 5.671000003814697,15.107999801635742z"></path>
      </g>
    </g>
    <g transform="matrix(3.340655565261841,2.205601930618286,-2.205601930618286,3.340655565261841,636.0560302734375,1156.974853515625)" opacity="1" style="display: block;">
      <g opacity="1" transform="matrix(1,0,0,1,0,0)">
        <path fill="rgb(221,4,168)" fill-opacity="1" d=" M12.951000213623047,9.626999855041504 C12.951000213623047,9.626999855041504 2.753999948501587,15.899999618530273 2.753999948501587,15.899999618530273 C-1.4800000190734863,18.5049991607666 -7.021999835968018,17.184999465942383 -9.626999855041504,12.951000213623047 C-9.626999855041504,12.951000213623047 -15.899999618530273,2.753999948501587 -15.899999618530273,2.753999948501587 C-18.5049991607666,-1.4800000190734863 -17.184999465942383,-7.021999835968018 -12.951000213623047,-9.626999855041504 C-12.951000213623047,-9.626999855041504 -2.753999948501587,-15.899999618530273 -2.753999948501587,-15.899999618530273 C1.4800000190734863,-18.5049991607666 7.021999835968018,-17.184999465942383 9.626999855041504,-12.951000213623047 C9.626999855041504,-12.951000213623047 15.899999618530273,-2.753999948501587 15.899999618530273,-2.753999948501587 C18.5049991607666,1.4800000190734863 17.184999465942383,7.021999835968018 12.951000213623047,9.626999855041504z"></path>
      </g>
    </g>
    <g transform="matrix(3.340655565261841,2.205601930618286,-2.205601930618286,3.340655565261841,912.5040283203125,1083.20361328125)" opacity="1" style="display: block;">
      <g opacity="1" transform="matrix(1,0,0,1,0,0)">
        <path fill="rgb(221,4,168)" fill-opacity="1" d=" M16.10099983215332,1.0770000219345093 C16.10099983215332,1.0770000219345093 10.928000450134277,11.873000144958496 10.928000450134277,11.873000144958496 C8.779999732971191,16.356000900268555 3.4059998989105225,18.249000549316406 -1.0770000219345093,16.10099983215332 C-1.0770000219345093,16.10099983215332 -11.873000144958496,10.928000450134277 -11.873000144958496,10.928000450134277 C-16.356000900268555,8.779999732971191 -18.249000549316406,3.4059998989105225 -16.10099983215332,-1.0770000219345093 C-16.10099983215332,-1.0770000219345093 -10.928000450134277,-11.873000144958496 -10.928000450134277,-11.873000144958496 C-8.779999732971191,-16.356000900268555 -3.4059998989105225,-18.249000549316406 1.0770000219345093,-16.10099983215332 C1.0770000219345093,-16.10099983215332 11.873000144958496,-10.928000450134277 11.873000144958496,-10.928000450134277 C16.356000900268555,-8.779999732971191 18.249000549316406,-3.4059998989105225 16.10099983215332,1.0770000219345093z"></path>
      </g>
    </g>
    <g transform="matrix(3.340655565261841,2.205601930618286,-2.205601930618286,3.340655565261841,1104.9176025390625,871.4378662109375)" opacity="1" style="display: block;">
      <g opacity="1" transform="matrix(1,0,0,1,0,0)">
        <path fill="rgb(221,4,168)" fill-opacity="1" d=" M14.116999626159668,-7.816999912261963 C14.116999626159668,-7.816999912261963 15.618000030517578,4.059999942779541 15.618000030517578,4.059999942779541 C16.240999221801758,8.991000175476074 12.748000144958496,13.494000434875488 7.816999912261963,14.116999626159668 C7.816999912261963,14.116999626159668 -4.059999942779541,15.618000030517578 -4.059999942779541,15.618000030517578 C-8.991000175476074,16.240999221801758 -13.494000434875488,12.748000144958496 -14.116999626159668,7.816999912261963 C-14.116999626159668,7.816999912261963 -15.618000030517578,-4.059999942779541 -15.618000030517578,-4.059999942779541 C-16.240999221801758,-8.991000175476074 -12.748000144958496,-13.494000434875488 -7.816999912261963,-14.116999626159668 C-7.816999912261963,-14.116999626159668 4.059999942779541,-15.618000030517578 4.059999942779541,-15.618000030517578 C8.991000175476074,-16.240999221801758 13.494000434875488,-12.748000144958496 14.116999626159668,-7.816999912261963z"></path>
      </g>
    </g>
    <g transform="matrix(3.340655565261841,2.205601930618286,-2.205601930618286,3.340655565261841,1151.932373046875,589.2074584960938)" opacity="1" style="display: block;">
      <g opacity="1" transform="matrix(1,0,0,1,0,0)">
        <path fill="rgb(221,4,168)" fill-opacity="1" d=" M7.631999969482422,-14.218000411987305 C7.631999969482422,-14.218000411987305 15.32699966430664,-5.046999931335449 15.32699966430664,-5.046999931335449 C18.52199935913086,-1.2389999628067017 18.025999069213867,4.436999797821045 14.218000411987305,7.631999969482422 C14.218000411987305,7.631999969482422 5.046999931335449,15.32699966430664 5.046999931335449,15.32699966430664 C1.2389999628067017,18.52199935913086 -4.436999797821045,18.025999069213867 -7.631999969482422,14.218000411987305 C-7.631999969482422,14.218000411987305 -15.32699966430664,5.046999931335449 -15.32699966430664,5.046999931335449 C-18.52199935913086,1.2389999628067017 -18.025999069213867,-4.436999797821045 -14.218000411987305,-7.631999969482422 C-14.218000411987305,-7.631999969482422 -5.046999931335449,-15.32699966430664 -5.046999931335449,-15.32699966430664 C-1.2389999628067017,-18.52199935913086 4.436999797821045,-18.025999069213867 7.631999969482422,-14.218000411987305z"></path>
      </g>
    </g>
    <g transform="matrix(3.9564287662506104,-0.5736548900604248,0.5736548900604248,3.9564287662506104,712.5662231445312,269.5414123535156)" opacity="1" style="display: block;">
      <g opacity="1" transform="matrix(1,0,0,1,0,0)">
        <path fill="rgb(247,151,239)" fill-opacity="1" d=" M-1.062000036239624,-16.101999282836914 C-1.062000036239624,-16.101999282836914 10.324000358581543,-12.402999877929688 10.324000358581543,-12.402999877929688 C15.050999641418457,-10.866999626159668 17.63800048828125,-5.789000034332275 16.101999282836914,-1.062000036239624 C16.101999282836914,-1.062000036239624 12.402999877929688,10.324000358581543 12.402999877929688,10.324000358581543 C10.866999626159668,15.050999641418457 5.789000034332275,17.63800048828125 1.062000036239624,16.101999282836914 C1.062000036239624,16.101999282836914 -10.324000358581543,12.402999877929688 -10.324000358581543,12.402999877929688 C-15.050999641418457,10.866999626159668 -17.63800048828125,5.789000034332275 -16.101999282836914,1.062000036239624 C-16.101999282836914,1.062000036239624 -12.402999877929688,-10.324000358581543 -12.402999877929688,-10.324000358581543 C-10.866999626159668,-15.050999641418457 -5.789000034332275,-17.63800048828125 -1.062000036239624,-16.101999282836914z"></path>
      </g>
    </g>
    <g transform="matrix(3.9564287662506104,-0.5736548900604248,0.5736548900604248,3.9564287662506104,496.0087585449219,296.22991943359375)" opacity="1" style="display: block;">
      <g opacity="1" transform="matrix(1,0,0,1,0,0)">
        <path fill="rgb(247,151,239)" fill-opacity="1" d=" M-9.614999771118164,-12.960000038146973 C-9.614999771118164,-12.960000038146973 1.9589999914169312,-16.01799964904785 1.9589999914169312,-16.01799964904785 C6.764999866485596,-17.288000106811523 11.6899995803833,-14.420999526977539 12.960000038146973,-9.614999771118164 C12.960000038146973,-9.614999771118164 16.01799964904785,1.9589999914169312 16.01799964904785,1.9589999914169312 C17.288000106811523,6.764999866485596 14.420999526977539,11.6899995803833 9.614999771118164,12.960000038146973 C9.614999771118164,12.960000038146973 -1.9589999914169312,16.01799964904785 -1.9589999914169312,16.01799964904785 C-6.764999866485596,17.288000106811523 -11.6899995803833,14.420999526977539 -12.960000038146973,9.614999771118164 C-12.960000038146973,9.614999771118164 -16.01799964904785,-1.9589999914169312 -16.01799964904785,-1.9589999914169312 C-17.288000106811523,-6.764999866485596 -14.420999526977539,-11.6899995803833 -9.614999771118164,-12.960000038146973z"></path>
      </g>
    </g>
    <g transform="matrix(3.9564287662506104,-0.5736548900604248,0.5736548900604248,3.9564287662506104,328.4386291503906,435.9761657714844)" opacity="1" style="display: block;">
      <g opacity="1" transform="matrix(1,0,0,1,0,0)">
        <path fill="rgb(247,151,239)" fill-opacity="1" d=" M-15.102999687194824,-5.684999942779541 C-15.102999687194824,-5.684999942779541 -7.03000020980835,-14.524999618530273 -7.03000020980835,-14.524999618530273 C-3.677999973297119,-18.195999145507812 2.0139999389648438,-18.454999923706055 5.684999942779541,-15.102999687194824 C5.684999942779541,-15.102999687194824 14.524999618530273,-7.03000020980835 14.524999618530273,-7.03000020980835 C18.195999145507812,-3.677999973297119 18.454999923706055,2.0139999389648438 15.102999687194824,5.684999942779541 C15.102999687194824,5.684999942779541 7.03000020980835,14.524999618530273 7.03000020980835,14.524999618530273 C3.677999973297119,18.195999145507812 -2.0139999389648438,18.454999923706055 -5.684999942779541,15.102999687194824 C-5.684999942779541,15.102999687194824 -14.524999618530273,7.03000020980835 -14.524999618530273,7.03000020980835 C-18.195999145507812,3.677999973297119 -18.454999923706055,-2.0139999389648438 -15.102999687194824,-5.684999942779541z"></path>
      </g>
    </g>
    <g transform="matrix(3.9564287662506104,-0.5736548900604248,0.5736548900604248,3.9564287662506104,263.2779235839844,644.2136840820312)" opacity="1" style="display: block;">
      <g opacity="1" transform="matrix(1,0,0,1,0,0)">
        <path fill="rgb(247,151,239)" fill-opacity="1" d=" M-15.77400016784668,3.4030001163482666 C-15.77400016784668,3.4030001163482666 -13.777999877929688,-8.401000022888184 -13.777999877929688,-8.401000022888184 C-12.949000358581543,-13.302000045776367 -8.303999900817871,-16.60300064086914 -3.4030001163482666,-15.77400016784668 C-3.4030001163482666,-15.77400016784668 8.401000022888184,-13.777999877929688 8.401000022888184,-13.777999877929688 C13.302000045776367,-12.949000358581543 16.60300064086914,-8.303999900817871 15.77400016784668,-3.4030001163482666 C15.77400016784668,-3.4030001163482666 13.777999877929688,8.401000022888184 13.777999877929688,8.401000022888184 C12.949000358581543,13.302000045776367 8.303999900817871,16.60300064086914 3.4030001163482666,15.77400016784668 C3.4030001163482666,15.77400016784668 -8.401000022888184,13.777999877929688 -8.401000022888184,13.777999877929688 C-13.302000045776367,12.949000358581543 -16.60300064086914,8.303999900817871 -15.77400016784668,3.4030001163482666z"></path>
      </g>
    </g>
    <g transform="matrix(3.9564287662506104,-0.5736548900604248,0.5736548900604248,3.9564287662506104,321.3186950683594,854.551025390625)" opacity="1" style="display: block;">
      <g opacity="1" transform="matrix(1,0,0,1,0,0)">
        <path fill="rgb(247,151,239)" fill-opacity="1" d=" M-11.416000366210938,11.404999732971191 C-11.416000366210938,11.404999732971191 -16.131999969482422,0.4020000100135803 -16.131999969482422,0.4020000100135803 C-18.09000015258789,-4.166999816894531 -15.973999977111816,-9.458000183105469 -11.404999732971191,-11.416000366210938 C-11.404999732971191,-11.416000366210938 -0.4020000100135803,-16.131999969482422 -0.4020000100135803,-16.131999969482422 C4.166999816894531,-18.09000015258789 9.458000183105469,-15.973999977111816 11.416000366210938,-11.404999732971191 C11.416000366210938,-11.404999732971191 16.131999969482422,-0.4020000100135803 16.131999969482422,-0.4020000100135803 C18.09000015258789,4.166999816894531 15.973999977111816,9.458000183105469 11.404999732971191,11.416000366210938 C11.404999732971191,11.416000366210938 0.4020000100135803,16.131999969482422 0.4020000100135803,16.131999969482422 C-4.166999816894531,18.09000015258789 -9.458000183105469,15.973999977111816 -11.416000366210938,11.404999732971191z"></path>
      </g>
    </g>
    <g transform="matrix(3.9564287662506104,-0.5736548900604248,0.5736548900604248,3.9564287662506104,484.0428466796875,999.91162109375)" opacity="1" style="display: block;">
      <g opacity="1" transform="matrix(1,0,0,1,0,0)">
        <path fill="rgb(247,151,239)" fill-opacity="1" d=" M-3.4170000553131104,15.770999908447266 C-3.4170000553131104,15.770999908447266 -13.342000007629395,9.07699966430664 -13.342000007629395,9.07699966430664 C-17.46299934387207,6.296999931335449 -18.551000595092773,0.7039999961853027 -15.770999908447266,-3.4170000553131104 C-15.770999908447266,-3.4170000553131104 -9.07699966430664,-13.342000007629395 -9.07699966430664,-13.342000007629395 C-6.296999931335449,-17.46299934387207 -0.7039999961853027,-18.551000595092773 3.4170000553131104,-15.770999908447266 C3.4170000553131104,-15.770999908447266 13.342000007629395,-9.07699966430664 13.342000007629395,-9.07699966430664 C17.46299934387207,-6.296999931335449 18.551000595092773,-0.7039999961853027 15.770999908447266,3.4170000553131104 C15.770999908447266,3.4170000553131104 9.07699966430664,13.342000007629395 9.07699966430664,13.342000007629395 C6.296999931335449,17.46299934387207 0.7039999961853027,18.551000595092773 -3.4170000553131104,15.770999908447266z"></path>
      </g>
    </g>
    <g transform="matrix(3.9564287662506104,-0.5736548900604248,0.5736548900604248,3.9564287662506104,699.5679321289062,1033.9495849609375)" opacity="1" style="display: block;">
      <g opacity="1" transform="matrix(1,0,0,1,0,0)">
        <path fill="rgb(247,151,239)" fill-opacity="1" d=" M5.671000003814697,15.107999801635742 C5.671000003814697,15.107999801635742 -6.297999858856201,14.857000350952148 -6.297999858856201,14.857000350952148 C-11.267000198364258,14.753000259399414 -15.211999893188477,10.640000343322754 -15.107999801635742,5.671000003814697 C-15.107999801635742,5.671000003814697 -14.857000350952148,-6.297999858856201 -14.857000350952148,-6.297999858856201 C-14.753000259399414,-11.267000198364258 -10.640000343322754,-15.211999893188477 -5.671000003814697,-15.107999801635742 C-5.671000003814697,-15.107999801635742 6.297999858856201,-14.857000350952148 6.297999858856201,-14.857000350952148 C11.267000198364258,-14.753000259399414 15.211999893188477,-10.640000343322754 15.107999801635742,-5.671000003814697 C15.107999801635742,-5.671000003814697 14.857000350952148,6.297999858856201 14.857000350952148,6.297999858856201 C14.753000259399414,11.267000198364258 10.640000343322754,15.211999893188477 5.671000003814697,15.107999801635742z"></path>
      </g>
    </g>
    <g transform="matrix(3.9564287662506104,-0.5736548900604248,0.5736548900604248,3.9564287662506104,899.1671752929688,945.8062744140625)" opacity="1" style="display: block;">
      <g opacity="1" transform="matrix(1,0,0,1,0,0)">
        <path fill="rgb(247,151,239)" fill-opacity="1" d=" M12.951000213623047,9.626999855041504 C12.951000213623047,9.626999855041504 2.753999948501587,15.899999618530273 2.753999948501587,15.899999618530273 C-1.4800000190734863,18.5049991607666 -7.021999835968018,17.184999465942383 -9.626999855041504,12.951000213623047 C-9.626999855041504,12.951000213623047 -15.899999618530273,2.753999948501587 -15.899999618530273,2.753999948501587 C-18.5049991607666,-1.4800000190734863 -17.184999465942383,-7.021999835968018 -12.951000213623047,-9.626999855041504 C-12.951000213623047,-9.626999855041504 -2.753999948501587,-15.899999618530273 -2.753999948501587,-15.899999618530273 C1.4800000190734863,-18.5049991607666 7.021999835968018,-17.184999465942383 9.626999855041504,-12.951000213623047 C9.626999855041504,-12.951000213623047 15.899999618530273,-2.753999948501587 15.899999618530273,-2.753999948501587 C18.5049991607666,1.4800000190734863 17.184999465942383,7.021999835968018 12.951000213623047,9.626999855041504z"></path>
      </g>
    </g>
    <g transform="matrix(3.9564287662506104,-0.5736548900604248,0.5736548900604248,3.9564287662506104,1019.1986083984375,763.5931396484375)" opacity="1" style="display: block;">
      <g opacity="1" transform="matrix(1,0,0,1,0,0)">
        <path fill="rgb(247,151,239)" fill-opacity="1" d=" M16.10099983215332,1.0770000219345093 C16.10099983215332,1.0770000219345093 10.928000450134277,11.873000144958496 10.928000450134277,11.873000144958496 C8.779999732971191,16.356000900268555 3.4059998989105225,18.249000549316406 -1.0770000219345093,16.10099983215332 C-1.0770000219345093,16.10099983215332 -11.873000144958496,10.928000450134277 -11.873000144958496,10.928000450134277 C-16.356000900268555,8.779999732971191 -18.249000549316406,3.4059998989105225 -16.10099983215332,-1.0770000219345093 C-16.10099983215332,-1.0770000219345093 -10.928000450134277,-11.873000144958496 -10.928000450134277,-11.873000144958496 C-8.779999732971191,-16.356000900268555 -3.4059998989105225,-18.249000549316406 1.0770000219345093,-16.10099983215332 C1.0770000219345093,-16.10099983215332 11.873000144958496,-10.928000450134277 11.873000144958496,-10.928000450134277 C16.356000900268555,-8.779999732971191 18.249000549316406,-3.4059998989105225 16.10099983215332,1.0770000219345093z"></path>
      </g>
    </g>
    <g transform="matrix(3.9564287662506104,-0.5736548900604248,0.5736548900604248,3.9564287662506104,1021.3873901367188,545.4061889648438)" opacity="1" style="display: block;">
      <g opacity="1" transform="matrix(1,0,0,1,0,0)">
        <path fill="rgb(247,151,239)" fill-opacity="1" d=" M14.116999626159668,-7.816999912261963 C14.116999626159668,-7.816999912261963 15.618000030517578,4.059999942779541 15.618000030517578,4.059999942779541 C16.240999221801758,8.991000175476074 12.748000144958496,13.494000434875488 7.816999912261963,14.116999626159668 C7.816999912261963,14.116999626159668 -4.059999942779541,15.618000030517578 -4.059999942779541,15.618000030517578 C-8.991000175476074,16.240999221801758 -13.494000434875488,12.748000144958496 -14.116999626159668,7.816999912261963 C-14.116999626159668,7.816999912261963 -15.618000030517578,-4.059999942779541 -15.618000030517578,-4.059999942779541 C-16.240999221801758,-8.991000175476074 -12.748000144958496,-13.494000434875488 -7.816999912261963,-14.116999626159668 C-7.816999912261963,-14.116999626159668 4.059999942779541,-15.618000030517578 4.059999942779541,-15.618000030517578 C8.991000175476074,-16.240999221801758 13.494000434875488,-12.748000144958496 14.116999626159668,-7.816999912261963z"></path>
      </g>
    </g>
    <g transform="matrix(3.9564287662506104,-0.5736548900604248,0.5736548900604248,3.9564287662506104,905.0323486328125,360.8258056640625)" opacity="1" style="display: block;">
      <g opacity="1" transform="matrix(1,0,0,1,0,0)">
        <path fill="rgb(247,151,239)" fill-opacity="1" d=" M7.631999969482422,-14.218000411987305 C7.631999969482422,-14.218000411987305 15.32699966430664,-5.046999931335449 15.32699966430664,-5.046999931335449 C18.52199935913086,-1.2389999628067017 18.025999069213867,4.436999797821045 14.218000411987305,7.631999969482422 C14.218000411987305,7.631999969482422 5.046999931335449,15.32699966430664 5.046999931335449,15.32699966430664 C1.2389999628067017,18.52199935913086 -4.436999797821045,18.025999069213867 -7.631999969482422,14.218000411987305 C-7.631999969482422,14.218000411987305 -15.32699966430664,5.046999931335449 -15.32699966430664,5.046999931335449 C-18.52199935913086,1.2389999628067017 -18.025999069213867,-4.436999797821045 -14.218000411987305,-7.631999969482422 C-14.218000411987305,-7.631999969482422 -5.046999931335449,-15.32699966430664 -5.046999931335449,-15.32699966430664 C-1.2389999628067017,-18.52199935913086 4.436999797821045,-18.025999069213867 7.631999969482422,-14.218000411987305z"></path>
      </g>
    </g>
    <g transform="matrix(2.4934189319610596,-2.939514636993408,2.939514636993408,2.4934189319610596,509.6611328125,426.3268737792969)" opacity="1" style="display: block;">
      <g opacity="1" transform="matrix(1,0,0,1,0,0)">
        <path fill="rgb(247,155,239)" fill-opacity="1" d=" M-1.062000036239624,-16.101999282836914 C-1.062000036239624,-16.101999282836914 10.324000358581543,-12.402999877929688 10.324000358581543,-12.402999877929688 C15.050999641418457,-10.866999626159668 17.63800048828125,-5.789000034332275 16.101999282836914,-1.062000036239624 C16.101999282836914,-1.062000036239624 12.402999877929688,10.324000358581543 12.402999877929688,10.324000358581543 C10.866999626159668,15.050999641418457 5.789000034332275,17.63800048828125 1.062000036239624,16.101999282836914 C1.062000036239624,16.101999282836914 -10.324000358581543,12.402999877929688 -10.324000358581543,12.402999877929688 C-15.050999641418457,10.866999626159668 -17.63800048828125,5.789000034332275 -16.101999282836914,1.062000036239624 C-16.101999282836914,1.062000036239624 -12.402999877929688,-10.324000358581543 -12.402999877929688,-10.324000358581543 C-10.866999626159668,-15.050999641418457 -5.789000034332275,-17.63800048828125 -1.062000036239624,-16.101999282836914z"></path>
      </g>
    </g>
    <g transform="matrix(2.4934189319610596,-2.939514636993408,2.939514636993408,2.4934189319610596,410.586669921875,538.19091796875)" opacity="1" style="display: block;">
      <g opacity="1" transform="matrix(1,0,0,1,0,0)">
        <path fill="rgb(247,155,239)" fill-opacity="1" d=" M-9.614999771118164,-12.960000038146973 C-9.614999771118164,-12.960000038146973 1.9589999914169312,-16.01799964904785 1.9589999914169312,-16.01799964904785 C6.764999866485596,-17.288000106811523 11.6899995803833,-14.420999526977539 12.960000038146973,-9.614999771118164 C12.960000038146973,-9.614999771118164 16.01799964904785,1.9589999914169312 16.01799964904785,1.9589999914169312 C17.288000106811523,6.764999866485596 14.420999526977539,11.6899995803833 9.614999771118164,12.960000038146973 C9.614999771118164,12.960000038146973 -1.9589999914169312,16.01799964904785 -1.9589999914169312,16.01799964904785 C-6.764999866485596,17.288000106811523 -11.6899995803833,14.420999526977539 -12.960000038146973,9.614999771118164 C-12.960000038146973,9.614999771118164 -16.01799964904785,-1.9589999914169312 -16.01799964904785,-1.9589999914169312 C-17.288000106811523,-6.764999866485596 -14.420999526977539,-11.6899995803833 -9.614999771118164,-12.960000038146973z"></path>
      </g>
    </g>
    <g transform="matrix(2.4934189319610596,-2.939514636993408,2.939514636993408,2.4934189319610596,387.9082336425781,685.8889770507812)" opacity="1" style="display: block;">
      <g opacity="1" transform="matrix(1,0,0,1,0,0)">
        <path fill="rgb(247,155,239)" fill-opacity="1" d=" M-15.102999687194824,-5.684999942779541 C-15.102999687194824,-5.684999942779541 -7.03000020980835,-14.524999618530273 -7.03000020980835,-14.524999618530273 C-3.677999973297119,-18.195999145507812 2.0139999389648438,-18.454999923706055 5.684999942779541,-15.102999687194824 C5.684999942779541,-15.102999687194824 14.524999618530273,-7.03000020980835 14.524999618530273,-7.03000020980835 C18.195999145507812,-3.677999973297119 18.454999923706055,2.0139999389648438 15.102999687194824,5.684999942779541 C15.102999687194824,5.684999942779541 7.03000020980835,14.524999618530273 7.03000020980835,14.524999618530273 C3.677999973297119,18.195999145507812 -2.0139999389648438,18.454999923706055 -5.684999942779541,15.102999687194824 C-5.684999942779541,15.102999687194824 -14.524999618530273,7.03000020980835 -14.524999618530273,7.03000020980835 C-18.195999145507812,3.677999973297119 -18.454999923706055,-2.0139999389648438 -15.102999687194824,-5.684999942779541z"></path>
      </g>
    </g>
    <g transform="matrix(2.4934189319610596,-2.939514636993408,2.939514636993408,2.4934189319610596,448.84918212890625,822.3265991210938)" opacity="1" style="display: block;">
      <g opacity="1" transform="matrix(1,0,0,1,0,0)">
        <path fill="rgb(247,155,239)" fill-opacity="1" d=" M-15.77400016784668,3.4030001163482666 C-15.77400016784668,3.4030001163482666 -13.777999877929688,-8.401000022888184 -13.777999877929688,-8.401000022888184 C-12.949000358581543,-13.302000045776367 -8.303999900817871,-16.60300064086914 -3.4030001163482666,-15.77400016784668 C-3.4030001163482666,-15.77400016784668 8.401000022888184,-13.777999877929688 8.401000022888184,-13.777999877929688 C13.302000045776367,-12.949000358581543 16.60300064086914,-8.303999900817871 15.77400016784668,-3.4030001163482666 C15.77400016784668,-3.4030001163482666 13.777999877929688,8.401000022888184 13.777999877929688,8.401000022888184 C12.949000358581543,13.302000045776367 8.303999900817871,16.60300064086914 3.4030001163482666,15.77400016784668 C3.4030001163482666,15.77400016784668 -8.401000022888184,13.777999877929688 -8.401000022888184,13.777999877929688 C-13.302000045776367,12.949000358581543 -16.60300064086914,8.303999900817871 -15.77400016784668,3.4030001163482666z"></path>
      </g>
    </g>
    <g transform="matrix(2.4934189319610596,-2.939514636993408,2.939514636993408,2.4934189319610596,573.98876953125,903.9962768554688)" opacity="1" style="display: block;">
      <g opacity="1" transform="matrix(1,0,0,1,0,0)">
        <path fill="rgb(247,155,239)" fill-opacity="1" d=" M-11.416000366210938,11.404999732971191 C-11.416000366210938,11.404999732971191 -16.131999969482422,0.4020000100135803 -16.131999969482422,0.4020000100135803 C-18.09000015258789,-4.166999816894531 -15.973999977111816,-9.458000183105469 -11.404999732971191,-11.416000366210938 C-11.404999732971191,-11.416000366210938 -0.4020000100135803,-16.131999969482422 -0.4020000100135803,-16.131999969482422 C4.166999816894531,-18.09000015258789 9.458000183105469,-15.973999977111816 11.416000366210938,-11.404999732971191 C11.416000366210938,-11.404999732971191 16.131999969482422,-0.4020000100135803 16.131999969482422,-0.4020000100135803 C18.09000015258789,4.166999816894531 15.973999977111816,9.458000183105469 11.404999732971191,11.416000366210938 C11.404999732971191,11.416000366210938 0.4020000100135803,16.131999969482422 0.4020000100135803,16.131999969482422 C-4.166999816894531,18.09000015258789 -9.458000183105469,15.973999977111816 -11.416000366210938,11.404999732971191z"></path>
      </g>
    </g>
    <g transform="matrix(2.4934189319610596,-2.939514636993408,2.939514636993408,2.4934189319610596,723.4154052734375,904.8575439453125)" opacity="1" style="display: block;">
      <g opacity="1" transform="matrix(1,0,0,1,0,0)">
        <path fill="rgb(247,155,239)" fill-opacity="1" d=" M-3.4170000553131104,15.770999908447266 C-3.4170000553131104,15.770999908447266 -13.342000007629395,9.07699966430664 -13.342000007629395,9.07699966430664 C-17.46299934387207,6.296999931335449 -18.551000595092773,0.7039999961853027 -15.770999908447266,-3.4170000553131104 C-15.770999908447266,-3.4170000553131104 -9.07699966430664,-13.342000007629395 -9.07699966430664,-13.342000007629395 C-6.296999931335449,-17.46299934387207 -0.7039999961853027,-18.551000595092773 3.4170000553131104,-15.770999908447266 C3.4170000553131104,-15.770999908447266 13.342000007629395,-9.07699966430664 13.342000007629395,-9.07699966430664 C17.46299934387207,-6.296999931335449 18.551000595092773,-0.7039999961853027 15.770999908447266,3.4170000553131104 C15.770999908447266,3.4170000553131104 9.07699966430664,13.342000007629395 9.07699966430664,13.342000007629395 C6.296999931335449,17.46299934387207 0.7039999961853027,18.551000595092773 -3.4170000553131104,15.770999908447266z"></path>
      </g>
    </g>
    <g transform="matrix(2.4934189319610596,-2.939514636993408,2.939514636993408,2.4934189319610596,849.4865112304688,824.6360473632812)" opacity="1" style="display: block;">
      <g opacity="1" transform="matrix(1,0,0,1,0,0)">
        <path fill="rgb(247,155,239)" fill-opacity="1" d=" M5.671000003814697,15.107999801635742 C5.671000003814697,15.107999801635742 -6.297999858856201,14.857000350952148 -6.297999858856201,14.857000350952148 C-11.267000198364258,14.753000259399414 -15.211999893188477,10.640000343322754 -15.107999801635742,5.671000003814697 C-15.107999801635742,5.671000003814697 -14.857000350952148,-6.297999858856201 -14.857000350952148,-6.297999858856201 C-14.753000259399414,-11.267000198364258 -10.640000343322754,-15.211999893188477 -5.671000003814697,-15.107999801635742 C-5.671000003814697,-15.107999801635742 6.297999858856201,-14.857000350952148 6.297999858856201,-14.857000350952148 C11.267000198364258,-14.753000259399414 15.211999893188477,-10.640000343322754 15.107999801635742,-5.671000003814697 C15.107999801635742,-5.671000003814697 14.857000350952148,6.297999858856201 14.857000350952148,6.297999858856201 C14.753000259399414,11.267000198364258 10.640000343322754,15.211999893188477 5.671000003814697,15.107999801635742z"></path>
      </g>
    </g>
    <g transform="matrix(2.4934189319610596,-2.939514636993408,2.939514636993408,2.4934189319610596,911.99853515625,688.9104614257812)" opacity="1" style="display: block;">
      <g opacity="1" transform="matrix(1,0,0,1,0,0)">
        <path fill="rgb(247,155,239)" fill-opacity="1" d=" M12.951000213623047,9.626999855041504 C12.951000213623047,9.626999855041504 2.753999948501587,15.899999618530273 2.753999948501587,15.899999618530273 C-1.4800000190734863,18.5049991607666 -7.021999835968018,17.184999465942383 -9.626999855041504,12.951000213623047 C-9.626999855041504,12.951000213623047 -15.899999618530273,2.753999948501587 -15.899999618530273,2.753999948501587 C-18.5049991607666,-1.4800000190734863 -17.184999465942383,-7.021999835968018 -12.951000213623047,-9.626999855041504 C-12.951000213623047,-9.626999855041504 -2.753999948501587,-15.899999618530273 -2.753999948501587,-15.899999618530273 C1.4800000190734863,-18.5049991607666 7.021999835968018,-17.184999465942383 9.626999855041504,-12.951000213623047 C9.626999855041504,-12.951000213623047 15.899999618530273,-2.753999948501587 15.899999618530273,-2.753999948501587 C18.5049991607666,1.4800000190734863 17.184999465942383,7.021999835968018 12.951000213623047,9.626999855041504z"></path>
      </g>
    </g>
    <g transform="matrix(2.4934189319610596,-2.939514636993408,2.939514636993408,2.4934189319610596,891.0226440429688,540.9603881835938)" opacity="1" style="display: block;">
      <g opacity="1" transform="matrix(1,0,0,1,0,0)">
        <path fill="rgb(247,155,239)" fill-opacity="1" d=" M16.10099983215332,1.0770000219345093 C16.10099983215332,1.0770000219345093 10.928000450134277,11.873000144958496 10.928000450134277,11.873000144958496 C8.779999732971191,16.356000900268555 3.4059998989105225,18.249000549316406 -1.0770000219345093,16.10099983215332 C-1.0770000219345093,16.10099983215332 -11.873000144958496,10.928000450134277 -11.873000144958496,10.928000450134277 C-16.356000900268555,8.779999732971191 -18.249000549316406,3.4059998989105225 -16.10099983215332,-1.0770000219345093 C-16.10099983215332,-1.0770000219345093 -10.928000450134277,-11.873000144958496 -10.928000450134277,-11.873000144958496 C-8.779999732971191,-16.356000900268555 -3.4059998989105225,-18.249000549316406 1.0770000219345093,-16.10099983215332 C1.0770000219345093,-16.10099983215332 11.873000144958496,-10.928000450134277 11.873000144958496,-10.928000450134277 C16.356000900268555,-8.779999732971191 18.249000549316406,-3.4059998989105225 16.10099983215332,1.0770000219345093z"></path>
      </g>
    </g>
    <g transform="matrix(2.4934189319610596,-2.939514636993408,2.939514636993408,2.4934189319610596,793.2444458007812,427.9596252441406)" opacity="1" style="display: block;">
      <g opacity="1" transform="matrix(1,0,0,1,0,0)">
        <path fill="rgb(247,155,239)" fill-opacity="1" d=" M14.116999626159668,-7.816999912261963 C14.116999626159668,-7.816999912261963 15.618000030517578,4.059999942779541 15.618000030517578,4.059999942779541 C16.240999221801758,8.991000175476074 12.748000144958496,13.494000434875488 7.816999912261963,14.116999626159668 C7.816999912261963,14.116999626159668 -4.059999942779541,15.618000030517578 -4.059999942779541,15.618000030517578 C-8.991000175476074,16.240999221801758 -13.494000434875488,12.748000144958496 -14.116999626159668,7.816999912261963 C-14.116999626159668,7.816999912261963 -15.618000030517578,-4.059999942779541 -15.618000030517578,-4.059999942779541 C-16.240999221801758,-8.991000175476074 -12.748000144958496,-13.494000434875488 -7.816999912261963,-14.116999626159668 C-7.816999912261963,-14.116999626159668 4.059999942779541,-15.618000030517578 4.059999942779541,-15.618000030517578 C8.991000175476074,-16.240999221801758 13.494000434875488,-12.748000144958496 14.116999626159668,-7.816999912261963z"></path>
      </g>
    </g>
    <g transform="matrix(2.4934189319610596,-2.939514636993408,2.939514636993408,2.4934189319610596,649.8439331054688,385.9458312988281)" opacity="1" style="display: block;">
      <g opacity="1" transform="matrix(1,0,0,1,0,0)">
        <path fill="rgb(247,155,239)" fill-opacity="1" d=" M7.631999969482422,-14.218000411987305 C7.631999969482422,-14.218000411987305 15.32699966430664,-5.046999931335449 15.32699966430664,-5.046999931335449 C18.52199935913086,-1.2389999628067017 18.025999069213867,4.436999797821045 14.218000411987305,7.631999969482422 C14.218000411987305,7.631999969482422 5.046999931335449,15.32699966430664 5.046999931335449,15.32699966430664 C1.2389999628067017,18.52199935913086 -4.436999797821045,18.025999069213867 -7.631999969482422,14.218000411987305 C-7.631999969482422,14.218000411987305 -15.32699966430664,5.046999931335449 -15.32699966430664,5.046999931335449 C-18.52199935913086,1.2389999628067017 -18.025999069213867,-4.436999797821045 -14.218000411987305,-7.631999969482422 C-14.218000411987305,-7.631999969482422 -5.046999931335449,-15.32699966430664 -5.046999931335449,-15.32699966430664 C-1.2389999628067017,-18.52199935913086 4.436999797821045,-18.025999069213867 7.631999969482422,-14.218000411987305z"></path>
      </g>
    </g>
    <g transform="matrix(0.022464511916041374,-0.47352224588394165,0.47352224588394165,0.022464511916041374,496.62274169921875,593.2493286132812)" opacity="1" style="display: none;">
      <g opacity="1" transform="matrix(1,0,0,1,0,0)">
        <path fill="rgb(254,240,254)" fill-opacity="1" d=" M-1.062000036239624,-16.101999282836914 C-1.062000036239624,-16.101999282836914 10.324000358581543,-12.402999877929688 10.324000358581543,-12.402999877929688 C15.050999641418457,-10.866999626159668 17.63800048828125,-5.789000034332275 16.101999282836914,-1.062000036239624 C16.101999282836914,-1.062000036239624 12.402999877929688,10.324000358581543 12.402999877929688,10.324000358581543 C10.866999626159668,15.050999641418457 5.789000034332275,17.63800048828125 1.062000036239624,16.101999282836914 C1.062000036239624,16.101999282836914 -10.324000358581543,12.402999877929688 -10.324000358581543,12.402999877929688 C-15.050999641418457,10.866999626159668 -17.63800048828125,5.789000034332275 -16.101999282836914,1.062000036239624 C-16.101999282836914,1.062000036239624 -12.402999877929688,-10.324000358581543 -12.402999877929688,-10.324000358581543 C-10.866999626159668,-15.050999641418457 -5.789000034332275,-17.63800048828125 -1.062000036239624,-16.101999282836914z"></path>
      </g>
    </g>
    <g transform="matrix(0.022464511916041374,-0.47352224588394165,0.47352224588394165,0.022464511916041374,490.26287841796875,685.5786743164062)" opacity="1" style="display: none;">
      <g opacity="1" transform="matrix(1,0,0,1,0,0)">
        <path fill="rgb(254,240,254)" fill-opacity="1" d=" M-9.614999771118164,-12.960000038146973 C-9.614999771118164,-12.960000038146973 1.9589999914169312,-16.01799964904785 1.9589999914169312,-16.01799964904785 C6.764999866485596,-17.288000106811523 11.6899995803833,-14.420999526977539 12.960000038146973,-9.614999771118164 C12.960000038146973,-9.614999771118164 16.01799964904785,1.9589999914169312 16.01799964904785,1.9589999914169312 C17.288000106811523,6.764999866485596 14.420999526977539,11.6899995803833 9.614999771118164,12.960000038146973 C9.614999771118164,12.960000038146973 -1.9589999914169312,16.01799964904785 -1.9589999914169312,16.01799964904785 C-6.764999866485596,17.288000106811523 -11.6899995803833,14.420999526977539 -12.960000038146973,9.614999771118164 C-12.960000038146973,9.614999771118164 -16.01799964904785,-1.9589999914169312 -16.01799964904785,-1.9589999914169312 C-17.288000106811523,-6.764999866485596 -14.420999526977539,-11.6899995803833 -9.614999771118164,-12.960000038146973z"></path>
      </g>
    </g>
    <g transform="matrix(0.022464511916041374,-0.47352224588394165,0.47352224588394165,0.022464511916041374,534.93359375,766.6315307617188)" opacity="1" style="display: none;">
      <g opacity="1" transform="matrix(1,0,0,1,0,0)">
        <path fill="rgb(254,240,254)" fill-opacity="1" d=" M-15.102999687194824,-5.684999942779541 C-15.102999687194824,-5.684999942779541 -7.03000020980835,-14.524999618530273 -7.03000020980835,-14.524999618530273 C-3.677999973297119,-18.195999145507812 2.0139999389648438,-18.454999923706055 5.684999942779541,-15.102999687194824 C5.684999942779541,-15.102999687194824 14.524999618530273,-7.03000020980835 14.524999618530273,-7.03000020980835 C18.195999145507812,-3.677999973297119 18.454999923706055,2.0139999389648438 15.102999687194824,5.684999942779541 C15.102999687194824,5.684999942779541 7.03000020980835,14.524999618530273 7.03000020980835,14.524999618530273 C3.677999973297119,18.195999145507812 -2.0139999389648438,18.454999923706055 -5.684999942779541,15.102999687194824 C-5.684999942779541,15.102999687194824 -14.524999618530273,7.03000020980835 -14.524999618530273,7.03000020980835 C-18.195999145507812,3.677999973297119 -18.454999923706055,-2.0139999389648438 -15.102999687194824,-5.684999942779541z"></path>
      </g>
    </g>
    <g transform="matrix(0.022464511916041374,-0.47352224588394165,0.47352224588394165,0.022464511916041374,616.3875122070312,810.5667114257812)" opacity="1" style="display: none;">
      <g opacity="1" transform="matrix(1,0,0,1,0,0)">
        <path fill="rgb(254,240,254)" fill-opacity="1" d=" M-15.77400016784668,3.4030001163482666 C-15.77400016784668,3.4030001163482666 -13.777999877929688,-8.401000022888184 -13.777999877929688,-8.401000022888184 C-12.949000358581543,-13.302000045776367 -8.303999900817871,-16.60300064086914 -3.4030001163482666,-15.77400016784668 C-3.4030001163482666,-15.77400016784668 8.401000022888184,-13.777999877929688 8.401000022888184,-13.777999877929688 C13.302000045776367,-12.949000358581543 16.60300064086914,-8.303999900817871 15.77400016784668,-3.4030001163482666 C15.77400016784668,-3.4030001163482666 13.777999877929688,8.401000022888184 13.777999877929688,8.401000022888184 C12.949000358581543,13.302000045776367 8.303999900817871,16.60300064086914 3.4030001163482666,15.77400016784668 C3.4030001163482666,15.77400016784668 -8.401000022888184,13.777999877929688 -8.401000022888184,13.777999877929688 C-13.302000045776367,12.949000358581543 -16.60300064086914,8.303999900817871 -15.77400016784668,3.4030001163482666z"></path>
      </g>
    </g>
    <g transform="matrix(0.022464511916041374,-0.47352224588394165,0.47352224588394165,0.022464511916041374,708.6564331054688,803.3694458007812)" opacity="1" style="display: none;">
      <g opacity="1" transform="matrix(1,0,0,1,0,0)">
        <path fill="rgb(254,240,254)" fill-opacity="1" d=" M-11.416000366210938,11.404999732971191 C-11.416000366210938,11.404999732971191 -16.131999969482422,0.4020000100135803 -16.131999969482422,0.4020000100135803 C-18.09000015258789,-4.166999816894531 -15.973999977111816,-9.458000183105469 -11.404999732971191,-11.416000366210938 C-11.404999732971191,-11.416000366210938 -0.4020000100135803,-16.131999969482422 -0.4020000100135803,-16.131999969482422 C4.166999816894531,-18.09000015258789 9.458000183105469,-15.973999977111816 11.416000366210938,-11.404999732971191 C11.416000366210938,-11.404999732971191 16.131999969482422,-0.4020000100135803 16.131999969482422,-0.4020000100135803 C18.09000015258789,4.166999816894531 15.973999977111816,9.458000183105469 11.404999732971191,11.416000366210938 C11.404999732971191,11.416000366210938 0.4020000100135803,16.131999969482422 0.4020000100135803,16.131999969482422 C-4.166999816894531,18.09000015258789 -9.458000183105469,15.973999977111816 -11.416000366210938,11.404999732971191z"></path>
      </g>
    </g>
    <g transform="matrix(0.022464511916041374,-0.47352224588394165,0.47352224588394165,0.022464511916041374,782.3151245117188,747.338623046875)" opacity="1" style="display: none;">
      <g opacity="1" transform="matrix(1,0,0,1,0,0)">
        <path fill="rgb(254,240,254)" fill-opacity="1" d=" M-3.4170000553131104,15.770999908447266 C-3.4170000553131104,15.770999908447266 -13.342000007629395,9.07699966430664 -13.342000007629395,9.07699966430664 C-17.46299934387207,6.296999931335449 -18.551000595092773,0.7039999961853027 -15.770999908447266,-3.4170000553131104 C-15.770999908447266,-3.4170000553131104 -9.07699966430664,-13.342000007629395 -9.07699966430664,-13.342000007629395 C-6.296999931335449,-17.46299934387207 -0.7039999961853027,-18.551000595092773 3.4170000553131104,-15.770999908447266 C3.4170000553131104,-15.770999908447266 13.342000007629395,-9.07699966430664 13.342000007629395,-9.07699966430664 C17.46299934387207,-6.296999931335449 18.551000595092773,-0.7039999961853027 15.770999908447266,3.4170000553131104 C15.770999908447266,3.4170000553131104 9.07699966430664,13.342000007629395 9.07699966430664,13.342000007629395 C6.296999931335449,17.46299934387207 0.7039999961853027,18.551000595092773 -3.4170000553131104,15.770999908447266z"></path>
      </g>
    </g>
    <g transform="matrix(0.022464511916041374,-0.47352224588394165,0.47352224588394165,0.022464511916041374,813.8785400390625,660.3389282226562)" opacity="1" style="display: none;">
      <g opacity="1" transform="matrix(1,0,0,1,0,0)">
        <path fill="rgb(254,240,254)" fill-opacity="1" d=" M5.671000003814697,15.107999801635742 C5.671000003814697,15.107999801635742 -6.297999858856201,14.857000350952148 -6.297999858856201,14.857000350952148 C-11.267000198364258,14.753000259399414 -15.211999893188477,10.640000343322754 -15.107999801635742,5.671000003814697 C-15.107999801635742,5.671000003814697 -14.857000350952148,-6.297999858856201 -14.857000350952148,-6.297999858856201 C-14.753000259399414,-11.267000198364258 -10.640000343322754,-15.211999893188477 -5.671000003814697,-15.107999801635742 C-5.671000003814697,-15.107999801635742 6.297999858856201,-14.857000350952148 6.297999858856201,-14.857000350952148 C11.267000198364258,-14.753000259399414 15.211999893188477,-10.640000343322754 15.107999801635742,-5.671000003814697 C15.107999801635742,-5.671000003814697 14.857000350952148,6.297999858856201 14.857000350952148,6.297999858856201 C14.753000259399414,11.267000198364258 10.640000343322754,15.211999893188477 5.671000003814697,15.107999801635742z"></path>
      </g>
    </g>
    <g transform="matrix(0.022464511916041374,-0.47352224588394165,0.47352224588394165,0.022464511916041374,793.2799682617188,570.112548828125)" opacity="1" style="display: none;">
      <g opacity="1" transform="matrix(1,0,0,1,0,0)">
        <path fill="rgb(254,240,254)" fill-opacity="1" d=" M12.951000213623047,9.626999855041504 C12.951000213623047,9.626999855041504 2.753999948501587,15.899999618530273 2.753999948501587,15.899999618530273 C-1.4800000190734863,18.5049991607666 -7.021999835968018,17.184999465942383 -9.626999855041504,12.951000213623047 C-9.626999855041504,12.951000213623047 -15.899999618530273,2.753999948501587 -15.899999618530273,2.753999948501587 C-18.5049991607666,-1.4800000190734863 -17.184999465942383,-7.021999835968018 -12.951000213623047,-9.626999855041504 C-12.951000213623047,-9.626999855041504 -2.753999948501587,-15.899999618530273 -2.753999948501587,-15.899999618530273 C1.4800000190734863,-18.5049991607666 7.021999835968018,-17.184999465942383 9.626999855041504,-12.951000213623047 C9.626999855041504,-12.951000213623047 15.899999618530273,-2.753999948501587 15.899999618530273,-2.753999948501587 C18.5049991607666,1.4800000190734863 17.184999465942383,7.021999835968018 12.951000213623047,9.626999855041504z"></path>
      </g>
    </g>
    <g transform="matrix(0.022464511916041374,-0.47352224588394165,0.47352224588394165,0.022464511916041374,727.090087890625,505.42864990234375)" opacity="1" style="display: none;">
      <g opacity="1" transform="matrix(1,0,0,1,0,0)">
        <path fill="rgb(254,240,254)" fill-opacity="1" d=" M16.10099983215332,1.0770000219345093 C16.10099983215332,1.0770000219345093 10.928000450134277,11.873000144958496 10.928000450134277,11.873000144958496 C8.779999732971191,16.356000900268555 3.4059998989105225,18.249000549316406 -1.0770000219345093,16.10099983215332 C-1.0770000219345093,16.10099983215332 -11.873000144958496,10.928000450134277 -11.873000144958496,10.928000450134277 C-16.356000900268555,8.779999732971191 -18.249000549316406,3.4059998989105225 -16.10099983215332,-1.0770000219345093 C-16.10099983215332,-1.0770000219345093 -10.928000450134277,-11.873000144958496 -10.928000450134277,-11.873000144958496 C-8.779999732971191,-16.356000900268555 -3.4059998989105225,-18.249000549316406 1.0770000219345093,-16.10099983215332 C1.0770000219345093,-16.10099983215332 11.873000144958496,-10.928000450134277 11.873000144958496,-10.928000450134277 C16.356000900268555,-8.779999732971191 18.249000549316406,-3.4059998989105225 16.10099983215332,1.0770000219345093z"></path>
      </g>
    </g>
    <g transform="matrix(0.022464511916041374,-0.47352224588394165,0.47352224588394165,0.022464511916041374,636.4121704101562,486.91259765625)" opacity="1" style="display: none;">
      <g opacity="1" transform="matrix(1,0,0,1,0,0)">
        <path fill="rgb(254,240,254)" fill-opacity="1" d=" M14.116999626159668,-7.816999912261963 C14.116999626159668,-7.816999912261963 15.618000030517578,4.059999942779541 15.618000030517578,4.059999942779541 C16.240999221801758,8.991000175476074 12.748000144958496,13.494000434875488 7.816999912261963,14.116999626159668 C7.816999912261963,14.116999626159668 -4.059999942779541,15.618000030517578 -4.059999942779541,15.618000030517578 C-8.991000175476074,16.240999221801758 -13.494000434875488,12.748000144958496 -14.116999626159668,7.816999912261963 C-14.116999626159668,7.816999912261963 -15.618000030517578,-4.059999942779541 -15.618000030517578,-4.059999942779541 C-16.240999221801758,-8.991000175476074 -12.748000144958496,-13.494000434875488 -7.816999912261963,-14.116999626159668 C-7.816999912261963,-14.116999626159668 4.059999942779541,-15.618000030517578 4.059999942779541,-15.618000030517578 C8.991000175476074,-16.240999221801758 13.494000434875488,-12.748000144958496 14.116999626159668,-7.816999912261963z"></path>
      </g>
    </g>
    <g transform="matrix(0.022464511916041374,-0.47352224588394165,0.47352224588394165,0.022464511916041374,550.1635131835938,520.4705810546875)" opacity="1" style="display: none;">
      <g opacity="1" transform="matrix(1,0,0,1,0,0)">
        <path fill="rgb(254,240,254)" fill-opacity="1" d=" M7.631999969482422,-14.218000411987305 C7.631999969482422,-14.218000411987305 15.32699966430664,-5.046999931335449 15.32699966430664,-5.046999931335449 C18.52199935913086,-1.2389999628067017 18.025999069213867,4.436999797821045 14.218000411987305,7.631999969482422 C14.218000411987305,7.631999969482422 5.046999931335449,15.32699966430664 5.046999931335449,15.32699966430664 C1.2389999628067017,18.52199935913086 -4.436999797821045,18.025999069213867 -7.631999969482422,14.218000411987305 C-7.631999969482422,14.218000411987305 -15.32699966430664,5.046999931335449 -15.32699966430664,5.046999931335449 C-18.52199935913086,1.2389999628067017 -18.025999069213867,-4.436999797821045 -14.218000411987305,-7.631999969482422 C-14.218000411987305,-7.631999969482422 -5.046999931335449,-15.32699966430664 -5.046999931335449,-15.32699966430664 C-1.2389999628067017,-18.52199935913086 4.436999797821045,-18.025999069213867 7.631999969482422,-14.218000411987305z"></path>
      </g>
    </g>
  </g>
</svg>