<svg xmlns="http://www.w3.org/2000/svg" viewBox="0 0 1300 1300" width="1300" height="1300" preserveAspectRatio="xMidYMid meet" style="width: 100%; height: 100%; transform: translate3d(0px, 0px, 0px); content-visibility: visible;"><defs><clipPath id="__lottie_element_10760"><rect width="1300" height="1300" x="0" y="0"></rect></clipPath></defs><g clip-path="url(#__lottie_element_10760)"><g transform="matrix(3.7382588386535645,1.4231756925582886,-1.4231756925582886,3.7382588386535645,561.127197265625,226.42962646484375)" opacity="1" style="display: block;"><g opacity="1" transform="matrix(1,0,0,1,0,0)"><path fill="rgb(22,110,225)" fill-opacity="1" d=" M-13.100000381469727,-9.42300033569336 C-13.100000381469727,-9.42300033569336 -3.003000020980835,-15.854999542236328 -3.003000020980835,-15.854999542236328 C1.1890000104904175,-18.525999069213867 6.751999855041504,-17.29199981689453 9.42300033569336,-13.100000381469727 C9.42300033569336,-13.100000381469727 15.854999542236328,-3.003000020980835 15.854999542236328,-3.003000020980835 C18.525999069213867,1.1890000104904175 17.29199981689453,6.751999855041504 13.100000381469727,9.42300033569336 C13.100000381469727,9.42300033569336 3.003000020980835,15.854999542236328 3.003000020980835,15.854999542236328 C-1.1890000104904175,18.525999069213867 -6.751999855041504,17.29199981689453 -9.42300033569336,13.100000381469727 C-9.42300033569336,13.100000381469727 -15.854999542236328,3.003000020980835 -15.854999542236328,3.003000020980835 C-18.525999069213867,-1.1890000104904175 -17.29199981689453,-6.751999855041504 -13.100000381469727,-9.42300033569336z"></path></g></g><g transform="matrix(3.738257884979248,1.42317533493042,-1.42317533493042,3.738257884979248,423.16693115234375,226.2156524658203)" opacity="1" style="display: block;"><g opacity="1" transform="matrix(1,0,0,1,0,0)"><path fill="rgb(22,110,225)" fill-opacity="1" d=" M-15.223999977111816,-5.35099983215332 C-15.223999977111816,-5.35099983215332 -7.3480000495910645,-14.366999626159668 -7.3480000495910645,-14.366999626159668 C-4.078000068664551,-18.110000610351562 1.6080000400543213,-18.493999481201172 5.35099983215332,-15.223999977111816 C5.35099983215332,-15.223999977111816 14.366999626159668,-7.3480000495910645 14.366999626159668,-7.3480000495910645 C18.110000610351562,-4.078000068664551 18.493999481201172,1.6080000400543213 15.223999977111816,5.35099983215332 C15.223999977111816,5.35099983215332 7.3480000495910645,14.366999626159668 7.3480000495910645,14.366999626159668 C4.078000068664551,18.110000610351562 -1.6080000400543213,18.493999481201172 -5.35099983215332,15.223999977111816 C-5.35099983215332,15.223999977111816 -14.366999626159668,7.3480000495910645 -14.366999626159668,7.3480000495910645 C-18.110000610351562,4.078000068664551 -18.493999481201172,-1.6080000400543213 -15.223999977111816,-5.35099983215332z"></path></g></g><g transform="matrix(3.738257884979248,1.42317533493042,-1.42317533493042,3.738257884979248,346.2660827636719,342.22601318359375)" opacity="1" style="display: block;"><g opacity="1" transform="matrix(1,0,0,1,0,0)"><path fill="rgb(22,110,225)" fill-opacity="1" d=" M-16.114999771118164,-0.8379999995231628 C-16.114999771118164,-0.8379999995231628 -11.102999687194824,-11.710000038146973 -11.102999687194824,-11.710000038146973 C-9.022000312805176,-16.224000930786133 -3.6760001182556152,-18.195999145507812 0.8379999995231628,-16.114999771118164 C0.8379999995231628,-16.114999771118164 11.710000038146973,-11.102999687194824 11.710000038146973,-11.102999687194824 C16.224000930786133,-9.022000312805176 18.195999145507812,-3.6760001182556152 16.114999771118164,0.8379999995231628 C16.114999771118164,0.8379999995231628 11.102999687194824,11.710000038146973 11.102999687194824,11.710000038146973 C9.022000312805176,16.224000930786133 3.6760001182556152,18.195999145507812 -0.8379999995231628,16.114999771118164 C-0.8379999995231628,16.114999771118164 -11.710000038146973,11.102999687194824 -11.710000038146973,11.102999687194824 C-16.224000930786133,9.022000312805176 -18.195999145507812,3.6760001182556152 -16.114999771118164,-0.8379999995231628z"></path></g></g><g transform="matrix(3.738257884979248,1.42317533493042,-1.42317533493042,3.738257884979248,229.8004913330078,416.35491943359375)" opacity="1" style="display: block;"><g opacity="1" transform="matrix(1,0,0,1,0,0)"><path fill="rgb(22,110,225)" fill-opacity="1" d=" M-15.699000358581543,3.734999895095825 C-15.699000358581543,3.734999895095825 -13.95199966430664,-8.107999801635742 -13.95199966430664,-8.107999801635742 C-13.22700023651123,-13.024999618530273 -8.652000427246094,-16.423999786376953 -3.734999895095825,-15.699000358581543 C-3.734999895095825,-15.699000358581543 8.107999801635742,-13.95199966430664 8.107999801635742,-13.95199966430664 C13.024999618530273,-13.22700023651123 16.423999786376953,-8.652000427246094 15.699000358581543,-3.734999895095825 C15.699000358581543,-3.734999895095825 13.95199966430664,8.107999801635742 13.95199966430664,8.107999801635742 C13.22700023651123,13.024999618530273 8.652000427246094,16.423999786376953 3.734999895095825,15.699000358581543 C3.734999895095825,15.699000358581543 -8.107999801635742,13.95199966430664 -8.107999801635742,13.95199966430664 C-13.024999618530273,13.22700023651123 -16.423999786376953,8.652000427246094 -15.699000358581543,3.734999895095825z"></path></g></g><g transform="matrix(3.738257884979248,1.42317533493042,-1.42317533493042,3.738257884979248,227.88302612304688,555.525390625)" opacity="1" style="display: block;"><g opacity="1" transform="matrix(1,0,0,1,0,0)"><path fill="rgb(22,110,225)" fill-opacity="1" d=" M-14.006999969482422,8.012999534606934 C-14.006999969482422,8.012999534606934 -15.67300033569336,-3.8420000076293945 -15.67300033569336,-3.8420000076293945 C-16.364999771118164,-8.763999938964844 -12.9350004196167,-13.3149995803833 -8.012999534606934,-14.006999969482422 C-8.012999534606934,-14.006999969482422 3.8420000076293945,-15.67300033569336 3.8420000076293945,-15.67300033569336 C8.763999938964844,-16.364999771118164 13.3149995803833,-12.9350004196167 14.006999969482422,-8.012999534606934 C14.006999969482422,-8.012999534606934 15.67300033569336,3.8420000076293945 15.67300033569336,3.8420000076293945 C16.364999771118164,8.763999938964844 12.9350004196167,13.3149995803833 8.012999534606934,14.006999969482422 C8.012999534606934,14.006999969482422 -3.8420000076293945,15.67300033569336 -3.8420000076293945,15.67300033569336 C-8.763999938964844,16.364999771118164 -13.3149995803833,12.9350004196167 -14.006999969482422,8.012999534606934z"></path></g></g><g transform="matrix(3.738257884979248,1.42317533493042,-1.42317533493042,3.738257884979248,170.03167724609375,680.8756103515625)" opacity="1" style="display: block;"><g opacity="1" transform="matrix(1,0,0,1,0,0)"><path fill="rgb(22,110,225)" fill-opacity="1" d=" M-11.182999610900879,11.633999824523926 C-11.182999610900879,11.633999824523926 -16.121000289916992,0.7279999852180481 -16.121000289916992,0.7279999852180481 C-18.17099952697754,-3.799999952316284 -16.16200065612793,-9.133000373840332 -11.633999824523926,-11.182999610900879 C-11.633999824523926,-11.182999610900879 -0.7279999852180481,-16.121000289916992 -0.7279999852180481,-16.121000289916992 C3.799999952316284,-18.17099952697754 9.133000373840332,-16.16200065612793 11.182999610900879,-11.633999824523926 C11.182999610900879,-11.633999824523926 16.121000289916992,-0.7279999852180481 16.121000289916992,-0.7279999852180481 C18.17099952697754,3.799999952316284 16.16200065612793,9.133000373840332 11.633999824523926,11.182999610900879 C11.633999824523926,11.182999610900879 0.7279999852180481,16.121000289916992 0.7279999852180481,16.121000289916992 C-3.799999952316284,18.17099952697754 -9.133000373840332,16.16200065612793 -11.182999610900879,11.633999824523926z"></path></g></g><g transform="matrix(3.738257884979248,1.42317533493042,-1.42317533493042,3.738257884979248,243.70669555664062,798.9606323242188)" opacity="1" style="display: block;"><g opacity="1" transform="matrix(1,0,0,1,0,0)"><path fill="rgb(22,110,225)" fill-opacity="1" d=" M-7.445000171661377,14.317000389099121 C-7.445000171661377,14.317000389099121 -15.260000228881836,5.247000217437744 -15.260000228881836,5.247000217437744 C-18.5049991607666,1.4809999465942383 -18.08300018310547,-4.199999809265137 -14.317000389099121,-7.445000171661377 C-14.317000389099121,-7.445000171661377 -5.247000217437744,-15.260000228881836 -5.247000217437744,-15.260000228881836 C-1.4809999465942383,-18.5049991607666 4.199999809265137,-18.08300018310547 7.445000171661377,-14.317000389099121 C7.445000171661377,-14.317000389099121 15.260000228881836,-5.247000217437744 15.260000228881836,-5.247000217437744 C18.5049991607666,-1.4809999465942383 18.08300018310547,4.199999809265137 14.317000389099121,7.445000171661377 C14.317000389099121,7.445000171661377 5.247000217437744,15.260000228881836 5.247000217437744,15.260000228881836 C1.4809999465942383,18.5049991607666 -4.199999809265137,18.08300018310547 -7.445000171661377,14.317000389099121z"></path></g></g><g transform="matrix(3.738257884979248,1.42317533493042,-1.42317533493042,3.738257884979248,262.8626708984375,935.681640625)" opacity="1" style="display: block;"><g opacity="1" transform="matrix(1,0,0,1,0,0)"><path fill="rgb(22,110,225)" fill-opacity="1" d=" M-3.1110000610351562,15.833999633789062 C-3.1110000610351562,15.833999633789062 -13.163999557495117,9.333000183105469 -13.163999557495117,9.333000183105469 C-17.33799934387207,6.633999824523926 -18.533000946044922,1.062999963760376 -15.833999633789062,-3.1110000610351562 C-15.833999633789062,-3.1110000610351562 -9.333000183105469,-13.163999557495117 -9.333000183105469,-13.163999557495117 C-6.633999824523926,-17.33799934387207 -1.062999963760376,-18.533000946044922 3.1110000610351562,-15.833999633789062 C3.1110000610351562,-15.833999633789062 13.163999557495117,-9.333000183105469 13.163999557495117,-9.333000183105469 C17.33799934387207,-6.633999824523926 18.533000946044922,-1.062999963760376 15.833999633789062,3.1110000610351562 C15.833999633789062,3.1110000610351562 9.333000183105469,13.163999557495117 9.333000183105469,13.163999557495117 C6.633999824523926,17.33799934387207 1.062999963760376,18.533000946044922 -3.1110000610351562,15.833999633789062z"></path></g></g><g transform="matrix(3.738257884979248,1.42317533493042,-1.42317533493042,3.738257884979248,388.7077941894531,995.1392211914062)" opacity="1" style="display: block;"><g opacity="1" transform="matrix(1,0,0,1,0,0)"><path fill="rgb(22,110,225)" fill-opacity="1" d=" M1.4830000400543213,16.069000244140625 C1.4830000400543213,16.069000244140625 -9.996000289916992,12.668999671936035 -9.996000289916992,12.668999671936035 C-14.76200008392334,11.256999969482422 -17.481000900268555,6.249000072479248 -16.069000244140625,1.4830000400543213 C-16.069000244140625,1.4830000400543213 -12.668999671936035,-9.996000289916992 -12.668999671936035,-9.996000289916992 C-11.256999969482422,-14.76200008392334 -6.249000072479248,-17.481000900268555 -1.4830000400543213,-16.069000244140625 C-1.4830000400543213,-16.069000244140625 9.996000289916992,-12.668999671936035 9.996000289916992,-12.668999671936035 C14.76200008392334,-11.256999969482422 17.481000900268555,-6.249000072479248 16.069000244140625,-1.4830000400543213 C16.069000244140625,-1.4830000400543213 12.668999671936035,9.996000289916992 12.668999671936035,9.996000289916992 C11.256999969482422,14.76200008392334 6.249000072479248,17.481000900268555 1.4830000400543213,16.069000244140625z"></path></g></g><g transform="matrix(3.738257884979248,1.42317533493042,-1.42317533493042,3.738257884979248,478.7809753417969,1099.763916015625)" opacity="1" style="display: block;"><g opacity="1" transform="matrix(1,0,0,1,0,0)"><path fill="rgb(22,110,225)" fill-opacity="1" d=" M5.948999881744385,15 C5.948999881744385,15 -6.021999835968018,14.970999717712402 -6.021999835968018,14.970999717712402 C-10.993000030517578,14.958999633789062 -15.01200008392334,10.920000076293945 -15,5.948999881744385 C-15,5.948999881744385 -14.970999717712402,-6.021999835968018 -14.970999717712402,-6.021999835968018 C-14.958999633789062,-10.993000030517578 -10.920000076293945,-15.01200008392334 -5.948999881744385,-15 C-5.948999881744385,-15 6.021999835968018,-14.970999717712402 6.021999835968018,-14.970999717712402 C10.993000030517578,-14.958999633789062 15.01200008392334,-10.920000076293945 15,-5.948999881744385 C15,-5.948999881744385 14.970999717712402,6.021999835968018 14.970999717712402,6.021999835968018 C14.958999633789062,10.993000030517578 10.920000076293945,15.01200008392334 5.948999881744385,15z"></path></g></g><g transform="matrix(3.738257884979248,1.42317533493042,-1.42317533493042,3.738257884979248,616.786376953125,1081.6917724609375)" opacity="1" style="display: block;"><g opacity="1" transform="matrix(1,0,0,1,0,0)"><path fill="rgb(22,110,225)" fill-opacity="1" d=" M9.9399995803833,12.711999893188477 C9.9399995803833,12.711999893188477 -1.5529999732971191,16.062000274658203 -1.5529999732971191,16.062000274658203 C-6.324999809265137,17.452999114990234 -11.321000099182129,14.711999893188477 -12.711999893188477,9.9399995803833 C-12.711999893188477,9.9399995803833 -16.062000274658203,-1.5529999732971191 -16.062000274658203,-1.5529999732971191 C-17.452999114990234,-6.324999809265137 -14.711999893188477,-11.321000099182129 -9.9399995803833,-12.711999893188477 C-9.9399995803833,-12.711999893188477 1.5529999732971191,-16.062000274658203 1.5529999732971191,-16.062000274658203 C6.324999809265137,-17.452999114990234 11.321000099182129,-14.711999893188477 12.711999893188477,-9.9399995803833 C12.711999893188477,-9.9399995803833 16.062000274658203,1.5529999732971191 16.062000274658203,1.5529999732971191 C17.452999114990234,6.324999809265137 14.711999893188477,11.321000099182129 9.9399995803833,12.711999893188477z"></path></g></g><g transform="matrix(3.738257884979248,1.42317533493042,-1.42317533493042,3.738257884979248,749.1407470703125,1120.95703125)" opacity="1" style="display: block;"><g opacity="1" transform="matrix(1,0,0,1,0,0)"><path fill="rgb(22,110,225)" fill-opacity="1" d=" M13.118000030517578,9.39799976348877 C13.118000030517578,9.39799976348877 3.0339999198913574,15.848999977111816 3.0339999198913574,15.848999977111816 C-1.152999997138977,18.527999877929688 -6.718999862670898,17.30500030517578 -9.39799976348877,13.118000030517578 C-9.39799976348877,13.118000030517578 -15.848999977111816,3.0339999198913574 -15.848999977111816,3.0339999198913574 C-18.527999877929688,-1.152999997138977 -17.30500030517578,-6.718999862670898 -13.118000030517578,-9.39799976348877 C-13.118000030517578,-9.39799976348877 -3.0339999198913574,-15.848999977111816 -3.0339999198913574,-15.848999977111816 C1.152999997138977,-18.527999877929688 6.718999862670898,-17.30500030517578 9.39799976348877,-13.118000030517578 C9.39799976348877,-13.118000030517578 15.848999977111816,-3.0339999198913574 15.848999977111816,-3.0339999198913574 C18.527999877929688,1.152999997138977 17.30500030517578,6.718999862670898 13.118000030517578,9.39799976348877z"></path></g></g><g transform="matrix(3.738257884979248,1.42317533493042,-1.42317533493042,3.738257884979248,855.4324951171875,1031.10009765625)" opacity="1" style="display: block;"><g opacity="1" transform="matrix(1,0,0,1,0,0)"><path fill="rgb(22,110,225)" fill-opacity="1" d=" M15.237000465393066,5.314000129699707 C15.237000465393066,5.314000129699707 7.382999897003174,14.348999977111816 7.382999897003174,14.348999977111816 C4.122000217437744,18.100000381469727 -1.562999963760376,18.49799919128418 -5.314000129699707,15.237000465393066 C-5.314000129699707,15.237000465393066 -14.348999977111816,7.382999897003174 -14.348999977111816,7.382999897003174 C-18.100000381469727,4.122000217437744 -18.49799919128418,-1.562999963760376 -15.237000465393066,-5.314000129699707 C-15.237000465393066,-5.314000129699707 -7.382999897003174,-14.348999977111816 -7.382999897003174,-14.348999977111816 C-4.122000217437744,-18.100000381469727 1.562999963760376,-18.49799919128418 5.314000129699707,-15.237000465393066 C5.314000129699707,-15.237000465393066 14.348999977111816,-7.382999897003174 14.348999977111816,-7.382999897003174 C18.100000381469727,-4.122000217437744 18.49799919128418,1.562999963760376 15.237000465393066,5.314000129699707z"></path></g></g><g transform="matrix(3.738257884979248,1.42317533493042,-1.42317533493042,3.738257884979248,987.9887084960938,992.5234985351562)" opacity="1" style="display: block;"><g opacity="1" transform="matrix(1,0,0,1,0,0)"><path fill="rgb(22,110,225)" fill-opacity="1" d=" M16.117000579833984,0.8069999814033508 C16.117000579833984,0.8069999814033508 11.12600040435791,11.689000129699707 11.12600040435791,11.689000129699707 C9.053999900817871,16.207000732421875 3.7109999656677246,18.18899917602539 -0.8069999814033508,16.117000579833984 C-0.8069999814033508,16.117000579833984 -11.689000129699707,11.12600040435791 -11.689000129699707,11.12600040435791 C-16.207000732421875,9.053999900817871 -18.18899917602539,3.7109999656677246 -16.117000579833984,-0.8069999814033508 C-16.117000579833984,-0.8069999814033508 -11.12600040435791,-11.689000129699707 -11.12600040435791,-11.689000129699707 C-9.053999900817871,-16.207000732421875 -3.7109999656677246,-18.18899917602539 0.8069999814033508,-16.117000579833984 C0.8069999814033508,-16.117000579833984 11.689000129699707,-11.12600040435791 11.689000129699707,-11.12600040435791 C16.207000732421875,-9.053999900817871 18.18899917602539,-3.7109999656677246 16.117000579833984,0.8069999814033508z"></path></g></g><g transform="matrix(3.738257884979248,1.42317533493042,-1.42317533493042,3.738257884979248,1028.7733154296875,859.4496459960938)" opacity="1" style="display: block;"><g opacity="1" transform="matrix(1,0,0,1,0,0)"><path fill="rgb(22,110,225)" fill-opacity="1" d=" M15.6899995803833,-3.7739999294281006 C15.6899995803833,-3.7739999294281006 13.972000122070312,8.074000358581543 13.972000122070312,8.074000358581543 C13.258999824523926,12.993000030517578 8.692999839782715,16.402999877929688 3.7739999294281006,15.6899995803833 C3.7739999294281006,15.6899995803833 -8.074000358581543,13.972000122070312 -8.074000358581543,13.972000122070312 C-12.993000030517578,13.258999824523926 -16.402999877929688,8.692999839782715 -15.6899995803833,3.7739999294281006 C-15.6899995803833,3.7739999294281006 -13.972000122070312,-8.074000358581543 -13.972000122070312,-8.074000358581543 C-13.258999824523926,-12.993000030517578 -8.692999839782715,-16.402999877929688 -3.7739999294281006,-15.6899995803833 C-3.7739999294281006,-15.6899995803833 8.074000358581543,-13.972000122070312 8.074000358581543,-13.972000122070312 C12.993000030517578,-13.258999824523926 16.402999877929688,-8.692999839782715 15.6899995803833,-3.7739999294281006z"></path></g></g><g transform="matrix(3.738257884979248,1.42317533493042,-1.42317533493042,3.738257884979248,1119.390380859375,755.2952880859375)" opacity="1" style="display: block;"><g opacity="1" transform="matrix(1,0,0,1,0,0)"><path fill="rgb(22,110,225)" fill-opacity="1" d=" M13.991999626159668,-8.039999961853027 C13.991999626159668,-8.039999961853027 15.680000305175781,3.812000036239624 15.680000305175781,3.812000036239624 C16.381000518798828,8.732999801635742 12.961000442504883,13.291000366210938 8.039999961853027,13.991999626159668 C8.039999961853027,13.991999626159668 -3.812000036239624,15.680000305175781 -3.812000036239624,15.680000305175781 C-8.732999801635742,16.381000518798828 -13.291000366210938,12.961000442504883 -13.991999626159668,8.039999961853027 C-13.991999626159668,8.039999961853027 -15.680000305175781,-3.812000036239624 -15.680000305175781,-3.812000036239624 C-16.381000518798828,-8.732999801635742 -12.961000442504883,-13.291000366210938 -8.039999961853027,-13.991999626159668 C-8.039999961853027,-13.991999626159668 3.812000036239624,-15.680000305175781 3.812000036239624,-15.680000305175781 C8.732999801635742,-16.381000518798828 13.291000366210938,-12.961000442504883 13.991999626159668,-8.039999961853027z"></path></g></g><g transform="matrix(3.738257884979248,1.42317533493042,-1.42317533493042,3.738257884979248,1081.703125,621.31103515625)" opacity="1" style="display: block;"><g opacity="1" transform="matrix(1,0,0,1,0,0)"><path fill="rgb(22,110,225)" fill-opacity="1" d=" M11.154000282287598,-11.66100025177002 C11.154000282287598,-11.66100025177002 16.118999481201172,-0.7680000066757202 16.118999481201172,-0.7680000066757202 C18.18000030517578,3.755000114440918 16.18400001525879,9.093000411987305 11.66100025177002,11.154000282287598 C11.66100025177002,11.154000282287598 0.7680000066757202,16.118999481201172 0.7680000066757202,16.118999481201172 C-3.755000114440918,18.18000030517578 -9.093000411987305,16.18400001525879 -11.154000282287598,11.66100025177002 C-11.154000282287598,11.66100025177002 -16.118999481201172,0.7680000066757202 -16.118999481201172,0.7680000066757202 C-18.18000030517578,-3.755000114440918 -16.18400001525879,-9.093000411987305 -11.66100025177002,-11.154000282287598 C-11.66100025177002,-11.154000282287598 -0.7680000066757202,-16.118999481201172 -0.7680000066757202,-16.118999481201172 C3.755000114440918,-18.18000030517578 9.093000411987305,-16.18400001525879 11.154000282287598,-11.66100025177002z"></path></g></g><g transform="matrix(3.738257884979248,1.42317533493042,-1.42317533493042,3.738257884979248,1101.569091796875,484.6924743652344)" opacity="1" style="display: block;"><g opacity="1" transform="matrix(1,0,0,1,0,0)"><path fill="rgb(22,110,225)" fill-opacity="1" d=" M7.418000221252441,-14.331000328063965 C7.418000221252441,-14.331000328063965 15.25,-5.2769999504089355 15.25,-5.2769999504089355 C18.50200080871582,-1.5180000066757202 18.09000015258789,4.165999889373779 14.331000328063965,7.418000221252441 C14.331000328063965,7.418000221252441 5.2769999504089355,15.25 5.2769999504089355,15.25 C1.5180000066757202,18.50200080871582 -4.165999889373779,18.09000015258789 -7.418000221252441,14.331000328063965 C-7.418000221252441,14.331000328063965 -15.25,5.2769999504089355 -15.25,5.2769999504089355 C-18.50200080871582,1.5180000066757202 -18.09000015258789,-4.165999889373779 -14.331000328063965,-7.418000221252441 C-14.331000328063965,-7.418000221252441 -5.2769999504089355,-15.25 -5.2769999504089355,-15.25 C-1.5180000066757202,-18.50200080871582 4.165999889373779,-18.09000015258789 7.418000221252441,-14.331000328063965z"></path></g></g><g transform="matrix(3.738257884979248,1.42317533493042,-1.42317533493042,3.738257884979248,997.3900146484375,392.3946838378906)" opacity="1" style="display: block;"><g opacity="1" transform="matrix(1,0,0,1,0,0)"><path fill="rgb(22,110,225)" fill-opacity="1" d=" M3.072999954223633,-15.842000007629395 C3.072999954223633,-15.842000007629395 13.140999794006348,-9.364999771118164 13.140999794006348,-9.364999771118164 C17.320999145507812,-6.676000118255615 18.5310001373291,-1.1069999933242798 15.842000007629395,3.072999954223633 C15.842000007629395,3.072999954223633 9.364999771118164,13.140999794006348 9.364999771118164,13.140999794006348 C6.676000118255615,17.320999145507812 1.1069999933242798,18.5310001373291 -3.072999954223633,15.842000007629395 C-3.072999954223633,15.842000007629395 -13.140999794006348,9.364999771118164 -13.140999794006348,9.364999771118164 C-17.320999145507812,6.676000118255615 -18.5310001373291,1.1069999933242798 -15.842000007629395,-3.072999954223633 C-15.842000007629395,-3.072999954223633 -9.364999771118164,-13.140999794006348 -9.364999771118164,-13.140999794006348 C-6.676000118255615,-17.320999145507812 -1.1069999933242798,-18.5310001373291 3.072999954223633,-15.842000007629395z"></path></g></g><g transform="matrix(3.738257884979248,1.42317533493042,-1.42317533493042,3.738257884979248,940.1925659179688,266.7452697753906)" opacity="1" style="display: block;"><g opacity="1" transform="matrix(1,0,0,1,0,0)"><path fill="rgb(22,110,225)" fill-opacity="1" d=" M-1.5140000581741333,-16.06599998474121 C-1.5140000581741333,-16.06599998474121 9.970999717712402,-12.687999725341797 9.970999717712402,-12.687999725341797 C14.739999771118164,-11.28499984741211 17.4689998626709,-6.2829999923706055 16.06599998474121,-1.5140000581741333 C16.06599998474121,-1.5140000581741333 12.687999725341797,9.970999717712402 12.687999725341797,9.970999717712402 C11.28499984741211,14.739999771118164 6.2829999923706055,17.4689998626709 1.5140000581741333,16.06599998474121 C1.5140000581741333,16.06599998474121 -9.970999717712402,12.687999725341797 -9.970999717712402,12.687999725341797 C-14.739999771118164,11.28499984741211 -17.4689998626709,6.2829999923706055 -16.06599998474121,1.5140000581741333 C-16.06599998474121,1.5140000581741333 -12.687999725341797,-9.970999717712402 -12.687999725341797,-9.970999717712402 C-11.28499984741211,-14.739999771118164 -6.2829999923706055,-17.4689998626709 -1.5140000581741333,-16.06599998474121z"></path></g></g><g transform="matrix(3.738257884979248,1.42317533493042,-1.42317533493042,3.738257884979248,802.6429443359375,245.47726440429688)" opacity="1" style="display: block;"><g opacity="1" transform="matrix(1,0,0,1,0,0)"><path fill="rgb(22,110,225)" fill-opacity="1" d=" M-5.986000061035156,-14.986000061035156 C-5.986000061035156,-14.986000061035156 5.986000061035156,-14.986000061035156 5.986000061035156,-14.986000061035156 C10.956999778747559,-14.986000061035156 14.986000061035156,-10.956999778747559 14.986000061035156,-5.986000061035156 C14.986000061035156,-5.986000061035156 14.986000061035156,5.986000061035156 14.986000061035156,5.986000061035156 C14.986000061035156,10.956999778747559 10.956999778747559,14.986000061035156 5.986000061035156,14.986000061035156 C5.986000061035156,14.986000061035156 -5.986000061035156,14.986000061035156 -5.986000061035156,14.986000061035156 C-10.956999778747559,14.986000061035156 -14.986000061035156,10.956999778747559 -14.986000061035156,5.986000061035156 C-14.986000061035156,5.986000061035156 -14.986000061035156,-5.986000061035156 -14.986000061035156,-5.986000061035156 C-14.986000061035156,-10.956999778747559 -10.956999778747559,-14.986000061035156 -5.986000061035156,-14.986000061035156z"></path></g></g><g transform="matrix(3.738257884979248,1.42317533493042,-1.42317533493042,3.738257884979248,686.56396484375,170.7438507080078)" opacity="1" style="display: block;"><g opacity="1" transform="matrix(1,0,0,1,0,0)"><path fill="rgb(22,110,225)" fill-opacity="1" d=" M-9.96500015258789,-12.692999839782715 C-9.96500015258789,-12.692999839782715 1.5219999551773071,-16.065000534057617 1.5219999551773071,-16.065000534057617 C6.290999889373779,-17.46500015258789 11.293000221252441,-14.734000205993652 12.692999839782715,-9.96500015258789 C12.692999839782715,-9.96500015258789 16.065000534057617,1.5219999551773071 16.065000534057617,1.5219999551773071 C17.46500015258789,6.290999889373779 14.734000205993652,11.293000221252441 9.96500015258789,12.692999839782715 C9.96500015258789,12.692999839782715 -1.5219999551773071,16.065000534057617 -1.5219999551773071,16.065000534057617 C-6.290999889373779,17.46500015258789 -11.293000221252441,14.734000205993652 -12.692999839782715,9.96500015258789 C-12.692999839782715,9.96500015258789 -16.065000534057617,-1.5219999551773071 -16.065000534057617,-1.5219999551773071 C-17.46500015258789,-6.290999889373779 -14.734000205993652,-11.293000221252441 -9.96500015258789,-12.692999839782715z"></path></g></g></g></svg>