<svg xmlns="http://www.w3.org/2000/svg" viewBox="0 0 1300 1300" width="1300" height="1300" preserveAspectRatio="xMidYMid meet" style="width: 100%; height: 100%; transform: translate3d(0px, 0px, 0px); content-visibility: visible;"><defs><clipPath id="__lottie_element_3282"><rect width="1300" height="1300" x="0" y="0"></rect></clipPath></defs><g clip-path="url(#__lottie_element_3282)"><g transform="matrix(1,0,0,1,-310,-310)" opacity="1" style="display: block;"><rect width="1920" height="1920" fill="#ffffff"></rect></g><g transform="matrix(1,0,0,1,798.25,134)" opacity="1" style="display: block;"><g opacity="1" transform="matrix(1,0,0,1,-148.25,7.25)"><path fill="rgb(255,224,144)" fill-opacity="1" d=" M60,-25.5 C60,-25.5 60,25.5 60,25.5 C60,44.540550231933594 44.540550231933594,60 25.5,60 C25.5,60 -25.5,60 -25.5,60 C-44.540550231933594,60 -60,44.540550231933594 -60,25.5 C-60,25.5 -60,-25.5 -60,-25.5 C-60,-44.540550231933594 -44.540550231933594,-60 -25.5,-60 C-25.5,-60 25.5,-60 25.5,-60 C44.540550231933594,-60 60,-44.540550231933594 60,-25.5z"></path><path stroke-linecap="butt" stroke-linejoin="miter" fill-opacity="0" stroke-miterlimit="4" stroke="rgb(33,10,47)" stroke-opacity="1" stroke-width="0" d=" M60,-25.5 C60,-25.5 60,25.5 60,25.5 C60,44.540550231933594 44.540550231933594,60 25.5,60 C25.5,60 -25.5,60 -25.5,60 C-44.540550231933594,60 -60,44.540550231933594 -60,25.5 C-60,25.5 -60,-25.5 -60,-25.5 C-60,-44.540550231933594 -44.540550231933594,-60 -25.5,-60 C-25.5,-60 25.5,-60 25.5,-60 C44.540550231933594,-60 60,-44.540550231933594 60,-25.5z"></path></g></g><g transform="matrix(0.8412560820579529,-0.5406368374824524,0.5406368374824524,0.8412560820579529,495.74761962890625,135.762451171875)" opacity="1" style="display: block;"><g opacity="1" transform="matrix(1,0,0,1,-148.25,7.25)"><path fill="rgb(255,224,144)" fill-opacity="1" d=" M60,-25.5 C60,-25.5 60,25.5 60,25.5 C60,44.540550231933594 44.540550231933594,60 25.5,60 C25.5,60 -25.5,60 -25.5,60 C-44.540550231933594,60 -60,44.540550231933594 -60,25.5 C-60,25.5 -60,-25.5 -60,-25.5 C-60,-44.540550231933594 -44.540550231933594,-60 -25.5,-60 C-25.5,-60 25.5,-60 25.5,-60 C44.540550231933594,-60 60,-44.540550231933594 60,-25.5z"></path><path stroke-linecap="butt" stroke-linejoin="miter" fill-opacity="0" stroke-miterlimit="4" stroke="rgb(33,10,47)" stroke-opacity="1" stroke-width="0" d=" M60,-25.5 C60,-25.5 60,25.5 60,25.5 C60,44.540550231933594 44.540550231933594,60 25.5,60 C25.5,60 -25.5,60 -25.5,60 C-44.540550231933594,60 -60,44.540550231933594 -60,25.5 C-60,25.5 -60,-25.5 -60,-25.5 C-60,-44.540550231933594 -44.540550231933594,-60 -25.5,-60 C-25.5,-60 25.5,-60 25.5,-60 C44.540550231933594,-60 60,-44.540550231933594 60,-25.5z"></path></g></g><g transform="matrix(0.4154236614704132,-0.9096280336380005,0.9096280336380005,0.4154236614704132,242.218505859375,300.7890319824219)" opacity="1" style="display: block;"><g opacity="1" transform="matrix(1,0,0,1,-148.25,7.25)"><path fill="rgb(255,224,144)" fill-opacity="1" d=" M60,-25.5 C60,-25.5 60,25.5 60,25.5 C60,44.540550231933594 44.540550231933594,60 25.5,60 C25.5,60 -25.5,60 -25.5,60 C-44.540550231933594,60 -60,44.540550231933594 -60,25.5 C-60,25.5 -60,-25.5 -60,-25.5 C-60,-44.540550231933594 -44.540550231933594,-60 -25.5,-60 C-25.5,-60 25.5,-60 25.5,-60 C44.540550231933594,-60 60,-44.540550231933594 60,-25.5z"></path><path stroke-linecap="butt" stroke-linejoin="miter" fill-opacity="0" stroke-miterlimit="4" stroke="rgb(33,10,47)" stroke-opacity="1" stroke-width="0" d=" M60,-25.5 C60,-25.5 60,25.5 60,25.5 C60,44.540550231933594 44.540550231933594,60 25.5,60 C25.5,60 -25.5,60 -25.5,60 C-44.540550231933594,60 -60,44.540550231933594 -60,25.5 C-60,25.5 -60,-25.5 -60,-25.5 C-60,-44.540550231933594 -44.540550231933594,-60 -25.5,-60 C-25.5,-60 25.5,-60 25.5,-60 C44.540550231933594,-60 60,-44.540550231933594 60,-25.5z"></path></g></g><g transform="matrix(-0.1423179805278778,-0.9898210167884827,0.9898210167884827,-0.1423179805278778,118.1536865234375,576.6951293945312)" opacity="1" style="display: block;"><g opacity="1" transform="matrix(1,0,0,1,-148.25,7.25)"><path fill="rgb(255,224,144)" fill-opacity="1" d=" M60,-25.5 C60,-25.5 60,25.5 60,25.5 C60,44.540550231933594 44.540550231933594,60 25.5,60 C25.5,60 -25.5,60 -25.5,60 C-44.540550231933594,60 -60,44.540550231933594 -60,25.5 C-60,25.5 -60,-25.5 -60,-25.5 C-60,-44.540550231933594 -44.540550231933594,-60 -25.5,-60 C-25.5,-60 25.5,-60 25.5,-60 C44.540550231933594,-60 60,-44.540550231933594 60,-25.5z"></path><path stroke-linecap="butt" stroke-linejoin="miter" fill-opacity="0" stroke-miterlimit="4" stroke="rgb(33,10,47)" stroke-opacity="1" stroke-width="0" d=" M60,-25.5 C60,-25.5 60,25.5 60,25.5 C60,44.540550231933594 44.540550231933594,60 25.5,60 C25.5,60 -25.5,60 -25.5,60 C-44.540550231933594,60 -60,44.540550231933594 -60,25.5 C-60,25.5 -60,-25.5 -60,-25.5 C-60,-44.540550231933594 -44.540550231933594,-60 -25.5,-60 C-25.5,-60 25.5,-60 25.5,-60 C44.540550231933594,-60 60,-44.540550231933594 60,-25.5z"></path></g></g><g transform="matrix(-0.6548595428466797,-0.7557505965232849,0.7557505965232849,-0.6548595428466797,162.94976806640625,875.8674926757812)" opacity="1" style="display: block;"><g opacity="1" transform="matrix(1,0,0,1,-148.25,7.25)"><path fill="rgb(255,224,144)" fill-opacity="1" d=" M60,-25.5 C60,-25.5 60,25.5 60,25.5 C60,44.540550231933594 44.540550231933594,60 25.5,60 C25.5,60 -25.5,60 -25.5,60 C-44.540550231933594,60 -60,44.540550231933594 -60,25.5 C-60,25.5 -60,-25.5 -60,-25.5 C-60,-44.540550231933594 -44.540550231933594,-60 -25.5,-60 C-25.5,-60 25.5,-60 25.5,-60 C44.540550231933594,-60 60,-44.540550231933594 60,-25.5z"></path><path stroke-linecap="butt" stroke-linejoin="miter" fill-opacity="0" stroke-miterlimit="4" stroke="rgb(33,10,47)" stroke-opacity="1" stroke-width="0" d=" M60,-25.5 C60,-25.5 60,25.5 60,25.5 C60,44.540550231933594 44.540550231933594,60 25.5,60 C25.5,60 -25.5,60 -25.5,60 C-44.540550231933594,60 -60,44.540550231933594 -60,25.5 C-60,25.5 -60,-25.5 -60,-25.5 C-60,-44.540550231933594 -44.540550231933594,-60 -25.5,-60 C-25.5,-60 25.5,-60 25.5,-60 C44.540550231933594,-60 60,-44.540550231933594 60,-25.5z"></path></g></g><g transform="matrix(-0.9594911932945251,-0.28173863887786865,0.28173863887786865,-0.9594911932945251,362.3782958984375,1103.3297119140625)" opacity="1" style="display: block;"><g opacity="1" transform="matrix(1,0,0,1,-148.25,7.25)"><path fill="rgb(255,224,144)" fill-opacity="1" d=" M60,-25.5 C60,-25.5 60,25.5 60,25.5 C60,44.540550231933594 44.540550231933594,60 25.5,60 C25.5,60 -25.5,60 -25.5,60 C-44.540550231933594,60 -60,44.540550231933594 -60,25.5 C-60,25.5 -60,-25.5 -60,-25.5 C-60,-44.540550231933594 -44.540550231933594,-60 -25.5,-60 C-25.5,-60 25.5,-60 25.5,-60 C44.540550231933594,-60 60,-44.540550231933594 60,-25.5z"></path><path stroke-linecap="butt" stroke-linejoin="miter" fill-opacity="0" stroke-miterlimit="4" stroke="rgb(33,10,47)" stroke-opacity="1" stroke-width="0" d=" M60,-25.5 C60,-25.5 60,25.5 60,25.5 C60,44.540550231933594 44.540550231933594,60 25.5,60 C25.5,60 -25.5,60 -25.5,60 C-44.540550231933594,60 -60,44.540550231933594 -60,25.5 C-60,25.5 -60,-25.5 -60,-25.5 C-60,-44.540550231933594 -44.540550231933594,-60 -25.5,-60 C-25.5,-60 25.5,-60 25.5,-60 C44.540550231933594,-60 60,-44.540550231933594 60,-25.5z"></path></g></g><g transform="matrix(-0.9594960808753967,0.28172188997268677,-0.28172188997268677,-0.9594960808753967,653.1232299804688,1186.865234375)" opacity="1" style="display: block;"><g opacity="1" transform="matrix(1,0,0,1,-148.25,7.25)"><path fill="rgb(255,224,144)" fill-opacity="1" d=" M60,-25.5 C60,-25.5 60,25.5 60,25.5 C60,44.540550231933594 44.540550231933594,60 25.5,60 C25.5,60 -25.5,60 -25.5,60 C-44.540550231933594,60 -60,44.540550231933594 -60,25.5 C-60,25.5 -60,-25.5 -60,-25.5 C-60,-44.540550231933594 -44.540550231933594,-60 -25.5,-60 C-25.5,-60 25.5,-60 25.5,-60 C44.540550231933594,-60 60,-44.540550231933594 60,-25.5z"></path><path stroke-linecap="butt" stroke-linejoin="miter" fill-opacity="0" stroke-miterlimit="4" stroke="rgb(33,10,47)" stroke-opacity="1" stroke-width="0" d=" M60,-25.5 C60,-25.5 60,25.5 60,25.5 C60,44.540550231933594 44.540550231933594,60 25.5,60 C25.5,60 -25.5,60 -25.5,60 C-44.540550231933594,60 -60,44.540550231933594 -60,25.5 C-60,25.5 -60,-25.5 -60,-25.5 C-60,-44.540550231933594 -44.540550231933594,-60 -25.5,-60 C-25.5,-60 25.5,-60 25.5,-60 C44.540550231933594,-60 60,-44.540550231933594 60,-25.5z"></path></g></g><g transform="matrix(-0.6548595428466797,0.7557505965232849,-0.7557505965232849,-0.6548595428466797,942.8843994140625,1099.947509765625)" opacity="1" style="display: block;"><g opacity="1" transform="matrix(1,0,0,1,-148.25,7.25)"><path fill="rgb(255,224,144)" fill-opacity="1" d=" M60,-25.5 C60,-25.5 60,25.5 60,25.5 C60,44.540550231933594 44.540550231933594,60 25.5,60 C25.5,60 -25.5,60 -25.5,60 C-44.540550231933594,60 -60,44.540550231933594 -60,25.5 C-60,25.5 -60,-25.5 -60,-25.5 C-60,-44.540550231933594 -44.540550231933594,-60 -25.5,-60 C-25.5,-60 25.5,-60 25.5,-60 C44.540550231933594,-60 60,-44.540550231933594 60,-25.5z"></path><path stroke-linecap="butt" stroke-linejoin="miter" fill-opacity="0" stroke-miterlimit="4" stroke="rgb(33,10,47)" stroke-opacity="1" stroke-width="0" d=" M60,-25.5 C60,-25.5 60,25.5 60,25.5 C60,44.540550231933594 44.540550231933594,60 25.5,60 C25.5,60 -25.5,60 -25.5,60 C-44.540550231933594,60 -60,44.540550231933594 -60,25.5 C-60,25.5 -60,-25.5 -60,-25.5 C-60,-44.540550231933594 -44.540550231933594,-60 -25.5,-60 C-25.5,-60 25.5,-60 25.5,-60 C44.540550231933594,-60 60,-44.540550231933594 60,-25.5z"></path></g></g><g transform="matrix(-0.1423179805278778,0.9898210167884827,-0.9898210167884827,-0.1423179805278778,1139.6490478515625,870.1770629882812)" opacity="1" style="display: block;"><g opacity="1" transform="matrix(1,0,0,1,-148.25,7.25)"><path fill="rgb(255,224,144)" fill-opacity="1" d=" M60,-25.5 C60,-25.5 60,25.5 60,25.5 C60,44.540550231933594 44.540550231933594,60 25.5,60 C25.5,60 -25.5,60 -25.5,60 C-44.540550231933594,60 -60,44.540550231933594 -60,25.5 C-60,25.5 -60,-25.5 -60,-25.5 C-60,-44.540550231933594 -44.540550231933594,-60 -25.5,-60 C-25.5,-60 25.5,-60 25.5,-60 C44.540550231933594,-60 60,-44.540550231933594 60,-25.5z"></path><path stroke-linecap="butt" stroke-linejoin="miter" fill-opacity="0" stroke-miterlimit="4" stroke="rgb(33,10,47)" stroke-opacity="1" stroke-width="0" d=" M60,-25.5 C60,-25.5 60,25.5 60,25.5 C60,44.540550231933594 44.540550231933594,60 25.5,60 C25.5,60 -25.5,60 -25.5,60 C-44.540550231933594,60 -60,44.540550231933594 -60,25.5 C-60,25.5 -60,-25.5 -60,-25.5 C-60,-44.540550231933594 -44.540550231933594,-60 -25.5,-60 C-25.5,-60 25.5,-60 25.5,-60 C44.540550231933594,-60 60,-44.540550231933594 60,-25.5z"></path></g></g><g transform="matrix(0.41540780663490295,0.9096353054046631,-0.9096353054046631,0.41540780663490295,1180.9560546875,570.5029907226562)" opacity="1" style="display: block;"><g opacity="1" transform="matrix(1,0,0,1,-148.25,7.25)"><path fill="rgb(255,224,144)" fill-opacity="1" d=" M60,-25.5 C60,-25.5 60,25.5 60,25.5 C60,44.540550231933594 44.540550231933594,60 25.5,60 C25.5,60 -25.5,60 -25.5,60 C-44.540550231933594,60 -60,44.540550231933594 -60,25.5 C-60,25.5 -60,-25.5 -60,-25.5 C-60,-44.540550231933594 -44.540550231933594,-60 -25.5,-60 C-25.5,-60 25.5,-60 25.5,-60 C44.540550231933594,-60 60,-44.540550231933594 60,-25.5z"></path><path stroke-linecap="butt" stroke-linejoin="miter" fill-opacity="0" stroke-miterlimit="4" stroke="rgb(33,10,47)" stroke-opacity="1" stroke-width="0" d=" M60,-25.5 C60,-25.5 60,25.5 60,25.5 C60,44.540550231933594 44.540550231933594,60 25.5,60 C25.5,60 -25.5,60 -25.5,60 C-44.540550231933594,60 -60,44.540550231933594 -60,25.5 C-60,25.5 -60,-25.5 -60,-25.5 C-60,-44.540550231933594 -44.540550231933594,-60 -25.5,-60 C-25.5,-60 25.5,-60 25.5,-60 C44.540550231933594,-60 60,-44.540550231933594 60,-25.5z"></path></g></g><g transform="matrix(0.8412560820579529,0.5406368374824524,-0.5406368374824524,0.8412560820579529,1053.684814453125,296.061279296875)" opacity="1" style="display: block;"><g opacity="1" transform="matrix(1,0,0,1,-148.25,7.25)"><path fill="rgb(255,224,144)" fill-opacity="1" d=" M60,-25.5 C60,-25.5 60,25.5 60,25.5 C60,44.540550231933594 44.540550231933594,60 25.5,60 C25.5,60 -25.5,60 -25.5,60 C-44.540550231933594,60 -60,44.540550231933594 -60,25.5 C-60,25.5 -60,-25.5 -60,-25.5 C-60,-44.540550231933594 -44.540550231933594,-60 -25.5,-60 C-25.5,-60 25.5,-60 25.5,-60 C44.540550231933594,-60 60,-44.540550231933594 60,-25.5z"></path><path stroke-linecap="butt" stroke-linejoin="miter" fill-opacity="0" stroke-miterlimit="4" stroke="rgb(33,10,47)" stroke-opacity="1" stroke-width="0" d=" M60,-25.5 C60,-25.5 60,25.5 60,25.5 C60,44.540550231933594 44.540550231933594,60 25.5,60 C25.5,60 -25.5,60 -25.5,60 C-44.540550231933594,60 -60,44.540550231933594 -60,25.5 C-60,25.5 -60,-25.5 -60,-25.5 C-60,-44.540550231933594 -44.540550231933594,-60 -25.5,-60 C-25.5,-60 25.5,-60 25.5,-60 C44.540550231933594,-60 60,-44.540550231933594 60,-25.5z"></path></g></g><g transform="matrix(1,0,0,1,650.5,650.5)" opacity="1" style="display: block;"><g opacity="1" transform="matrix(1,0,0,1,-148.25,7.25)"><path fill="rgb(255,186,5)" fill-opacity="1" d=" M60,-25.5 C60,-25.5 60,25.5 60,25.5 C60,44.540550231933594 44.540550231933594,60 25.5,60 C25.5,60 -25.5,60 -25.5,60 C-44.540550231933594,60 -60,44.540550231933594 -60,25.5 C-60,25.5 -60,-25.5 -60,-25.5 C-60,-44.540550231933594 -44.540550231933594,-60 -25.5,-60 C-25.5,-60 25.5,-60 25.5,-60 C44.540550231933594,-60 60,-44.540550231933594 60,-25.5z"></path><path stroke-linecap="butt" stroke-linejoin="miter" fill-opacity="0" stroke-miterlimit="4" stroke="rgb(33,10,47)" stroke-opacity="1" stroke-width="0" d=" M60,-25.5 C60,-25.5 60,25.5 60,25.5 C60,44.540550231933594 44.540550231933594,60 25.5,60 C25.5,60 -25.5,60 -25.5,60 C-44.540550231933594,60 -60,44.540550231933594 -60,25.5 C-60,25.5 -60,-25.5 -60,-25.5 C-60,-44.540550231933594 -44.540550231933594,-60 -25.5,-60 C-25.5,-60 25.5,-60 25.5,-60 C44.540550231933594,-60 60,-44.540550231933594 60,-25.5z"></path></g></g><g transform="matrix(1,0,0,1,945.5,650.5)" opacity="1" style="display: block;"><g opacity="1" transform="matrix(1,0,0,1,-148.25,7.25)"><path fill="rgb(255,186,5)" fill-opacity="1" d=" M60,-25.5 C60,-25.5 60,25.5 60,25.5 C60,44.540550231933594 44.540550231933594,60 25.5,60 C25.5,60 -25.5,60 -25.5,60 C-44.540550231933594,60 -60,44.540550231933594 -60,25.5 C-60,25.5 -60,-25.5 -60,-25.5 C-60,-44.540550231933594 -44.540550231933594,-60 -25.5,-60 C-25.5,-60 25.5,-60 25.5,-60 C44.540550231933594,-60 60,-44.540550231933594 60,-25.5z"></path><path stroke-linecap="butt" stroke-linejoin="miter" fill-opacity="0" stroke-miterlimit="4" stroke="rgb(33,10,47)" stroke-opacity="1" stroke-width="0" d=" M60,-25.5 C60,-25.5 60,25.5 60,25.5 C60,44.540550231933594 44.540550231933594,60 25.5,60 C25.5,60 -25.5,60 -25.5,60 C-44.540550231933594,60 -60,44.540550231933594 -60,25.5 C-60,25.5 -60,-25.5 -60,-25.5 C-60,-44.540550231933594 -44.540550231933594,-60 -25.5,-60 C-25.5,-60 25.5,-60 25.5,-60 C44.540550231933594,-60 60,-44.540550231933594 60,-25.5z"></path></g></g></g></svg>