<svg xmlns="http://www.w3.org/2000/svg" viewBox="0 0 1300 1300" width="1300" height="1300" preserveAspectRatio="xMidYMid meet" style="width: 100%; height: 100%; transform: translate3d(0px, 0px, 0px); content-visibility: visible;"><defs><clipPath id="__lottie_element_4309"><rect width="1300" height="1300" x="0" y="0"></rect></clipPath><clipPath id="__lottie_element_4311"><path d="M0,0 L1600,0 L1600,1600 L0,1600z"></path></clipPath><clipPath id="__lottie_element_4383"><path d="M0,0 L1600,0 L1600,1600 L0,1600z"></path></clipPath></defs><g clip-path="url(#__lottie_element_4309)"><g clip-path="url(#__lottie_element_4311)" transform="matrix(1,0,0,1,-150,-150)" opacity="1" style="display: block;"><g transform="matrix(3.9998912811279297,0,0,3.9998912811279297,521.7589721679688,372.26300048828125)" opacity="1" style="display: block;"><g opacity="1" transform="matrix(1,0,0,1,0,0)"><path fill="rgb(255,186,5)" fill-opacity="1" d=" M-13.21399974822998,-9.3149995803833 C-13.21399974822998,-9.3149995803833 -3.134999990463257,-15.859999656677246 -3.134999990463257,-15.859999656677246 C1.034000039100647,-18.566999435424805 6.607999801635742,-17.382999420166016 9.3149995803833,-13.21399974822998 C9.3149995803833,-13.21399974822998 15.859999656677246,-3.134999990463257 15.859999656677246,-3.134999990463257 C18.566999435424805,1.034000039100647 17.382999420166016,6.607999801635742 13.21399974822998,9.3149995803833 C13.21399974822998,9.3149995803833 3.134999990463257,15.859999656677246 3.134999990463257,15.859999656677246 C-1.034000039100647,18.566999435424805 -6.607999801635742,17.382999420166016 -9.3149995803833,13.21399974822998 C-9.3149995803833,13.21399974822998 -15.859999656677246,3.134999990463257 -15.859999656677246,3.134999990463257 C-18.566999435424805,-1.034000039100647 -17.382999420166016,-6.607999801635742 -13.21399974822998,-9.3149995803833z"></path></g></g><g transform="matrix(3.9998912811279297,0,0,3.9998912811279297,334.9389953613281,590.2359619140625)" opacity="1" style="display: block;"><g opacity="1" transform="matrix(1,0,0,1,0,0)"><path fill="rgb(255,186,5)" fill-opacity="1" d=" M-16.152000427246094,-0.699999988079071 C-16.152000427246094,-0.699999988079071 -11.206000328063965,-11.652999877929688 -11.206000328063965,-11.652999877929688 C-9.16100025177002,-16.183000564575195 -3.8299999237060547,-18.19700050354004 0.699999988079071,-16.152000427246094 C0.699999988079071,-16.152000427246094 11.652999877929688,-11.206000328063965 11.652999877929688,-11.206000328063965 C16.183000564575195,-9.16100025177002 18.19700050354004,-3.8299999237060547 16.152000427246094,0.699999988079071 C16.152000427246094,0.699999988079071 11.206000328063965,11.652999877929688 11.206000328063965,11.652999877929688 C9.16100025177002,16.183000564575195 3.8299999237060547,18.19700050354004 -0.699999988079071,16.152000427246094 C-0.699999988079071,16.152000427246094 -11.652999877929688,11.206000328063965 -11.652999877929688,11.206000328063965 C-16.183000564575195,9.16100025177002 -18.19700050354004,3.8299999237060547 -16.152000427246094,-0.699999988079071z"></path></g></g><g transform="matrix(3.9998912811279297,0,0,3.9998912811279297,295.4859924316406,874.5899658203125)" opacity="1" style="display: block;"><g opacity="1" transform="matrix(1,0,0,1,0,0)"><path fill="rgb(255,186,5)" fill-opacity="1" d=" M-13.970000267028809,8.13700008392334 C-13.970000267028809,8.13700008392334 -15.72599983215332,-3.752000093460083 -15.72599983215332,-3.752000093460083 C-16.45199966430664,-8.668999671936035 -13.053999900817871,-13.244000434875488 -8.13700008392334,-13.970000267028809 C-8.13700008392334,-13.970000267028809 3.752000093460083,-15.72599983215332 3.752000093460083,-15.72599983215332 C8.668999671936035,-16.45199966430664 13.244000434875488,-13.053999900817871 13.970000267028809,-8.13700008392334 C13.970000267028809,-8.13700008392334 15.72599983215332,3.752000093460083 15.72599983215332,3.752000093460083 C16.45199966430664,8.668999671936035 13.053999900817871,13.244000434875488 8.13700008392334,13.970000267028809 C8.13700008392334,13.970000267028809 -3.752000093460083,15.72599983215332 -3.752000093460083,15.72599983215332 C-8.668999671936035,16.45199966430664 -13.244000434875488,13.053999900817871 -13.970000267028809,8.13700008392334z"></path></g></g><g transform="matrix(3.9998912811279297,0,0,3.9998912811279297,415.9049987792969,1135.19091796875)" opacity="1" style="display: block;"><g opacity="1" transform="matrix(1,0,0,1,0,0)"><path fill="rgb(255,186,5)" fill-opacity="1" d=" M-7.360000133514404,14.395000457763672 C-7.360000133514404,14.395000457763672 -15.260000228881836,5.3379998207092285 -15.260000228881836,5.3379998207092285 C-18.527999877929688,1.5920000076293945 -18.141000747680664,-4.0920000076293945 -14.395000457763672,-7.360000133514404 C-14.395000457763672,-7.360000133514404 -5.3379998207092285,-15.260000228881836 -5.3379998207092285,-15.260000228881836 C-1.5920000076293945,-18.527999877929688 4.0920000076293945,-18.141000747680664 7.360000133514404,-14.395000457763672 C7.360000133514404,-14.395000457763672 15.260000228881836,-5.3379998207092285 15.260000228881836,-5.3379998207092285 C18.527999877929688,-1.5920000076293945 18.141000747680664,4.0920000076293945 14.395000457763672,7.360000133514404 C14.395000457763672,7.360000133514404 5.3379998207092285,15.260000228881836 5.3379998207092285,15.260000228881836 C1.5920000076293945,18.527999877929688 -4.0920000076293945,18.141000747680664 -7.360000133514404,14.395000457763672z"></path></g></g><g transform="matrix(3.9998912811279297,0,0,3.9998912811279297,658.0260009765625,1289.4339599609375)" opacity="1" style="display: block;"><g opacity="1" transform="matrix(1,0,0,1,0,0)"><path fill="rgb(255,186,5)" fill-opacity="1" d=" M1.5829999446868896,16.09000015258789 C1.5829999446868896,16.09000015258789 -9.958000183105469,12.737000465393066 -9.958000183105469,12.737000465393066 C-14.730999946594238,11.350000381469727 -17.476999282836914,6.355999946594238 -16.09000015258789,1.5829999446868896 C-16.09000015258789,1.5829999446868896 -12.737000465393066,-9.958000183105469 -12.737000465393066,-9.958000183105469 C-11.350000381469727,-14.730999946594238 -6.355999946594238,-17.476999282836914 -1.5829999446868896,-16.09000015258789 C-1.5829999446868896,-16.09000015258789 9.958000183105469,-12.737000465393066 9.958000183105469,-12.737000465393066 C14.730999946594238,-11.350000381469727 17.476999282836914,-6.355999946594238 16.09000015258789,-1.5829999446868896 C16.09000015258789,-1.5829999446868896 12.737000465393066,9.958000183105469 12.737000465393066,9.958000183105469 C11.350000381469727,14.730999946594238 6.355999946594238,17.476999282836914 1.5829999446868896,16.09000015258789z"></path></g></g><g transform="matrix(3.9998912811279297,0,0,3.9998912811279297,945.1019897460938,1288.427978515625)" opacity="1" style="display: block;"><g opacity="1" transform="matrix(1,0,0,1,0,0)"><path fill="rgb(255,186,5)" fill-opacity="1" d=" M10.02400016784668,12.684000015258789 C10.02400016784668,12.684000015258789 -1.4989999532699585,16.097999572753906 -1.4989999532699585,16.097999572753906 C-6.264999866485596,17.510000228881836 -11.272000312805176,14.789999961853027 -12.684000015258789,10.02400016784668 C-12.684000015258789,10.02400016784668 -16.097999572753906,-1.4989999532699585 -16.097999572753906,-1.4989999532699585 C-17.510000228881836,-6.264999866485596 -14.789999961853027,-11.272000312805176 -10.02400016784668,-12.684000015258789 C-10.02400016784668,-12.684000015258789 1.4989999532699585,-16.097999572753906 1.4989999532699585,-16.097999572753906 C6.264999866485596,-17.510000228881836 11.272000312805176,-14.789999961853027 12.684000015258789,-10.02400016784668 C12.684000015258789,-10.02400016784668 16.097999572753906,1.4989999532699585 16.097999572753906,1.4989999532699585 C17.510000228881836,6.264999866485596 14.789999961853027,11.272000312805176 10.02400016784668,12.684000015258789z"></path></g></g><g transform="matrix(3.9998912811279297,0,0,3.9998912811279297,1186.135986328125,1132.490966796875)" opacity="1" style="display: block;"><g opacity="1" transform="matrix(1,0,0,1,0,0)"><path fill="rgb(255,186,5)" fill-opacity="1" d=" M15.288000106811523,5.257999897003174 C15.288000106811523,5.257999897003174 7.434999942779541,14.355999946594238 7.434999942779541,14.355999946594238 C4.186999797821045,18.118999481201172 -1.4950000047683716,18.535999298095703 -5.257999897003174,15.288000106811523 C-5.257999897003174,15.288000106811523 -14.355999946594238,7.434999942779541 -14.355999946594238,7.434999942779541 C-18.118999481201172,4.186999797821045 -18.535999298095703,-1.4950000047683716 -15.288000106811523,-5.257999897003174 C-15.288000106811523,-5.257999897003174 -7.434999942779541,-14.355999946594238 -7.434999942779541,-14.355999946594238 C-4.186999797821045,-18.118999481201172 1.4950000047683716,-18.535999298095703 5.257999897003174,-15.288000106811523 C5.257999897003174,-15.288000106811523 14.355999946594238,-7.434999942779541 14.355999946594238,-7.434999942779541 C18.118999481201172,-4.186999797821045 18.535999298095703,1.4950000047683716 15.288000106811523,5.257999897003174z"></path></g></g><g transform="matrix(3.9998912811279297,0,0,3.9998912811279297,1304.7259521484375,871.052978515625)" opacity="1" style="display: block;"><g opacity="1" transform="matrix(1,0,0,1,0,0)"><path fill="rgb(255,186,5)" fill-opacity="1" d=" M15.706000328063965,-3.8340001106262207 C15.706000328063965,-3.8340001106262207 14.012999534606934,8.064000129699707 14.012999534606934,8.064000129699707 C13.312999725341797,12.984999656677246 8.755000114440918,16.4060001373291 3.8340001106262207,15.706000328063965 C3.8340001106262207,15.706000328063965 -8.064000129699707,14.012999534606934 -8.064000129699707,14.012999534606934 C-12.984999656677246,13.312999725341797 -16.4060001373291,8.755000114440918 -15.706000328063965,3.8340001106262207 C-15.706000328063965,3.8340001106262207 -14.012999534606934,-8.064000129699707 -14.012999534606934,-8.064000129699707 C-13.312999725341797,-12.984999656677246 -8.755000114440918,-16.4060001373291 -3.8340001106262207,-15.706000328063965 C-3.8340001106262207,-15.706000328063965 8.064000129699707,-14.012999534606934 8.064000129699707,-14.012999534606934 C12.984999656677246,-13.312999725341797 16.4060001373291,-8.755000114440918 15.706000328063965,-3.8340001106262207z"></path></g></g><g transform="matrix(3.9998912811279297,0,0,3.9998912811279297,1263.280029296875,586.9819946289062)" opacity="1" style="display: block;"><g opacity="1" transform="matrix(1,0,0,1,0,0)"><path fill="rgb(255,186,5)" fill-opacity="1" d=" M11.145000457763672,-11.711999893188477 C11.145000457763672,-11.711999893188477 16.148000717163086,-0.7839999794960022 16.148000717163086,-0.7839999794960022 C18.216999053955078,3.734999895095825 16.231000900268555,9.076000213623047 11.711999893188477,11.145000457763672 C11.711999893188477,11.145000457763672 0.7839999794960022,16.148000717163086 0.7839999794960022,16.148000717163086 C-3.734999895095825,18.216999053955078 -9.076000213623047,16.231000900268555 -11.145000457763672,11.711999893188477 C-11.145000457763672,11.711999893188477 -16.148000717163086,0.7839999794960022 -16.148000717163086,0.7839999794960022 C-18.216999053955078,-3.734999895095825 -16.231000900268555,-9.076000213623047 -11.711999893188477,-11.145000457763672 C-11.711999893188477,-11.145000457763672 -0.7839999794960022,-16.148000717163086 -0.7839999794960022,-16.148000717163086 C3.734999895095825,-18.216999053955078 9.076000213623047,-16.231000900268555 11.145000457763672,-11.711999893188477z"></path></g></g><g transform="matrix(3.9998912811279297,0,0,3.9998912811279297,1074.93701171875,370.3240051269531)" opacity="1" style="display: block;"><g opacity="1" transform="matrix(1,0,0,1,0,0)"><path fill="rgb(255,186,5)" fill-opacity="1" d=" M3.052000045776367,-15.876999855041504 C3.052000045776367,-15.876999855041504 13.164999961853027,-9.383999824523926 13.164999961853027,-9.383999824523926 C17.347999572753906,-6.698999881744385 18.562000274658203,-1.13100004196167 15.876999855041504,3.052000045776367 C15.876999855041504,3.052000045776367 9.383999824523926,13.164999961853027 9.383999824523926,13.164999961853027 C6.698999881744385,17.347999572753906 1.13100004196167,18.562000274658203 -3.052000045776367,15.876999855041504 C-3.052000045776367,15.876999855041504 -13.164999961853027,9.383999824523926 -13.164999961853027,9.383999824523926 C-17.347999572753906,6.698999881744385 -18.562000274658203,1.13100004196167 -15.876999855041504,-3.052000045776367 C-15.876999855041504,-3.052000045776367 -9.383999824523926,-13.164999961853027 -9.383999824523926,-13.164999961853027 C-6.698999881744385,-17.347999572753906 -1.13100004196167,-18.562000274658203 3.052000045776367,-15.876999855041504z"></path></g></g><g transform="matrix(3.9998912811279297,0,0,3.9998912811279297,799.39697265625,289.7550048828125)" opacity="1" style="display: block;"><g opacity="1" transform="matrix(1,0,0,1,0,0)"><path fill="rgb(255,186,5)" fill-opacity="1" d=" M-6.008999824523926,-15.008999824523926 C-6.008999824523926,-15.008999824523926 6.008999824523926,-15.008999824523926 6.008999824523926,-15.008999824523926 C10.979999542236328,-15.008999824523926 15.008999824523926,-10.979999542236328 15.008999824523926,-6.008999824523926 C15.008999824523926,-6.008999824523926 15.008999824523926,6.008999824523926 15.008999824523926,6.008999824523926 C15.008999824523926,10.979999542236328 10.979999542236328,15.008999824523926 6.008999824523926,15.008999824523926 C6.008999824523926,15.008999824523926 -6.008999824523926,15.008999824523926 -6.008999824523926,15.008999824523926 C-10.979999542236328,15.008999824523926 -15.008999824523926,10.979999542236328 -15.008999824523926,6.008999824523926 C-15.008999824523926,6.008999824523926 -15.008999824523926,-6.008999824523926 -15.008999824523926,-6.008999824523926 C-15.008999824523926,-10.979999542236328 -10.979999542236328,-15.008999824523926 -6.008999824523926,-15.008999824523926z"></path></g></g><g transform="matrix(3.9948654174804688,0.00031198718352243304,-0.00031198718352243304,3.9948654174804688,503.5838317871094,546.0408325195312)" opacity="1" style="display: block;"><g opacity="1" transform="matrix(1,0,0,1,0,0)"><path fill="rgb(255,224,144)" fill-opacity="1" d=" M-15.303000450134277,-5.216000080108643 C-15.303000450134277,-5.216000080108643 -7.474999904632568,-14.335000038146973 -7.474999904632568,-14.335000038146973 C-4.23799991607666,-18.10700035095215 1.444000005722046,-18.540000915527344 5.216000080108643,-15.303000450134277 C5.216000080108643,-15.303000450134277 14.335000038146973,-7.474999904632568 14.335000038146973,-7.474999904632568 C18.10700035095215,-4.23799991607666 18.540000915527344,1.444000005722046 15.303000450134277,5.216000080108643 C15.303000450134277,5.216000080108643 7.474999904632568,14.335000038146973 7.474999904632568,14.335000038146973 C4.23799991607666,18.10700035095215 -1.444000005722046,18.540000915527344 -5.216000080108643,15.303000450134277 C-5.216000080108643,15.303000450134277 -14.335000038146973,7.474999904632568 -14.335000038146973,7.474999904632568 C-18.10700035095215,4.23799991607666 -18.540000915527344,-1.444000005722046 -15.303000450134277,-5.216000080108643z"></path></g></g><g transform="matrix(3.9948654174804688,0.00031198718352243304,-0.00031198718352243304,3.9948654174804688,413.524169921875,746.289794921875)" opacity="1" style="display: block;"><g opacity="1" transform="matrix(1,0,0,1,0,0)"><path fill="rgb(255,224,144)" fill-opacity="1" d=" M-15.694999694824219,3.878000020980835 C-15.694999694824219,3.878000020980835 -14.03499984741211,-8.024999618530273 -14.03499984741211,-8.024999618530273 C-13.347999572753906,-12.947999954223633 -8.800999641418457,-16.381999969482422 -3.878000020980835,-15.694999694824219 C-3.878000020980835,-15.694999694824219 8.024999618530273,-14.03499984741211 8.024999618530273,-14.03499984741211 C12.947999954223633,-13.347999572753906 16.381999969482422,-8.800999641418457 15.694999694824219,-3.878000020980835 C15.694999694824219,-3.878000020980835 14.03499984741211,8.024999618530273 14.03499984741211,8.024999618530273 C13.347999572753906,12.947999954223633 8.800999641418457,16.381999969482422 3.878000020980835,15.694999694824219 C3.878000020980835,15.694999694824219 -8.024999618530273,14.03499984741211 -8.024999618530273,14.03499984741211 C-12.947999954223633,13.347999572753906 -16.381999969482422,8.800999641418457 -15.694999694824219,3.878000020980835z"></path></g></g><g transform="matrix(3.9948654174804688,0.00031198718352243304,-0.00031198718352243304,3.9948654174804688,445.9232482910156,963.4563598632812)" opacity="1" style="display: block;"><g opacity="1" transform="matrix(1,0,0,1,0,0)"><path fill="rgb(255,224,144)" fill-opacity="1" d=" M-11.11299991607666,11.743000030517578 C-11.11299991607666,11.743000030517578 -16.145999908447266,0.8289999961853027 -16.145999908447266,0.8289999961853027 C-18.22800064086914,-3.684999942779541 -16.256999969482422,-9.031000137329102 -11.743000030517578,-11.11299991607666 C-11.743000030517578,-11.11299991607666 -0.8289999961853027,-16.145999908447266 -0.8289999961853027,-16.145999908447266 C3.684999942779541,-18.22800064086914 9.031000137329102,-16.256999969482422 11.11299991607666,-11.743000030517578 C11.11299991607666,-11.743000030517578 16.145999908447266,-0.8289999961853027 16.145999908447266,-0.8289999961853027 C18.22800064086914,3.684999942779541 16.256999969482422,9.031000137329102 11.743000030517578,11.11299991607666 C11.743000030517578,11.11299991607666 0.8289999961853027,16.145999908447266 0.8289999961853027,16.145999908447266 C-3.684999942779541,18.22800064086914 -9.031000137329102,16.256999969482422 -11.11299991607666,11.743000030517578z"></path></g></g><g transform="matrix(3.9948654174804688,0.00031198718352243304,-0.00031198718352243304,3.9948654174804688,590.5103149414062,1128.6995849609375)" opacity="1" style="display: block;"><g opacity="1" transform="matrix(1,0,0,1,0,0)"><path fill="rgb(255,224,144)" fill-opacity="1" d=" M-3.006999969482422,15.885000228881836 C-3.006999969482422,15.885000228881836 -13.138999938964844,9.420999526977539 -13.138999938964844,9.420999526977539 C-17.32900047302246,6.747000217437744 -18.55900001525879,1.1829999685287476 -15.885000228881836,-3.006999969482422 C-15.885000228881836,-3.006999969482422 -9.420999526977539,-13.138999938964844 -9.420999526977539,-13.138999938964844 C-6.747000217437744,-17.32900047302246 -1.1829999685287476,-18.55900001525879 3.006999969482422,-15.885000228881836 C3.006999969482422,-15.885000228881836 13.138999938964844,-9.420999526977539 13.138999938964844,-9.420999526977539 C17.32900047302246,-6.747000217437744 18.55900001525879,-1.1829999685287476 15.885000228881836,3.006999969482422 C15.885000228881836,3.006999969482422 9.420999526977539,13.138999938964844 9.420999526977539,13.138999938964844 C6.747000217437744,17.32900047302246 1.1829999685287476,18.55900001525879 -3.006999969482422,15.885000228881836z"></path></g></g><g transform="matrix(3.9948654174804688,0.00031198718352243304,-0.00031198718352243304,3.9948654174804688,801.4495849609375,1189.6441650390625)" opacity="1" style="display: block;"><g opacity="1" transform="matrix(1,0,0,1,0,0)"><path fill="rgb(255,224,144)" fill-opacity="1" d=" M6.051000118255615,14.991999626159668 C6.051000118255615,14.991999626159668 -5.9670000076293945,15.026000022888184 -5.9670000076293945,15.026000022888184 C-10.937999725341797,15.039999961853027 -14.977999687194824,11.022000312805176 -14.991999626159668,6.051000118255615 C-14.991999626159668,6.051000118255615 -15.026000022888184,-5.9670000076293945 -15.026000022888184,-5.9670000076293945 C-15.039999961853027,-10.937999725341797 -11.022000312805176,-14.977999687194824 -6.051000118255615,-14.991999626159668 C-6.051000118255615,-14.991999626159668 5.9670000076293945,-15.026000022888184 5.9670000076293945,-15.026000022888184 C10.937999725341797,-15.039999961853027 14.977999687194824,-11.022000312805176 14.991999626159668,-6.051000118255615 C14.991999626159668,-6.051000118255615 15.026000022888184,5.9670000076293945 15.026000022888184,5.9670000076293945 C15.039999961853027,10.937999725341797 11.022000312805176,14.977999687194824 6.051000118255615,14.991999626159668z"></path></g></g><g transform="matrix(3.9948654174804688,0.00031198718352243304,-0.00031198718352243304,3.9948654174804688,1011.886474609375,1126.968505859375)" opacity="1" style="display: block;"><g opacity="1" transform="matrix(1,0,0,1,0,0)"><path fill="rgb(255,224,144)" fill-opacity="1" d=" M13.190999984741211,9.347000122070312 C13.190999984741211,9.347000122070312 3.0959999561309814,15.868000030517578 3.0959999561309814,15.868000030517578 C-1.0789999961853027,18.565000534057617 -6.650000095367432,17.365999221801758 -9.347000122070312,13.190999984741211 C-9.347000122070312,13.190999984741211 -15.868000030517578,3.0959999561309814 -15.868000030517578,3.0959999561309814 C-18.565000534057617,-1.0789999961853027 -17.365999221801758,-6.650000095367432 -13.190999984741211,-9.347000122070312 C-13.190999984741211,-9.347000122070312 -3.0959999561309814,-15.868000030517578 -3.0959999561309814,-15.868000030517578 C1.0789999961853027,-18.565000534057617 6.650000095367432,-17.365999221801758 9.347000122070312,-13.190999984741211 C9.347000122070312,-13.190999984741211 15.868000030517578,-3.0959999561309814 15.868000030517578,-3.0959999561309814 C18.565000534057617,1.0789999961853027 17.365999221801758,6.650000095367432 13.190999984741211,9.347000122070312z"></path></g></g><g transform="matrix(3.9948654174804688,0.00031198718352243304,-0.00031198718352243304,3.9948654174804688,1155.107421875,960.5437622070312)" opacity="1" style="display: block;"><g opacity="1" transform="matrix(1,0,0,1,0,0)"><path fill="rgb(255,224,144)" fill-opacity="1" d=" M16.149999618530273,0.7390000224113464 C16.149999618530273,0.7390000224113464 11.178000450134277,11.680000305175781 11.178000450134277,11.680000305175781 C9.121000289916992,16.204999923706055 3.7860000133514404,18.207000732421875 -0.7390000224113464,16.149999618530273 C-0.7390000224113464,16.149999618530273 -11.680000305175781,11.178000450134277 -11.680000305175781,11.178000450134277 C-16.204999923706055,9.121000289916992 -18.207000732421875,3.7860000133514404 -16.149999618530273,-0.7390000224113464 C-16.149999618530273,-0.7390000224113464 -11.178000450134277,-11.680000305175781 -11.178000450134277,-11.680000305175781 C-9.121000289916992,-16.204999923706055 -3.7860000133514404,-18.207000732421875 0.7390000224113464,-16.149999618530273 C0.7390000224113464,-16.149999618530273 11.680000305175781,-11.178000450134277 11.680000305175781,-11.178000450134277 C16.204999923706055,-9.121000289916992 18.207000732421875,-3.7860000133514404 16.149999618530273,0.7390000224113464z"></path></g></g><g transform="matrix(3.9948654174804688,0.00031198718352243304,-0.00031198718352243304,3.9948654174804688,1185.720458984375,743.1181030273438)" opacity="1" style="display: block;"><g opacity="1" transform="matrix(1,0,0,1,0,0)"><path fill="rgb(255,224,144)" fill-opacity="1" d=" M13.989999771118164,-8.102999687194824 C13.989999771118164,-8.102999687194824 15.717000007629395,3.7899999618530273 15.717000007629395,3.7899999618530273 C16.430999755859375,8.708999633789062 13.022000312805176,13.276000022888184 8.102999687194824,13.989999771118164 C8.102999687194824,13.989999771118164 -3.7899999618530273,15.717000007629395 -3.7899999618530273,15.717000007629395 C-8.708999633789062,16.430999755859375 -13.276000022888184,13.022000312805176 -13.989999771118164,8.102999687194824 C-13.989999771118164,8.102999687194824 -15.717000007629395,-3.7899999618530273 -15.717000007629395,-3.7899999618530273 C-16.430999755859375,-8.708999633789062 -13.022000312805176,-13.276000022888184 -8.102999687194824,-13.989999771118164 C-8.102999687194824,-13.989999771118164 3.7899999618530273,-15.717000007629395 3.7899999618530273,-15.717000007629395 C8.708999633789062,-16.430999755859375 13.276000022888184,-13.022000312805176 13.989999771118164,-8.102999687194824z"></path></g></g><g transform="matrix(3.9948654174804688,0.00031198718352243304,-0.00031198718352243304,3.9948654174804688,1094.02001953125,543.614990234375)" opacity="1" style="display: block;"><g opacity="1" transform="matrix(1,0,0,1,0,0)"><path fill="rgb(255,224,144)" fill-opacity="1" d=" M7.394999980926514,-14.376999855041504 C7.394999980926514,-14.376999855041504 15.27299976348877,-5.301000118255615 15.27299976348877,-5.301000118255615 C18.5310001373291,-1.5470000505447388 18.131000518798828,4.13700008392334 14.376999855041504,7.394999980926514 C14.376999855041504,7.394999980926514 5.301000118255615,15.27299976348877 5.301000118255615,15.27299976348877 C1.5470000505447388,18.5310001373291 -4.13700008392334,18.131000518798828 -7.394999980926514,14.376999855041504 C-7.394999980926514,14.376999855041504 -15.27299976348877,5.301000118255615 -15.27299976348877,5.301000118255615 C-18.5310001373291,1.5470000505447388 -18.131000518798828,-4.13700008392334 -14.376999855041504,-7.394999980926514 C-14.376999855041504,-7.394999980926514 -5.301000118255615,-15.27299976348877 -5.301000118255615,-15.27299976348877 C-1.5470000505447388,-18.5310001373291 4.13700008392334,-18.131000518798828 7.394999980926514,-14.376999855041504z"></path></g></g><g transform="matrix(3.9948654174804688,0.00031198718352243304,-0.00031198718352243304,3.9948654174804688,909.0732421875,425.27252197265625)" opacity="1" style="display: block;"><g opacity="1" transform="matrix(1,0,0,1,0,0)"><path fill="rgb(255,224,144)" fill-opacity="1" d=" M-1.5440000295639038,-16.093000411987305 C-1.5440000295639038,-16.093000411987305 9.98900032043457,-12.711999893188477 9.98900032043457,-12.711999893188477 C14.758999824523926,-11.314000129699707 17.490999221801758,-6.314000129699707 16.093000411987305,-1.5440000295639038 C16.093000411987305,-1.5440000295639038 12.711999893188477,9.98900032043457 12.711999893188477,9.98900032043457 C11.314000129699707,14.758999824523926 6.314000129699707,17.490999221801758 1.5440000295639038,16.093000411987305 C1.5440000295639038,16.093000411987305 -9.98900032043457,12.711999893188477 -9.98900032043457,12.711999893188477 C-14.758999824523926,11.314000129699707 -17.490999221801758,6.314000129699707 -16.093000411987305,1.5440000295639038 C-16.093000411987305,1.5440000295639038 -12.711999893188477,-9.98900032043457 -12.711999893188477,-9.98900032043457 C-11.314000129699707,-14.758999824523926 -6.314000129699707,-17.490999221801758 -1.5440000295639038,-16.093000411987305z"></path></g></g><g transform="matrix(3.9948654174804688,0.00031198718352243304,-0.00031198718352243304,3.9948654174804688,689.5052490234375,425.599365234375)" opacity="1" style="display: block;"><g opacity="1" transform="matrix(1,0,0,1,0,0)"><path fill="rgb(255,224,144)" fill-opacity="1" d=" M-9.993000030517578,-12.708999633789062 C-9.993000030517578,-12.708999633789062 1.5379999876022339,-16.0939998626709 1.5379999876022339,-16.0939998626709 C6.307000160217285,-17.493999481201172 11.309000015258789,-14.76200008392334 12.708999633789062,-9.993000030517578 C12.708999633789062,-9.993000030517578 16.0939998626709,1.5379999876022339 16.0939998626709,1.5379999876022339 C17.493999481201172,6.307000160217285 14.76200008392334,11.309000015258789 9.993000030517578,12.708999633789062 C9.993000030517578,12.708999633789062 -1.5379999876022339,16.0939998626709 -1.5379999876022339,16.0939998626709 C-6.307000160217285,17.493999481201172 -11.309000015258789,14.76200008392334 -12.708999633789062,9.993000030517578 C-12.708999633789062,9.993000030517578 -16.0939998626709,-1.5379999876022339 -16.0939998626709,-1.5379999876022339 C-17.493999481201172,-6.307000160217285 -14.76200008392334,-11.309000015258789 -9.993000030517578,-12.708999633789062z"></path></g></g></g><g clip-path="url(#__lottie_element_4383)" transform="matrix(1,0,0,1,-150,-150)" opacity="1" style="display: none;"><g transform="matrix(0.6803593635559082,0.710557222366333,-0.710557222366333,0.6803593635559082,1261.2572021484375,560.2625122070312)" opacity="0.9500000000000001" style="display: none;"><g opacity="1" transform="matrix(1,0,0,1,-148.25,7.25)"><path fill="rgb(255,224,144)" fill-opacity="1" d=" M60,-25.5 C60,-25.5 60,25.5 60,25.5 C60,44.540550231933594 44.540550231933594,60 25.5,60 C25.5,60 -25.5,60 -25.5,60 C-44.540550231933594,60 -60,44.540550231933594 -60,25.5 C-60,25.5 -60,-25.5 -60,-25.5 C-60,-44.540550231933594 -44.540550231933594,-60 -25.5,-60 C-25.5,-60 25.5,-60 25.5,-60 C44.540550231933594,-60 60,-44.540550231933594 60,-25.5z"></path><path stroke-linecap="butt" stroke-linejoin="miter" fill-opacity="0" stroke-miterlimit="4" stroke="rgb(33,10,47)" stroke-opacity="1" stroke-width="0" d=" M60,-25.5 C60,-25.5 60,25.5 60,25.5 C60,44.540550231933594 44.540550231933594,60 25.5,60 C25.5,60 -25.5,60 -25.5,60 C-44.540550231933594,60 -60,44.540550231933594 -60,25.5 C-60,25.5 -60,-25.5 -60,-25.5 C-60,-44.540550231933594 -44.540550231933594,-60 -25.5,-60 C-25.5,-60 25.5,-60 25.5,-60 C44.540550231933594,-60 60,-44.540550231933594 60,-25.5z"></path></g></g><g transform="matrix(0.9565098285675049,0.2299332469701767,-0.2299332469701767,0.9565098285675049,1058.424560546875,348.9467468261719)" opacity="0.9500000000000001" style="display: none;"><g opacity="1" transform="matrix(1,0,0,1,-148.25,7.25)"><path fill="rgb(255,224,144)" fill-opacity="1" d=" M60,-25.5 C60,-25.5 60,25.5 60,25.5 C60,44.540550231933594 44.540550231933594,60 25.5,60 C25.5,60 -25.5,60 -25.5,60 C-44.540550231933594,60 -60,44.540550231933594 -60,25.5 C-60,25.5 -60,-25.5 -60,-25.5 C-60,-44.540550231933594 -44.540550231933594,-60 -25.5,-60 C-25.5,-60 25.5,-60 25.5,-60 C44.540550231933594,-60 60,-44.540550231933594 60,-25.5z"></path><path stroke-linecap="butt" stroke-linejoin="miter" fill-opacity="0" stroke-miterlimit="4" stroke="rgb(33,10,47)" stroke-opacity="1" stroke-width="0" d=" M60,-25.5 C60,-25.5 60,25.5 60,25.5 C60,44.540550231933594 44.540550231933594,60 25.5,60 C25.5,60 -25.5,60 -25.5,60 C-44.540550231933594,60 -60,44.540550231933594 -60,25.5 C-60,25.5 -60,-25.5 -60,-25.5 C-60,-44.540550231933594 -44.540550231933594,-60 -25.5,-60 C-25.5,-60 25.5,-60 25.5,-60 C44.540550231933594,-60 60,-44.540550231933594 60,-25.5z"></path></g></g><g transform="matrix(0.9289801716804504,-0.3236916959285736,0.3236916959285736,0.9289801716804504,773.5452270507812,280.83489990234375)" opacity="0.9500000000000001" style="display: none;"><g opacity="1" transform="matrix(1,0,0,1,-148.25,7.25)"><path fill="rgb(255,224,144)" fill-opacity="1" d=" M60,-25.5 C60,-25.5 60,25.5 60,25.5 C60,44.540550231933594 44.540550231933594,60 25.5,60 C25.5,60 -25.5,60 -25.5,60 C-44.540550231933594,60 -60,44.540550231933594 -60,25.5 C-60,25.5 -60,-25.5 -60,-25.5 C-60,-44.540550231933594 -44.540550231933594,-60 -25.5,-60 C-25.5,-60 25.5,-60 25.5,-60 C44.540550231933594,-60 60,-44.540550231933594 60,-25.5z"></path><path stroke-linecap="butt" stroke-linejoin="miter" fill-opacity="0" stroke-miterlimit="4" stroke="rgb(33,10,47)" stroke-opacity="1" stroke-width="0" d=" M60,-25.5 C60,-25.5 60,25.5 60,25.5 C60,44.540550231933594 44.540550231933594,60 25.5,60 C25.5,60 -25.5,60 -25.5,60 C-44.540550231933594,60 -60,44.540550231933594 -60,25.5 C-60,25.5 -60,-25.5 -60,-25.5 C-60,-44.540550231933594 -44.540550231933594,-60 -25.5,-60 C-25.5,-60 25.5,-60 25.5,-60 C44.540550231933594,-60 60,-44.540550231933594 60,-25.5z"></path></g></g><g transform="matrix(0.606497049331665,-0.7745590209960938,0.7745590209960938,0.606497049331665,497.0575866699219,377.556884765625)" opacity="0.9500000000000001" style="display: none;"><g opacity="1" transform="matrix(1,0,0,1,-148.25,7.25)"><path fill="rgb(255,224,144)" fill-opacity="1" d=" M60,-25.5 C60,-25.5 60,25.5 60,25.5 C60,44.540550231933594 44.540550231933594,60 25.5,60 C25.5,60 -25.5,60 -25.5,60 C-44.540550231933594,60 -60,44.540550231933594 -60,25.5 C-60,25.5 -60,-25.5 -60,-25.5 C-60,-44.540550231933594 -44.540550231933594,-60 -25.5,-60 C-25.5,-60 25.5,-60 25.5,-60 C44.540550231933594,-60 60,-44.540550231933594 60,-25.5z"></path><path stroke-linecap="butt" stroke-linejoin="miter" fill-opacity="0" stroke-miterlimit="4" stroke="rgb(33,10,47)" stroke-opacity="1" stroke-width="0" d=" M60,-25.5 C60,-25.5 60,25.5 60,25.5 C60,44.540550231933594 44.540550231933594,60 25.5,60 C25.5,60 -25.5,60 -25.5,60 C-44.540550231933594,60 -60,44.540550231933594 -60,25.5 C-60,25.5 -60,-25.5 -60,-25.5 C-60,-44.540550231933594 -44.540550231933594,-60 -25.5,-60 C-25.5,-60 25.5,-60 25.5,-60 C44.540550231933594,-60 60,-44.540550231933594 60,-25.5z"></path></g></g><g transform="matrix(0.09146426618099213,-0.9794971346855164,0.9794971346855164,0.09146426618099213,316.75958251953125,608.3989868164062)" opacity="0.9500000000000001" style="display: none;"><g opacity="1" transform="matrix(1,0,0,1,-148.25,7.25)"><path fill="rgb(255,224,144)" fill-opacity="1" d=" M60,-25.5 C60,-25.5 60,25.5 60,25.5 C60,44.540550231933594 44.540550231933594,60 25.5,60 C25.5,60 -25.5,60 -25.5,60 C-44.540550231933594,60 -60,44.540550231933594 -60,25.5 C-60,25.5 -60,-25.5 -60,-25.5 C-60,-44.540550231933594 -44.540550231933594,-60 -25.5,-60 C-25.5,-60 25.5,-60 25.5,-60 C44.540550231933594,-60 60,-44.540550231933594 60,-25.5z"></path><path stroke-linecap="butt" stroke-linejoin="miter" fill-opacity="0" stroke-miterlimit="4" stroke="rgb(33,10,47)" stroke-opacity="1" stroke-width="0" d=" M60,-25.5 C60,-25.5 60,25.5 60,25.5 C60,44.540550231933594 44.540550231933594,60 25.5,60 C25.5,60 -25.5,60 -25.5,60 C-44.540550231933594,60 -60,44.540550231933594 -60,25.5 C-60,25.5 -60,-25.5 -60,-25.5 C-60,-44.540550231933594 -44.540550231933594,-60 -25.5,-60 C-25.5,-60 25.5,-60 25.5,-60 C44.540550231933594,-60 60,-44.540550231933594 60,-25.5z"></path></g></g><g transform="matrix(-0.4526073634624481,-0.8734568953514099,0.8734568953514099,-0.4526073634624481,289.88446044921875,900.072021484375)" opacity="0.9500000000000001" style="display: none;"><g opacity="1" transform="matrix(1,0,0,1,-148.25,7.25)"><path fill="rgb(255,224,144)" fill-opacity="1" d=" M60,-25.5 C60,-25.5 60,25.5 60,25.5 C60,44.540550231933594 44.540550231933594,60 25.5,60 C25.5,60 -25.5,60 -25.5,60 C-44.540550231933594,60 -60,44.540550231933594 -60,25.5 C-60,25.5 -60,-25.5 -60,-25.5 C-60,-44.540550231933594 -44.540550231933594,-60 -25.5,-60 C-25.5,-60 25.5,-60 25.5,-60 C44.540550231933594,-60 60,-44.540550231933594 60,-25.5z"></path><path stroke-linecap="butt" stroke-linejoin="miter" fill-opacity="0" stroke-miterlimit="4" stroke="rgb(33,10,47)" stroke-opacity="1" stroke-width="0" d=" M60,-25.5 C60,-25.5 60,25.5 60,25.5 C60,44.540550231933594 44.540550231933594,60 25.5,60 C25.5,60 -25.5,60 -25.5,60 C-44.540550231933594,60 -60,44.540550231933594 -60,25.5 C-60,25.5 -60,-25.5 -60,-25.5 C-60,-44.540550231933594 -44.540550231933594,-60 -25.5,-60 C-25.5,-60 25.5,-60 25.5,-60 C44.540550231933594,-60 60,-44.540550231933594 60,-25.5z"></path></g></g><g transform="matrix(-0.852981686592102,-0.4901047348976135,0.4901047348976135,-0.852981686592102,424.9648132324219,1159.973388671875)" opacity="0.9500000000000001" style="display: none;"><g opacity="1" transform="matrix(1,0,0,1,-148.25,7.25)"><path fill="rgb(255,224,144)" fill-opacity="1" d=" M60,-25.5 C60,-25.5 60,25.5 60,25.5 C60,44.540550231933594 44.540550231933594,60 25.5,60 C25.5,60 -25.5,60 -25.5,60 C-44.540550231933594,60 -60,44.540550231933594 -60,25.5 C-60,25.5 -60,-25.5 -60,-25.5 C-60,-44.540550231933594 -44.540550231933594,-60 -25.5,-60 C-25.5,-60 25.5,-60 25.5,-60 C44.540550231933594,-60 60,-44.540550231933594 60,-25.5z"></path><path stroke-linecap="butt" stroke-linejoin="miter" fill-opacity="0" stroke-miterlimit="4" stroke="rgb(33,10,47)" stroke-opacity="1" stroke-width="0" d=" M60,-25.5 C60,-25.5 60,25.5 60,25.5 C60,44.540550231933594 44.540550231933594,60 25.5,60 C25.5,60 -25.5,60 -25.5,60 C-44.540550231933594,60 -60,44.540550231933594 -60,25.5 C-60,25.5 -60,-25.5 -60,-25.5 C-60,-44.540550231933594 -44.540550231933594,-60 -25.5,-60 C-25.5,-60 25.5,-60 25.5,-60 C44.540550231933594,-60 60,-44.540550231933594 60,-25.5z"></path></g></g><g transform="matrix(-0.9825438261032104,0.048866864293813705,-0.048866864293813705,-0.9825438261032104,679.1231079101562,1305.5897216796875)" opacity="0.9500000000000001" style="display: none;"><g opacity="1" transform="matrix(1,0,0,1,-148.25,7.25)"><path fill="rgb(255,224,144)" fill-opacity="1" d=" M60,-25.5 C60,-25.5 60,25.5 60,25.5 C60,44.540550231933594 44.540550231933594,60 25.5,60 C25.5,60 -25.5,60 -25.5,60 C-44.540550231933594,60 -60,44.540550231933594 -60,25.5 C-60,25.5 -60,-25.5 -60,-25.5 C-60,-44.540550231933594 -44.540550231933594,-60 -25.5,-60 C-25.5,-60 25.5,-60 25.5,-60 C44.540550231933594,-60 60,-44.540550231933594 60,-25.5z"></path><path stroke-linecap="butt" stroke-linejoin="miter" fill-opacity="0" stroke-miterlimit="4" stroke="rgb(33,10,47)" stroke-opacity="1" stroke-width="0" d=" M60,-25.5 C60,-25.5 60,25.5 60,25.5 C60,44.540550231933594 44.540550231933594,60 25.5,60 C25.5,60 -25.5,60 -25.5,60 C-44.540550231933594,60 -60,44.540550231933594 -60,25.5 C-60,25.5 -60,-25.5 -60,-25.5 C-60,-44.540550231933594 -44.540550231933594,-60 -25.5,-60 C-25.5,-60 25.5,-60 25.5,-60 C44.540550231933594,-60 60,-44.540550231933594 60,-25.5z"></path></g></g><g transform="matrix(-0.8001518249511719,0.5723088979721069,-0.5723088979721069,-0.8001518249511719,971.6519775390625,1290.6810302734375)" opacity="0.9500000000000001" style="display: none;"><g opacity="1" transform="matrix(1,0,0,1,-148.25,7.25)"><path fill="rgb(255,224,144)" fill-opacity="1" d=" M60,-25.5 C60,-25.5 60,25.5 60,25.5 C60,44.540550231933594 44.540550231933594,60 25.5,60 C25.5,60 -25.5,60 -25.5,60 C-44.540550231933594,60 -60,44.540550231933594 -60,25.5 C-60,25.5 -60,-25.5 -60,-25.5 C-60,-44.540550231933594 -44.540550231933594,-60 -25.5,-60 C-25.5,-60 25.5,-60 25.5,-60 C44.540550231933594,-60 60,-44.540550231933594 60,-25.5z"></path><path stroke-linecap="butt" stroke-linejoin="miter" fill-opacity="0" stroke-miterlimit="4" stroke="rgb(33,10,47)" stroke-opacity="1" stroke-width="0" d=" M60,-25.5 C60,-25.5 60,25.5 60,25.5 C60,44.540550231933594 44.540550231933594,60 25.5,60 C25.5,60 -25.5,60 -25.5,60 C-44.540550231933594,60 -60,44.540550231933594 -60,25.5 C-60,25.5 -60,-25.5 -60,-25.5 C-60,-44.540550231933594 -44.540550231933594,-60 -25.5,-60 C-25.5,-60 25.5,-60 25.5,-60 C44.540550231933594,-60 60,-44.540550231933594 60,-25.5z"></path></g></g><g transform="matrix(-0.3637213408946991,0.9140498638153076,-0.9140498638153076,-0.3637213408946991,1209.6834716796875,1119.987060546875)" opacity="0.9500000000000001" style="display: none;"><g opacity="1" transform="matrix(1,0,0,1,-148.25,7.25)"><path fill="rgb(255,224,144)" fill-opacity="1" d=" M60,-25.5 C60,-25.5 60,25.5 60,25.5 C60,44.540550231933594 44.540550231933594,60 25.5,60 C25.5,60 -25.5,60 -25.5,60 C-44.540550231933594,60 -60,44.540550231933594 -60,25.5 C-60,25.5 -60,-25.5 -60,-25.5 C-60,-44.540550231933594 -44.540550231933594,-60 -25.5,-60 C-25.5,-60 25.5,-60 25.5,-60 C44.540550231933594,-60 60,-44.540550231933594 60,-25.5z"></path><path stroke-linecap="butt" stroke-linejoin="miter" fill-opacity="0" stroke-miterlimit="4" stroke="rgb(33,10,47)" stroke-opacity="1" stroke-width="0" d=" M60,-25.5 C60,-25.5 60,25.5 60,25.5 C60,44.540550231933594 44.540550231933594,60 25.5,60 C25.5,60 -25.5,60 -25.5,60 C-44.540550231933594,60 -60,44.540550231933594 -60,25.5 C-60,25.5 -60,-25.5 -60,-25.5 C-60,-44.540550231933594 -44.540550231933594,-60 -25.5,-60 C-25.5,-60 25.5,-60 25.5,-60 C44.540550231933594,-60 60,-44.540550231933594 60,-25.5z"></path></g></g><g transform="matrix(0.18820305168628693,0.9655879139900208,-0.9655879139900208,0.18820305168628693,1317.6463623046875,847.6920166015625)" opacity="0.9500000000000001" style="display: none;"><g opacity="1" transform="matrix(1,0,0,1,-148.25,7.25)"><path fill="rgb(255,224,144)" fill-opacity="1" d=" M60,-25.5 C60,-25.5 60,25.5 60,25.5 C60,44.540550231933594 44.540550231933594,60 25.5,60 C25.5,60 -25.5,60 -25.5,60 C-44.540550231933594,60 -60,44.540550231933594 -60,25.5 C-60,25.5 -60,-25.5 -60,-25.5 C-60,-44.540550231933594 -44.540550231933594,-60 -25.5,-60 C-25.5,-60 25.5,-60 25.5,-60 C44.540550231933594,-60 60,-44.540550231933594 60,-25.5z"></path><path stroke-linecap="butt" stroke-linejoin="miter" fill-opacity="0" stroke-miterlimit="4" stroke="rgb(33,10,47)" stroke-opacity="1" stroke-width="0" d=" M60,-25.5 C60,-25.5 60,25.5 60,25.5 C60,44.540550231933594 44.540550231933594,60 25.5,60 C25.5,60 -25.5,60 -25.5,60 C-44.540550231933594,60 -60,44.540550231933594 -60,25.5 C-60,25.5 -60,-25.5 -60,-25.5 C-60,-44.540550231933594 -44.540550231933594,-60 -25.5,-60 C-25.5,-60 25.5,-60 25.5,-60 C44.540550231933594,-60 60,-44.540550231933594 60,-25.5z"></path></g></g><g transform="matrix(0.9833679795265198,0,0,0.9833679795265198,800.487548828125,800.62060546875)" opacity="1" style="display: none;"><g opacity="1" transform="matrix(1,0,0,1,-148.25,7.25)"><path fill="rgb(255,186,5)" fill-opacity="1" d=" M60,-25.5 C60,-25.5 60,25.5 60,25.5 C60,44.540550231933594 44.540550231933594,60 25.5,60 C25.5,60 -25.5,60 -25.5,60 C-44.540550231933594,60 -60,44.540550231933594 -60,25.5 C-60,25.5 -60,-25.5 -60,-25.5 C-60,-44.540550231933594 -44.540550231933594,-60 -25.5,-60 C-25.5,-60 25.5,-60 25.5,-60 C44.540550231933594,-60 60,-44.540550231933594 60,-25.5z"></path><path stroke-linecap="butt" stroke-linejoin="miter" fill-opacity="0" stroke-miterlimit="4" stroke="rgb(33,10,47)" stroke-opacity="1" stroke-width="0" d=" M60,-25.5 C60,-25.5 60,25.5 60,25.5 C60,44.540550231933594 44.540550231933594,60 25.5,60 C25.5,60 -25.5,60 -25.5,60 C-44.540550231933594,60 -60,44.540550231933594 -60,25.5 C-60,25.5 -60,-25.5 -60,-25.5 C-60,-44.540550231933594 -44.540550231933594,-60 -25.5,-60 C-25.5,-60 25.5,-60 25.5,-60 C44.540550231933594,-60 60,-44.540550231933594 60,-25.5z"></path></g></g><g transform="matrix(0.9833679795265198,0,0,0.9833679795265198,1090.5810546875,800.62060546875)" opacity="1" style="display: none;"><g opacity="1" transform="matrix(1,0,0,1,-148.25,7.25)"><path fill="rgb(255,186,5)" fill-opacity="1" d=" M60,-25.5 C60,-25.5 60,25.5 60,25.5 C60,44.540550231933594 44.540550231933594,60 25.5,60 C25.5,60 -25.5,60 -25.5,60 C-44.540550231933594,60 -60,44.540550231933594 -60,25.5 C-60,25.5 -60,-25.5 -60,-25.5 C-60,-44.540550231933594 -44.540550231933594,-60 -25.5,-60 C-25.5,-60 25.5,-60 25.5,-60 C44.540550231933594,-60 60,-44.540550231933594 60,-25.5z"></path><path stroke-linecap="butt" stroke-linejoin="miter" fill-opacity="0" stroke-miterlimit="4" stroke="rgb(33,10,47)" stroke-opacity="1" stroke-width="0" d=" M60,-25.5 C60,-25.5 60,25.5 60,25.5 C60,44.540550231933594 44.540550231933594,60 25.5,60 C25.5,60 -25.5,60 -25.5,60 C-44.540550231933594,60 -60,44.540550231933594 -60,25.5 C-60,25.5 -60,-25.5 -60,-25.5 C-60,-44.540550231933594 -44.540550231933594,-60 -25.5,-60 C-25.5,-60 25.5,-60 25.5,-60 C44.540550231933594,-60 60,-44.540550231933594 60,-25.5z"></path></g></g></g></g></svg>