<svg xmlns="http://www.w3.org/2000/svg" viewBox="0 0 1300 1300" width="1300" height="1300" preserveAspectRatio="xMidYMid meet" style="width: 100%; height: 100%; transform: translate3d(0px, 0px, 0px); content-visibility: visible;"><defs><clipPath id="__lottie_element_8697"><rect width="1300" height="1300" x="0" y="0"></rect></clipPath><clipPath id="__lottie_element_8700"><path d="M0,0 L1600,0 L1600,1600 L0,1600z"></path></clipPath></defs><g clip-path="url(#__lottie_element_8697)"><g clip-path="url(#__lottie_element_8700)" transform="matrix(1,0,0,1,-150,-150)" opacity="1" style="display: block;"><g transform="matrix(0.6370607614517212,0.770813524723053,-0.770813524723053,0.6370607614517212,1108.1529541015625,737.6494140625)" opacity="1" style="display: block;"><g opacity="1" transform="matrix(1,0,0,1,-148.25,7.25)"><path fill="rgb(22,110,225)" fill-opacity="1" d=" M59.5,-24.5 C59.5,-24.5 59.5,24.5 59.5,24.5 C59.5,43.81650161743164 43.81650161743164,59.5 24.5,59.5 C24.5,59.5 -24.5,59.5 -24.5,59.5 C-43.81650161743164,59.5 -59.5,43.81650161743164 -59.5,24.5 C-59.5,24.5 -59.5,-24.5 -59.5,-24.5 C-59.5,-43.81650161743164 -43.81650161743164,-59.5 -24.5,-59.5 C-24.5,-59.5 24.5,-59.5 24.5,-59.5 C43.81650161743164,-59.5 59.5,-43.81650161743164 59.5,-24.5z"></path><path stroke-linecap="butt" stroke-linejoin="miter" fill-opacity="0" stroke-miterlimit="4" stroke="rgb(33,10,47)" stroke-opacity="1" stroke-width="0" d=" M59.5,-24.5 C59.5,-24.5 59.5,24.5 59.5,24.5 C59.5,43.81650161743164 43.81650161743164,59.5 24.5,59.5 C24.5,59.5 -24.5,59.5 -24.5,59.5 C-43.81650161743164,59.5 -59.5,43.81650161743164 -59.5,24.5 C-59.5,24.5 -59.5,-24.5 -59.5,-24.5 C-59.5,-43.81650161743164 -43.81650161743164,-59.5 -24.5,-59.5 C-24.5,-59.5 24.5,-59.5 24.5,-59.5 C43.81650161743164,-59.5 59.5,-43.81650161743164 59.5,-24.5z"></path></g></g><g transform="matrix(0.11918379366397858,0.9928721785545349,-0.9928721785545349,0.11918379366397858,1092.94287109375,914.1476440429688)" opacity="1" style="display: block;"><g opacity="1" transform="matrix(1,0,0,1,-148.25,7.25)"><path fill="rgb(22,110,225)" fill-opacity="1" d=" M59.5,-24.5 C59.5,-24.5 59.5,24.5 59.5,24.5 C59.5,43.81650161743164 43.81650161743164,59.5 24.5,59.5 C24.5,59.5 -24.5,59.5 -24.5,59.5 C-43.81650161743164,59.5 -59.5,43.81650161743164 -59.5,24.5 C-59.5,24.5 -59.5,-24.5 -59.5,-24.5 C-59.5,-43.81650161743164 -43.81650161743164,-59.5 -24.5,-59.5 C-24.5,-59.5 24.5,-59.5 24.5,-59.5 C43.81650161743164,-59.5 59.5,-43.81650161743164 59.5,-24.5z"></path><path stroke-linecap="butt" stroke-linejoin="miter" fill-opacity="0" stroke-miterlimit="4" stroke="rgb(33,10,47)" stroke-opacity="1" stroke-width="0" d=" M59.5,-24.5 C59.5,-24.5 59.5,24.5 59.5,24.5 C59.5,43.81650161743164 43.81650161743164,59.5 24.5,59.5 C24.5,59.5 -24.5,59.5 -24.5,59.5 C-43.81650161743164,59.5 -59.5,43.81650161743164 -59.5,24.5 C-59.5,24.5 -59.5,-24.5 -59.5,-24.5 C-59.5,-43.81650161743164 -43.81650161743164,-59.5 -24.5,-59.5 C-24.5,-59.5 24.5,-59.5 24.5,-59.5 C43.81650161743164,-59.5 59.5,-43.81650161743164 59.5,-24.5z"></path></g></g><g transform="matrix(-0.43651917576789856,0.8996949791908264,-0.8996949791908264,-0.43651917576789856,984.72705078125,1054.404052734375)" opacity="1" style="display: block;"><g opacity="1" transform="matrix(1,0,0,1,-148.25,7.25)"><path fill="rgb(22,110,225)" fill-opacity="1" d=" M59.5,-24.5 C59.5,-24.5 59.5,24.5 59.5,24.5 C59.5,43.81650161743164 43.81650161743164,59.5 24.5,59.5 C24.5,59.5 -24.5,59.5 -24.5,59.5 C-43.81650161743164,59.5 -59.5,43.81650161743164 -59.5,24.5 C-59.5,24.5 -59.5,-24.5 -59.5,-24.5 C-59.5,-43.81650161743164 -43.81650161743164,-59.5 -24.5,-59.5 C-24.5,-59.5 24.5,-59.5 24.5,-59.5 C43.81650161743164,-59.5 59.5,-43.81650161743164 59.5,-24.5z"></path><path stroke-linecap="butt" stroke-linejoin="miter" fill-opacity="0" stroke-miterlimit="4" stroke="rgb(33,10,47)" stroke-opacity="1" stroke-width="0" d=" M59.5,-24.5 C59.5,-24.5 59.5,24.5 59.5,24.5 C59.5,43.81650161743164 43.81650161743164,59.5 24.5,59.5 C24.5,59.5 -24.5,59.5 -24.5,59.5 C-43.81650161743164,59.5 -59.5,43.81650161743164 -59.5,24.5 C-59.5,24.5 -59.5,-24.5 -59.5,-24.5 C-59.5,-43.81650161743164 -43.81650161743164,-59.5 -24.5,-59.5 C-24.5,-59.5 24.5,-59.5 24.5,-59.5 C43.81650161743164,-59.5 59.5,-43.81650161743164 59.5,-24.5z"></path></g></g><g transform="matrix(-0.8536326289176941,0.5208755135536194,-0.5208755135536194,-0.8536326289176941,817.861083984375,1113.88916015625)" opacity="1" style="display: block;"><g opacity="1" transform="matrix(1,0,0,1,-148.25,7.25)"><path fill="rgb(22,110,225)" fill-opacity="1" d=" M59.5,-24.5 C59.5,-24.5 59.5,24.5 59.5,24.5 C59.5,43.81650161743164 43.81650161743164,59.5 24.5,59.5 C24.5,59.5 -24.5,59.5 -24.5,59.5 C-43.81650161743164,59.5 -59.5,43.81650161743164 -59.5,24.5 C-59.5,24.5 -59.5,-24.5 -59.5,-24.5 C-59.5,-43.81650161743164 -43.81650161743164,-59.5 -24.5,-59.5 C-24.5,-59.5 24.5,-59.5 24.5,-59.5 C43.81650161743164,-59.5 59.5,-43.81650161743164 59.5,-24.5z"></path><path stroke-linecap="butt" stroke-linejoin="miter" fill-opacity="0" stroke-miterlimit="4" stroke="rgb(33,10,47)" stroke-opacity="1" stroke-width="0" d=" M59.5,-24.5 C59.5,-24.5 59.5,24.5 59.5,24.5 C59.5,43.81650161743164 43.81650161743164,59.5 24.5,59.5 C24.5,59.5 -24.5,59.5 -24.5,59.5 C-43.81650161743164,59.5 -59.5,43.81650161743164 -59.5,24.5 C-59.5,24.5 -59.5,-24.5 -59.5,-24.5 C-59.5,-43.81650161743164 -43.81650161743164,-59.5 -24.5,-59.5 C-24.5,-59.5 24.5,-59.5 24.5,-59.5 C43.81650161743164,-59.5 59.5,-43.81650161743164 59.5,-24.5z"></path></g></g><g transform="matrix(-0.9997281432151794,-0.023315511643886566,0.023315511643886566,-0.9997281432151794,645.3245849609375,1073.718017578125)" opacity="1" style="display: block;"><g opacity="1" transform="matrix(1,0,0,1,-148.25,7.25)"><path fill="rgb(22,110,225)" fill-opacity="1" d=" M59.5,-24.5 C59.5,-24.5 59.5,24.5 59.5,24.5 C59.5,43.81650161743164 43.81650161743164,59.5 24.5,59.5 C24.5,59.5 -24.5,59.5 -24.5,59.5 C-43.81650161743164,59.5 -59.5,43.81650161743164 -59.5,24.5 C-59.5,24.5 -59.5,-24.5 -59.5,-24.5 C-59.5,-43.81650161743164 -43.81650161743164,-59.5 -24.5,-59.5 C-24.5,-59.5 24.5,-59.5 24.5,-59.5 C43.81650161743164,-59.5 59.5,-43.81650161743164 59.5,-24.5z"></path><path stroke-linecap="butt" stroke-linejoin="miter" fill-opacity="0" stroke-miterlimit="4" stroke="rgb(33,10,47)" stroke-opacity="1" stroke-width="0" d=" M59.5,-24.5 C59.5,-24.5 59.5,24.5 59.5,24.5 C59.5,43.81650161743164 43.81650161743164,59.5 24.5,59.5 C24.5,59.5 -24.5,59.5 -24.5,59.5 C-43.81650161743164,59.5 -59.5,43.81650161743164 -59.5,24.5 C-59.5,24.5 -59.5,-24.5 -59.5,-24.5 C-59.5,-43.81650161743164 -43.81650161743164,-59.5 -24.5,-59.5 C-24.5,-59.5 24.5,-59.5 24.5,-59.5 C43.81650161743164,-59.5 59.5,-43.81650161743164 59.5,-24.5z"></path></g></g><g transform="matrix(-0.8284124135971069,-0.5601186156272888,0.5601186156272888,-0.8284124135971069,521.896240234375,946.6405639648438)" opacity="1" style="display: block;"><g opacity="1" transform="matrix(1,0,0,1,-148.25,7.25)"><path fill="rgb(22,110,225)" fill-opacity="1" d=" M59.5,-24.5 C59.5,-24.5 59.5,24.5 59.5,24.5 C59.5,43.81650161743164 43.81650161743164,59.5 24.5,59.5 C24.5,59.5 -24.5,59.5 -24.5,59.5 C-43.81650161743164,59.5 -59.5,43.81650161743164 -59.5,24.5 C-59.5,24.5 -59.5,-24.5 -59.5,-24.5 C-59.5,-43.81650161743164 -43.81650161743164,-59.5 -24.5,-59.5 C-24.5,-59.5 24.5,-59.5 24.5,-59.5 C43.81650161743164,-59.5 59.5,-43.81650161743164 59.5,-24.5z"></path><path stroke-linecap="butt" stroke-linejoin="miter" fill-opacity="0" stroke-miterlimit="4" stroke="rgb(33,10,47)" stroke-opacity="1" stroke-width="0" d=" M59.5,-24.5 C59.5,-24.5 59.5,24.5 59.5,24.5 C59.5,43.81650161743164 43.81650161743164,59.5 24.5,59.5 C24.5,59.5 -24.5,59.5 -24.5,59.5 C-43.81650161743164,59.5 -59.5,43.81650161743164 -59.5,24.5 C-59.5,24.5 -59.5,-24.5 -59.5,-24.5 C-59.5,-43.81650161743164 -43.81650161743164,-59.5 -24.5,-59.5 C-24.5,-59.5 24.5,-59.5 24.5,-59.5 C43.81650161743164,-59.5 59.5,-43.81650161743164 59.5,-24.5z"></path></g></g><g transform="matrix(-0.3940862715244293,-0.9190734028816223,0.9190734028816223,-0.3940862715244293,486.7642517089844,773.0078735351562)" opacity="1" style="display: block;"><g opacity="1" transform="matrix(1,0,0,1,-148.25,7.25)"><path fill="rgb(22,110,225)" fill-opacity="1" d=" M59.5,-24.5 C59.5,-24.5 59.5,24.5 59.5,24.5 C59.5,43.81650161743164 43.81650161743164,59.5 24.5,59.5 C24.5,59.5 -24.5,59.5 -24.5,59.5 C-43.81650161743164,59.5 -59.5,43.81650161743164 -59.5,24.5 C-59.5,24.5 -59.5,-24.5 -59.5,-24.5 C-59.5,-43.81650161743164 -43.81650161743164,-59.5 -24.5,-59.5 C-24.5,-59.5 24.5,-59.5 24.5,-59.5 C43.81650161743164,-59.5 59.5,-43.81650161743164 59.5,-24.5z"></path><path stroke-linecap="butt" stroke-linejoin="miter" fill-opacity="0" stroke-miterlimit="4" stroke="rgb(33,10,47)" stroke-opacity="1" stroke-width="0" d=" M59.5,-24.5 C59.5,-24.5 59.5,24.5 59.5,24.5 C59.5,43.81650161743164 43.81650161743164,59.5 24.5,59.5 C24.5,59.5 -24.5,59.5 -24.5,59.5 C-43.81650161743164,59.5 -59.5,43.81650161743164 -59.5,24.5 C-59.5,24.5 -59.5,-24.5 -59.5,-24.5 C-59.5,-43.81650161743164 -43.81650161743164,-59.5 -24.5,-59.5 C-24.5,-59.5 24.5,-59.5 24.5,-59.5 C43.81650161743164,-59.5 59.5,-43.81650161743164 59.5,-24.5z"></path></g></g><g transform="matrix(0.16535747051239014,-0.9862337112426758,0.9862337112426758,0.16535747051239014,551.0808715820312,607.944580078125)" opacity="1" style="display: block;"><g opacity="1" transform="matrix(1,0,0,1,-148.25,7.25)"><path fill="rgb(22,110,225)" fill-opacity="1" d=" M59.5,-24.5 C59.5,-24.5 59.5,24.5 59.5,24.5 C59.5,43.81650161743164 43.81650161743164,59.5 24.5,59.5 C24.5,59.5 -24.5,59.5 -24.5,59.5 C-43.81650161743164,59.5 -59.5,43.81650161743164 -59.5,24.5 C-59.5,24.5 -59.5,-24.5 -59.5,-24.5 C-59.5,-43.81650161743164 -43.81650161743164,-59.5 -24.5,-59.5 C-24.5,-59.5 24.5,-59.5 24.5,-59.5 C43.81650161743164,-59.5 59.5,-43.81650161743164 59.5,-24.5z"></path><path stroke-linecap="butt" stroke-linejoin="miter" fill-opacity="0" stroke-miterlimit="4" stroke="rgb(33,10,47)" stroke-opacity="1" stroke-width="0" d=" M59.5,-24.5 C59.5,-24.5 59.5,24.5 59.5,24.5 C59.5,43.81650161743164 43.81650161743164,59.5 24.5,59.5 C24.5,59.5 -24.5,59.5 -24.5,59.5 C-43.81650161743164,59.5 -59.5,43.81650161743164 -59.5,24.5 C-59.5,24.5 -59.5,-24.5 -59.5,-24.5 C-59.5,-43.81650161743164 -43.81650161743164,-59.5 -24.5,-59.5 C-24.5,-59.5 24.5,-59.5 24.5,-59.5 C43.81650161743164,-59.5 59.5,-43.81650161743164 59.5,-24.5z"></path></g></g><g transform="matrix(0.67230224609375,-0.7402767539024353,0.7402767539024353,0.67230224609375,694.4281616210938,503.8565368652344)" opacity="1" style="display: block;"><g opacity="1" transform="matrix(1,0,0,1,-148.25,7.25)"><path fill="rgb(22,110,225)" fill-opacity="1" d=" M59.5,-24.5 C59.5,-24.5 59.5,24.5 59.5,24.5 C59.5,43.81650161743164 43.81650161743164,59.5 24.5,59.5 C24.5,59.5 -24.5,59.5 -24.5,59.5 C-43.81650161743164,59.5 -59.5,43.81650161743164 -59.5,24.5 C-59.5,24.5 -59.5,-24.5 -59.5,-24.5 C-59.5,-43.81650161743164 -43.81650161743164,-59.5 -24.5,-59.5 C-24.5,-59.5 24.5,-59.5 24.5,-59.5 C43.81650161743164,-59.5 59.5,-43.81650161743164 59.5,-24.5z"></path><path stroke-linecap="butt" stroke-linejoin="miter" fill-opacity="0" stroke-miterlimit="4" stroke="rgb(33,10,47)" stroke-opacity="1" stroke-width="0" d=" M59.5,-24.5 C59.5,-24.5 59.5,24.5 59.5,24.5 C59.5,43.81650161743164 43.81650161743164,59.5 24.5,59.5 C24.5,59.5 -24.5,59.5 -24.5,59.5 C-43.81650161743164,59.5 -59.5,43.81650161743164 -59.5,24.5 C-59.5,24.5 -59.5,-24.5 -59.5,-24.5 C-59.5,-43.81650161743164 -43.81650161743164,-59.5 -24.5,-59.5 C-24.5,-59.5 24.5,-59.5 24.5,-59.5 C43.81650161743164,-59.5 59.5,-43.81650161743164 59.5,-24.5z"></path></g></g><g transform="matrix(0.9658037424087524,-0.2592742145061493,0.2592742145061493,0.9658037424087524,871.2952880859375,493.7942810058594)" opacity="1" style="display: block;"><g opacity="1" transform="matrix(1,0,0,1,-148.25,7.25)"><path fill="rgb(22,110,225)" fill-opacity="1" d=" M59.5,-24.5 C59.5,-24.5 59.5,24.5 59.5,24.5 C59.5,43.81650161743164 43.81650161743164,59.5 24.5,59.5 C24.5,59.5 -24.5,59.5 -24.5,59.5 C-43.81650161743164,59.5 -59.5,43.81650161743164 -59.5,24.5 C-59.5,24.5 -59.5,-24.5 -59.5,-24.5 C-59.5,-43.81650161743164 -43.81650161743164,-59.5 -24.5,-59.5 C-24.5,-59.5 24.5,-59.5 24.5,-59.5 C43.81650161743164,-59.5 59.5,-43.81650161743164 59.5,-24.5z"></path><path stroke-linecap="butt" stroke-linejoin="miter" fill-opacity="0" stroke-miterlimit="4" stroke="rgb(33,10,47)" stroke-opacity="1" stroke-width="0" d=" M59.5,-24.5 C59.5,-24.5 59.5,24.5 59.5,24.5 C59.5,43.81650161743164 43.81650161743164,59.5 24.5,59.5 C24.5,59.5 -24.5,59.5 -24.5,59.5 C-43.81650161743164,59.5 -59.5,43.81650161743164 -59.5,24.5 C-59.5,24.5 -59.5,-24.5 -59.5,-24.5 C-59.5,-43.81650161743164 -43.81650161743164,-59.5 -24.5,-59.5 C-24.5,-59.5 24.5,-59.5 24.5,-59.5 C43.81650161743164,-59.5 59.5,-43.81650161743164 59.5,-24.5z"></path></g></g><g transform="matrix(0.9526614546775818,0.3040330708026886,-0.3040330708026886,0.9526614546775818,1025.8292236328125,579.994873046875)" opacity="1" style="display: block;"><g opacity="1" transform="matrix(1,0,0,1,-148.25,7.25)"><path fill="rgb(22,110,225)" fill-opacity="1" d=" M59.5,-24.5 C59.5,-24.5 59.5,24.5 59.5,24.5 C59.5,43.81650161743164 43.81650161743164,59.5 24.5,59.5 C24.5,59.5 -24.5,59.5 -24.5,59.5 C-43.81650161743164,59.5 -59.5,43.81650161743164 -59.5,24.5 C-59.5,24.5 -59.5,-24.5 -59.5,-24.5 C-59.5,-43.81650161743164 -43.81650161743164,-59.5 -24.5,-59.5 C-24.5,-59.5 24.5,-59.5 24.5,-59.5 C43.81650161743164,-59.5 59.5,-43.81650161743164 59.5,-24.5z"></path><path stroke-linecap="butt" stroke-linejoin="miter" fill-opacity="0" stroke-miterlimit="4" stroke="rgb(33,10,47)" stroke-opacity="1" stroke-width="0" d=" M59.5,-24.5 C59.5,-24.5 59.5,24.5 59.5,24.5 C59.5,43.81650161743164 43.81650161743164,59.5 24.5,59.5 C24.5,59.5 -24.5,59.5 -24.5,59.5 C-43.81650161743164,59.5 -59.5,43.81650161743164 -59.5,24.5 C-59.5,24.5 -59.5,-24.5 -59.5,-24.5 C-59.5,-43.81650161743164 -43.81650161743164,-59.5 -24.5,-59.5 C-24.5,-59.5 24.5,-59.5 24.5,-59.5 C43.81650161743164,-59.5 59.5,-43.81650161743164 59.5,-24.5z"></path></g></g><g transform="matrix(0.5339539647102356,0.8455135822296143,-0.8455135822296143,0.5339539647102356,1215.8858642578125,712.7020874023438)" opacity="1" style="display: block;"><g opacity="1" transform="matrix(1,0,0,1,-148.25,7.25)"><path fill="rgb(22,110,225)" fill-opacity="1" d=" M59.5,-24.5 C59.5,-24.5 59.5,24.5 59.5,24.5 C59.5,43.81650161743164 43.81650161743164,59.5 24.5,59.5 C24.5,59.5 -24.5,59.5 -24.5,59.5 C-43.81650161743164,59.5 -59.5,43.81650161743164 -59.5,24.5 C-59.5,24.5 -59.5,-24.5 -59.5,-24.5 C-59.5,-43.81650161743164 -43.81650161743164,-59.5 -24.5,-59.5 C-24.5,-59.5 24.5,-59.5 24.5,-59.5 C43.81650161743164,-59.5 59.5,-43.81650161743164 59.5,-24.5z"></path><path stroke-linecap="butt" stroke-linejoin="miter" fill-opacity="0" stroke-miterlimit="4" stroke="rgb(33,10,47)" stroke-opacity="1" stroke-width="0" d=" M59.5,-24.5 C59.5,-24.5 59.5,24.5 59.5,24.5 C59.5,43.81650161743164 43.81650161743164,59.5 24.5,59.5 C24.5,59.5 -24.5,59.5 -24.5,59.5 C-43.81650161743164,59.5 -59.5,43.81650161743164 -59.5,24.5 C-59.5,24.5 -59.5,-24.5 -59.5,-24.5 C-59.5,-43.81650161743164 -43.81650161743164,-59.5 -24.5,-59.5 C-24.5,-59.5 24.5,-59.5 24.5,-59.5 C43.81650161743164,-59.5 59.5,-43.81650161743164 59.5,-24.5z"></path></g></g><g transform="matrix(-0.00794115662574768,0.9999685287475586,-0.9999685287475586,-0.00794115662574768,1197.0599365234375,951.4049682617188)" opacity="1" style="display: block;"><g opacity="1" transform="matrix(1,0,0,1,-148.25,7.25)"><path fill="rgb(22,110,225)" fill-opacity="1" d=" M59.5,-24.5 C59.5,-24.5 59.5,24.5 59.5,24.5 C59.5,43.81650161743164 43.81650161743164,59.5 24.5,59.5 C24.5,59.5 -24.5,59.5 -24.5,59.5 C-43.81650161743164,59.5 -59.5,43.81650161743164 -59.5,24.5 C-59.5,24.5 -59.5,-24.5 -59.5,-24.5 C-59.5,-43.81650161743164 -43.81650161743164,-59.5 -24.5,-59.5 C-24.5,-59.5 24.5,-59.5 24.5,-59.5 C43.81650161743164,-59.5 59.5,-43.81650161743164 59.5,-24.5z"></path><path stroke-linecap="butt" stroke-linejoin="miter" fill-opacity="0" stroke-miterlimit="4" stroke="rgb(33,10,47)" stroke-opacity="1" stroke-width="0" d=" M59.5,-24.5 C59.5,-24.5 59.5,24.5 59.5,24.5 C59.5,43.81650161743164 43.81650161743164,59.5 24.5,59.5 C24.5,59.5 -24.5,59.5 -24.5,59.5 C-43.81650161743164,59.5 -59.5,43.81650161743164 -59.5,24.5 C-59.5,24.5 -59.5,-24.5 -59.5,-24.5 C-59.5,-43.81650161743164 -43.81650161743164,-59.5 -24.5,-59.5 C-24.5,-59.5 24.5,-59.5 24.5,-59.5 C43.81650161743164,-59.5 59.5,-43.81650161743164 59.5,-24.5z"></path></g></g><g transform="matrix(-0.5473003387451172,0.836936354637146,-0.836936354637146,-0.5473003387451172,1052.1732177734375,1142.0369873046875)" opacity="1" style="display: block;"><g opacity="1" transform="matrix(1,0,0,1,-148.25,7.25)"><path fill="rgb(22,110,225)" fill-opacity="1" d=" M59.5,-24.5 C59.5,-24.5 59.5,24.5 59.5,24.5 C59.5,43.81650161743164 43.81650161743164,59.5 24.5,59.5 C24.5,59.5 -24.5,59.5 -24.5,59.5 C-43.81650161743164,59.5 -59.5,43.81650161743164 -59.5,24.5 C-59.5,24.5 -59.5,-24.5 -59.5,-24.5 C-59.5,-43.81650161743164 -43.81650161743164,-59.5 -24.5,-59.5 C-24.5,-59.5 24.5,-59.5 24.5,-59.5 C43.81650161743164,-59.5 59.5,-43.81650161743164 59.5,-24.5z"></path><path stroke-linecap="butt" stroke-linejoin="miter" fill-opacity="0" stroke-miterlimit="4" stroke="rgb(33,10,47)" stroke-opacity="1" stroke-width="0" d=" M59.5,-24.5 C59.5,-24.5 59.5,24.5 59.5,24.5 C59.5,43.81650161743164 43.81650161743164,59.5 24.5,59.5 C24.5,59.5 -24.5,59.5 -24.5,59.5 C-43.81650161743164,59.5 -59.5,43.81650161743164 -59.5,24.5 C-59.5,24.5 -59.5,-24.5 -59.5,-24.5 C-59.5,-43.81650161743164 -43.81650161743164,-59.5 -24.5,-59.5 C-24.5,-59.5 24.5,-59.5 24.5,-59.5 C43.81650161743164,-59.5 59.5,-43.81650161743164 59.5,-24.5z"></path></g></g><g transform="matrix(-0.9128983616828918,0.40818706154823303,-0.40818706154823303,-0.9128983616828918,827.2224731445312,1224.0760498046875)" opacity="1" style="display: block;"><g opacity="1" transform="matrix(1,0,0,1,-148.25,7.25)"><path fill="rgb(22,110,225)" fill-opacity="1" d=" M59.5,-24.5 C59.5,-24.5 59.5,24.5 59.5,24.5 C59.5,43.81650161743164 43.81650161743164,59.5 24.5,59.5 C24.5,59.5 -24.5,59.5 -24.5,59.5 C-43.81650161743164,59.5 -59.5,43.81650161743164 -59.5,24.5 C-59.5,24.5 -59.5,-24.5 -59.5,-24.5 C-59.5,-43.81650161743164 -43.81650161743164,-59.5 -24.5,-59.5 C-24.5,-59.5 24.5,-59.5 24.5,-59.5 C43.81650161743164,-59.5 59.5,-43.81650161743164 59.5,-24.5z"></path><path stroke-linecap="butt" stroke-linejoin="miter" fill-opacity="0" stroke-miterlimit="4" stroke="rgb(33,10,47)" stroke-opacity="1" stroke-width="0" d=" M59.5,-24.5 C59.5,-24.5 59.5,24.5 59.5,24.5 C59.5,43.81650161743164 43.81650161743164,59.5 24.5,59.5 C24.5,59.5 -24.5,59.5 -24.5,59.5 C-43.81650161743164,59.5 -59.5,43.81650161743164 -59.5,24.5 C-59.5,24.5 -59.5,-24.5 -59.5,-24.5 C-59.5,-43.81650161743164 -43.81650161743164,-59.5 -24.5,-59.5 C-24.5,-59.5 24.5,-59.5 24.5,-59.5 C43.81650161743164,-59.5 59.5,-43.81650161743164 59.5,-24.5z"></path></g></g><g transform="matrix(-0.9886622428894043,-0.15015657246112823,0.15015657246112823,-0.9886622428894043,593.6280517578125,1171.4736328125)" opacity="1" style="display: block;"><g opacity="1" transform="matrix(1,0,0,1,-148.25,7.25)"><path fill="rgb(22,110,225)" fill-opacity="1" d=" M59.5,-24.5 C59.5,-24.5 59.5,24.5 59.5,24.5 C59.5,43.81650161743164 43.81650161743164,59.5 24.5,59.5 C24.5,59.5 -24.5,59.5 -24.5,59.5 C-43.81650161743164,59.5 -59.5,43.81650161743164 -59.5,24.5 C-59.5,24.5 -59.5,-24.5 -59.5,-24.5 C-59.5,-43.81650161743164 -43.81650161743164,-59.5 -24.5,-59.5 C-24.5,-59.5 24.5,-59.5 24.5,-59.5 C43.81650161743164,-59.5 59.5,-43.81650161743164 59.5,-24.5z"></path><path stroke-linecap="butt" stroke-linejoin="miter" fill-opacity="0" stroke-miterlimit="4" stroke="rgb(33,10,47)" stroke-opacity="1" stroke-width="0" d=" M59.5,-24.5 C59.5,-24.5 59.5,24.5 59.5,24.5 C59.5,43.81650161743164 43.81650161743164,59.5 24.5,59.5 C24.5,59.5 -24.5,59.5 -24.5,59.5 C-43.81650161743164,59.5 -59.5,43.81650161743164 -59.5,24.5 C-59.5,24.5 -59.5,-24.5 -59.5,-24.5 C-59.5,-43.81650161743164 -43.81650161743164,-59.5 -24.5,-59.5 C-24.5,-59.5 24.5,-59.5 24.5,-59.5 C43.81650161743164,-59.5 59.5,-43.81650161743164 59.5,-24.5z"></path></g></g><g transform="matrix(-0.750526487827301,-0.6608404517173767,0.6608404517173767,-0.750526487827301,425.556884765625,1000.9296264648438)" opacity="1" style="display: block;"><g opacity="1" transform="matrix(1,0,0,1,-148.25,7.25)"><path fill="rgb(22,110,225)" fill-opacity="1" d=" M59.5,-24.5 C59.5,-24.5 59.5,24.5 59.5,24.5 C59.5,43.81650161743164 43.81650161743164,59.5 24.5,59.5 C24.5,59.5 -24.5,59.5 -24.5,59.5 C-43.81650161743164,59.5 -59.5,43.81650161743164 -59.5,24.5 C-59.5,24.5 -59.5,-24.5 -59.5,-24.5 C-59.5,-43.81650161743164 -43.81650161743164,-59.5 -24.5,-59.5 C-24.5,-59.5 24.5,-59.5 24.5,-59.5 C43.81650161743164,-59.5 59.5,-43.81650161743164 59.5,-24.5z"></path><path stroke-linecap="butt" stroke-linejoin="miter" fill-opacity="0" stroke-miterlimit="4" stroke="rgb(33,10,47)" stroke-opacity="1" stroke-width="0" d=" M59.5,-24.5 C59.5,-24.5 59.5,24.5 59.5,24.5 C59.5,43.81650161743164 43.81650161743164,59.5 24.5,59.5 C24.5,59.5 -24.5,59.5 -24.5,59.5 C-43.81650161743164,59.5 -59.5,43.81650161743164 -59.5,24.5 C-59.5,24.5 -59.5,-24.5 -59.5,-24.5 C-59.5,-43.81650161743164 -43.81650161743164,-59.5 -24.5,-59.5 C-24.5,-59.5 24.5,-59.5 24.5,-59.5 C43.81650161743164,-59.5 59.5,-43.81650161743164 59.5,-24.5z"></path></g></g><g transform="matrix(-0.2741103172302246,-0.9616982936859131,0.9616982936859131,-0.2741103172302246,376.3668518066406,766.5936889648438)" opacity="1" style="display: block;"><g opacity="1" transform="matrix(1,0,0,1,-148.25,7.25)"><path fill="rgb(22,110,225)" fill-opacity="1" d=" M59.5,-24.5 C59.5,-24.5 59.5,24.5 59.5,24.5 C59.5,43.81650161743164 43.81650161743164,59.5 24.5,59.5 C24.5,59.5 -24.5,59.5 -24.5,59.5 C-43.81650161743164,59.5 -59.5,43.81650161743164 -59.5,24.5 C-59.5,24.5 -59.5,-24.5 -59.5,-24.5 C-59.5,-43.81650161743164 -43.81650161743164,-59.5 -24.5,-59.5 C-24.5,-59.5 24.5,-59.5 24.5,-59.5 C43.81650161743164,-59.5 59.5,-43.81650161743164 59.5,-24.5z"></path><path stroke-linecap="butt" stroke-linejoin="miter" fill-opacity="0" stroke-miterlimit="4" stroke="rgb(33,10,47)" stroke-opacity="1" stroke-width="0" d=" M59.5,-24.5 C59.5,-24.5 59.5,24.5 59.5,24.5 C59.5,43.81650161743164 43.81650161743164,59.5 24.5,59.5 C24.5,59.5 -24.5,59.5 -24.5,59.5 C-43.81650161743164,59.5 -59.5,43.81650161743164 -59.5,24.5 C-59.5,24.5 -59.5,-24.5 -59.5,-24.5 C-59.5,-43.81650161743164 -43.81650161743164,-59.5 -24.5,-59.5 C-24.5,-59.5 24.5,-59.5 24.5,-59.5 C43.81650161743164,-59.5 59.5,-43.81650161743164 59.5,-24.5z"></path></g></g><g transform="matrix(0.2893325388431549,-0.9572287201881409,0.9572287201881409,0.2893325388431549,461.67779541015625,542.8629760742188)" opacity="1" style="display: block;"><g opacity="1" transform="matrix(1,0,0,1,-148.25,7.25)"><path fill="rgb(22,110,225)" fill-opacity="1" d=" M59.5,-24.5 C59.5,-24.5 59.5,24.5 59.5,24.5 C59.5,43.81650161743164 43.81650161743164,59.5 24.5,59.5 C24.5,59.5 -24.5,59.5 -24.5,59.5 C-43.81650161743164,59.5 -59.5,43.81650161743164 -59.5,24.5 C-59.5,24.5 -59.5,-24.5 -59.5,-24.5 C-59.5,-43.81650161743164 -43.81650161743164,-59.5 -24.5,-59.5 C-24.5,-59.5 24.5,-59.5 24.5,-59.5 C43.81650161743164,-59.5 59.5,-43.81650161743164 59.5,-24.5z"></path><path stroke-linecap="butt" stroke-linejoin="miter" fill-opacity="0" stroke-miterlimit="4" stroke="rgb(33,10,47)" stroke-opacity="1" stroke-width="0" d=" M59.5,-24.5 C59.5,-24.5 59.5,24.5 59.5,24.5 C59.5,43.81650161743164 43.81650161743164,59.5 24.5,59.5 C24.5,59.5 -24.5,59.5 -24.5,59.5 C-43.81650161743164,59.5 -59.5,43.81650161743164 -59.5,24.5 C-59.5,24.5 -59.5,-24.5 -59.5,-24.5 C-59.5,-43.81650161743164 -43.81650161743164,-59.5 -24.5,-59.5 C-24.5,-59.5 24.5,-59.5 24.5,-59.5 C43.81650161743164,-59.5 59.5,-43.81650161743164 59.5,-24.5z"></path></g></g><g transform="matrix(0.7609158158302307,-0.648850679397583,0.648850679397583,0.7609158158302307,654.4033813476562,400.7714538574219)" opacity="1" style="display: block;"><g opacity="1" transform="matrix(1,0,0,1,-148.25,7.25)"><path fill="rgb(22,110,225)" fill-opacity="1" d=" M59.5,-24.5 C59.5,-24.5 59.5,24.5 59.5,24.5 C59.5,43.81650161743164 43.81650161743164,59.5 24.5,59.5 C24.5,59.5 -24.5,59.5 -24.5,59.5 C-43.81650161743164,59.5 -59.5,43.81650161743164 -59.5,24.5 C-59.5,24.5 -59.5,-24.5 -59.5,-24.5 C-59.5,-43.81650161743164 -43.81650161743164,-59.5 -24.5,-59.5 C-24.5,-59.5 24.5,-59.5 24.5,-59.5 C43.81650161743164,-59.5 59.5,-43.81650161743164 59.5,-24.5z"></path><path stroke-linecap="butt" stroke-linejoin="miter" fill-opacity="0" stroke-miterlimit="4" stroke="rgb(33,10,47)" stroke-opacity="1" stroke-width="0" d=" M59.5,-24.5 C59.5,-24.5 59.5,24.5 59.5,24.5 C59.5,43.81650161743164 43.81650161743164,59.5 24.5,59.5 C24.5,59.5 -24.5,59.5 -24.5,59.5 C-43.81650161743164,59.5 -59.5,43.81650161743164 -59.5,24.5 C-59.5,24.5 -59.5,-24.5 -59.5,-24.5 C-59.5,-43.81650161743164 -43.81650161743164,-59.5 -24.5,-59.5 C-24.5,-59.5 24.5,-59.5 24.5,-59.5 C43.81650161743164,-59.5 59.5,-43.81650161743164 59.5,-24.5z"></path></g></g><g transform="matrix(0.9909199476242065,-0.1344532072544098,0.1344532072544098,0.9909199476242065,893.3555908203125,385.4336242675781)" opacity="1" style="display: block;"><g opacity="1" transform="matrix(1,0,0,1,-148.25,7.25)"><path fill="rgb(22,110,225)" fill-opacity="1" d=" M59.5,-24.5 C59.5,-24.5 59.5,24.5 59.5,24.5 C59.5,43.81650161743164 43.81650161743164,59.5 24.5,59.5 C24.5,59.5 -24.5,59.5 -24.5,59.5 C-43.81650161743164,59.5 -59.5,43.81650161743164 -59.5,24.5 C-59.5,24.5 -59.5,-24.5 -59.5,-24.5 C-59.5,-43.81650161743164 -43.81650161743164,-59.5 -24.5,-59.5 C-24.5,-59.5 24.5,-59.5 24.5,-59.5 C43.81650161743164,-59.5 59.5,-43.81650161743164 59.5,-24.5z"></path><path stroke-linecap="butt" stroke-linejoin="miter" fill-opacity="0" stroke-miterlimit="4" stroke="rgb(33,10,47)" stroke-opacity="1" stroke-width="0" d=" M59.5,-24.5 C59.5,-24.5 59.5,24.5 59.5,24.5 C59.5,43.81650161743164 43.81650161743164,59.5 24.5,59.5 C24.5,59.5 -24.5,59.5 -24.5,59.5 C-43.81650161743164,59.5 -59.5,43.81650161743164 -59.5,24.5 C-59.5,24.5 -59.5,-24.5 -59.5,-24.5 C-59.5,-43.81650161743164 -43.81650161743164,-59.5 -24.5,-59.5 C-24.5,-59.5 24.5,-59.5 24.5,-59.5 C43.81650161743164,-59.5 59.5,-43.81650161743164 59.5,-24.5z"></path></g></g><g transform="matrix(0.9063078165054321,0.4226182699203491,-0.4226182699203491,0.9063078165054321,1102.6678466796875,501.716064453125)" opacity="1" style="display: block;"><g opacity="1" transform="matrix(1,0,0,1,-148.25,7.25)"><path fill="rgb(22,110,225)" fill-opacity="1" d=" M59.5,-24.5 C59.5,-24.5 59.5,24.5 59.5,24.5 C59.5,43.81650161743164 43.81650161743164,59.5 24.5,59.5 C24.5,59.5 -24.5,59.5 -24.5,59.5 C-43.81650161743164,59.5 -59.5,43.81650161743164 -59.5,24.5 C-59.5,24.5 -59.5,-24.5 -59.5,-24.5 C-59.5,-43.81650161743164 -43.81650161743164,-59.5 -24.5,-59.5 C-24.5,-59.5 24.5,-59.5 24.5,-59.5 C43.81650161743164,-59.5 59.5,-43.81650161743164 59.5,-24.5z"></path><path stroke-linecap="butt" stroke-linejoin="miter" fill-opacity="0" stroke-miterlimit="4" stroke="rgb(33,10,47)" stroke-opacity="1" stroke-width="0" d=" M59.5,-24.5 C59.5,-24.5 59.5,24.5 59.5,24.5 C59.5,43.81650161743164 43.81650161743164,59.5 24.5,59.5 C24.5,59.5 -24.5,59.5 -24.5,59.5 C-43.81650161743164,59.5 -59.5,43.81650161743164 -59.5,24.5 C-59.5,24.5 -59.5,-24.5 -59.5,-24.5 C-59.5,-43.81650161743164 -43.81650161743164,-59.5 -24.5,-59.5 C-24.5,-59.5 24.5,-59.5 24.5,-59.5 C43.81650161743164,-59.5 59.5,-43.81650161743164 59.5,-24.5z"></path></g></g><g transform="matrix(0.41542360186576843,0.9096280336380005,-0.9096280336380005,0.41542360186576843,1333.9119873046875,719.1456298828125)" opacity="1" style="display: block;"><g opacity="1" transform="matrix(1,0,0,1,-148.25,7.25)"><path fill="rgb(22,110,225)" fill-opacity="1" d=" M59.5,-24.5 C59.5,-24.5 59.5,24.5 59.5,24.5 C59.5,43.81650161743164 43.81650161743164,59.5 24.5,59.5 C24.5,59.5 -24.5,59.5 -24.5,59.5 C-43.81650161743164,59.5 -59.5,43.81650161743164 -59.5,24.5 C-59.5,24.5 -59.5,-24.5 -59.5,-24.5 C-59.5,-43.81650161743164 -43.81650161743164,-59.5 -24.5,-59.5 C-24.5,-59.5 24.5,-59.5 24.5,-59.5 C43.81650161743164,-59.5 59.5,-43.81650161743164 59.5,-24.5z"></path><path stroke-linecap="butt" stroke-linejoin="miter" fill-opacity="0" stroke-miterlimit="4" stroke="rgb(33,10,47)" stroke-opacity="1" stroke-width="0" d=" M59.5,-24.5 C59.5,-24.5 59.5,24.5 59.5,24.5 C59.5,43.81650161743164 43.81650161743164,59.5 24.5,59.5 C24.5,59.5 -24.5,59.5 -24.5,59.5 C-43.81650161743164,59.5 -59.5,43.81650161743164 -59.5,24.5 C-59.5,24.5 -59.5,-24.5 -59.5,-24.5 C-59.5,-43.81650161743164 -43.81650161743164,-59.5 -24.5,-59.5 C-24.5,-59.5 24.5,-59.5 24.5,-59.5 C43.81650161743164,-59.5 59.5,-43.81650161743164 59.5,-24.5z"></path></g></g><g transform="matrix(-0.1423180103302002,0.9898210167884827,-0.9898210167884827,-0.1423180103302002,1292.8665771484375,1020.63623046875)" opacity="1" style="display: block;"><g opacity="1" transform="matrix(1,0,0,1,-148.25,7.25)"><path fill="rgb(22,110,225)" fill-opacity="1" d=" M59.5,-24.5 C59.5,-24.5 59.5,24.5 59.5,24.5 C59.5,43.81650161743164 43.81650161743164,59.5 24.5,59.5 C24.5,59.5 -24.5,59.5 -24.5,59.5 C-43.81650161743164,59.5 -59.5,43.81650161743164 -59.5,24.5 C-59.5,24.5 -59.5,-24.5 -59.5,-24.5 C-59.5,-43.81650161743164 -43.81650161743164,-59.5 -24.5,-59.5 C-24.5,-59.5 24.5,-59.5 24.5,-59.5 C43.81650161743164,-59.5 59.5,-43.81650161743164 59.5,-24.5z"></path><path stroke-linecap="butt" stroke-linejoin="miter" fill-opacity="0" stroke-miterlimit="4" stroke="rgb(33,10,47)" stroke-opacity="1" stroke-width="0" d=" M59.5,-24.5 C59.5,-24.5 59.5,24.5 59.5,24.5 C59.5,43.81650161743164 43.81650161743164,59.5 24.5,59.5 C24.5,59.5 -24.5,59.5 -24.5,59.5 C-43.81650161743164,59.5 -59.5,43.81650161743164 -59.5,24.5 C-59.5,24.5 -59.5,-24.5 -59.5,-24.5 C-59.5,-43.81650161743164 -43.81650161743164,-59.5 -24.5,-59.5 C-24.5,-59.5 24.5,-59.5 24.5,-59.5 C43.81650161743164,-59.5 59.5,-43.81650161743164 59.5,-24.5z"></path></g></g><g transform="matrix(-0.6548595428466797,0.7557505965232849,-0.7557505965232849,-0.6548595428466797,1095.3421630859375,1252.07470703125)" opacity="1" style="display: block;"><g opacity="1" transform="matrix(1,0,0,1,-148.25,7.25)"><path fill="rgb(22,110,225)" fill-opacity="1" d=" M59.5,-24.5 C59.5,-24.5 59.5,24.5 59.5,24.5 C59.5,43.81650161743164 43.81650161743164,59.5 24.5,59.5 C24.5,59.5 -24.5,59.5 -24.5,59.5 C-43.81650161743164,59.5 -59.5,43.81650161743164 -59.5,24.5 C-59.5,24.5 -59.5,-24.5 -59.5,-24.5 C-59.5,-43.81650161743164 -43.81650161743164,-59.5 -24.5,-59.5 C-24.5,-59.5 24.5,-59.5 24.5,-59.5 C43.81650161743164,-59.5 59.5,-43.81650161743164 59.5,-24.5z"></path><path stroke-linecap="butt" stroke-linejoin="miter" fill-opacity="0" stroke-miterlimit="4" stroke="rgb(33,10,47)" stroke-opacity="1" stroke-width="0" d=" M59.5,-24.5 C59.5,-24.5 59.5,24.5 59.5,24.5 C59.5,43.81650161743164 43.81650161743164,59.5 24.5,59.5 C24.5,59.5 -24.5,59.5 -24.5,59.5 C-43.81650161743164,59.5 -59.5,43.81650161743164 -59.5,24.5 C-59.5,24.5 -59.5,-24.5 -59.5,-24.5 C-59.5,-43.81650161743164 -43.81650161743164,-59.5 -24.5,-59.5 C-24.5,-59.5 24.5,-59.5 24.5,-59.5 C43.81650161743164,-59.5 59.5,-43.81650161743164 59.5,-24.5z"></path></g></g><g transform="matrix(-0.9594911932945251,0.2817385792732239,-0.2817385792732239,-0.9594911932945251,804.0474243164062,1339.984130859375)" opacity="1" style="display: block;"><g opacity="1" transform="matrix(1,0,0,1,-148.25,7.25)"><path fill="rgb(22,110,225)" fill-opacity="1" d=" M59.5,-24.5 C59.5,-24.5 59.5,24.5 59.5,24.5 C59.5,43.81650161743164 43.81650161743164,59.5 24.5,59.5 C24.5,59.5 -24.5,59.5 -24.5,59.5 C-43.81650161743164,59.5 -59.5,43.81650161743164 -59.5,24.5 C-59.5,24.5 -59.5,-24.5 -59.5,-24.5 C-59.5,-43.81650161743164 -43.81650161743164,-59.5 -24.5,-59.5 C-24.5,-59.5 24.5,-59.5 24.5,-59.5 C43.81650161743164,-59.5 59.5,-43.81650161743164 59.5,-24.5z"></path><path stroke-linecap="butt" stroke-linejoin="miter" fill-opacity="0" stroke-miterlimit="4" stroke="rgb(33,10,47)" stroke-opacity="1" stroke-width="0" d=" M59.5,-24.5 C59.5,-24.5 59.5,24.5 59.5,24.5 C59.5,43.81650161743164 43.81650161743164,59.5 24.5,59.5 C24.5,59.5 -24.5,59.5 -24.5,59.5 C-43.81650161743164,59.5 -59.5,43.81650161743164 -59.5,24.5 C-59.5,24.5 -59.5,-24.5 -59.5,-24.5 C-59.5,-43.81650161743164 -43.81650161743164,-59.5 -24.5,-59.5 C-24.5,-59.5 24.5,-59.5 24.5,-59.5 C43.81650161743164,-59.5 59.5,-43.81650161743164 59.5,-24.5z"></path></g></g><g transform="matrix(-0.9594960808753967,-0.28172194957733154,0.28172194957733154,-0.9594960808753967,511.4676208496094,1256.4517822265625)" opacity="1" style="display: block;"><g opacity="1" transform="matrix(1,0,0,1,-148.25,7.25)"><path fill="rgb(22,110,225)" fill-opacity="1" d=" M59.5,-24.5 C59.5,-24.5 59.5,24.5 59.5,24.5 C59.5,43.81650161743164 43.81650161743164,59.5 24.5,59.5 C24.5,59.5 -24.5,59.5 -24.5,59.5 C-43.81650161743164,59.5 -59.5,43.81650161743164 -59.5,24.5 C-59.5,24.5 -59.5,-24.5 -59.5,-24.5 C-59.5,-43.81650161743164 -43.81650161743164,-59.5 -24.5,-59.5 C-24.5,-59.5 24.5,-59.5 24.5,-59.5 C43.81650161743164,-59.5 59.5,-43.81650161743164 59.5,-24.5z"></path><path stroke-linecap="butt" stroke-linejoin="miter" fill-opacity="0" stroke-miterlimit="4" stroke="rgb(33,10,47)" stroke-opacity="1" stroke-width="0" d=" M59.5,-24.5 C59.5,-24.5 59.5,24.5 59.5,24.5 C59.5,43.81650161743164 43.81650161743164,59.5 24.5,59.5 C24.5,59.5 -24.5,59.5 -24.5,59.5 C-43.81650161743164,59.5 -59.5,43.81650161743164 -59.5,24.5 C-59.5,24.5 -59.5,-24.5 -59.5,-24.5 C-59.5,-43.81650161743164 -43.81650161743164,-59.5 -24.5,-59.5 C-24.5,-59.5 24.5,-59.5 24.5,-59.5 C43.81650161743164,-59.5 59.5,-43.81650161743164 59.5,-24.5z"></path></g></g><g transform="matrix(-0.6548595428466797,-0.7557506561279297,0.7557506561279297,-0.6548595428466797,310.4959411621094,1027.9979248046875)" opacity="1" style="display: block;"><g opacity="1" transform="matrix(1,0,0,1,-148.25,7.25)"><path fill="rgb(22,110,225)" fill-opacity="1" d=" M59.5,-24.5 C59.5,-24.5 59.5,24.5 59.5,24.5 C59.5,43.81650161743164 43.81650161743164,59.5 24.5,59.5 C24.5,59.5 -24.5,59.5 -24.5,59.5 C-43.81650161743164,59.5 -59.5,43.81650161743164 -59.5,24.5 C-59.5,24.5 -59.5,-24.5 -59.5,-24.5 C-59.5,-43.81650161743164 -43.81650161743164,-59.5 -24.5,-59.5 C-24.5,-59.5 24.5,-59.5 24.5,-59.5 C43.81650161743164,-59.5 59.5,-43.81650161743164 59.5,-24.5z"></path><path stroke-linecap="butt" stroke-linejoin="miter" fill-opacity="0" stroke-miterlimit="4" stroke="rgb(33,10,47)" stroke-opacity="1" stroke-width="0" d=" M59.5,-24.5 C59.5,-24.5 59.5,24.5 59.5,24.5 C59.5,43.81650161743164 43.81650161743164,59.5 24.5,59.5 C24.5,59.5 -24.5,59.5 -24.5,59.5 C-43.81650161743164,59.5 -59.5,43.81650161743164 -59.5,24.5 C-59.5,24.5 -59.5,-24.5 -59.5,-24.5 C-59.5,-43.81650161743164 -43.81650161743164,-59.5 -24.5,-59.5 C-24.5,-59.5 24.5,-59.5 24.5,-59.5 C43.81650161743164,-59.5 59.5,-43.81650161743164 59.5,-24.5z"></path></g></g><g transform="matrix(-0.1423179656267166,-0.9898209571838379,0.9898209571838379,-0.1423179656267166,264.93658447265625,727.1585693359375)" opacity="1" style="display: block;"><g opacity="1" transform="matrix(1,0,0,1,-148.25,7.25)"><path fill="rgb(22,110,225)" fill-opacity="1" d=" M59.5,-24.5 C59.5,-24.5 59.5,24.5 59.5,24.5 C59.5,43.81650161743164 43.81650161743164,59.5 24.5,59.5 C24.5,59.5 -24.5,59.5 -24.5,59.5 C-43.81650161743164,59.5 -59.5,43.81650161743164 -59.5,24.5 C-59.5,24.5 -59.5,-24.5 -59.5,-24.5 C-59.5,-43.81650161743164 -43.81650161743164,-59.5 -24.5,-59.5 C-24.5,-59.5 24.5,-59.5 24.5,-59.5 C43.81650161743164,-59.5 59.5,-43.81650161743164 59.5,-24.5z"></path><path stroke-linecap="butt" stroke-linejoin="miter" fill-opacity="0" stroke-miterlimit="4" stroke="rgb(33,10,47)" stroke-opacity="1" stroke-width="0" d=" M59.5,-24.5 C59.5,-24.5 59.5,24.5 59.5,24.5 C59.5,43.81650161743164 43.81650161743164,59.5 24.5,59.5 C24.5,59.5 -24.5,59.5 -24.5,59.5 C-43.81650161743164,59.5 -59.5,43.81650161743164 -59.5,24.5 C-59.5,24.5 -59.5,-24.5 -59.5,-24.5 C-59.5,-43.81650161743164 -43.81650161743164,-59.5 -24.5,-59.5 C-24.5,-59.5 24.5,-59.5 24.5,-59.5 C43.81650161743164,-59.5 59.5,-43.81650161743164 59.5,-24.5z"></path></g></g><g transform="matrix(0.41540783643722534,-0.9096353054046631,0.9096353054046631,0.41540783643722534,389.25653076171875,449.4441833496094)" opacity="1" style="display: block;"><g opacity="1" transform="matrix(1,0,0,1,-148.25,7.25)"><path fill="rgb(22,110,225)" fill-opacity="1" d=" M59.5,-24.5 C59.5,-24.5 59.5,24.5 59.5,24.5 C59.5,43.81650161743164 43.81650161743164,59.5 24.5,59.5 C24.5,59.5 -24.5,59.5 -24.5,59.5 C-43.81650161743164,59.5 -59.5,43.81650161743164 -59.5,24.5 C-59.5,24.5 -59.5,-24.5 -59.5,-24.5 C-59.5,-43.81650161743164 -43.81650161743164,-59.5 -24.5,-59.5 C-24.5,-59.5 24.5,-59.5 24.5,-59.5 C43.81650161743164,-59.5 59.5,-43.81650161743164 59.5,-24.5z"></path><path stroke-linecap="butt" stroke-linejoin="miter" fill-opacity="0" stroke-miterlimit="4" stroke="rgb(33,10,47)" stroke-opacity="1" stroke-width="0" d=" M59.5,-24.5 C59.5,-24.5 59.5,24.5 59.5,24.5 C59.5,43.81650161743164 43.81650161743164,59.5 24.5,59.5 C24.5,59.5 -24.5,59.5 -24.5,59.5 C-43.81650161743164,59.5 -59.5,43.81650161743164 -59.5,24.5 C-59.5,24.5 -59.5,-24.5 -59.5,-24.5 C-59.5,-43.81650161743164 -43.81650161743164,-59.5 -24.5,-59.5 C-24.5,-59.5 24.5,-59.5 24.5,-59.5 C43.81650161743164,-59.5 59.5,-43.81650161743164 59.5,-24.5z"></path></g></g><g transform="matrix(0.8412467241287231,-0.5406514406204224,0.5406514406204224,0.8412467241287231,643.984375,283.0290832519531)" opacity="1" style="display: block;"><g opacity="1" transform="matrix(1,0,0,1,-148.25,7.25)"><path fill="rgb(22,110,225)" fill-opacity="1" d=" M59.5,-24.5 C59.5,-24.5 59.5,24.5 59.5,24.5 C59.5,43.81650161743164 43.81650161743164,59.5 24.5,59.5 C24.5,59.5 -24.5,59.5 -24.5,59.5 C-43.81650161743164,59.5 -59.5,43.81650161743164 -59.5,24.5 C-59.5,24.5 -59.5,-24.5 -59.5,-24.5 C-59.5,-43.81650161743164 -43.81650161743164,-59.5 -24.5,-59.5 C-24.5,-59.5 24.5,-59.5 24.5,-59.5 C43.81650161743164,-59.5 59.5,-43.81650161743164 59.5,-24.5z"></path><path stroke-linecap="butt" stroke-linejoin="miter" fill-opacity="0" stroke-miterlimit="4" stroke="rgb(33,10,47)" stroke-opacity="1" stroke-width="0" d=" M59.5,-24.5 C59.5,-24.5 59.5,24.5 59.5,24.5 C59.5,43.81650161743164 43.81650161743164,59.5 24.5,59.5 C24.5,59.5 -24.5,59.5 -24.5,59.5 C-43.81650161743164,59.5 -59.5,43.81650161743164 -59.5,24.5 C-59.5,24.5 -59.5,-24.5 -59.5,-24.5 C-59.5,-43.81650161743164 -43.81650161743164,-59.5 -24.5,-59.5 C-24.5,-59.5 24.5,-59.5 24.5,-59.5 C43.81650161743164,-59.5 59.5,-43.81650161743164 59.5,-24.5z"></path></g></g><g transform="matrix(1,0,0,1,948.2477416992188,280.7498779296875)" opacity="1" style="display: block;"><g opacity="1" transform="matrix(1,0,0,1,-148.25,7.25)"><path fill="rgb(22,110,225)" fill-opacity="1" d=" M59.5,-24.5 C59.5,-24.5 59.5,24.5 59.5,24.5 C59.5,43.81650161743164 43.81650161743164,59.5 24.5,59.5 C24.5,59.5 -24.5,59.5 -24.5,59.5 C-43.81650161743164,59.5 -59.5,43.81650161743164 -59.5,24.5 C-59.5,24.5 -59.5,-24.5 -59.5,-24.5 C-59.5,-43.81650161743164 -43.81650161743164,-59.5 -24.5,-59.5 C-24.5,-59.5 24.5,-59.5 24.5,-59.5 C43.81650161743164,-59.5 59.5,-43.81650161743164 59.5,-24.5z"></path><path stroke-linecap="butt" stroke-linejoin="miter" fill-opacity="0" stroke-miterlimit="4" stroke="rgb(33,10,47)" stroke-opacity="1" stroke-width="0" d=" M59.5,-24.5 C59.5,-24.5 59.5,24.5 59.5,24.5 C59.5,43.81650161743164 43.81650161743164,59.5 24.5,59.5 C24.5,59.5 -24.5,59.5 -24.5,59.5 C-43.81650161743164,59.5 -59.5,43.81650161743164 -59.5,24.5 C-59.5,24.5 -59.5,-24.5 -59.5,-24.5 C-59.5,-43.81650161743164 -43.81650161743164,-59.5 -24.5,-59.5 C-24.5,-59.5 24.5,-59.5 24.5,-59.5 C43.81650161743164,-59.5 59.5,-43.81650161743164 59.5,-24.5z"></path></g></g><g transform="matrix(0.8412560820579529,0.5406368374824524,-0.5406368374824524,0.8412560820579529,1205.44189453125,443.3271789550781)" opacity="1" style="display: block;"><g opacity="1" transform="matrix(1,0,0,1,-148.25,7.25)"><path fill="rgb(22,110,225)" fill-opacity="1" d=" M59.5,-24.5 C59.5,-24.5 59.5,24.5 59.5,24.5 C59.5,43.81650161743164 43.81650161743164,59.5 24.5,59.5 C24.5,59.5 -24.5,59.5 -24.5,59.5 C-43.81650161743164,59.5 -59.5,43.81650161743164 -59.5,24.5 C-59.5,24.5 -59.5,-24.5 -59.5,-24.5 C-59.5,-43.81650161743164 -43.81650161743164,-59.5 -24.5,-59.5 C-24.5,-59.5 24.5,-59.5 24.5,-59.5 C43.81650161743164,-59.5 59.5,-43.81650161743164 59.5,-24.5z"></path><path stroke-linecap="butt" stroke-linejoin="miter" fill-opacity="0" stroke-miterlimit="4" stroke="rgb(33,10,47)" stroke-opacity="1" stroke-width="0" d=" M59.5,-24.5 C59.5,-24.5 59.5,24.5 59.5,24.5 C59.5,43.81650161743164 43.81650161743164,59.5 24.5,59.5 C24.5,59.5 -24.5,59.5 -24.5,59.5 C-43.81650161743164,59.5 -59.5,43.81650161743164 -59.5,24.5 C-59.5,24.5 -59.5,-24.5 -59.5,-24.5 C-59.5,-43.81650161743164 -43.81650161743164,-59.5 -24.5,-59.5 C-24.5,-59.5 24.5,-59.5 24.5,-59.5 C43.81650161743164,-59.5 59.5,-43.81650161743164 59.5,-24.5z"></path></g></g><g transform="matrix(0,0,0,0,800,800)" opacity="1" style="display: block;"><g opacity="1" transform="matrix(1,0,0,1,0,0)"><path fill="rgb(22,110,225)" fill-opacity="1" d=" M56,-35.5 C56,-35.5 56,35.5 56,35.5 C56,46.81394958496094 46.81394958496094,56 35.5,56 C35.5,56 -35.5,56 -35.5,56 C-46.81394958496094,56 -56,46.81394958496094 -56,35.5 C-56,35.5 -56,-35.5 -56,-35.5 C-56,-46.81394958496094 -46.81394958496094,-56 -35.5,-56 C-35.5,-56 35.5,-56 35.5,-56 C46.81394958496094,-56 56,-46.81394958496094 56,-35.5z"></path><path stroke-linecap="butt" stroke-linejoin="miter" fill-opacity="0" stroke-miterlimit="4" stroke="rgb(33,10,47)" stroke-opacity="1" stroke-width="0" d=" M56,-35.5 C56,-35.5 56,35.5 56,35.5 C56,46.81394958496094 46.81394958496094,56 35.5,56 C35.5,56 -35.5,56 -35.5,56 C-46.81394958496094,56 -56,46.81394958496094 -56,35.5 C-56,35.5 -56,-35.5 -56,-35.5 C-56,-46.81394958496094 -46.81394958496094,-56 -35.5,-56 C-35.5,-56 35.5,-56 35.5,-56 C46.81394958496094,-56 56,-46.81394958496094 56,-35.5z"></path></g></g></g></g></svg>