<svg xmlns="http://www.w3.org/2000/svg" viewBox="0 0 1300 1300" width="1300" height="1300" preserveAspectRatio="xMidYMid meet" style="width: 100%; height: 100%; transform: translate3d(0px, 0px, 0px); content-visibility: visible;"><defs><clipPath id="__lottie_element_2011"><rect width="1300" height="1300" x="0" y="0"></rect></clipPath></defs><g clip-path="url(#__lottie_element_2011)"><g class="1" transform="matrix(0.7602562308311462,-0.21656468510627747,0.21656468510627747,0.7602562308311462,650.896728515625,652.939208984375)" opacity="1" style="display: block;"><g opacity="1" transform="matrix(1,0,0,1,5.0929999351501465,640.1959838867188)"><path fill="rgb(191,174,252)" fill-opacity="1" d=" M75,-35 C75,-35 75,35 75,35 C75,57.07600021362305 57.07600021362305,75 35,75 C35,75 -35,75 -35,75 C-57.07600021362305,75 -75,57.07600021362305 -75,35 C-75,35 -75,-35 -75,-35 C-75,-57.07600021362305 -57.07600021362305,-75 -35,-75 C-35,-75 35,-75 35,-75 C57.07600021362305,-75 75,-57.07600021362305 75,-35z"></path></g></g><g class="2" transform="matrix(0.7566530108451843,0.22883613407611847,-0.22883613407611847,0.7566530108451843,649.1151123046875,652.9248046875)" opacity="1" style="display: block;"><g opacity="1" transform="matrix(1,0,0,1,5.0929999351501465,640.1959838867188)"><path fill="rgb(191,174,252)" fill-opacity="1" d=" M75,-35 C75,-35 75,35 75,35 C75,57.07600021362305 57.07600021362305,75 35,75 C35,75 -35,75 -35,75 C-57.07600021362305,75 -75,57.07600021362305 -75,35 C-75,35 -75,-35 -75,-35 C-75,-57.07600021362305 -57.07600021362305,-75 -35,-75 C-35,-75 35,-75 35,-75 C57.07600021362305,-75 75,-57.07600021362305 75,-35z"></path></g></g><g class="9" transform="matrix(-0.32255837321281433,-0.7216964960098267,0.7216964960098267,-0.32255837321281433,652.917236328125,648.60791015625)" opacity="1" style="display: block;"><g opacity="1" transform="matrix(1,0,0,1,5.0929999351501465,640.1959838867188)"><path fill="rgb(191,174,252)" fill-opacity="1" d=" M75,-35 C75,-35 75,35 75,35 C75,57.07600021362305 57.07600021362305,75 35,75 C35,75 -35,75 -35,75 C-57.07600021362305,75 -75,57.07600021362305 -75,35 C-75,35 -75,-35 -75,-35 C-75,-57.07600021362305 -57.07600021362305,-75 -35,-75 C-35,-75 35,-75 35,-75 C57.07600021362305,-75 75,-57.07600021362305 75,-35z"></path></g></g><g class="10" transform="matrix(0.11883511394262314,-0.781516432762146,0.781516432762146,0.11883511394262314,653.156494140625,650.37353515625)" opacity="1" style="display: block;"><g opacity="1" transform="matrix(1,0,0,1,5.0929999351501465,640.1959838867188)"><path fill="rgb(191,174,252)" fill-opacity="1" d=" M75,-35 C75,-35 75,35 75,35 C75,57.07600021362305 57.07600021362305,75 35,75 C35,75 -35,75 -35,75 C-57.07600021362305,75 -75,57.07600021362305 -75,35 C-75,35 -75,-35 -75,-35 C-75,-57.07600021362305 -57.07600021362305,-75 -35,-75 C-35,-75 35,-75 35,-75 C57.07600021362305,-75 75,-57.07600021362305 75,-35z"></path></g></g><g class="11" transform="matrix(0.5224874019622803,-0.593208909034729,0.593208909034729,0.5224874019622803,652.4032592773438,651.9880981445312)" opacity="1" style="display: block;"><g opacity="1" transform="matrix(1,0,0,1,5.0929999351501465,640.1959838867188)"><path fill="rgb(191,174,252)" fill-opacity="1" d=" M75,-35 C75,-35 75,35 75,35 C75,57.07600021362305 57.07600021362305,75 35,75 C35,75 -35,75 -35,75 C-57.07600021362305,75 -75,57.07600021362305 -75,35 C-75,35 -75,-35 -75,-35 C-75,-57.07600021362305 -57.07600021362305,-75 -35,-75 C-35,-75 35,-75 35,-75 C57.07600021362305,-75 75,-57.07600021362305 75,-35z"></path></g></g><g class="4" transform="matrix(0.10616212338209152,0.7833386063575745,-0.7833386063575745,0.10616212338209152,646.8739624023438,650.4074096679688)" opacity="1" style="display: block;"><g opacity="1" transform="matrix(1,0,0,1,5.0929999351501465,640.1959838867188)"><path fill="rgb(191,174,252)" fill-opacity="1" d=" M75,-35 C75,-35 75,35 75,35 C75,57.07600021362305 57.07600021362305,75 35,75 C35,75 -35,75 -35,75 C-57.07600021362305,75 -75,57.07600021362305 -75,35 C-75,35 -75,-35 -75,-35 C-75,-57.07600021362305 -57.07600021362305,-75 -35,-75 C-35,-75 35,-75 35,-75 C57.07600021362305,-75 75,-57.07600021362305 75,-35z"></path></g></g><g class="5" transform="matrix(-0.334192156791687,0.7163835763931274,-0.7163835763931274,-0.334192156791687,647.1417846679688,648.64599609375)" opacity="1" style="display: block;"><g opacity="1" transform="matrix(1,0,0,1,5.0929999351501465,640.1959838867188)"><path fill="rgb(191,174,252)" fill-opacity="1" d=" M75,-35 C75,-35 75,35 75,35 C75,57.07600021362305 57.07600021362305,75 35,75 C35,75 -35,75 -35,75 C-57.07600021362305,75 -75,57.07600021362305 -75,35 C-75,35 -75,-35 -75,-35 C-75,-57.07600021362305 -57.07600021362305,-75 -35,-75 C-35,-75 35,-75 35,-75 C57.07600021362305,-75 75,-57.07600021362305 75,-35z"></path></g></g><g class="6" transform="matrix(-0.6684518456459045,0.4219737946987152,-0.4219737946987152,-0.6684518456459045,648.3193969726562,647.3089599609375)" opacity="1" style="display: block;"><g opacity="1" transform="matrix(1,0,0,1,5.0929999351501465,640.1959838867188)"><path fill="rgb(191,174,252)" fill-opacity="1" d=" M75,-35 C75,-35 75,35 75,35 C75,57.07600021362305 57.07600021362305,75 35,75 C35,75 -35,75 -35,75 C-57.07600021362305,75 -75,57.07600021362305 -75,35 C-75,35 -75,-35 -75,-35 C-75,-57.07600021362305 -57.07600021362305,-75 -35,-75 C-35,-75 35,-75 35,-75 C57.07600021362305,-75 75,-57.07600021362305 75,-35z"></path></g></g><g class="7" transform="matrix(-0.7904736995697021,-0.006401684135198593,0.006401684135198593,-0.7904736995697021,650.0328979492188,646.8208618164062)" opacity="1" style="display: block;"><g opacity="1" transform="matrix(1,0,0,1,5.0929999351501465,640.1959838867188)"><path fill="rgb(191,174,252)" fill-opacity="1" d=" M75,-35 C75,-35 75,35 75,35 C75,57.07600021362305 57.07600021362305,75 35,75 C35,75 -35,75 -35,75 C-57.07600021362305,75 -75,57.07600021362305 -75,35 C-75,35 -75,-35 -75,-35 C-75,-57.07600021362305 -57.07600021362305,-75 -35,-75 C-35,-75 35,-75 35,-75 C57.07600021362305,-75 75,-57.07600021362305 75,-35z"></path></g></g><g class="8" transform="matrix(-0.6615298986434937,-0.4327446520328522,0.4327446520328522,-0.6615298986434937,651.73828125,647.336669921875)" opacity="1" style="display: block;"><g opacity="1" transform="matrix(1,0,0,1,5.0929999351501465,640.1959838867188)"><path fill="rgb(191,174,252)" fill-opacity="1" d=" M75,-35 C75,-35 75,35 75,35 C75,57.07600021362305 57.07600021362305,75 35,75 C35,75 -35,75 -35,75 C-57.07600021362305,75 -75,57.07600021362305 -75,35 C-75,35 -75,-35 -75,-35 C-75,-57.07600021362305 -57.07600021362305,-75 -35,-75 C-35,-75 35,-75 35,-75 C57.07600021362305,-75 75,-57.07600021362305 75,-35z"></path></g></g><g transform="matrix(0.7904999852180481,0,0,0.7904999852180481,498.80499267578125,152.26406860351562)" opacity="1" style="display: block;"><g opacity="1" transform="matrix(1,0,0,1,5.0929999351501465,640.1959838867188)"><path fill="rgb(124,55,239)" fill-opacity="1" d=" M75,-35 C75,-35 75,35 75,35 C75,57.07600021362305 57.07600021362305,75 35,75 C35,75 -35,75 -35,75 C-57.07600021362305,75 -75,57.07600021362305 -75,35 C-75,35 -75,-35 -75,-35 C-75,-57.07600021362305 -57.07600021362305,-75 -35,-75 C-35,-75 35,-75 35,-75 C57.07600021362305,-75 75,-57.07600021362305 75,-35z"></path></g></g><g class="12" transform="matrix(0.6494104862213135,0.45072805881500244,-0.45072805881500244,0.6494104862213135,648.295166015625,652.556640625)" opacity="1" style="display: none;"><g opacity="1" transform="matrix(1,0,0,1,5.0929999351501465,640.1959838867188)"><path fill="rgb(191,174,252)" fill-opacity="1" d=" M75,-35 C75,-35 75,35 75,35 C75,57.07600021362305 57.07600021362305,75 35,75 C35,75 -35,75 -35,75 C-57.07600021362305,75 -75,57.07600021362305 -75,35 C-75,35 -75,-35 -75,-35 C-75,-57.07600021362305 -57.07600021362305,-75 -35,-75 C-35,-75 35,-75 35,-75 C57.07600021362305,-75 75,-57.07600021362305 75,-35z"></path></g></g><g class="13" transform="matrix(0.3026403784751892,0.7302730083465576,-0.7302730083465576,0.3026403784751892,647.1769409179688,651.1695556640625)" opacity="1" style="display: none;"><g opacity="1" transform="matrix(1,0,0,1,5.0929999351501465,640.1959838867188)"><path fill="rgb(191,174,252)" fill-opacity="1" d=" M75,-35 C75,-35 75,35 75,35 C75,57.07600021362305 57.07600021362305,75 35,75 C35,75 -35,75 -35,75 C-57.07600021362305,75 -75,57.07600021362305 -75,35 C-75,35 -75,-35 -75,-35 C-75,-57.07600021362305 -57.07600021362305,-75 -35,-75 C-35,-75 35,-75 35,-75 C57.07600021362305,-75 75,-57.07600021362305 75,-35z"></path></g></g><g class="14" transform="matrix(0.35371729731559753,-0.706946849822998,0.706946849822998,0.35371729731559753,652.9258422851562,651.3738403320312)" opacity="1" style="display: none;"><g opacity="1" transform="matrix(1,0,0,1,5.0929999351501465,640.1959838867188)"><path fill="rgb(191,174,252)" fill-opacity="1" d=" M75,-35 C75,-35 75,35 75,35 C75,57.07600021362305 57.07600021362305,75 35,75 C35,75 -35,75 -35,75 C-57.07600021362305,75 -75,57.07600021362305 -75,35 C-75,35 -75,-35 -75,-35 C-75,-57.07600021362305 -57.07600021362305,-75 -35,-75 C-35,-75 35,-75 35,-75 C57.07600021362305,-75 75,-57.07600021362305 75,-35z"></path></g></g><g class="15" transform="matrix(0.6797753572463989,-0.4034788906574249,0.4034788906574249,0.6797753572463989,651.7119750976562,652.6781005859375)" opacity="1" style="display: none;"><g opacity="1" transform="matrix(1,0,0,1,5.0929999351501465,640.1959838867188)"><path fill="rgb(191,174,252)" fill-opacity="1" d=" M75,-35 C75,-35 75,35 75,35 C75,57.07600021362305 57.07600021362305,75 35,75 C35,75 -35,75 -35,75 C-57.07600021362305,75 -75,57.07600021362305 -75,35 C-75,35 -75,-35 -75,-35 C-75,-57.07600021362305 -57.07600021362305,-75 -35,-75 C-35,-75 35,-75 35,-75 C57.07600021362305,-75 75,-57.07600021362305 75,-35z"></path></g></g><g class="16" transform="matrix(0.7900007367134094,0.02808251418173313,-0.02808251418173313,0.7900007367134094,649.9857177734375,653.1190185546875)" opacity="1" style="display: none;"><g opacity="1" transform="matrix(1,0,0,1,5.0929999351501465,640.1959838867188)"><path fill="rgb(191,174,252)" fill-opacity="1" d=" M75,-35 C75,-35 75,35 75,35 C75,57.07600021362305 57.07600021362305,75 35,75 C35,75 -35,75 -35,75 C-57.07600021362305,75 -75,57.07600021362305 -75,35 C-75,35 -75,-35 -75,-35 C-75,-57.07600021362305 -57.07600021362305,-75 -35,-75 C-35,-75 35,-75 35,-75 C57.07600021362305,-75 75,-57.07600021362305 75,-35z"></path></g></g><g class="17" transform="matrix(-0.30402910709381104,0.7296959161758423,-0.7296959161758423,-0.30402910709381104,647.09619140625,648.772705078125)" opacity="1" style="display: none;"><g opacity="1" transform="matrix(1,0,0,1,5.0929999351501465,640.1959838867188)"><path fill="rgb(191,174,252)" fill-opacity="1" d=" M75,-35 C75,-35 75,35 75,35 C75,57.07600021362305 57.07600021362305,75 35,75 C35,75 -35,75 -35,75 C-57.07600021362305,75 -75,57.07600021362305 -75,35 C-75,35 -75,-35 -75,-35 C-75,-57.07600021362305 -57.07600021362305,-75 -35,-75 C-35,-75 35,-75 35,-75 C57.07600021362305,-75 75,-57.07600021362305 75,-35z"></path></g></g><g class="18" transform="matrix(-0.6502667665481567,0.44949179887771606,-0.44949179887771606,-0.6502667665481567,648.217041015625,647.3877563476562)" opacity="1" style="display: none;"><g opacity="1" transform="matrix(1,0,0,1,5.0929999351501465,640.1959838867188)"><path fill="rgb(191,174,252)" fill-opacity="1" d=" M75,-35 C75,-35 75,35 75,35 C75,57.07600021362305 57.07600021362305,75 35,75 C35,75 -35,75 -35,75 C-57.07600021362305,75 -75,57.07600021362305 -75,35 C-75,35 -75,-35 -75,-35 C-75,-57.07600021362305 -57.07600021362305,-75 -35,-75 C-35,-75 35,-75 35,-75 C57.07600021362305,-75 75,-57.07600021362305 75,-35z"></path></g></g><g class="19" transform="matrix(-0.7900531888008118,0.026565782725811005,-0.026565782725811005,-0.7900531888008118,649.9087524414062,646.82861328125)" opacity="1" style="display: none;"><g opacity="1" transform="matrix(1,0,0,1,5.0929999351501465,640.1959838867188)"><path fill="rgb(191,174,252)" fill-opacity="1" d=" M75,-35 C75,-35 75,35 75,35 C75,57.07600021362305 57.07600021362305,75 35,75 C35,75 -35,75 -35,75 C-57.07600021362305,75 -75,57.07600021362305 -75,35 C-75,35 -75,-35 -75,-35 C-75,-57.07600021362305 -57.07600021362305,-75 -35,-75 C-35,-75 35,-75 35,-75 C57.07600021362305,-75 75,-57.07600021362305 75,-35z"></path></g></g><g class="20" transform="matrix(-0.6789994835853577,-0.4047832190990448,0.4047832190990448,-0.6789994835853577,651.6341552734375,647.2728271484375)" opacity="1" style="display: none;"><g opacity="1" transform="matrix(1,0,0,1,5.0929999351501465,640.1959838867188)"><path fill="rgb(191,174,252)" fill-opacity="1" d=" M75,-35 C75,-35 75,35 75,35 C75,57.07600021362305 57.07600021362305,75 35,75 C35,75 -35,75 -35,75 C-57.07600021362305,75 -75,57.07600021362305 -75,35 C-75,35 -75,-35 -75,-35 C-75,-57.07600021362305 -57.07600021362305,-75 -35,-75 C-35,-75 35,-75 35,-75 C57.07600021362305,-75 75,-57.07600021362305 75,-35z"></path></g></g><g class="21" transform="matrix(-0.35237178206443787,-0.7076184749603271,0.7076184749603271,-0.35237178206443787,652.845458984375,648.579345703125)" opacity="1" style="display: none;"><g opacity="1" transform="matrix(1,0,0,1,5.0929999351501465,640.1959838867188)"><path fill="rgb(191,174,252)" fill-opacity="1" d=" M75,-35 C75,-35 75,35 75,35 C75,57.07600021362305 57.07600021362305,75 35,75 C35,75 -35,75 -35,75 C-57.07600021362305,75 -75,57.07600021362305 -75,35 C-75,35 -75,-35 -75,-35 C-75,-57.07600021362305 -57.07600021362305,-75 -35,-75 C-35,-75 35,-75 35,-75 C57.07600021362305,-75 75,-57.07600021362305 75,-35z"></path></g></g><g class="3" transform="matrix(0.6055581569671631,-0.5081236362457275,0.5081236362457275,0.6055581569671631,-63.12297439575195,598.6334228515625)" opacity="1" style="display: block;"><g opacity="1" transform="matrix(1,0,0,1,5.0929999351501465,640.1959838867188)"><path fill="rgb(191,174,252)" fill-opacity="1" d=" M75,-35 C75,-35 75,35 75,35 C75,57.07600021362305 57.07600021362305,75 35,75 C35,75 -35,75 -35,75 C-57.07600021362305,75 -75,57.07600021362305 -75,35 C-75,35 -75,-35 -75,-35 C-75,-57.07600021362305 -57.07600021362305,-75 -35,-75 C-35,-75 35,-75 35,-75 C57.07600021362305,-75 75,-57.07600021362305 75,-35z"></path></g></g><g transform="matrix(0.7904999852180481,0,0,0.7904999852180481,793.8709716796875,152.26406860351562)" opacity="1" style="display: block;"><g opacity="1" transform="matrix(1,0,0,1,5.0929999351501465,640.1959838867188)"><path fill="rgb(124,55,239)" fill-opacity="1" d=" M75,-35 C75,-35 75,35 75,35 C75,57.07600021362305 57.07600021362305,75 35,75 C35,75 -35,75 -35,75 C-57.07600021362305,75 -75,57.07600021362305 -75,35 C-75,35 -75,-35 -75,-35 C-75,-57.07600021362305 -57.07600021362305,-75 -35,-75 C-35,-75 35,-75 35,-75 C57.07600021362305,-75 75,-57.07600021362305 75,-35z"></path></g></g><g transform="matrix(0.7905000448226929,0,0,0.7905000448226929,1017.5126953125,144.358642578125)" opacity="1" style="display: none;"><g opacity="1" transform="matrix(1,0,0,1,5.0929999351501465,640.1959838867188)"><path fill="rgb(167,132,247)" fill-opacity="1" d=" M75,-35 C75,-35 75,35 75,35 C75,57.07600021362305 57.07600021362305,75 35,75 C35,75 -35,75 -35,75 C-57.07600021362305,75 -75,57.07600021362305 -75,35 C-75,35 -75,-35 -75,-35 C-75,-57.07600021362305 -57.07600021362305,-75 -35,-75 C-35,-75 35,-75 35,-75 C57.07600021362305,-75 75,-57.07600021362305 75,-35z"></path></g></g><g class="22" transform="matrix(0.7905000448226929,0,0,0.7905000448226929,361.1346435546875,152.2643280029297)" opacity="1" style="display: none;"><g opacity="1" transform="matrix(1,0,0,1,5.0929999351501465,640.1959838867188)"><path fill="rgb(147,96,243)" fill-opacity="1" d=" M75,-35 C75,-35 75,35 75,35 C75,57.07600021362305 57.07600021362305,75 35,75 C35,75 -35,75 -35,75 C-57.07600021362305,75 -75,57.07600021362305 -75,35 C-75,35 -75,-35 -75,-35 C-75,-57.07600021362305 -57.07600021362305,-75 -35,-75 C-35,-75 35,-75 35,-75 C57.07600021362305,-75 75,-57.07600021362305 75,-35z"></path></g></g><g transform="matrix(0.7905000448226929,0,0,0.7905000448226929,682.03466796875,152.2643280029297)" opacity="1" style="display: none;"><g opacity="1" transform="matrix(1,0,0,1,5.0929999351501465,640.1959838867188)"><path fill="rgb(124,55,239)" fill-opacity="1" d=" M75,-35 C75,-35 75,35 75,35 C75,57.07600021362305 57.07600021362305,75 35,75 C35,75 -35,75 -35,75 C-57.07600021362305,75 -75,57.07600021362305 -75,35 C-75,35 -75,-35 -75,-35 C-75,-57.07600021362305 -57.07600021362305,-75 -35,-75 C-35,-75 35,-75 35,-75 C57.07600021362305,-75 75,-57.07600021362305 75,-35z"></path></g></g></g></svg>