<svg xmlns="http://www.w3.org/2000/svg" viewBox="0 0 1300 1300" width="1300" height="1300" preserveAspectRatio="xMidYMid meet" style="width: 100%; height: 100%; transform: translate3d(0px, 0px, 0px); content-visibility: visible;"><defs><clipPath id="__lottie_element_2602"><rect width="1300" height="1300" x="0" y="0"></rect></clipPath></defs><g clip-path="url(#__lottie_element_2602)"><g class="1" transform="matrix(-0.7904699444770813,-0.006898326799273491,0.006898326799273491,-0.7904699444770813,650.027587890625,646.838134765625)" opacity="1" style="display: block;"><g opacity="1" transform="matrix(0.9998109936714172,0.019441742449998856,-0.019441742449998856,0.9998109936714172,5.0929999351501465,640.1959838867188)"><path fill="rgb(154,224,149)" fill-opacity="1" d=" M75,-35 C75,-35 75,35 75,35 C75,57.07600021362305 57.07600021362305,75 35,75 C35,75 -35,75 -35,75 C-57.07600021362305,75 -75,57.07600021362305 -75,35 C-75,35 -75,-35 -75,-35 C-75,-57.07600021362305 -57.07600021362305,-75 -35,-75 C-35,-75 35,-75 35,-75 C57.07600021362305,-75 75,-57.07600021362305 75,-35z"></path></g></g><g class="2" transform="matrix(-0.668717086315155,0.42155390977859497,-0.42155390977859497,-0.668717086315155,648.3137817382812,647.3251342773438)" opacity="1" style="display: block;"><g opacity="1" transform="matrix(1,0,0,1,5.0929999351501465,640.1959838867188)"><path fill="rgb(154,224,149)" fill-opacity="1" d=" M75,-35 C75,-35 75,35 75,35 C75,57.07600021362305 57.07600021362305,75 35,75 C35,75 -35,75 -35,75 C-57.07600021362305,75 -75,57.07600021362305 -75,35 C-75,35 -75,-35 -75,-35 C-75,-57.07600021362305 -57.07600021362305,-75 -35,-75 C-35,-75 35,-75 35,-75 C57.07600021362305,-75 75,-57.07600021362305 75,-35z"></path></g></g><g class="3" transform="matrix(-0.33464235067367554,0.7161737084388733,-0.7161737084388733,-0.33464235067367554,647.1353149414062,648.6614379882812)" opacity="1" style="display: block;"><g opacity="1" transform="matrix(1,0,0,1,5.0929999351501465,640.1959838867188)"><path fill="rgb(154,224,149)" fill-opacity="1" d=" M75,-35 C75,-35 75,35 75,35 C75,57.07600021362305 57.07600021362305,75 35,75 C35,75 -35,75 -35,75 C-57.07600021362305,75 -75,57.07600021362305 -75,35 C-75,35 -75,-35 -75,-35 C-75,-57.07600021362305 -57.07600021362305,-75 -35,-75 C-35,-75 35,-75 35,-75 C57.07600021362305,-75 75,-57.07600021362305 75,-35z"></path></g></g><g class="4" transform="matrix(0.10566997528076172,0.7834055423736572,-0.7834055423736572,0.10566997528076172,646.8663940429688,650.4226684570312)" opacity="1" style="display: block;"><g opacity="1" transform="matrix(1,0,0,1,5.0929999351501465,640.1959838867188)"><path fill="rgb(154,224,149)" fill-opacity="1" d=" M75,-35 C75,-35 75,35 75,35 C75,57.07600021362305 57.07600021362305,75 35,75 C35,75 -35,75 -35,75 C-57.07600021362305,75 -75,57.07600021362305 -75,35 C-75,35 -75,-35 -75,-35 C-75,-57.07600021362305 -57.07600021362305,-75 -35,-75 C-35,-75 35,-75 35,-75 C57.07600021362305,-75 75,-57.07600021362305 75,-35z"></path></g></g><g class="5" transform="matrix(0.5124334096908569,0.6019155383110046,-0.6019155383110046,0.5124334096908569,647.5923461914062,652.0497436523438)" opacity="1" style="display: block;"><g opacity="1" transform="matrix(1,0,0,1,5.0929999351501465,640.1959838867188)"><path fill="rgb(154,224,149)" fill-opacity="1" d=" M75,-35 C75,-35 75,35 75,35 C75,57.07600021362305 57.07600021362305,75 35,75 C35,75 -35,75 -35,75 C-57.07600021362305,75 -75,57.07600021362305 -75,35 C-75,35 -75,-35 -75,-35 C-75,-57.07600021362305 -57.07600021362305,-75 -35,-75 C-35,-75 35,-75 35,-75 C57.07600021362305,-75 75,-57.07600021362305 75,-35z"></path></g></g><g class="6" transform="matrix(0.7565093636512756,0.22931160032749176,-0.22931160032749176,0.7565093636512756,649.082763671875,653.0260620117188)" opacity="1" style="display: block;"><g opacity="1" transform="matrix(1,0,0,1,5.0929999351501465,640.1959838867188)"><path fill="rgb(154,224,149)" fill-opacity="1" d=" M75,-35 C75,-35 75,35 75,35 C75,57.07600021362305 57.07600021362305,75 35,75 C35,75 -35,75 -35,75 C-57.07600021362305,75 -75,57.07600021362305 -75,35 C-75,35 -75,-35 -75,-35 C-75,-57.07600021362305 -57.07600021362305,-75 -35,-75 C-35,-75 35,-75 35,-75 C57.07600021362305,-75 75,-57.07600021362305 75,-35z"></path></g></g><g class="7" transform="matrix(0.7603924870491028,-0.21608702838420868,0.21608702838420868,0.7603924870491028,650.8643188476562,653.0415649414062)" opacity="1" style="display: block;"><g opacity="1" transform="matrix(1,0,0,1,5.0929999351501465,640.1959838867188)"><path fill="rgb(154,224,149)" fill-opacity="1" d=" M75,-35 C75,-35 75,35 75,35 C75,57.07600021362305 57.07600021362305,75 35,75 C35,75 -35,75 -35,75 C-57.07600021362305,75 -75,57.07600021362305 -75,35 C-75,35 -75,-35 -75,-35 C-75,-57.07600021362305 -57.07600021362305,-75 -35,-75 C-35,-75 35,-75 35,-75 C57.07600021362305,-75 75,-57.07600021362305 75,-35z"></path></g></g><g class="8" transform="matrix(0.5228602290153503,-0.5928807258605957,0.5928807258605957,0.5228602290153503,652.3715209960938,652.0914306640625)" opacity="1" style="display: block;"><g opacity="1" transform="matrix(1,0,0,1,5.0929999351501465,640.1959838867188)"><path fill="rgb(154,224,149)" fill-opacity="1" d=" M75,-35 C75,-35 75,35 75,35 C75,57.07600021362305 57.07600021362305,75 35,75 C35,75 -35,75 -35,75 C-57.07600021362305,75 -75,57.07600021362305 -75,35 C-75,35 -75,-35 -75,-35 C-75,-57.07600021362305 -57.07600021362305,-75 -35,-75 C-35,-75 35,-75 35,-75 C57.07600021362305,-75 75,-57.07600021362305 75,-35z"></path></g></g><g class="9" transform="matrix(0.11932618916034698,-0.7814419865608215,0.7814419865608215,0.11932618916034698,653.1257934570312,650.477294921875)" opacity="1" style="display: block;"><g opacity="1" transform="matrix(1,0,0,1,5.0929999351501465,640.1959838867188)"><path fill="rgb(154,224,149)" fill-opacity="1" d=" M75,-35 C75,-35 75,35 75,35 C75,57.07600021362305 57.07600021362305,75 35,75 C35,75 -35,75 -35,75 C-57.07600021362305,75 -75,57.07600021362305 -75,35 C-75,35 -75,-35 -75,-35 C-75,-57.07600021362305 -57.07600021362305,-75 -35,-75 C-35,-75 35,-75 35,-75 C57.07600021362305,-75 75,-57.07600021362305 75,-35z"></path></g></g><g class="10" transform="matrix(-0.3221049904823303,-0.7218993306159973,0.7218993306159973,-0.3221049904823303,652.8875732421875,648.7116088867188)" opacity="1" style="display: block;"><g opacity="1" transform="matrix(1,0,0,1,5.0929999351501465,640.1959838867188)"><path fill="rgb(154,224,149)" fill-opacity="1" d=" M75,-35 C75,-35 75,35 75,35 C75,57.07600021362305 57.07600021362305,75 35,75 C35,75 -35,75 -35,75 C-57.07600021362305,75 -75,57.07600021362305 -75,35 C-75,35 -75,-35 -75,-35 C-75,-57.07600021362305 -57.07600021362305,-75 -35,-75 C-35,-75 35,-75 35,-75 C57.07600021362305,-75 75,-57.07600021362305 75,-35z"></path></g></g><g class="11" transform="matrix(-0.6612581610679626,-0.4331604242324829,0.4331604242324829,-0.6612581610679626,651.732666015625,647.35498046875)" opacity="1" style="display: block;"><g opacity="1" transform="matrix(1,0,0,1,5.0929999351501465,640.1959838867188)"><path fill="rgb(154,224,149)" fill-opacity="1" d=" M75,-35 C75,-35 75,35 75,35 C75,57.07600021362305 57.07600021362305,75 35,75 C35,75 -35,75 -35,75 C-57.07600021362305,75 -75,57.07600021362305 -75,35 C-75,35 -75,-35 -75,-35 C-75,-57.07600021362305 -57.07600021362305,-75 -35,-75 C-35,-75 35,-75 35,-75 C57.07600021362305,-75 75,-57.07600021362305 75,-35z"></path></g></g><g transform="matrix(0.7905000448226929,0,0,0.7905000448226929,497.5552673339844,152.10159301757812)" opacity="1" style="display: block;"><g opacity="1" transform="matrix(1,0,0,1,5.0929999351501465,640.1959838867188)"><path fill="rgb(4,138,14)" fill-opacity="1" d=" M75,-35 C75,-35 75,35 75,35 C75,57.07600021362305 57.07600021362305,75 35,75 C35,75 -35,75 -35,75 C-57.07600021362305,75 -75,57.07600021362305 -75,35 C-75,35 -75,-35 -75,-35 C-75,-57.07600021362305 -57.07600021362305,-75 -35,-75 C-35,-75 35,-75 35,-75 C57.07600021362305,-75 75,-57.07600021362305 75,-35z"></path></g></g><g transform="matrix(0.7905000448226929,0,0,0.7905000448226929,793.8709716796875,152.2643280029297)" opacity="1" style="display: block;"><g opacity="1" transform="matrix(1,0,0,1,0.7919999957084656,640.1959838867188)"><path fill="rgb(4,138,14)" fill-opacity="1" d=" M75,-35 C75,-35 75,35 75,35 C75,57.07600021362305 57.07600021362305,75 35,75 C35,75 -35,75 -35,75 C-57.07600021362305,75 -75,57.07600021362305 -75,35 C-75,35 -75,-35 -75,-35 C-75,-57.07600021362305 -57.07600021362305,-75 -35,-75 C-35,-75 35,-75 35,-75 C57.07600021362305,-75 75,-57.07600021362305 75,-35z"></path></g></g></g></svg>