<svg xmlns="http://www.w3.org/2000/svg" viewBox="0 0 1300 1300" width="1300" height="1300" preserveAspectRatio="xMidYMid meet" style="width: 100%; height: 100%; transform: translate3d(0px, 0px, 0px); content-visibility: visible;"><defs><clipPath id="__lottie_element_364"><rect width="1300" height="1300" x="0" y="0"></rect></clipPath><clipPath id="__lottie_element_366"><path d="M0,0 L1600,0 L1600,1600 L0,1600z"></path></clipPath></defs><g clip-path="url(#__lottie_element_364)"><g clip-path="url(#__lottie_element_366)" transform="matrix(1,0,0,1,-150,-150)" opacity="1" style="display: block;"><g transform="matrix(3.848609447479248,1.1027257442474365,-1.1027257442474365,3.848609447479248,641.6860961914062,277.8076171875)" opacity="1" style="display: block;"><g opacity="1" transform="matrix(1,0,0,1,0,0)"><path fill="rgb(224,218,253)" fill-opacity="1" d=" M-8.119000434875488,-0.23600000143051147 C-8.119000434875488,-0.23600000143051147 -5.369999885559082,-5.63100004196167 -5.369999885559082,-5.63100004196167 C-4.113999843597412,-8.095000267028809 -1.0980000495910645,-9.076000213623047 1.3660000562667847,-7.820000171661377 C1.3660000562667847,-7.820000171661377 5.814000129699707,-5.552999973297119 5.814000129699707,-5.552999973297119 C8.277999877929688,-4.296999931335449 9.258999824523926,-1.281000018119812 8.003000259399414,1.1829999685287476 C8.003000259399414,1.1829999685287476 5.736999988555908,5.63100004196167 5.736999988555908,5.63100004196167 C4.480999946594238,8.095000267028809 1.4639999866485596,9.076000213623047 -1,7.820000171661377 C-1,7.820000171661377 -6.394999980926514,5.071000099182129 -6.394999980926514,5.071000099182129 C-8.336000442504883,4.081999778747559 -9.107999801635742,1.7050000429153442 -8.119000434875488,-0.23600000143051147z"></path></g></g><g transform="matrix(3.848609447479248,1.1027257442474365,-1.1027257442474365,3.848609447479248,385.7846374511719,445.8201904296875)" opacity="1" style="display: block;"><g opacity="1" transform="matrix(1,0,0,1,0,0)"><path fill="rgb(224,218,253)" fill-opacity="1" d=" M-7.269999980926514,3.2290000915527344 C-7.269999980926514,3.2290000915527344 -7.764999866485596,-1.7389999628067017 -7.764999866485596,-1.7389999628067017 C-8.039999961853027,-4.491000175476074 -6.031000137329102,-6.943999767303467 -3.2790000438690186,-7.218999862670898 C-3.2790000438690186,-7.218999862670898 1.687999963760376,-7.715000152587891 1.687999963760376,-7.715000152587891 C4.440000057220459,-7.989999771118164 6.894000053405762,-5.980999946594238 7.169000148773193,-3.2290000915527344 C7.169000148773193,-3.2290000915527344 7.770999908447266,2.7960000038146973 7.770999908447266,2.7960000038146973 C7.986999988555908,4.964000225067139 6.40500020980835,6.8979997634887695 4.236999988555908,7.113999843597412 C4.236999988555908,7.113999843597412 -1.7890000343322754,7.715000152587891 -1.7890000343322754,7.715000152587891 C-4.540999889373779,7.989999771118164 -6.994999885559082,5.980999946594238 -7.269999980926514,3.2290000915527344z"></path></g></g><g transform="matrix(3.848609447479248,1.1027257442474365,-1.1027257442474365,3.848609447479248,259.843994140625,726.5245361328125)" opacity="1.0070100979523002" style="display: block;"><g opacity="1" transform="matrix(1,0,0,1,0,0)"><path fill="rgb(224,218,253)" fill-opacity="1" d=" M-3.6700000762939453,7.236000061035156 C-3.6700000762939453,7.236000061035156 -7.432000160217285,2.490000009536743 -7.432000160217285,2.490000009536743 C-9.149999618530273,0.32199999690055847 -8.78600025177002,-2.828000068664551 -6.618000030517578,-4.546000003814697 C-6.618000030517578,-4.546000003814697 -2.7049999237060547,-7.646999835968018 -2.7049999237060547,-7.646999835968018 C-0.5370000004768372,-9.364999771118164 2.61299991607666,-9.00100040435791 4.330999851226807,-6.833000183105469 C4.330999851226807,-6.833000183105469 7.432000160217285,-2.9200000762939453 7.432000160217285,-2.9200000762939453 C9.149999618530273,-0.7519999742507935 8.78600025177002,2.3980000019073486 6.618000030517578,4.116000175476074 C6.618000030517578,4.116000175476074 1.871999979019165,7.876999855041504 1.871999979019165,7.876999855041504 C0.164000004529953,9.229999542236328 -2.316999912261963,8.944000244140625 -3.6700000762939453,7.236000061035156z"></path></g></g><g transform="matrix(3.848609447479248,1.1027257442474365,-1.1027257442474365,3.848609447479248,305.5366516113281,1029.5858154296875)" opacity="1.0070100979523002" style="display: block;"><g opacity="1" transform="matrix(1,0,0,1,0,0)"><path fill="rgb(224,218,253)" fill-opacity="1" d=" M0.9369999766349792,8.109000205993652 C0.9369999766349792,8.109000205993652 -4.793000221252441,6.1479997634887695 -4.793000221252441,6.1479997634887695 C-7.409999847412109,5.251999855041504 -8.805000305175781,2.4040000438690186 -7.908999919891357,-0.21299999952316284 C-7.908999919891357,-0.21299999952316284 -6.290999889373779,-4.935999870300293 -6.290999889373779,-4.935999870300293 C-5.394999980926514,-7.552999973297119 -2.5480000972747803,-8.947999954223633 0.0689999982714653,-8.052000045776367 C0.0689999982714653,-8.052000045776367 4.793000221252441,-6.434999942779541 4.793000221252441,-6.434999942779541 C7.409999847412109,-5.539000034332275 8.805000305175781,-2.690999984741211 7.908999919891357,-0.07400000095367432 C7.908999919891357,-0.07400000095367432 5.947000026702881,5.65500020980835 5.947000026702881,5.65500020980835 C5.241000175476074,7.716000080108643 2.997999906539917,8.8149995803833 0.9369999766349792,8.109000205993652z"></path></g></g><g transform="matrix(3.848609447479248,1.1027257442474365,-1.1027257442474365,3.848609447479248,508.4012451171875,1259.773193359375)" opacity="1.0070100979523002" style="display: block;"><g opacity="1" transform="matrix(1,0,0,1,0,0)"><path fill="rgb(224,218,253)" fill-opacity="1" d=" M5.135000228881836,6.439000129699707 C5.135000228881836,6.439000129699707 -0.7450000047683716,7.882999897003174 -0.7450000047683716,7.882999897003174 C-3.430999994277954,8.543000221252441 -6.144000053405762,6.900000095367432 -6.803999900817871,4.214000225067139 C-6.803999900817871,4.214000225067139 -7.994999885559082,-0.6340000033378601 -7.994999885559082,-0.6340000033378601 C-8.654999732971191,-3.319999933242798 -7.01200008392334,-6.0320000648498535 -4.326000213623047,-6.691999912261963 C-4.326000213623047,-6.691999912261963 0.5230000019073486,-7.882999897003174 0.5230000019073486,-7.882999897003174 C3.2090001106262207,-8.543000221252441 5.921000003814697,-6.900000095367432 6.580999851226807,-4.214000225067139 C6.580999851226807,-4.214000225067139 8.026000022888184,1.6670000553131104 8.026000022888184,1.6670000553131104 C8.545999526977539,3.7829999923706055 7.250999927520752,5.919000148773193 5.135000228881836,6.439000129699707z"></path></g></g><g transform="matrix(3.848609447479248,1.1027257442474365,-1.1027257442474365,3.848609447479248,803.6312866210938,1344.7015380859375)" opacity="1.0070100979523002" style="display: block;"><g opacity="1" transform="matrix(1,0,0,1,0,0)"><path fill="rgb(224,218,253)" fill-opacity="1" d=" M7.673999786376953,2.5840001106262207 C7.673999786376953,2.5840001106262207 3.505000114440918,6.9770002365112305 3.505000114440918,6.9770002365112305 C1.6009999513626099,8.982999801635742 -1.569000005722046,9.065999984741211 -3.575000047683716,7.1620001792907715 C-3.575000047683716,7.1620001792907715 -7.196000099182129,3.7249999046325684 -7.196000099182129,3.7249999046325684 C-9.20199966430664,1.8209999799728394 -9.28600025177002,-1.3489999771118164 -7.381999969482422,-3.3550000190734863 C-7.381999969482422,-3.3550000190734863 -3.944999933242798,-6.9770002365112305 -3.944999933242798,-6.9770002365112305 C-2.0409998893737793,-8.982999801635742 1.128999948501587,-9.065999984741211 3.134999990463257,-7.1620001792907715 C3.134999990463257,-7.1620001792907715 7.5279998779296875,-2.99399995803833 7.5279998779296875,-2.99399995803833 C9.109000205993652,-1.49399995803833 9.173999786376953,1.003000020980835 7.673999786376953,2.5840001106262207z"></path></g></g><g transform="matrix(3.848609447479248,1.1027257442474365,-1.1027257442474365,3.848609447479248,1097.0103759765625,1256.6568603515625)" opacity="1.0070100979523002" style="display: block;"><g opacity="1" transform="matrix(1,0,0,1,0,0)"><path fill="rgb(224,218,253)" fill-opacity="1" d=" M7.947999954223633,-2.0899999141693115 C7.947999954223633,-2.0899999141693115 6.814000129699707,3.8580000400543213 6.814000129699707,3.8580000400543213 C6.296000003814697,6.574999809265137 3.6730000972747803,8.357000350952148 0.9559999704360962,7.839000225067139 C0.9559999704360962,7.839000225067139 -3.947999954223633,6.9039998054504395 -3.947999954223633,6.9039998054504395 C-6.664999961853027,6.386000156402588 -8.446999549865723,3.763000011444092 -7.928999900817871,1.0460000038146973 C-7.928999900817871,1.0460000038146973 -6.99399995803833,-3.8580000400543213 -6.99399995803833,-3.8580000400543213 C-6.47599983215332,-6.574999809265137 -3.8529999256134033,-8.357000350952148 -1.1360000371932983,-7.839000225067139 C-1.1360000371932983,-7.839000225067139 4.811999797821045,-6.704999923706055 4.811999797821045,-6.704999923706055 C6.952000141143799,-6.296999931335449 8.355999946594238,-4.230000019073486 7.947999954223633,-2.0899999141693115z"></path></g></g><g transform="matrix(3.848609447479248,1.1027257442474365,-1.1027257442474365,3.848609447479248,1339.5184326171875,721.8245239257812)" opacity="1.0070100979523002" style="display: block;"><g opacity="1" transform="matrix(1,0,0,1,0,0)"><path fill="rgb(224,218,253)" fill-opacity="1" d=" M2.197000026702881,-7.5329999923706055 C2.197000026702881,-7.5329999923706055 7.0879998207092285,-3.9630000591278076 7.0879998207092285,-3.9630000591278076 C8.847999572753906,-2.677999973297119 9.234000205993652,-0.20999999344348907 7.948999881744385,1.5499999523162842 C7.948999881744385,1.5499999523162842 4.379000186920166,6.440999984741211 4.379000186920166,6.440999984741211 C2.747999906539917,8.675000190734863 -0.38499999046325684,9.163999557495117 -2.61899995803833,7.5329999923706055 C-2.61899995803833,7.5329999923706055 -6.6519999504089355,4.590000152587891 -6.6519999504089355,4.590000152587891 C-8.88599967956543,2.9590001106262207 -9.375,-0.17399999499320984 -7.74399995803833,-2.4079999923706055 C-7.74399995803833,-2.4079999923706055 -4.801000118255615,-6.440999984741211 -4.801000118255615,-6.440999984741211 C-3.1700000762939453,-8.675000190734863 -0.03700000047683716,-9.163999557495117 2.197000026702881,-7.5329999923706055z"></path></g></g><g transform="matrix(3.848609447479248,1.1027257442474365,-1.1027257442474365,3.848609447479248,1210.445556640625,441.5279235839844)" opacity="1.0070100979523002" style="display: block;"><g opacity="1" transform="matrix(1,0,0,1,0,0)"><path fill="rgb(224,218,253)" fill-opacity="1" d=" M-2.140000104904175,-7.638000011444092 C-2.140000104904175,-7.638000011444092 2.8469998836517334,-7.4029998779296875 2.8469998836517334,-7.4029998779296875 C5.610000133514404,-7.2729997634887695 7.74399995803833,-4.927000045776367 7.613999843597412,-2.1640000343322754 C7.613999843597412,-2.1640000343322754 7.328999996185303,3.884000062942505 7.328999996185303,3.884000062942505 C7.22599983215332,6.059999942779541 5.377999782562256,7.742000102996826 3.2019999027252197,7.638999938964844 C3.2019999027252197,7.638999938964844 -2.8469998836517334,7.354000091552734 -2.8469998836517334,7.354000091552734 C-5.610000133514404,7.223999977111816 -7.74399995803833,4.879000186920166 -7.613999843597412,2.115999937057495 C-7.613999843597412,2.115999937057495 -7.379000186920166,-2.871000051498413 -7.379000186920166,-2.871000051498413 C-7.249000072479248,-5.633999824523926 -4.9029998779296875,-7.76800012588501 -2.140000104904175,-7.638000011444092z"></path></g></g><g transform="matrix(3.848609447479248,1.1027257442474365,-1.1027257442474365,3.848609447479248,951.1298828125,276.16876220703125)" opacity="1.0070100979523002" style="display: block;"><g opacity="1" transform="matrix(1,0,0,1,0,0)"><path fill="rgb(224,218,253)" fill-opacity="1" d=" M-6.639999866485596,-4.718999862670898 C-6.639999866485596,-4.718999862670898 -1.3960000276565552,-7.747000217437744 -1.3960000276565552,-7.747000217437744 C0.9990000128746033,-9.130000114440918 4.061999797821045,-8.309000015258789 5.445000171661377,-5.914000034332275 C5.445000171661377,-5.914000034332275 7.941999912261963,-1.590000033378601 7.941999912261963,-1.590000033378601 C9.324999809265137,0.8050000071525574 8.503999710083008,3.868000030517578 6.109000205993652,5.250999927520752 C6.109000205993652,5.250999927520752 1.784999966621399,7.747000217437744 1.784999966621399,7.747000217437744 C-0.6100000143051147,9.130000114440918 -3.6740000247955322,8.309000015258789 -5.057000160217285,5.914000034332275 C-5.057000160217285,5.914000034332275 -8.083999633789062,0.6700000166893005 -8.083999633789062,0.6700000166893005 C-9.17300033569336,-1.2170000076293945 -8.527000427246094,-3.630000114440918 -6.639999866485596,-4.718999862670898z"></path></g></g><g transform="matrix(3.848609447479248,1.1027257442474365,-1.1027257442474365,3.848609447479248,1297.114501953125,1023.9969482421875)" opacity="1" style="display: block;"><g opacity="1" transform="matrix(1,0,0,1,0,0)"><path fill="rgb(224,218,253)" fill-opacity="1" d=" M5.872000217437744,-5.114999771118164 C5.872000217437744,-5.114999771118164 8.130999565124512,0.503000020980835 8.130999565124512,0.503000020980835 C8.944000244140625,2.5250000953674316 7.964000225067139,4.822000026702881 5.941999912261963,5.635000228881836 C5.941999912261963,5.635000228881836 0.3230000138282776,7.894000053405762 0.3230000138282776,7.894000053405762 C-2.243000030517578,8.925999641418457 -5.159999847412109,7.681000232696533 -6.191999912261963,5.114999771118164 C-6.191999912261963,5.114999771118164 -8.053999900817871,0.4830000102519989 -8.053999900817871,0.4830000102519989 C-9.086000442504883,-2.0829999446868896 -7.841000080108643,-5 -5.275000095367432,-6.0320000648498535 C-5.275000095367432,-6.0320000648498535 -0.6430000066757202,-7.894000053405762 -0.6430000066757202,-7.894000053405762 C1.9229999780654907,-8.925999641418457 4.840000152587891,-7.681000232696533 5.872000217437744,-5.114999771118164z"></path></g></g><g transform="matrix(3.7904956340789795,1.1597119569778442,-1.1597119569778442,3.7904956340789795,395.96612548828125,609.7315673828125)" opacity="1.0115309020163958" style="display: block;"><g opacity="1" transform="matrix(1,0,0,1,0,0)"><path fill="rgb(191,174,252)" fill-opacity="1" d=" M-11.390000343322754,6.730999946594238 C-11.390000343322754,6.730999946594238 -12.505999565124512,-4.451000213623047 -12.505999565124512,-4.451000213623047 C-12.855999946594238,-7.961999893188477 -10.295000076293945,-11.092000007629395 -6.783999919891357,-11.442000389099121 C-6.783999919891357,-11.442000389099121 3.2920000553131104,-12.447999954223633 3.2920000553131104,-12.447999954223633 C7.414000034332275,-12.859000205993652 11.08899974822998,-9.85099983215332 11.5,-5.729000091552734 C11.5,-5.729000091552734 12.505999565124512,4.3460001945495605 12.505999565124512,4.3460001945495605 C12.855999946594238,7.85699987411499 10.295000076293945,10.987000465393066 6.783999919891357,11.336999893188477 C6.783999919891357,11.336999893188477 -4.39900016784668,12.454000473022461 -4.39900016784668,12.454000473022461 C-7.909999847412109,12.803999900817871 -11.039999961853027,10.241999626159668 -11.390000343322754,6.730999946594238z"></path></g></g><g transform="matrix(3.7904956340789795,1.1597119569778442,-1.1597119569778442,3.7904956340789795,357.3470153808594,857.8466186523438)" opacity="1.0115309020163958" style="display: block;"><g opacity="1" transform="matrix(1,0,0,1,0,0)"><path fill="rgb(191,174,252)" fill-opacity="1" d=" M-6.611000061035156,10.989999771118164 C-6.611000061035156,10.989999771118164 -12.208999633789062,3.9260001182556152 -12.208999633789062,3.9260001182556152 C-14.781999588012695,0.6800000071525574 -14.236000061035156,-4.038000106811523 -10.989999771118164,-6.611000061035156 C-10.989999771118164,-6.611000061035156 -3.9260001182556152,-12.208999633789062 -3.9260001182556152,-12.208999633789062 C-0.6800000071525574,-14.781999588012695 4.038000106811523,-14.236000061035156 6.611000061035156,-10.989999771118164 C6.611000061035156,-10.989999771118164 12.208999633789062,-3.9260001182556152 12.208999633789062,-3.9260001182556152 C14.781999588012695,-0.6800000071525574 14.236000061035156,4.038000106811523 10.989999771118164,6.611000061035156 C10.989999771118164,6.611000061035156 3.9260001182556152,12.208999633789062 3.9260001182556152,12.208999633789062 C0.6800000071525574,14.781999588012695 -4.038000106811523,14.236000061035156 -6.611000061035156,10.989999771118164z"></path></g></g><g transform="matrix(3.7904956340789795,1.1597119569778442,-1.1597119569778442,3.7904956340789795,458.94830322265625,1087.706787109375)" opacity="1.0115309020163958" style="display: block;"><g opacity="1" transform="matrix(1,0,0,1,0,0)"><path fill="rgb(191,174,252)" fill-opacity="1" d=" M0.37400001287460327,12.819999694824219 C0.37400001287460327,12.819999694824219 -8.152999877929688,9.899999618530273 -8.152999877929688,9.899999618530273 C-12.071999549865723,8.557999610900879 -14.161999702453613,4.293000221252441 -12.819999694824219,0.37400001287460327 C-12.819999694824219,0.37400001287460327 -9.899999618530273,-8.152999877929688 -9.899999618530273,-8.152999877929688 C-8.557999610900879,-12.071999549865723 -4.293000221252441,-14.161999702453613 -0.37400001287460327,-12.819999694824219 C-0.37400001287460327,-12.819999694824219 8.152999877929688,-9.899999618530273 8.152999877929688,-9.899999618530273 C12.071999549865723,-8.557999610900879 14.161999702453613,-4.293000221252441 12.819999694824219,-0.37400001287460327 C12.819999694824219,-0.37400001287460327 9.899999618530273,8.152999877929688 9.899999618530273,8.152999877929688 C8.557999610900879,12.071999549865723 4.293000221252441,14.161999702453613 0.37400001287460327,12.819999694824219z"></path></g></g><g transform="matrix(3.7904956340789795,1.1597119569778442,-1.1597119569778442,3.7904956340789795,562.729736328125,421.4625549316406)" opacity="1.0115309020163958" style="display: block;"><g opacity="1" transform="matrix(1,0,0,1,0,0)"><path fill="rgb(191,174,252)" fill-opacity="1" d=" M-12.744999885559082,-1.4359999895095825 C-12.744999885559082,-1.4359999895095825 -8.652999877929688,-9.467000007629395 -8.652999877929688,-9.467000007629395 C-6.771999835968018,-13.157999992370605 -2.255000114440918,-14.62600040435791 1.4359999895095825,-12.744999885559082 C1.4359999895095825,-12.744999885559082 9.467000007629395,-8.652999877929688 9.467000007629395,-8.652999877929688 C13.157999992370605,-6.771999835968018 14.62600040435791,-2.255000114440918 12.744999885559082,1.4359999895095825 C12.744999885559082,1.4359999895095825 8.652999877929688,9.467000007629395 8.652999877929688,9.467000007629395 C6.771999835968018,13.157999992370605 2.255000114440918,14.62600040435791 -1.4359999895095825,12.744999885559082 C-1.4359999895095825,12.744999885559082 -9.467000007629395,8.652999877929688 -9.467000007629395,8.652999877929688 C-13.157999992370605,6.771999835968018 -14.62600040435791,2.255000114440918 -12.744999885559082,-1.4359999895095825z"></path></g></g><g transform="matrix(3.7904956340789795,1.1597119569778442,-1.1597119569778442,3.7904956340789795,668.62646484375,1226.2470703125)" opacity="1.0115309020163958" style="display: block;"><g opacity="1" transform="matrix(1,0,0,1,0,0)"><path fill="rgb(191,174,252)" fill-opacity="1" d=" M7.241000175476074,10.586000442504883 C7.241000175476074,10.586000442504883 -1.5130000114440918,12.736000061035156 -1.5130000114440918,12.736000061035156 C-5.535999774932861,13.723999977111816 -9.597999572753906,11.263999938964844 -10.586000442504883,7.241000175476074 C-10.586000442504883,7.241000175476074 -12.736000061035156,-1.5130000114440918 -12.736000061035156,-1.5130000114440918 C-13.723999977111816,-5.535999774932861 -11.263999938964844,-9.597999572753906 -7.241000175476074,-10.586000442504883 C-7.241000175476074,-10.586000442504883 1.5130000114440918,-12.736000061035156 1.5130000114440918,-12.736000061035156 C5.535999774932861,-13.723999977111816 9.597999572753906,-11.263999938964844 10.586000442504883,-7.241000175476074 C10.586000442504883,-7.241000175476074 12.736000061035156,1.5130000114440918 12.736000061035156,1.5130000114440918 C13.723999977111816,5.535999774932861 11.263999938964844,9.597999572753906 7.241000175476074,10.586000442504883z"></path></g></g><g transform="matrix(3.7904956340789795,1.1597119569778442,-1.1597119569778442,3.7904956340789795,919.9178466796875,1229.5543212890625)" opacity="1.0115309020163958" style="display: block;"><g opacity="1" transform="matrix(1,0,0,1,0,0)"><path fill="rgb(191,174,252)" fill-opacity="1" d=" M11.812000274658203,4.995999813079834 C11.812000274658203,4.995999813079834 5.607999801635742,11.534000396728516 5.607999801635742,11.534000396728516 C2.756999969482422,14.538999557495117 -1.9910000562667847,14.663000106811523 -4.995999813079834,11.812000274658203 C-4.995999813079834,11.812000274658203 -11.534000396728516,5.607999801635742 -11.534000396728516,5.607999801635742 C-14.538999557495117,2.756999969482422 -14.663000106811523,-1.9910000562667847 -11.812000274658203,-4.995999813079834 C-11.812000274658203,-4.995999813079834 -5.607999801635742,-11.534000396728516 -5.607999801635742,-11.534000396728516 C-2.756999969482422,-14.538999557495117 1.9910000562667847,-14.663000106811523 4.995999813079834,-11.812000274658203 C4.995999813079834,-11.812000274658203 11.534000396728516,-5.607999801635742 11.534000396728516,-5.607999801635742 C14.538999557495117,-2.756999969482422 14.663000106811523,1.9910000562667847 11.812000274658203,4.995999813079834z"></path></g></g><g transform="matrix(3.7904956340789795,1.1597119569778442,-1.1597119569778442,3.7904956340789795,1133.16845703125,1096.5792236328125)" opacity="1.0115309020163958" style="display: block;"><g opacity="1" transform="matrix(1,0,0,1,0,0)"><path fill="rgb(191,174,252)" fill-opacity="1" d=" M12.638999938964844,-2.177000045776367 C12.638999938964844,-2.177000045776367 10.949999809265137,6.677000045776367 10.949999809265137,6.677000045776367 C10.173999786376953,10.746000289916992 6.245999813079834,13.414999961853027 2.177000045776367,12.638999938964844 C2.177000045776367,12.638999938964844 -6.677000045776367,10.949999809265137 -6.677000045776367,10.949999809265137 C-10.746000289916992,10.173999786376953 -13.414999961853027,6.245999813079834 -12.638999938964844,2.177000045776367 C-12.638999938964844,2.177000045776367 -10.949999809265137,-6.677000045776367 -10.949999809265137,-6.677000045776367 C-10.173999786376953,-10.746000289916992 -6.245999813079834,-13.414999961853027 -2.177000045776367,-12.638999938964844 C-2.177000045776367,-12.638999938964844 6.677000045776367,-10.949999809265137 6.677000045776367,-10.949999809265137 C10.746000289916992,-10.173999786376953 13.414999961853027,-6.245999813079834 12.638999938964844,-2.177000045776367z"></path></g></g><g transform="matrix(3.7904956340789795,1.1597119569778442,-1.1597119569778442,3.7904956340789795,1240.783203125,869.4718017578125)" opacity="1.0115309020163958" style="display: block;"><g opacity="1" transform="matrix(1,0,0,1,0,0)"><path fill="rgb(191,174,252)" fill-opacity="1" d=" M9.460000038146973,-8.65999984741211 C9.460000038146973,-8.65999984741211 12.821999549865723,-0.296999990940094 12.821999549865723,-0.296999990940094 C14.366999626159668,3.5460000038146973 12.503000259399414,7.914999961853027 8.65999984741211,9.460000038146973 C8.65999984741211,9.460000038146973 0.296999990940094,12.821999549865723 0.296999990940094,12.821999549865723 C-3.5460000038146973,14.366999626159668 -7.914999961853027,12.503000259399414 -9.460000038146973,8.65999984741211 C-9.460000038146973,8.65999984741211 -12.821999549865723,0.296999990940094 -12.821999549865723,0.296999990940094 C-14.366999626159668,-3.5460000038146973 -12.503000259399414,-7.914999961853027 -8.65999984741211,-9.460000038146973 C-8.65999984741211,-9.460000038146973 -0.296999990940094,-12.821999549865723 -0.296999990940094,-12.821999549865723 C3.5460000038146973,-14.366999626159668 7.914999961853027,-12.503000259399414 9.460000038146973,-8.65999984741211z"></path></g></g><g transform="matrix(3.7904956340789795,1.1597119569778442,-1.1597119569778442,3.7904956340789795,1210.080322265625,619.360107421875)" opacity="1.0115309020163958" style="display: block;"><g opacity="1" transform="matrix(1,0,0,1,0,0)"><path fill="rgb(191,174,252)" fill-opacity="1" d=" M2.5409998893737793,-12.789999961853027 C2.5409998893737793,-12.789999961853027 11.618000030517578,-6.164000034332275 11.618000030517578,-6.164000034332275 C14.468000411987305,-4.084000110626221 15.090999603271484,-0.08799999952316284 13.01099967956543,2.76200008392334 C13.01099967956543,2.76200008392334 7.040999889373779,10.9399995803833 7.040999889373779,10.9399995803833 C4.598999977111816,14.28600025177002 -0.09300000220537186,15.017999649047852 -3.438999891281128,12.576000213623047 C-3.438999891281128,12.576000213623047 -11.618000030517578,6.605999946594238 -11.618000030517578,6.605999946594238 C-14.468000411987305,4.526000022888184 -15.090999603271484,0.5299999713897705 -13.01099967956543,-2.319999933242798 C-13.01099967956543,-2.319999933242798 -6.385000228881836,-11.397000312805176 -6.385000228881836,-11.397000312805176 C-4.304999828338623,-14.246999740600586 -0.3089999854564667,-14.869999885559082 2.5409998893737793,-12.789999961853027z"></path></g></g><g transform="matrix(3.7904956340789795,1.1597119569778442,-1.1597119569778442,3.7904956340789795,1046.984619140625,427.73516845703125)" opacity="1.0115309020163958" style="display: block;"><g opacity="1" transform="matrix(1,0,0,1,0,0)"><path fill="rgb(191,174,252)" fill-opacity="1" d=" M-5.046999931335449,-12.232999801635742 C-5.046999931335449,-12.232999801635742 6.177999973297119,-11.704000473022461 6.177999973297119,-11.704000473022461 C9.70199966430664,-11.538000106811523 12.425000190734863,-8.545999526977539 12.258999824523926,-5.021999835968018 C12.258999824523926,-5.021999835968018 11.781999588012695,5.0929999351501465 11.781999588012695,5.0929999351501465 C11.586999893188477,9.230999946594238 8.074000358581543,12.427000045776367 3.936000108718872,12.232000350952148 C3.936000108718872,12.232000350952148 -6.177999973297119,11.755000114440918 -6.177999973297119,11.755000114440918 C-9.70199966430664,11.58899974822998 -12.425000190734863,8.597000122070312 -12.258999824523926,5.072999954223633 C-12.258999824523926,5.072999954223633 -11.729000091552734,-6.1529998779296875 -11.729000091552734,-6.1529998779296875 C-11.562999725341797,-9.677000045776367 -8.571000099182129,-12.39900016784668 -5.046999931335449,-12.232999801635742z"></path></g></g><g transform="matrix(3.7904956340789795,1.1597119569778442,-1.1597119569778442,3.7904956340789795,806.950439453125,353.29364013671875)" opacity="1" style="display: block;"><g opacity="1" transform="matrix(1,0,0,1,0,0)"><path fill="rgb(191,174,252)" fill-opacity="1" d=" M-9.906999588012695,-8.145000457763672 C-9.906999588012695,-8.145000457763672 -2.1010000705718994,-12.652000427246094 -2.1010000705718994,-12.652000427246094 C1.4859999418258667,-14.722999572753906 6.073999881744385,-13.494000434875488 8.145000457763672,-9.906999588012695 C8.145000457763672,-9.906999588012695 12.652000427246094,-2.1010000705718994 12.652000427246094,-2.1010000705718994 C14.722999572753906,1.4859999418258667 13.494000434875488,6.073999881744385 9.906999588012695,8.145000457763672 C9.906999588012695,8.145000457763672 2.1010000705718994,12.652000427246094 2.1010000705718994,12.652000427246094 C-1.4859999418258667,14.722999572753906 -6.073999881744385,13.494000434875488 -8.145000457763672,9.906999588012695 C-8.145000457763672,9.906999588012695 -12.652000427246094,2.1010000705718994 -12.652000427246094,2.1010000705718994 C-14.722999572753906,-1.4859999418258667 -13.494000434875488,-6.073999881744385 -9.906999588012695,-8.145000457763672z"></path></g></g><g transform="matrix(3.8387858867645264,1.099911093711853,-1.099911093711853,3.8387858867645264,714.4844970703125,514.0740966796875)" opacity="1.009276954382685" style="display: block;"><g opacity="1" transform="matrix(1,0,0,1,0,0)"><path fill="rgb(124,55,239)" fill-opacity="1" d=" M-13.055000305175781,-5.689000129699707 C-13.055000305175781,-5.689000129699707 -7.021999835968018,-12.388999938964844 -7.021999835968018,-12.388999938964844 C-3.696000099182129,-16.08300018310547 1.9950000047683716,-16.381000518798828 5.689000129699707,-13.055000305175781 C5.689000129699707,-13.055000305175781 12.388999938964844,-7.021999835968018 12.388999938964844,-7.021999835968018 C16.08300018310547,-3.696000099182129 16.381000518798828,1.9950000047683716 13.055000305175781,5.689000129699707 C13.055000305175781,5.689000129699707 7.021999835968018,12.388999938964844 7.021999835968018,12.388999938964844 C3.696000099182129,16.08300018310547 -1.9950000047683716,16.381000518798828 -5.689000129699707,13.055000305175781 C-5.689000129699707,13.055000305175781 -12.388999938964844,7.021999835968018 -12.388999938964844,7.021999835968018 C-16.08300018310547,3.696000099182129 -16.381000518798828,-1.9950000047683716 -13.055000305175781,-5.689000129699707z"></path></g></g><g transform="matrix(3.8387858867645264,1.099911093711853,-1.099911093711853,3.8387858867645264,573.7191162109375,605.4426879882812)" opacity="1.009276954382685" style="display: block;"><g opacity="1" transform="matrix(1,0,0,1,0,0)"><path fill="rgb(124,55,239)" fill-opacity="1" d=" M-14.059000015258789,2.2660000324249268 C-14.059000015258789,2.2660000324249268 -12.60200023651123,-6.631999969482422 -12.60200023651123,-6.631999969482422 C-11.798999786376953,-11.536999702453613 -7.171000003814697,-14.862000465393066 -2.2660000324249268,-14.059000015258789 C-2.2660000324249268,-14.059000015258789 6.631999969482422,-12.60200023651123 6.631999969482422,-12.60200023651123 C11.536999702453613,-11.798999786376953 14.862000465393066,-7.171000003814697 14.059000015258789,-2.2660000324249268 C14.059000015258789,-2.2660000324249268 12.60200023651123,6.631999969482422 12.60200023651123,6.631999969482422 C11.798999786376953,11.536999702453613 7.171000003814697,14.862000465393066 2.2660000324249268,14.059000015258789 C2.2660000324249268,14.059000015258789 -6.631999969482422,12.60200023651123 -6.631999969482422,12.60200023651123 C-11.536999702453613,11.798999786376953 -14.862000465393066,7.171000003814697 -14.059000015258789,2.2660000324249268z"></path></g></g><g transform="matrix(3.8387858867645264,1.099911093711853,-1.099911093711853,3.8387858867645264,504.6246032714844,758.3767700195312)" opacity="1.009276954382685" style="display: block;"><g opacity="1" transform="matrix(1,0,0,1,0,0)"><path fill="rgb(124,55,239)" fill-opacity="1" d=" M-10.607000350952148,9.501999855041504 C-10.607000350952148,9.501999855041504 -14.187999725341797,1.2269999980926514 -14.187999725341797,1.2269999980926514 C-16.16200065612793,-3.3350000381469727 -14.064000129699707,-8.633000373840332 -9.501999855041504,-10.607000350952148 C-9.501999855041504,-10.607000350952148 -1.2269999980926514,-14.187999725341797 -1.2269999980926514,-14.187999725341797 C3.3350000381469727,-16.16200065612793 8.633000373840332,-14.064000129699707 10.607000350952148,-9.501999855041504 C10.607000350952148,-9.501999855041504 14.187999725341797,-1.2269999980926514 14.187999725341797,-1.2269999980926514 C16.16200065612793,3.3350000381469727 14.064000129699707,8.633000373840332 9.501999855041504,10.607000350952148 C9.501999855041504,10.607000350952148 1.2269999980926514,14.187999725341797 1.2269999980926514,14.187999725341797 C-3.3350000381469727,16.16200065612793 -8.633000373840332,14.064000129699707 -10.607000350952148,9.501999855041504z"></path></g></g><g transform="matrix(3.8387858867645264,1.099911093711853,-1.099911093711853,3.8387858867645264,529.10205078125,924.4013061523438)" opacity="1.009276954382685" style="display: block;"><g opacity="1" transform="matrix(1,0,0,1,0,0)"><path fill="rgb(124,55,239)" fill-opacity="1" d=" M-3.7920000553131104,13.72599983215332 C-3.7920000553131104,13.72599983215332 -11.276000022888184,8.697999954223633 -11.276000022888184,8.697999954223633 C-15.402000427246094,5.926000118255615 -16.49799919128418,0.33399999141693115 -13.72599983215332,-3.7920000553131104 C-13.72599983215332,-3.7920000553131104 -8.697999954223633,-11.276000022888184 -8.697999954223633,-11.276000022888184 C-5.926000118255615,-15.402000427246094 -0.33399999141693115,-16.49799919128418 3.7920000553131104,-13.72599983215332 C3.7920000553131104,-13.72599983215332 11.276000022888184,-8.697999954223633 11.276000022888184,-8.697999954223633 C15.402000427246094,-5.926000118255615 16.49799919128418,-0.33399999141693115 13.72599983215332,3.7920000553131104 C13.72599983215332,3.7920000553131104 8.697999954223633,11.276000022888184 8.697999954223633,11.276000022888184 C5.926000118255615,15.402000427246094 0.33399999141693115,16.49799919128418 -3.7920000553131104,13.72599983215332z"></path></g></g><g transform="matrix(3.8387858867645264,1.099911093711853,-1.099911093711853,3.8387858867645264,639.3931884765625,1050.8880615234375)" opacity="1.009276954382685" style="display: block;"><g opacity="1" transform="matrix(1,0,0,1,0,0)"><path fill="rgb(124,55,239)" fill-opacity="1" d=" M4.223999977111816,13.600000381469727 C4.223999977111816,13.600000381469727 -4.789999961853027,13.41100025177002 -4.789999961853027,13.41100025177002 C-9.758999824523926,13.307000160217285 -13.704000473022461,9.192999839782715 -13.600000381469727,4.223999977111816 C-13.600000381469727,4.223999977111816 -13.41100025177002,-4.789999961853027 -13.41100025177002,-4.789999961853027 C-13.307000160217285,-9.758999824523926 -9.192999839782715,-13.704000473022461 -4.223999977111816,-13.600000381469727 C-4.223999977111816,-13.600000381469727 4.789999961853027,-13.41100025177002 4.789999961853027,-13.41100025177002 C9.758999824523926,-13.307000160217285 13.704000473022461,-9.192999839782715 13.600000381469727,-4.223999977111816 C13.600000381469727,-4.223999977111816 13.41100025177002,4.789999961853027 13.41100025177002,4.789999961853027 C13.307000160217285,9.758999824523926 9.192999839782715,13.704000473022461 4.223999977111816,13.600000381469727z"></path></g></g><g transform="matrix(3.8387858867645264,1.099911093711853,-1.099911093711853,3.8387858867645264,800.5370483398438,1097.744384765625)" opacity="1.009276954382685" style="display: block;"><g opacity="1" transform="matrix(1,0,0,1,0,0)"><path fill="rgb(124,55,239)" fill-opacity="1" d=" M10.902000427246094,9.161999702453613 C10.902000427246094,9.161999702453613 3.2139999866485596,13.873000144958496 3.2139999866485596,13.873000144958496 C-1.0240000486373901,16.469999313354492 -6.565000057220459,15.140000343322754 -9.161999702453613,10.902000427246094 C-9.161999702453613,10.902000427246094 -13.873000144958496,3.2139999866485596 -13.873000144958496,3.2139999866485596 C-16.469999313354492,-1.0240000486373901 -15.140000343322754,-6.565000057220459 -10.902000427246094,-9.161999702453613 C-10.902000427246094,-9.161999702453613 -3.2139999866485596,-13.873000144958496 -3.2139999866485596,-13.873000144958496 C1.0240000486373901,-16.469999313354492 6.565000057220459,-15.140000343322754 9.161999702453613,-10.902000427246094 C9.161999702453613,-10.902000427246094 13.873000144958496,-3.2139999866485596 13.873000144958496,-3.2139999866485596 C16.469999313354492,1.0240000486373901 15.140000343322754,6.565000057220459 10.902000427246094,9.161999702453613z"></path></g></g><g transform="matrix(3.8387858867645264,1.099911093711853,-1.099911093711853,3.8387858867645264,961.4554443359375,1050.11865234375)" opacity="1.009276954382685" style="display: block;"><g opacity="1" transform="matrix(1,0,0,1,0,0)"><path fill="rgb(124,55,239)" fill-opacity="1" d=" M14.12399959564209,1.8200000524520874 C14.12399959564209,1.8200000524520874 10.199999809265137,9.937999725341797 10.199999809265137,9.937999725341797 C8.036999702453613,14.413000106811523 2.6549999713897705,16.28700065612793 -1.8200000524520874,14.12399959564209 C-1.8200000524520874,14.12399959564209 -9.937999725341797,10.199999809265137 -9.937999725341797,10.199999809265137 C-14.413000106811523,8.036999702453613 -16.28700065612793,2.6549999713897705 -14.12399959564209,-1.8200000524520874 C-14.12399959564209,-1.8200000524520874 -10.199999809265137,-9.937999725341797 -10.199999809265137,-9.937999725341797 C-8.036999702453613,-14.413000106811523 -2.6549999713897705,-16.28700065612793 1.8200000524520874,-14.12399959564209 C1.8200000524520874,-14.12399959564209 9.937999725341797,-10.199999809265137 9.937999725341797,-10.199999809265137 C14.413000106811523,-8.036999702453613 16.28700065612793,-2.6549999713897705 14.12399959564209,1.8200000524520874z"></path></g></g><g transform="matrix(3.8387858867645264,1.099911093711853,-1.099911093711853,3.8387858867645264,1094.189208984375,755.5933227539062)" opacity="1.009276954382685" style="display: block;"><g opacity="1" transform="matrix(1,0,0,1,0,0)"><path fill="rgb(124,55,239)" fill-opacity="1" d=" M7.688000202178955,-11.987000465393066 C7.688000202178955,-11.987000465393066 13.345999717712402,-4.9679999351501465 13.345999717712402,-4.9679999351501465 C16.46500015258789,-1.0980000495910645 15.857000350952148,4.568999767303467 11.987000465393066,7.688000202178955 C11.987000465393066,7.688000202178955 4.9679999351501465,13.345999717712402 4.9679999351501465,13.345999717712402 C1.0980000495910645,16.46500015258789 -4.568999767303467,15.857000350952148 -7.688000202178955,11.987000465393066 C-7.688000202178955,11.987000465393066 -13.345999717712402,4.9679999351501465 -13.345999717712402,4.9679999351501465 C-16.46500015258789,1.0980000495910645 -15.857000350952148,-4.568999767303467 -11.987000465393066,-7.688000202178955 C-11.987000465393066,-7.688000202178955 -4.9679999351501465,-13.345999717712402 -4.9679999351501465,-13.345999717712402 C-1.0980000495910645,-16.46500015258789 4.568999767303467,-15.857000350952148 7.688000202178955,-11.987000465393066z"></path></g></g><g transform="matrix(2.7239856719970703,2.919928789138794,-2.919928789138794,2.7239856719970703,1069.653076171875,928.2982177734375)" opacity="1.009276954382685" style="display: block;"><g opacity="1" transform="matrix(1,0,0,1,0,0)"><path fill="rgb(124,55,239)" fill-opacity="1" d=" M7.688000202178955,-11.987000465393066 C7.688000202178955,-11.987000465393066 13.345999717712402,-4.9679999351501465 13.345999717712402,-4.9679999351501465 C16.46500015258789,-1.0980000495910645 15.857000350952148,4.568999767303467 11.987000465393066,7.688000202178955 C11.987000465393066,7.688000202178955 4.9679999351501465,13.345999717712402 4.9679999351501465,13.345999717712402 C1.0980000495910645,16.46500015258789 -4.568999767303467,15.857000350952148 -7.688000202178955,11.987000465393066 C-7.688000202178955,11.987000465393066 -13.345999717712402,4.9679999351501465 -13.345999717712402,4.9679999351501465 C-16.46500015258789,1.0980000495910645 -15.857000350952148,-4.568999767303467 -11.987000465393066,-7.688000202178955 C-11.987000465393066,-7.688000202178955 -4.9679999351501465,-13.345999717712402 -4.9679999351501465,-13.345999717712402 C-1.0980000495910645,-16.46500015258789 4.568999767303467,-15.857000350952148 7.688000202178955,-11.987000465393066z"></path></g></g><g transform="matrix(2.7745306491851807,2.871943950653076,-2.871943950653076,2.7745306491851807,1025.0010986328125,604.3640747070312)" opacity="1" style="display: block;"><g opacity="1" transform="matrix(1,0,0,1,0,0)"><path fill="rgb(124,55,239)" fill-opacity="1" d=" M-7.85099983215332,-11.880999565124512 C-7.85099983215332,-11.880999565124512 0.8579999804496765,-14.21500015258789 0.8579999804496765,-14.21500015258789 C5.658999919891357,-15.50100040435791 10.595000267028809,-12.652000427246094 11.880999565124512,-7.85099983215332 C11.880999565124512,-7.85099983215332 14.21500015258789,0.8579999804496765 14.21500015258789,0.8579999804496765 C15.50100040435791,5.658999919891357 12.652000427246094,10.595000267028809 7.85099983215332,11.880999565124512 C7.85099983215332,11.880999565124512 -0.8579999804496765,14.21500015258789 -0.8579999804496765,14.21500015258789 C-5.658999919891357,15.50100040435791 -10.595000267028809,12.652000427246094 -11.880999565124512,7.85099983215332 C-11.880999565124512,7.85099983215332 -14.21500015258789,-0.8579999804496765 -14.21500015258789,-0.8579999804496765 C-15.50100040435791,-5.658999919891357 -12.652000427246094,-10.595000267028809 -7.85099983215332,-11.880999565124512z"></path></g></g><g transform="matrix(3.8387858867645264,1.099911093711853,-1.099911093711853,3.8387858867645264,883.7993774414062,513.6693725585938)" opacity="1" style="display: block;"><g opacity="1" transform="matrix(1,0,0,1,0,0)"><path fill="rgb(124,55,239)" fill-opacity="1" d=" M-7.85099983215332,-11.880999565124512 C-7.85099983215332,-11.880999565124512 0.8579999804496765,-14.21500015258789 0.8579999804496765,-14.21500015258789 C5.658999919891357,-15.50100040435791 10.595000267028809,-12.652000427246094 11.880999565124512,-7.85099983215332 C11.880999565124512,-7.85099983215332 14.21500015258789,0.8579999804496765 14.21500015258789,0.8579999804496765 C15.50100040435791,5.658999919891357 12.652000427246094,10.595000267028809 7.85099983215332,11.880999565124512 C7.85099983215332,11.880999565124512 -0.8579999804496765,14.21500015258789 -0.8579999804496765,14.21500015258789 C-5.658999919891357,15.50100040435791 -10.595000267028809,12.652000427246094 -11.880999565124512,7.85099983215332 C-11.880999565124512,7.85099983215332 -14.21500015258789,-0.8579999804496765 -14.21500015258789,-0.8579999804496765 C-15.50100040435791,-5.658999919891357 -12.652000427246094,-10.595000267028809 -7.85099983215332,-11.880999565124512z"></path></g></g></g></g></svg>