<svg xmlns="http://www.w3.org/2000/svg" viewBox="0 0 1300 1300" width="1300" height="1300" preserveAspectRatio="xMidYMid meet" style="width: 100%; height: 100%; transform: translate3d(0px, 0px, 0px); content-visibility: visible;"><defs><clipPath id="__lottie_element_5973"><rect width="1300" height="1300" x="0" y="0"></rect></clipPath><clipPath id="__lottie_element_5975"><path d="M0,0 L1600,0 L1600,1600 L0,1600z"></path></clipPath></defs><g clip-path="url(#__lottie_element_5973)"><g clip-path="url(#__lottie_element_5975)" transform="matrix(1,0,0,1,-150,-150)" opacity="1" style="display: block;"><g transform="matrix(-0.22328601777553558,3.993762969970703,-3.993762969970703,-0.22328601777553558,1113.809326171875,484.540771484375)" opacity="1" style="display: block;"><g opacity="1" transform="matrix(1,0,0,1,0,0)"><path fill="rgb(4,138,14)" fill-opacity="1" d=" M-10.614999771118164,-12.154000282287598 C-10.614999771118164,-12.154000282287598 0.6800000071525574,-16.12299919128418 0.6800000071525574,-16.12299919128418 C5.36899995803833,-17.770999908447266 10.505999565124512,-15.303999900817871 12.154000282287598,-10.614999771118164 C12.154000282287598,-10.614999771118164 16.12299919128418,0.6800000071525574 16.12299919128418,0.6800000071525574 C17.770999908447266,5.36899995803833 15.303999900817871,10.505999565124512 10.614999771118164,12.154000282287598 C10.614999771118164,12.154000282287598 -0.6800000071525574,16.12299919128418 -0.6800000071525574,16.12299919128418 C-5.36899995803833,17.770999908447266 -10.505999565124512,15.303999900817871 -12.154000282287598,10.614999771118164 C-12.154000282287598,10.614999771118164 -16.12299919128418,-0.6800000071525574 -16.12299919128418,-0.6800000071525574 C-17.770999908447266,-5.36899995803833 -15.303999900817871,-10.505999565124512 -10.614999771118164,-12.154000282287598z"></path></g></g><g transform="matrix(-0.22328601777553558,3.993762969970703,-3.993762969970703,-0.22328601777553558,889.4848022460938,366.42645263671875)" opacity="1" style="display: block;"><g opacity="1" transform="matrix(1,0,0,1,0,0)"><path fill="rgb(4,138,14)" fill-opacity="1" d=" M-15.49899959564209,-4.493000030517578 C-15.49899959564209,-4.493000030517578 -8.137999534606934,-13.9350004196167 -8.137999534606934,-13.9350004196167 C-5.081999778747559,-17.854999542236328 0.5730000138282776,-18.55500030517578 4.493000030517578,-15.49899959564209 C4.493000030517578,-15.49899959564209 13.9350004196167,-8.137999534606934 13.9350004196167,-8.137999534606934 C17.854999542236328,-5.081999778747559 18.55500030517578,0.5730000138282776 15.49899959564209,4.493000030517578 C15.49899959564209,4.493000030517578 8.137999534606934,13.9350004196167 8.137999534606934,13.9350004196167 C5.081999778747559,17.854999542236328 -0.5730000138282776,18.55500030517578 -4.493000030517578,15.49899959564209 C-4.493000030517578,15.49899959564209 -13.9350004196167,8.137999534606934 -13.9350004196167,8.137999534606934 C-17.854999542236328,5.081999778747559 -18.55500030517578,-0.5730000138282776 -15.49899959564209,-4.493000030517578z"></path></g></g><g transform="matrix(-0.22328601777553558,3.993762969970703,-3.993762969970703,-0.22328601777553558,636.8984375,388.2206726074219)" opacity="1" style="display: block;"><g opacity="1" transform="matrix(1,0,0,1,0,0)"><path fill="rgb(4,138,14)" fill-opacity="1" d=" M-15.470000267028809,4.5920000076293945 C-15.470000267028809,4.5920000076293945 -14.376999855041504,-7.328999996185303 -14.376999855041504,-7.328999996185303 C-13.92300033569336,-12.279000282287598 -9.541999816894531,-15.923999786376953 -4.5920000076293945,-15.470000267028809 C-4.5920000076293945,-15.470000267028809 7.328999996185303,-14.376999855041504 7.328999996185303,-14.376999855041504 C12.279000282287598,-13.92300033569336 15.923999786376953,-9.541999816894531 15.470000267028809,-4.5920000076293945 C15.470000267028809,-4.5920000076293945 14.376999855041504,7.328999996185303 14.376999855041504,7.328999996185303 C13.92300033569336,12.279000282287598 9.541999816894531,15.923999786376953 4.5920000076293945,15.470000267028809 C4.5920000076293945,15.470000267028809 -7.328999996185303,14.376999855041504 -7.328999996185303,14.376999855041504 C-12.279000282287598,13.92300033569336 -15.923999786376953,9.541999816894531 -15.470000267028809,4.5920000076293945z"></path></g></g><g transform="matrix(-0.22328601777553558,3.993762969970703,-3.993762969970703,-0.22328601777553558,436.1205139160156,543.0142822265625)" opacity="1" style="display: block;"><g opacity="1" transform="matrix(1,0,0,1,0,0)"><path fill="rgb(4,138,14)" fill-opacity="1" d=" M-10.536999702453613,12.222000122070312 C-10.536999702453613,12.222000122070312 -16.058000564575195,1.5989999771118164 -16.058000564575195,1.5989999771118164 C-18.350000381469727,-2.812000036239624 -16.632999420166016,-8.244999885559082 -12.222000122070312,-10.536999702453613 C-12.222000122070312,-10.536999702453613 -1.5989999771118164,-16.058000564575195 -1.5989999771118164,-16.058000564575195 C2.812000036239624,-18.350000381469727 8.244999885559082,-16.632999420166016 10.536999702453613,-12.222000122070312 C10.536999702453613,-12.222000122070312 16.058000564575195,-1.5989999771118164 16.058000564575195,-1.5989999771118164 C18.350000381469727,2.812000036239624 16.632999420166016,8.244999885559082 12.222000122070312,10.536999702453613 C12.222000122070312,10.536999702453613 1.5989999771118164,16.058000564575195 1.5989999771118164,16.058000564575195 C-2.812000036239624,18.350000381469727 -8.244999885559082,16.632999420166016 -10.536999702453613,12.222000122070312z"></path></g></g><g transform="matrix(-0.22328601777553558,3.993762969970703,-3.993762969970703,-0.22328601777553558,350.7890319824219,781.7471923828125)" opacity="1" style="display: block;"><g opacity="1" transform="matrix(1,0,0,1,0,0)"><path fill="rgb(4,138,14)" fill-opacity="1" d=" M-2.2639999389648438,15.97700023651123 C-2.2639999389648438,15.97700023651123 -12.64900016784668,10.020999908447266 -12.64900016784668,10.020999908447266 C-16.961000442504883,7.547999858856201 -18.450000762939453,2.0480000972747803 -15.97700023651123,-2.2639999389648438 C-15.97700023651123,-2.2639999389648438 -10.020999908447266,-12.64900016784668 -10.020999908447266,-12.64900016784668 C-7.547999858856201,-16.961000442504883 -2.0480000972747803,-18.450000762939453 2.2639999389648438,-15.97700023651123 C2.2639999389648438,-15.97700023651123 12.64900016784668,-10.020999908447266 12.64900016784668,-10.020999908447266 C16.961000442504883,-7.547999858856201 18.450000762939453,-2.0480000972747803 15.97700023651123,2.2639999389648438 C15.97700023651123,2.2639999389648438 10.020999908447266,12.64900016784668 10.020999908447266,12.64900016784668 C7.547999858856201,16.961000442504883 2.0480000972747803,18.450000762939453 -2.2639999389648438,15.97700023651123z"></path></g></g><g transform="matrix(-0.22328601777553558,3.993762969970703,-3.993762969970703,-0.22328601777553558,407.9547119140625,1028.7393798828125)" opacity="1" style="display: block;"><g opacity="1" transform="matrix(1,0,0,1,0,0)"><path fill="rgb(4,138,14)" fill-opacity="1" d=" M6.72599983215332,14.668999671936035 C6.72599983215332,14.668999671936035 -5.230999946594238,15.265999794006348 -5.230999946594238,15.265999794006348 C-10.194999694824219,15.513999938964844 -14.420999526977539,11.6899995803833 -14.668999671936035,6.72599983215332 C-14.668999671936035,6.72599983215332 -15.265999794006348,-5.230999946594238 -15.265999794006348,-5.230999946594238 C-15.513999938964844,-10.194999694824219 -11.6899995803833,-14.420999526977539 -6.72599983215332,-14.668999671936035 C-6.72599983215332,-14.668999671936035 5.230999946594238,-15.265999794006348 5.230999946594238,-15.265999794006348 C10.194999694824219,-15.513999938964844 14.420999526977539,-11.6899995803833 14.668999671936035,-6.72599983215332 C14.668999671936035,-6.72599983215332 15.265999794006348,5.230999946594238 15.265999794006348,5.230999946594238 C15.513999938964844,10.194999694824219 11.6899995803833,14.420999526977539 6.72599983215332,14.668999671936035z"></path></g></g><g transform="matrix(-0.22328601777553558,3.993762969970703,-3.993762969970703,-0.22328601777553558,589.499267578125,1205.7054443359375)" opacity="1" style="display: block;"><g opacity="1" transform="matrix(1,0,0,1,0,0)"><path fill="rgb(4,138,14)" fill-opacity="1" d=" M13.585000038146973,8.710000038146973 C13.585000038146973,8.710000038146973 3.8459999561309814,15.67199993133545 3.8459999561309814,15.67199993133545 C-0.1979999989271164,18.562999725341797 -5.818999767303467,17.628999710083008 -8.710000038146973,13.585000038146973 C-8.710000038146973,13.585000038146973 -15.67199993133545,3.8459999561309814 -15.67199993133545,3.8459999561309814 C-18.562999725341797,-0.1979999989271164 -17.628999710083008,-5.818999767303467 -13.585000038146973,-8.710000038146973 C-13.585000038146973,-8.710000038146973 -3.8459999561309814,-15.67199993133545 -3.8459999561309814,-15.67199993133545 C0.1979999989271164,-18.562999725341797 5.818999767303467,-17.628999710083008 8.710000038146973,-13.585000038146973 C8.710000038146973,-13.585000038146973 15.67199993133545,-3.8459999561309814 15.67199993133545,-3.8459999561309814 C18.562999725341797,0.1979999989271164 17.628999710083008,5.818999767303467 13.585000038146973,8.710000038146973z"></path></g></g><g transform="matrix(-0.22328601777553558,3.993762969970703,-3.993762969970703,-0.22328601777553558,837.87255859375,1256.5452880859375)" opacity="1" style="display: block;"><g opacity="1" transform="matrix(1,0,0,1,0,0)"><path fill="rgb(4,138,14)" fill-opacity="1" d=" M16.136999130249023,-0.008999999612569809 C16.136999130249023,-0.008999999612569809 11.70300006866455,11.111000061035156 11.70300006866455,11.111000061035156 C9.862000465393066,15.727999687194824 4.625999927520752,17.97800064086914 0.008999999612569809,16.136999130249023 C0.008999999612569809,16.136999130249023 -11.111000061035156,11.70300006866455 -11.111000061035156,11.70300006866455 C-15.727999687194824,9.862000465393066 -17.97800064086914,4.625999927520752 -16.136999130249023,0.008999999612569809 C-16.136999130249023,0.008999999612569809 -11.70300006866455,-11.111000061035156 -11.70300006866455,-11.111000061035156 C-9.862000465393066,-15.727999687194824 -4.625999927520752,-17.97800064086914 -0.008999999612569809,-16.136999130249023 C-0.008999999612569809,-16.136999130249023 11.111000061035156,-11.70300006866455 11.111000061035156,-11.70300006866455 C15.727999687194824,-9.862000465393066 17.97800064086914,-4.625999927520752 16.136999130249023,-0.008999999612569809z"></path></g></g><g transform="matrix(-0.22328601777553558,3.993762969970703,-3.993762969970703,-0.22328601777553558,1074.3472900390625,1165.1470947265625)" opacity="1" style="display: block;"><g opacity="1" transform="matrix(1,0,0,1,0,0)"><path fill="rgb(4,138,14)" fill-opacity="1" d=" M13.574000358581543,-8.72599983215332 C13.574000358581543,-8.72599983215332 15.85099983215332,3.0269999504089355 15.85099983215332,3.0269999504089355 C16.79599952697754,7.9070000648498535 13.605999946594238,12.628999710083008 8.72599983215332,13.574000358581543 C8.72599983215332,13.574000358581543 -3.0269999504089355,15.85099983215332 -3.0269999504089355,15.85099983215332 C-7.9070000648498535,16.79599952697754 -12.628999710083008,13.605999946594238 -13.574000358581543,8.72599983215332 C-13.574000358581543,8.72599983215332 -15.85099983215332,-3.0269999504089355 -15.85099983215332,-3.0269999504089355 C-16.79599952697754,-7.9070000648498535 -13.605999946594238,-12.628999710083008 -8.72599983215332,-13.574000358581543 C-8.72599983215332,-13.574000358581543 3.0269999504089355,-15.85099983215332 3.0269999504089355,-15.85099983215332 C7.9070000648498535,-16.79599952697754 12.628999710083008,-13.605999946594238 13.574000358581543,-8.72599983215332z"></path></g></g><g transform="matrix(-0.22328601777553558,3.993762969970703,-3.993762969970703,-0.22328601777553558,1223.9652099609375,960.48388671875)" opacity="1" style="display: block;"><g opacity="1" transform="matrix(1,0,0,1,0,0)"><path fill="rgb(4,138,14)" fill-opacity="1" d=" M6.709000110626221,-14.675999641418457 C6.709000110626221,-14.675999641418457 14.973999977111816,-6.014999866485596 14.973999977111816,-6.014999866485596 C18.4060001373291,-2.4189999103546143 18.27199935913086,3.2769999504089355 14.675999641418457,6.709000110626221 C14.675999641418457,6.709000110626221 6.014999866485596,14.973999977111816 6.014999866485596,14.973999977111816 C2.4189999103546143,18.4060001373291 -3.2769999504089355,18.27199935913086 -6.709000110626221,14.675999641418457 C-6.709000110626221,14.675999641418457 -14.973999977111816,6.014999866485596 -14.973999977111816,6.014999866485596 C-18.4060001373291,2.4189999103546143 -18.27199935913086,-3.2769999504089355 -14.675999641418457,-6.709000110626221 C-14.675999641418457,-6.709000110626221 -6.014999866485596,-14.973999977111816 -6.014999866485596,-14.973999977111816 C-2.4189999103546143,-18.4060001373291 3.2769999504089355,-18.27199935913086 6.709000110626221,-14.675999641418457z"></path></g></g><g transform="matrix(-0.22328601777553558,3.993762969970703,-3.993762969970703,-0.22328601777553558,1239.30322265625,707.425537109375)" opacity="1" style="display: block;"><g opacity="1" transform="matrix(1,0,0,1,0,0)"><path fill="rgb(4,138,14)" fill-opacity="1" d=" M-2.2829999923706055,-15.975000381469727 C-2.2829999923706055,-15.975000381469727 9.35099983215332,-13.152000427246094 9.35099983215332,-13.152000427246094 C14.180999755859375,-11.979999542236328 17.14699935913086,-7.11299991607666 15.975000381469727,-2.2829999923706055 C15.975000381469727,-2.2829999923706055 13.152000427246094,9.35099983215332 13.152000427246094,9.35099983215332 C11.979999542236328,14.180999755859375 7.11299991607666,17.14699935913086 2.2829999923706055,15.975000381469727 C2.2829999923706055,15.975000381469727 -9.35099983215332,13.152000427246094 -9.35099983215332,13.152000427246094 C-14.180999755859375,11.979999542236328 -17.14699935913086,7.11299991607666 -15.975000381469727,2.2829999923706055 C-15.975000381469727,2.2829999923706055 -13.152000427246094,-9.35099983215332 -13.152000427246094,-9.35099983215332 C-11.979999542236328,-14.180999755859375 -7.11299991607666,-17.14699935913086 -2.2829999923706055,-15.975000381469727z"></path></g></g><g transform="matrix(-0.18373531103134155,3.286346912384033,-3.284881830215454,-0.18365341424942017,1152.1468505859375,609.4945068359375)" opacity="1" style="display: block;"><g opacity="1" transform="matrix(1,0,0,1,0,0)"><path fill="rgb(154,224,149)" fill-opacity="1" d=" M-16.06999969482422,-1.4700000286102295 C-16.06999969482422,-1.4700000286102295 -10.635000228881836,-12.13700008392334 -10.635000228881836,-12.13700008392334 C-8.378000259399414,-16.56599998474121 -2.9590001106262207,-18.32699966430664 1.4700000286102295,-16.06999969482422 C1.4700000286102295,-16.06999969482422 12.13700008392334,-10.635000228881836 12.13700008392334,-10.635000228881836 C16.56599998474121,-8.378000259399414 18.32699966430664,-2.9590001106262207 16.06999969482422,1.4700000286102295 C16.06999969482422,1.4700000286102295 10.635000228881836,12.13700008392334 10.635000228881836,12.13700008392334 C8.378000259399414,16.56599998474121 2.9590001106262207,18.32699966430664 -1.4700000286102295,16.06999969482422 C-1.4700000286102295,16.06999969482422 -12.13700008392334,10.635000228881836 -12.13700008392334,10.635000228881836 C-16.56599998474121,8.378000259399414 -18.32699966430664,2.9590001106262207 -16.06999969482422,-1.4700000286102295z"></path></g></g><g transform="matrix(-0.18373531103134155,3.286346912384033,-3.284881830215454,-0.18365341424942017,989.2462768554688,450.8028564453125)" opacity="1" style="display: block;"><g opacity="1" transform="matrix(1,0,0,1,0,0)"><path fill="rgb(154,224,149)" fill-opacity="1" d=" M-14.317000389099121,7.445000171661377 C-14.317000389099121,7.445000171661377 -15.505999565124512,-4.4679999351501465 -15.505999565124512,-4.4679999351501465 C-16,-9.413999557495117 -12.390999794006348,-13.822999954223633 -7.445000171661377,-14.317000389099121 C-7.445000171661377,-14.317000389099121 4.4679999351501465,-15.505999565124512 4.4679999351501465,-15.505999565124512 C9.413999557495117,-16 13.822999954223633,-12.390999794006348 14.317000389099121,-7.445000171661377 C14.317000389099121,-7.445000171661377 15.505999565124512,4.4679999351501465 15.505999565124512,4.4679999351501465 C16,9.413999557495117 12.390999794006348,13.822999954223633 7.445000171661377,14.317000389099121 C7.445000171661377,14.317000389099121 -4.4679999351501465,15.505999565124512 -4.4679999351501465,15.505999565124512 C-9.413999557495117,16 -13.822999954223633,12.390999794006348 -14.317000389099121,7.445000171661377z"></path></g></g><g transform="matrix(-0.18373531103134155,3.286346912384033,-3.284881830215454,-0.18365341424942017,766.4674072265625,405.3088684082031)" opacity="1" style="display: block;"><g opacity="1" transform="matrix(1,0,0,1,0,0)"><path fill="rgb(154,224,149)" fill-opacity="1" d=" M-8.026000022888184,13.99899959564209 C-8.026000022888184,13.99899959564209 -15.461999893188477,4.617000102996826 -15.461999893188477,4.617000102996826 C-18.548999786376953,0.722000002861023 -17.893999099731445,-4.939000129699707 -13.99899959564209,-8.026000022888184 C-13.99899959564209,-8.026000022888184 -4.617000102996826,-15.461999893188477 -4.617000102996826,-15.461999893188477 C-0.722000002861023,-18.548999786376953 4.939000129699707,-17.893999099731445 8.026000022888184,-13.99899959564209 C8.026000022888184,-13.99899959564209 15.461999893188477,-4.617000102996826 15.461999893188477,-4.617000102996826 C18.548999786376953,-0.722000002861023 17.893999099731445,4.939000129699707 13.99899959564209,8.026000022888184 C13.99899959564209,8.026000022888184 4.617000102996826,15.461999893188477 4.617000102996826,15.461999893188477 C0.722000002861023,18.548999786376953 -4.939000129699707,17.893999099731445 -8.026000022888184,13.99899959564209z"></path></g></g><g transform="matrix(-0.18373531103134155,3.286346912384033,-3.284881830215454,-0.18365341424942017,554.4230346679688,487.43707275390625)" opacity="1" style="display: block;"><g opacity="1" transform="matrix(1,0,0,1,0,0)"><path fill="rgb(154,224,149)" fill-opacity="1" d=" M0.8090000152587891,16.117000579833984 C0.8090000152587891,16.117000579833984 -10.517000198364258,12.23900032043457 -10.517000198364258,12.23900032043457 C-15.220000267028809,10.628999710083008 -17.726999282836914,5.51200008392334 -16.117000579833984,0.8090000152587891 C-16.117000579833984,0.8090000152587891 -12.23900032043457,-10.517000198364258 -12.23900032043457,-10.517000198364258 C-10.628999710083008,-15.220000267028809 -5.51200008392334,-17.726999282836914 -0.8090000152587891,-16.117000579833984 C-0.8090000152587891,-16.117000579833984 10.517000198364258,-12.23900032043457 10.517000198364258,-12.23900032043457 C15.220000267028809,-10.628999710083008 17.726999282836914,-5.51200008392334 16.117000579833984,-0.8090000152587891 C16.117000579833984,-0.8090000152587891 12.23900032043457,10.517000198364258 12.23900032043457,10.517000198364258 C10.628999710083008,15.220000267028809 5.51200008392334,17.726999282836914 0.8090000152587891,16.117000579833984z"></path></g></g><g transform="matrix(-0.18373531103134155,3.286346912384033,-3.284881830215454,-0.18365341424942017,420.32672119140625,671.150390625)" opacity="1" style="display: block;"><g opacity="1" transform="matrix(1,0,0,1,0,0)"><path fill="rgb(154,224,149)" fill-opacity="1" d=" M9.387999534606934,13.125 C9.387999534606934,13.125 -2.23799991607666,15.980999946594238 -2.23799991607666,15.980999946594238 C-7.065000057220459,17.16699981689453 -11.939000129699707,14.21500015258789 -13.125,9.387999534606934 C-13.125,9.387999534606934 -15.980999946594238,-2.23799991607666 -15.980999946594238,-2.23799991607666 C-17.16699981689453,-7.065000057220459 -14.21500015258789,-11.939000129699707 -9.387999534606934,-13.125 C-9.387999534606934,-13.125 2.23799991607666,-15.980999946594238 2.23799991607666,-15.980999946594238 C7.065000057220459,-17.16699981689453 11.939000129699707,-14.21500015258789 13.125,-9.387999534606934 C13.125,-9.387999534606934 15.980999946594238,2.23799991607666 15.980999946594238,2.23799991607666 C17.16699981689453,7.065000057220459 14.21500015258789,11.939000129699707 9.387999534606934,13.125z"></path></g></g><g transform="matrix(-0.18373531103134155,3.286346912384033,-3.284881830215454,-0.18365341424942017,406.6858215332031,898.2203979492188)" opacity="1" style="display: block;"><g opacity="1" transform="matrix(1,0,0,1,0,0)"><path fill="rgb(154,224,149)" fill-opacity="1" d=" M14.991000175476074,5.973999977111816 C14.991000175476074,5.973999977111816 6.75,14.657999992370605 6.75,14.657999992370605 C3.328000068664551,18.263999938964844 -2.368000030517578,18.413000106811523 -5.973999977111816,14.991000175476074 C-5.973999977111816,14.991000175476074 -14.657999992370605,6.75 -14.657999992370605,6.75 C-18.263999938964844,3.328000068664551 -18.413000106811523,-2.368000030517578 -14.991000175476074,-5.973999977111816 C-14.991000175476074,-5.973999977111816 -6.75,-14.657999992370605 -6.75,-14.657999992370605 C-3.328000068664551,-18.263999938964844 2.368000030517578,-18.413000106811523 5.973999977111816,-14.991000175476074 C5.973999977111816,-14.991000175476074 14.657999992370605,-6.75 14.657999992370605,-6.75 C18.263999938964844,-3.328000068664551 18.413000106811523,2.368000030517578 14.991000175476074,5.973999977111816z"></path></g></g><g transform="matrix(-0.18373531103134155,3.286346912384033,-3.284881830215454,-0.18365341424942017,517.8245239257812,1096.66650390625)" opacity="1" style="display: block;"><g opacity="1" transform="matrix(1,0,0,1,0,0)"><path fill="rgb(154,224,149)" fill-opacity="1" d=" M15.842000007629395,-3.072000026702881 C15.842000007629395,-3.072000026702881 13.598999977111816,8.687999725341797 13.598999977111816,8.687999725341797 C12.668000221252441,13.571000099182129 7.954999923706055,16.773000717163086 3.072000026702881,15.842000007629395 C3.072000026702881,15.842000007629395 -8.687999725341797,13.598999977111816 -8.687999725341797,13.598999977111816 C-13.571000099182129,12.668000221252441 -16.773000717163086,7.954999923706055 -15.842000007629395,3.072000026702881 C-15.842000007629395,3.072000026702881 -13.598999977111816,-8.687999725341797 -13.598999977111816,-8.687999725341797 C-12.668000221252441,-13.571000099182129 -7.954999923706055,-16.773000717163086 -3.072000026702881,-15.842000007629395 C-3.072000026702881,-15.842000007629395 8.687999725341797,-13.598999977111816 8.687999725341797,-13.598999977111816 C13.571000099182129,-12.668000221252441 16.773000717163086,-7.954999923706055 15.842000007629395,-3.072000026702881z"></path></g></g><g transform="matrix(-0.18373531103134155,3.286346912384033,-3.284881830215454,-0.18365341424942017,718.5151977539062,1203.587646484375)" opacity="1" style="display: block;"><g opacity="1" transform="matrix(1,0,0,1,0,0)"><path fill="rgb(154,224,149)" fill-opacity="1" d=" M11.67199993133545,-11.142999649047852 C11.67199993133545,-11.142999649047852 16.136999130249023,-0.035999998450279236 16.136999130249023,-0.035999998450279236 C17.990999221801758,4.576000213623047 15.755000114440918,9.817999839782715 11.142999649047852,11.67199993133545 C11.142999649047852,11.67199993133545 0.035999998450279236,16.136999130249023 0.035999998450279236,16.136999130249023 C-4.576000213623047,17.990999221801758 -9.817999839782715,15.755000114440918 -11.67199993133545,11.142999649047852 C-11.67199993133545,11.142999649047852 -16.136999130249023,0.035999998450279236 -16.136999130249023,0.035999998450279236 C-17.990999221801758,-4.576000213623047 -15.755000114440918,-9.817999839782715 -11.142999649047852,-11.67199993133545 C-11.142999649047852,-11.67199993133545 -0.035999998450279236,-16.136999130249023 -0.035999998450279236,-16.136999130249023 C4.576000213623047,-17.990999221801758 9.817999839782715,-15.755000114440918 11.67199993133545,-11.142999649047852z"></path></g></g><g transform="matrix(-0.18373531103134155,3.286346912384033,-3.284881830215454,-0.18365341424942017,945.1385498046875,1185.0916748046875)" opacity="1" style="display: block;"><g opacity="1" transform="matrix(1,0,0,1,0,0)"><path fill="rgb(154,224,149)" fill-opacity="1" d=" M3.802000045776367,-15.682999610900879 C3.802000045776367,-15.682999610900879 13.5600004196167,-8.748000144958496 13.5600004196167,-8.748000144958496 C17.61199951171875,-5.86899995803833 18.562000274658203,-0.25 15.682999610900879,3.802000045776367 C15.682999610900879,3.802000045776367 8.748000144958496,13.5600004196167 8.748000144958496,13.5600004196167 C5.86899995803833,17.61199951171875 0.25,18.562000274658203 -3.802000045776367,15.682999610900879 C-3.802000045776367,15.682999610900879 -13.5600004196167,8.748000144958496 -13.5600004196167,8.748000144958496 C-17.61199951171875,5.86899995803833 -18.562000274658203,0.25 -15.682999610900879,-3.802000045776367 C-15.682999610900879,-3.802000045776367 -8.748000144958496,-13.5600004196167 -8.748000144958496,-13.5600004196167 C-5.86899995803833,-17.61199951171875 -0.25,-18.562000274658203 3.802000045776367,-15.682999610900879z"></path></g></g><g transform="matrix(-0.18373531103134155,3.286346912384033,-3.284881830215454,-0.18365341424942017,1125.865234375,1047.04248046875)" opacity="1" style="display: block;"><g opacity="1" transform="matrix(1,0,0,1,0,0)"><path fill="rgb(154,224,149)" fill-opacity="1" d=" M-5.2729997634887695,-15.25100040435791 C-5.2729997634887695,-15.25100040435791 6.684999942779541,-14.687000274658203 6.684999942779541,-14.687000274658203 C11.649999618530273,-14.45300006866455 15.484999656677246,-10.23799991607666 15.25100040435791,-5.2729997634887695 C15.25100040435791,-5.2729997634887695 14.687000274658203,6.684999942779541 14.687000274658203,6.684999942779541 C14.45300006866455,11.649999618530273 10.23799991607666,15.484999656677246 5.2729997634887695,15.25100040435791 C5.2729997634887695,15.25100040435791 -6.684999942779541,14.687000274658203 -6.684999942779541,14.687000274658203 C-11.649999618530273,14.45300006866455 -15.484999656677246,10.23799991607666 -15.25100040435791,5.2729997634887695 C-15.25100040435791,5.2729997634887695 -14.687000274658203,-6.684999942779541 -14.687000274658203,-6.684999942779541 C-14.45300006866455,-11.649999618530273 -10.23799991607666,-15.484999656677246 -5.2729997634887695,-15.25100040435791z"></path></g></g><g transform="matrix(-0.18373531103134155,3.286346912384033,-3.284881830215454,-0.18365341424942017,1203.4044189453125,833.1974487304688)" opacity="1" style="display: block;"><g opacity="1" transform="matrix(1,0,0,1,0,0)"><path fill="rgb(154,224,149)" fill-opacity="1" d=" M-12.677000045776367,-9.984999656677246 C-12.677000045776367,-9.984999656677246 -2.309000015258789,-15.970999717712402 -2.309000015258789,-15.970999717712402 C1.996000051498413,-18.45599937438965 7.5,-16.98200035095215 9.984999656677246,-12.677000045776367 C9.984999656677246,-12.677000045776367 15.970999717712402,-2.309000015258789 15.970999717712402,-2.309000015258789 C18.45599937438965,1.996000051498413 16.98200035095215,7.5 12.677000045776367,9.984999656677246 C12.677000045776367,9.984999656677246 2.309000015258789,15.970999717712402 2.309000015258789,15.970999717712402 C-1.996000051498413,18.45599937438965 -7.5,16.98200035095215 -9.984999656677246,12.677000045776367 C-9.984999656677246,12.677000045776367 -15.970999717712402,2.309000015258789 -15.970999717712402,2.309000015258789 C-18.45599937438965,-1.996000051498413 -16.98200035095215,-7.5 -12.677000045776367,-9.984999656677246z"></path></g></g></g></g></svg>