<svg xmlns="http://www.w3.org/2000/svg" viewBox="0 0 1300 1300" width="1300" height="1300" preserveAspectRatio="xMidYMid meet" style="width: 100%; height: 100%; transform: translate3d(0px, 0px, 0px); content-visibility: visible;"><defs><clipPath id="__lottie_element_4951"><rect width="1300" height="1300" x="0" y="0"></rect></clipPath><clipPath id="__lottie_element_4953"><path d="M0,0 L1600,0 L1600,1600 L0,1600z"></path></clipPath><clipPath id="__lottie_element_5060"><path d="M0,0 L1600,0 L1600,1600 L0,1600z"></path></clipPath></defs><g clip-path="url(#__lottie_element_4951)"><g clip-path="url(#__lottie_element_4953)" transform="matrix(1,0,0,1,-150,-150)" opacity="1" style="display: block;"><g transform="matrix(1.4639085531234741,-0.4534148871898651,0.4534148871898651,1.4639085531234741,383.9085388183594,446.548828125)" opacity="1" style="display: block;"><g opacity="1" transform="matrix(0.8480480909347534,-0.5299192667007446,0.5299192667007446,0.8480480909347534,0,0)"><path fill="rgb(0,221,213)" fill-opacity="1" d=" M21.47599983215332,-42.04100036621094 C21.47599983215332,-42.04100036621094 -21.47599983215332,-42.04100036621094 -21.47599983215332,-42.04100036621094 C-32.83399963378906,-42.04100036621094 -42.04100036621094,-32.83399963378906 -42.04100036621094,-21.47599983215332 C-42.04100036621094,-21.47599983215332 -42.04100036621094,21.47599983215332 -42.04100036621094,21.47599983215332 C-42.04100036621094,32.83399963378906 -32.83399963378906,42.04100036621094 -21.47599983215332,42.04100036621094 C-21.47599983215332,42.04100036621094 21.47599983215332,42.04100036621094 21.47599983215332,42.04100036621094 C32.83399963378906,42.04100036621094 42.04100036621094,32.83399963378906 42.04100036621094,21.47599983215332 C42.04100036621094,21.47599983215332 42.04100036621094,-21.47599983215332 42.04100036621094,-21.47599983215332 C42.04100036621094,-32.83399963378906 32.83399963378906,-42.04100036621094 21.47599983215332,-42.04100036621094z"></path></g></g><g transform="matrix(1.4639085531234741,-0.4534148871898651,0.4534148871898651,1.4639085531234741,255.4654998779297,730.7030029296875)" opacity="1" style="display: block;"><g opacity="1" transform="matrix(0.4257792830467224,-0.9048270583152771,0.9048270583152771,0.4257792830467224,0,0)"><path fill="rgb(0,221,213)" fill-opacity="1" d=" M21.47599983215332,-42.04100036621094 C21.47599983215332,-42.04100036621094 -21.47599983215332,-42.04100036621094 -21.47599983215332,-42.04100036621094 C-32.83399963378906,-42.04100036621094 -42.04100036621094,-32.83399963378906 -42.04100036621094,-21.47599983215332 C-42.04100036621094,-21.47599983215332 -42.04100036621094,21.47599983215332 -42.04100036621094,21.47599983215332 C-42.04100036621094,32.83399963378906 -32.83399963378906,42.04100036621094 -21.47599983215332,42.04100036621094 C-21.47599983215332,42.04100036621094 21.47599983215332,42.04100036621094 21.47599983215332,42.04100036621094 C32.83399963378906,42.04100036621094 42.04100036621094,32.83399963378906 42.04100036621094,21.47599983215332 C42.04100036621094,21.47599983215332 42.04100036621094,-21.47599983215332 42.04100036621094,-21.47599983215332 C42.04100036621094,-32.83399963378906 32.83399963378906,-42.04100036621094 21.47599983215332,-42.04100036621094z"></path></g></g><g transform="matrix(1.4639085531234741,-0.4534148871898651,0.4534148871898651,1.4639085531234741,301.41552734375,1039.0933837890625)" opacity="1" style="display: block;"><g opacity="1" transform="matrix(0.9912155270576477,-0.1322563886642456,0.1322563886642456,0.9912155270576477,0,0)"><path fill="rgb(0,221,213)" fill-opacity="1" d=" M21.47599983215332,-42.04100036621094 C21.47599983215332,-42.04100036621094 -21.47599983215332,-42.04100036621094 -21.47599983215332,-42.04100036621094 C-32.83399963378906,-42.04100036621094 -42.04100036621094,-32.83399963378906 -42.04100036621094,-21.47599983215332 C-42.04100036621094,-21.47599983215332 -42.04100036621094,21.47599983215332 -42.04100036621094,21.47599983215332 C-42.04100036621094,32.83399963378906 -32.83399963378906,42.04100036621094 -21.47599983215332,42.04100036621094 C-21.47599983215332,42.04100036621094 21.47599983215332,42.04100036621094 21.47599983215332,42.04100036621094 C32.83399963378906,42.04100036621094 42.04100036621094,32.83399963378906 42.04100036621094,21.47599983215332 C42.04100036621094,21.47599983215332 42.04100036621094,-21.47599983215332 42.04100036621094,-21.47599983215332 C42.04100036621094,-32.83399963378906 32.83399963378906,-42.04100036621094 21.47599983215332,-42.04100036621094z"></path></g></g><g transform="matrix(1.4639085531234741,-0.4534148871898651,0.4534148871898651,1.4639085531234741,507.0985107421875,1273.5042724609375)" opacity="1" style="display: block;"><g opacity="1" transform="matrix(0.7615383267402649,-0.6481199264526367,0.6481199264526367,0.7615383267402649,0,0)"><path fill="rgb(0,221,213)" fill-opacity="1" d=" M21.47599983215332,-42.04100036621094 C21.47599983215332,-42.04100036621094 -21.47599983215332,-42.04100036621094 -21.47599983215332,-42.04100036621094 C-32.83399963378906,-42.04100036621094 -42.04100036621094,-32.83399963378906 -42.04100036621094,-21.47599983215332 C-42.04100036621094,-21.47599983215332 -42.04100036621094,21.47599983215332 -42.04100036621094,21.47599983215332 C-42.04100036621094,32.83399963378906 -32.83399963378906,42.04100036621094 -21.47599983215332,42.04100036621094 C-21.47599983215332,42.04100036621094 21.47599983215332,42.04100036621094 21.47599983215332,42.04100036621094 C32.83399963378906,42.04100036621094 42.04100036621094,32.83399963378906 42.04100036621094,21.47599983215332 C42.04100036621094,21.47599983215332 42.04100036621094,-21.47599983215332 42.04100036621094,-21.47599983215332 C42.04100036621094,-32.83399963378906 32.83399963378906,-42.04100036621094 21.47599983215332,-42.04100036621094z"></path></g></g><g transform="matrix(1.4639085531234741,-0.4534148871898651,0.4534148871898651,1.4639085531234741,806.9027099609375,1359.0762939453125)" opacity="1" style="display: block;"><g opacity="1" transform="matrix(0.2890318036079407,-0.9573194980621338,0.9573194980621338,0.2890318036079407,0,0)"><path fill="rgb(0,221,213)" fill-opacity="1" d=" M21.47599983215332,-42.04100036621094 C21.47599983215332,-42.04100036621094 -21.47599983215332,-42.04100036621094 -21.47599983215332,-42.04100036621094 C-32.83399963378906,-42.04100036621094 -42.04100036621094,-32.83399963378906 -42.04100036621094,-21.47599983215332 C-42.04100036621094,-21.47599983215332 -42.04100036621094,21.47599983215332 -42.04100036621094,21.47599983215332 C-42.04100036621094,32.83399963378906 -32.83399963378906,42.04100036621094 -21.47599983215332,42.04100036621094 C-21.47599983215332,42.04100036621094 21.47599983215332,42.04100036621094 21.47599983215332,42.04100036621094 C32.83399963378906,42.04100036621094 42.04100036621094,32.83399963378906 42.04100036621094,21.47599983215332 C42.04100036621094,21.47599983215332 42.04100036621094,-21.47599983215332 42.04100036621094,-21.47599983215332 C42.04100036621094,-32.83399963378906 32.83399963378906,-42.04100036621094 21.47599983215332,-42.04100036621094z"></path></g></g><g transform="matrix(1.4639085531234741,-0.4534148871898651,0.4534148871898651,1.4639085531234741,1105.333740234375,1268.5858154296875)" opacity="1" style="display: block;"><g opacity="1" transform="matrix(0.9612616896629333,-0.27563735842704773,0.27563735842704773,0.9612616896629333,0,0)"><path fill="rgb(0,221,213)" fill-opacity="1" d=" M21.47599983215332,-42.04100036621094 C21.47599983215332,-42.04100036621094 -21.47599983215332,-42.04100036621094 -21.47599983215332,-42.04100036621094 C-32.83399963378906,-42.04100036621094 -42.04100036621094,-32.83399963378906 -42.04100036621094,-21.47599983215332 C-42.04100036621094,-21.47599983215332 -42.04100036621094,21.47599983215332 -42.04100036621094,21.47599983215332 C-42.04100036621094,32.83399963378906 -32.83399963378906,42.04100036621094 -21.47599983215332,42.04100036621094 C-21.47599983215332,42.04100036621094 21.47599983215332,42.04100036621094 21.47599983215332,42.04100036621094 C32.83399963378906,42.04100036621094 42.04100036621094,32.83399963378906 42.04100036621094,21.47599983215332 C42.04100036621094,21.47599983215332 42.04100036621094,-21.47599983215332 42.04100036621094,-21.47599983215332 C42.04100036621094,-32.83399963378906 32.83399963378906,-42.04100036621094 21.47599983215332,-42.04100036621094z"></path></g></g><g transform="matrix(1.4639085531234741,-0.4534148871898651,0.4534148871898651,1.4639085531234741,1307.1639404296875,1030.8424072265625)" opacity="1" style="display: block;"><g opacity="1" transform="matrix(0.6586894392967224,-0.752414882183075,0.752414882183075,0.6586894392967224,0,0)"><path fill="rgb(0,221,213)" fill-opacity="1" d=" M21.47599983215332,-42.04100036621094 C21.47599983215332,-42.04100036621094 -21.47599983215332,-42.04100036621094 -21.47599983215332,-42.04100036621094 C-32.83399963378906,-42.04100036621094 -42.04100036621094,-32.83399963378906 -42.04100036621094,-21.47599983215332 C-42.04100036621094,-21.47599983215332 -42.04100036621094,21.47599983215332 -42.04100036621094,21.47599983215332 C-42.04100036621094,32.83399963378906 -32.83399963378906,42.04100036621094 -21.47599983215332,42.04100036621094 C-21.47599983215332,42.04100036621094 21.47599983215332,42.04100036621094 21.47599983215332,42.04100036621094 C32.83399963378906,42.04100036621094 42.04100036621094,32.83399963378906 42.04100036621094,21.47599983215332 C42.04100036621094,21.47599983215332 42.04100036621094,-21.47599983215332 42.04100036621094,-21.47599983215332 C42.04100036621094,-32.83399963378906 32.83399963378906,-42.04100036621094 21.47599983215332,-42.04100036621094z"></path></g></g><g transform="matrix(1.4639085531234741,-0.4534148871898651,0.4534148871898651,1.4639085531234741,1348.0225830078125,721.720947265625)" opacity="1" style="display: block;"><g opacity="1" transform="matrix(0.1460830271244049,-0.9892723560333252,0.9892723560333252,0.1460830271244049,0,0)"><path fill="rgb(0,221,213)" fill-opacity="1" d=" M21.47599983215332,-42.04100036621094 C21.47599983215332,-42.04100036621094 -21.47599983215332,-42.04100036621094 -21.47599983215332,-42.04100036621094 C-32.83399963378906,-42.04100036621094 -42.04100036621094,-32.83399963378906 -42.04100036621094,-21.47599983215332 C-42.04100036621094,-21.47599983215332 -42.04100036621094,21.47599983215332 -42.04100036621094,21.47599983215332 C-42.04100036621094,32.83399963378906 -32.83399963378906,42.04100036621094 -21.47599983215332,42.04100036621094 C-21.47599983215332,42.04100036621094 21.47599983215332,42.04100036621094 21.47599983215332,42.04100036621094 C32.83399963378906,42.04100036621094 42.04100036621094,32.83399963378906 42.04100036621094,21.47599983215332 C42.04100036621094,21.47599983215332 42.04100036621094,-21.47599983215332 42.04100036621094,-21.47599983215332 C42.04100036621094,-32.83399963378906 32.83399963378906,-42.04100036621094 21.47599983215332,-42.04100036621094z"></path></g></g><g transform="matrix(1.4639085531234741,-0.4534148871898651,0.4534148871898651,1.4639085531234741,1214.8763427734375,439.6672668457031)" opacity="1" style="display: block;"><g opacity="1" transform="matrix(0.9106836318969727,-0.41310441493988037,0.41310441493988037,0.9106836318969727,0,0)"><path fill="rgb(0,221,213)" fill-opacity="1" d=" M21.47599983215332,-42.04100036621094 C21.47599983215332,-42.04100036621094 -21.47599983215332,-42.04100036621094 -21.47599983215332,-42.04100036621094 C-32.83399963378906,-42.04100036621094 -42.04100036621094,-32.83399963378906 -42.04100036621094,-21.47599983215332 C-42.04100036621094,-21.47599983215332 -42.04100036621094,21.47599983215332 -42.04100036621094,21.47599983215332 C-42.04100036621094,32.83399963378906 -32.83399963378906,42.04100036621094 -21.47599983215332,42.04100036621094 C-21.47599983215332,42.04100036621094 21.47599983215332,42.04100036621094 21.47599983215332,42.04100036621094 C32.83399963378906,42.04100036621094 42.04100036621094,32.83399963378906 42.04100036621094,21.47599983215332 C42.04100036621094,21.47599983215332 42.04100036621094,-21.47599983215332 42.04100036621094,-21.47599983215332 C42.04100036621094,-32.83399963378906 32.83399963378906,-42.04100036621094 21.47599983215332,-42.04100036621094z"></path></g></g><g transform="matrix(1.4639085531234741,-0.4534148871898651,0.4534148871898651,1.4639085531234741,950.2510375976562,274.76751708984375)" opacity="1" style="display: block;"><g opacity="1" transform="matrix(0.54170823097229,-0.8405665755271912,0.8405665755271912,0.54170823097229,0,0)"><path fill="rgb(0,221,213)" fill-opacity="1" d=" M21.47599983215332,-42.04100036621094 C21.47599983215332,-42.04100036621094 -21.47599983215332,-42.04100036621094 -21.47599983215332,-42.04100036621094 C-32.83399963378906,-42.04100036621094 -42.04100036621094,-32.83399963378906 -42.04100036621094,-21.47599983215332 C-42.04100036621094,-21.47599983215332 -42.04100036621094,21.47599983215332 -42.04100036621094,21.47599983215332 C-42.04100036621094,32.83399963378906 -32.83399963378906,42.04100036621094 -21.47599983215332,42.04100036621094 C-21.47599983215332,42.04100036621094 21.47599983215332,42.04100036621094 21.47599983215332,42.04100036621094 C32.83399963378906,42.04100036621094 42.04100036621094,32.83399963378906 42.04100036621094,21.47599983215332 C42.04100036621094,21.47599983215332 42.04100036621094,-21.47599983215332 42.04100036621094,-21.47599983215332 C42.04100036621094,-32.83399963378906 32.83399963378906,-42.04100036621094 21.47599983215332,-42.04100036621094z"></path></g></g><g transform="matrix(1.4639085531234741,-0.4534148871898651,0.4534148871898651,1.4639085531234741,638.4338989257812,279.53387451171875)" opacity="1" style="display: block;"><g opacity="1" transform="matrix(1,0,0,1,0,0)"><path fill="rgb(0,221,213)" fill-opacity="1" d=" M21.47599983215332,-42.04100036621094 C21.47599983215332,-42.04100036621094 -21.47599983215332,-42.04100036621094 -21.47599983215332,-42.04100036621094 C-32.83399963378906,-42.04100036621094 -42.04100036621094,-32.83399963378906 -42.04100036621094,-21.47599983215332 C-42.04100036621094,-21.47599983215332 -42.04100036621094,21.47599983215332 -42.04100036621094,21.47599983215332 C-42.04100036621094,32.83399963378906 -32.83399963378906,42.04100036621094 -21.47599983215332,42.04100036621094 C-21.47599983215332,42.04100036621094 21.47599983215332,42.04100036621094 21.47599983215332,42.04100036621094 C32.83399963378906,42.04100036621094 42.04100036621094,32.83399963378906 42.04100036621094,21.47599983215332 C42.04100036621094,21.47599983215332 42.04100036621094,-21.47599983215332 42.04100036621094,-21.47599983215332 C42.04100036621094,-32.83399963378906 32.83399963378906,-42.04100036621094 21.47599983215332,-42.04100036621094z"></path></g></g><g transform="matrix(1.4832388162612915,-0.4128621816635132,0.4128621816635132,1.4832388162612915,638.9479370117188,417.4061279296875)" opacity="1" style="display: block;"><g opacity="1" transform="matrix(0.9925461411476135,-0.12186934053897858,0.12186934053897858,0.9925461411476135,0,0)"><path fill="rgb(161,232,232)" fill-opacity="1" d=" M21.47599983215332,-42.04100036621094 C21.47599983215332,-42.04100036621094 -21.47599983215332,-42.04100036621094 -21.47599983215332,-42.04100036621094 C-32.83399963378906,-42.04100036621094 -42.04100036621094,-32.83399963378906 -42.04100036621094,-21.47599983215332 C-42.04100036621094,-21.47599983215332 -42.04100036621094,21.47599983215332 -42.04100036621094,21.47599983215332 C-42.04100036621094,32.83399963378906 -32.83399963378906,42.04100036621094 -21.47599983215332,42.04100036621094 C-21.47599983215332,42.04100036621094 21.47599983215332,42.04100036621094 21.47599983215332,42.04100036621094 C32.83399963378906,42.04100036621094 42.04100036621094,32.83399963378906 42.04100036621094,21.47599983215332 C42.04100036621094,21.47599983215332 42.04100036621094,-21.47599983215332 42.04100036621094,-21.47599983215332 C42.04100036621094,-32.83399963378906 32.83399963378906,-42.04100036621094 21.47599983215332,-42.04100036621094z"></path></g></g><g transform="matrix(1.4832388162612915,-0.4128621816635132,0.4128621816635132,1.4832388162612915,453.9703674316406,567.9536743164062)" opacity="1" style="display: block;"><g opacity="1" transform="matrix(0.7682835459709167,-0.6401097178459167,0.6401097178459167,0.7682835459709167,0,0)"><path fill="rgb(161,232,232)" fill-opacity="1" d=" M21.47599983215332,-42.04100036621094 C21.47599983215332,-42.04100036621094 -21.47599983215332,-42.04100036621094 -21.47599983215332,-42.04100036621094 C-32.83399963378906,-42.04100036621094 -42.04100036621094,-32.83399963378906 -42.04100036621094,-21.47599983215332 C-42.04100036621094,-21.47599983215332 -42.04100036621094,21.47599983215332 -42.04100036621094,21.47599983215332 C-42.04100036621094,32.83399963378906 -32.83399963378906,42.04100036621094 -21.47599983215332,42.04100036621094 C-21.47599983215332,42.04100036621094 21.47599983215332,42.04100036621094 21.47599983215332,42.04100036621094 C32.83399963378906,42.04100036621094 42.04100036621094,32.83399963378906 42.04100036621094,21.47599983215332 C42.04100036621094,21.47599983215332 42.04100036621094,-21.47599983215332 42.04100036621094,-21.47599983215332 C42.04100036621094,-32.83399963378906 32.83399963378906,-42.04100036621094 21.47599983215332,-42.04100036621094z"></path></g></g><g transform="matrix(1.4832388162612915,-0.4128621816635132,0.4128621816635132,1.4832388162612915,380.0381774902344,794.7098388671875)" opacity="1" style="display: block;"><g opacity="1" transform="matrix(0.2990407943725586,-0.9542403221130371,0.9542403221130371,0.2990407943725586,0,0)"><path fill="rgb(161,232,232)" fill-opacity="1" d=" M21.47599983215332,-42.04100036621094 C21.47599983215332,-42.04100036621094 -21.47599983215332,-42.04100036621094 -21.47599983215332,-42.04100036621094 C-32.83399963378906,-42.04100036621094 -42.04100036621094,-32.83399963378906 -42.04100036621094,-21.47599983215332 C-42.04100036621094,-21.47599983215332 -42.04100036621094,21.47599983215332 -42.04100036621094,21.47599983215332 C-42.04100036621094,32.83399963378906 -32.83399963378906,42.04100036621094 -21.47599983215332,42.04100036621094 C-21.47599983215332,42.04100036621094 21.47599983215332,42.04100036621094 21.47599983215332,42.04100036621094 C32.83399963378906,42.04100036621094 42.04100036621094,32.83399963378906 42.04100036621094,21.47599983215332 C42.04100036621094,21.47599983215332 42.04100036621094,-21.47599983215332 42.04100036621094,-21.47599983215332 C42.04100036621094,-32.83399963378906 32.83399963378906,-42.04100036621094 21.47599983215332,-42.04100036621094z"></path></g></g><g transform="matrix(1.4832388162612915,-0.4128621816635132,0.4128621816635132,1.4832388162612915,440.7090759277344,1025.3577880859375)" opacity="1" style="display: block;"><g opacity="1" transform="matrix(0.964095413684845,-0.26555612683296204,0.26555612683296204,0.964095413684845,0,0)"><path fill="rgb(161,232,232)" fill-opacity="1" d=" M21.47599983215332,-42.04100036621094 C21.47599983215332,-42.04100036621094 -21.47599983215332,-42.04100036621094 -21.47599983215332,-42.04100036621094 C-32.83399963378906,-42.04100036621094 -42.04100036621094,-32.83399963378906 -42.04100036621094,-21.47599983215332 C-42.04100036621094,-21.47599983215332 -42.04100036621094,21.47599983215332 -42.04100036621094,21.47599983215332 C-42.04100036621094,32.83399963378906 -32.83399963378906,42.04100036621094 -21.47599983215332,42.04100036621094 C-21.47599983215332,42.04100036621094 21.47599983215332,42.04100036621094 21.47599983215332,42.04100036621094 C32.83399963378906,42.04100036621094 42.04100036621094,32.83399963378906 42.04100036621094,21.47599983215332 C42.04100036621094,21.47599983215332 42.04100036621094,-21.47599983215332 42.04100036621094,-21.47599983215332 C42.04100036621094,-32.83399963378906 32.83399963378906,-42.04100036621094 21.47599983215332,-42.04100036621094z"></path></g></g><g transform="matrix(1.4832388162612915,-0.4128621816635132,0.4128621816635132,1.4832388162612915,616.6861572265625,1186.3228759765625)" opacity="1" style="display: block;"><g opacity="1" transform="matrix(0.6665324568748474,-0.7454760074615479,0.7454760074615479,0.6665324568748474,0,0)"><path fill="rgb(161,232,232)" fill-opacity="1" d=" M21.47599983215332,-42.04100036621094 C21.47599983215332,-42.04100036621094 -21.47599983215332,-42.04100036621094 -21.47599983215332,-42.04100036621094 C-32.83399963378906,-42.04100036621094 -42.04100036621094,-32.83399963378906 -42.04100036621094,-21.47599983215332 C-42.04100036621094,-21.47599983215332 -42.04100036621094,21.47599983215332 -42.04100036621094,21.47599983215332 C-42.04100036621094,32.83399963378906 -32.83399963378906,42.04100036621094 -21.47599983215332,42.04100036621094 C-21.47599983215332,42.04100036621094 21.47599983215332,42.04100036621094 21.47599983215332,42.04100036621094 C32.83399963378906,42.04100036621094 42.04100036621094,32.83399963378906 42.04100036621094,21.47599983215332 C42.04100036621094,21.47599983215332 42.04100036621094,-21.47599983215332 42.04100036621094,-21.47599983215332 C42.04100036621094,-32.83399963378906 32.83399963378906,-42.04100036621094 21.47599983215332,-42.04100036621094z"></path></g></g><g transform="matrix(1.4832388162612915,-0.4128621816635132,0.4128621816635132,1.4832388162612915,851.7440795898438,1226.3662109375)" opacity="1" style="display: block;"><g opacity="1" transform="matrix(0.15643446147441864,-0.9876883625984192,0.9876883625984192,0.15643446147441864,0,0)"><path fill="rgb(161,232,232)" fill-opacity="1" d=" M21.47599983215332,-42.04100036621094 C21.47599983215332,-42.04100036621094 -21.47599983215332,-42.04100036621094 -21.47599983215332,-42.04100036621094 C-32.83399963378906,-42.04100036621094 -42.04100036621094,-32.83399963378906 -42.04100036621094,-21.47599983215332 C-42.04100036621094,-21.47599983215332 -42.04100036621094,21.47599983215332 -42.04100036621094,21.47599983215332 C-42.04100036621094,32.83399963378906 -32.83399963378906,42.04100036621094 -21.47599983215332,42.04100036621094 C-21.47599983215332,42.04100036621094 21.47599983215332,42.04100036621094 21.47599983215332,42.04100036621094 C32.83399963378906,42.04100036621094 42.04100036621094,32.83399963378906 42.04100036621094,21.47599983215332 C42.04100036621094,21.47599983215332 42.04100036621094,-21.47599983215332 42.04100036621094,-21.47599983215332 C42.04100036621094,-32.83399963378906 32.83399963378906,-42.04100036621094 21.47599983215332,-42.04100036621094z"></path></g></g><g transform="matrix(1.4832388162612915,-0.4128621816635132,0.4128621816635132,1.4832388162612915,1071.0478515625,1132.5826416015625)" opacity="1" style="display: block;"><g opacity="1" transform="matrix(0.9149596691131592,-0.4035452902317047,0.4035452902317047,0.9149596691131592,0,0)"><path fill="rgb(161,232,232)" fill-opacity="1" d=" M21.47599983215332,-42.04100036621094 C21.47599983215332,-42.04100036621094 -21.47599983215332,-42.04100036621094 -21.47599983215332,-42.04100036621094 C-32.83399963378906,-42.04100036621094 -42.04100036621094,-32.83399963378906 -42.04100036621094,-21.47599983215332 C-42.04100036621094,-21.47599983215332 -42.04100036621094,21.47599983215332 -42.04100036621094,21.47599983215332 C-42.04100036621094,32.83399963378906 -32.83399963378906,42.04100036621094 -21.47599983215332,42.04100036621094 C-21.47599983215332,42.04100036621094 21.47599983215332,42.04100036621094 21.47599983215332,42.04100036621094 C32.83399963378906,42.04100036621094 42.04100036621094,32.83399963378906 42.04100036621094,21.47599983215332 C42.04100036621094,21.47599983215332 42.04100036621094,-21.47599983215332 42.04100036621094,-21.47599983215332 C42.04100036621094,-32.83399963378906 32.83399963378906,-42.04100036621094 21.47599983215332,-42.04100036621094z"></path></g></g><g transform="matrix(1.4832388162612915,-0.4128621816635132,0.4128621816635132,1.4832388162612915,1204.6405029296875,935.03759765625)" opacity="1" style="display: block;"><g opacity="1" transform="matrix(0.5504807233810425,-0.8348478674888611,0.8348478674888611,0.5504807233810425,0,0)"><path fill="rgb(161,232,232)" fill-opacity="1" d=" M21.47599983215332,-42.04100036621094 C21.47599983215332,-42.04100036621094 -21.47599983215332,-42.04100036621094 -21.47599983215332,-42.04100036621094 C-32.83399963378906,-42.04100036621094 -42.04100036621094,-32.83399963378906 -42.04100036621094,-21.47599983215332 C-42.04100036621094,-21.47599983215332 -42.04100036621094,21.47599983215332 -42.04100036621094,21.47599983215332 C-42.04100036621094,32.83399963378906 -32.83399963378906,42.04100036621094 -21.47599983215332,42.04100036621094 C-21.47599983215332,42.04100036621094 21.47599983215332,42.04100036621094 21.47599983215332,42.04100036621094 C32.83399963378906,42.04100036621094 42.04100036621094,32.83399963378906 42.04100036621094,21.47599983215332 C42.04100036621094,21.47599983215332 42.04100036621094,-21.47599983215332 42.04100036621094,-21.47599983215332 C42.04100036621094,-32.83399963378906 32.83399963378906,-42.04100036621094 21.47599983215332,-42.04100036621094z"></path></g></g><g transform="matrix(1.4832388162612915,-0.4128621816635132,0.4128621816635132,1.4832388162612915,1209.8677978515625,696.6378173828125)" opacity="1" style="display: block;"><g opacity="1" transform="matrix(0.010471784509718418,-0.9999451637268066,0.9999451637268066,0.010471784509718418,0,0)"><path fill="rgb(161,232,232)" fill-opacity="1" d=" M21.47599983215332,-42.04100036621094 C21.47599983215332,-42.04100036621094 -21.47599983215332,-42.04100036621094 -21.47599983215332,-42.04100036621094 C-32.83399963378906,-42.04100036621094 -42.04100036621094,-32.83399963378906 -42.04100036621094,-21.47599983215332 C-42.04100036621094,-21.47599983215332 -42.04100036621094,21.47599983215332 -42.04100036621094,21.47599983215332 C-42.04100036621094,32.83399963378906 -32.83399963378906,42.04100036621094 -21.47599983215332,42.04100036621094 C-21.47599983215332,42.04100036621094 21.47599983215332,42.04100036621094 21.47599983215332,42.04100036621094 C32.83399963378906,42.04100036621094 42.04100036621094,32.83399963378906 42.04100036621094,21.47599983215332 C42.04100036621094,21.47599983215332 42.04100036621094,-21.47599983215332 42.04100036621094,-21.47599983215332 C42.04100036621094,-32.83399963378906 32.83399963378906,-42.04100036621094 21.47599983215332,-42.04100036621094z"></path></g></g><g transform="matrix(1.4832388162612915,-0.4128621816635132,0.4128621816635132,1.4832388162612915,1085.07177734375,493.3802795410156)" opacity="1" style="display: block;"><g opacity="1" transform="matrix(0.8461931943893433,-0.5328762531280518,0.5328762531280518,0.8461931943893433,0,0)"><path fill="rgb(161,232,232)" fill-opacity="1" d=" M21.47599983215332,-42.04100036621094 C21.47599983215332,-42.04100036621094 -21.47599983215332,-42.04100036621094 -21.47599983215332,-42.04100036621094 C-32.83399963378906,-42.04100036621094 -42.04100036621094,-32.83399963378906 -42.04100036621094,-21.47599983215332 C-42.04100036621094,-21.47599983215332 -42.04100036621094,21.47599983215332 -42.04100036621094,21.47599983215332 C-42.04100036621094,32.83399963378906 -32.83399963378906,42.04100036621094 -21.47599983215332,42.04100036621094 C-21.47599983215332,42.04100036621094 21.47599983215332,42.04100036621094 21.47599983215332,42.04100036621094 C32.83399963378906,42.04100036621094 42.04100036621094,32.83399963378906 42.04100036621094,21.47599983215332 C42.04100036621094,21.47599983215332 42.04100036621094,-21.47599983215332 42.04100036621094,-21.47599983215332 C42.04100036621094,-32.83399963378906 32.83399963378906,-42.04100036621094 21.47599983215332,-42.04100036621094z"></path></g></g><g transform="matrix(1.4832388162612915,-0.4128621816635132,0.4128621816635132,1.4832388162612915,870.1578369140625,390.125732421875)" opacity="1" style="display: block;"><g opacity="1" transform="matrix(0.4226182699203491,-0.9063078165054321,0.9063078165054321,0.4226182699203491,0,0)"><path fill="rgb(161,232,232)" fill-opacity="1" d=" M21.47599983215332,-42.04100036621094 C21.47599983215332,-42.04100036621094 -21.47599983215332,-42.04100036621094 -21.47599983215332,-42.04100036621094 C-32.83399963378906,-42.04100036621094 -42.04100036621094,-32.83399963378906 -42.04100036621094,-21.47599983215332 C-42.04100036621094,-21.47599983215332 -42.04100036621094,21.47599983215332 -42.04100036621094,21.47599983215332 C-42.04100036621094,32.83399963378906 -32.83399963378906,42.04100036621094 -21.47599983215332,42.04100036621094 C-21.47599983215332,42.04100036621094 21.47599983215332,42.04100036621094 21.47599983215332,42.04100036621094 C32.83399963378906,42.04100036621094 42.04100036621094,32.83399963378906 42.04100036621094,21.47599983215332 C42.04100036621094,21.47599983215332 42.04100036621094,-21.47599983215332 42.04100036621094,-21.47599983215332 C42.04100036621094,-32.83399963378906 32.83399963378906,-42.04100036621094 21.47599983215332,-42.04100036621094z"></path></g></g><g transform="matrix(1.4867385625839233,-0.40008044242858887,0.40008044242858887,1.4867385625839233,815.2017822265625,515.0779418945312)" opacity="1" style="display: block;"><g opacity="1" transform="matrix(0.30901700258255005,-0.9510565400123596,0.9510565400123596,0.30901700258255005,0,0)"><path fill="rgb(193,245,240)" fill-opacity="1" d=" M21.47599983215332,-42.04100036621094 C21.47599983215332,-42.04100036621094 -21.47599983215332,-42.04100036621094 -21.47599983215332,-42.04100036621094 C-32.83399963378906,-42.04100036621094 -42.04100036621094,-32.83399963378906 -42.04100036621094,-21.47599983215332 C-42.04100036621094,-21.47599983215332 -42.04100036621094,21.47599983215332 -42.04100036621094,21.47599983215332 C-42.04100036621094,32.83399963378906 -32.83399963378906,42.04100036621094 -21.47599983215332,42.04100036621094 C-21.47599983215332,42.04100036621094 21.47599983215332,42.04100036621094 21.47599983215332,42.04100036621094 C32.83399963378906,42.04100036621094 42.04100036621094,32.83399963378906 42.04100036621094,21.47599983215332 C42.04100036621094,21.47599983215332 42.04100036621094,-21.47599983215332 42.04100036621094,-21.47599983215332 C42.04100036621094,-32.83399963378906 32.83399963378906,-42.04100036621094 21.47599983215332,-42.04100036621094z"></path></g></g><g transform="matrix(1.4867385625839233,-0.40008044242858887,0.40008044242858887,1.4867385625839233,655.02587890625,554.5587158203125)" opacity="1" style="display: block;"><g opacity="1" transform="matrix(0.966823399066925,-0.2554457485675812,0.2554457485675812,0.966823399066925,0,0)"><path fill="rgb(193,245,240)" fill-opacity="1" d=" M21.47599983215332,-42.04100036621094 C21.47599983215332,-42.04100036621094 -21.47599983215332,-42.04100036621094 -21.47599983215332,-42.04100036621094 C-32.83399963378906,-42.04100036621094 -42.04100036621094,-32.83399963378906 -42.04100036621094,-21.47599983215332 C-42.04100036621094,-21.47599983215332 -42.04100036621094,21.47599983215332 -42.04100036621094,21.47599983215332 C-42.04100036621094,32.83399963378906 -32.83399963378906,42.04100036621094 -21.47599983215332,42.04100036621094 C-21.47599983215332,42.04100036621094 21.47599983215332,42.04100036621094 21.47599983215332,42.04100036621094 C32.83399963378906,42.04100036621094 42.04100036621094,32.83399963378906 42.04100036621094,21.47599983215332 C42.04100036621094,21.47599983215332 42.04100036621094,-21.47599983215332 42.04100036621094,-21.47599983215332 C42.04100036621094,-32.83399963378906 32.83399963378906,-42.04100036621094 21.47599983215332,-42.04100036621094z"></path></g></g><g transform="matrix(1.4867385625839233,-0.40008044242858887,0.40008044242858887,1.4867385625839233,541.7466430664062,674.4783935546875)" opacity="1" style="display: block;"><g opacity="1" transform="matrix(0.6743023991584778,-0.7384553551673889,0.7384553551673889,0.6743023991584778,0,0)"><path fill="rgb(193,245,240)" fill-opacity="1" d=" M21.47599983215332,-42.04100036621094 C21.47599983215332,-42.04100036621094 -21.47599983215332,-42.04100036621094 -21.47599983215332,-42.04100036621094 C-32.83399963378906,-42.04100036621094 -42.04100036621094,-32.83399963378906 -42.04100036621094,-21.47599983215332 C-42.04100036621094,-21.47599983215332 -42.04100036621094,21.47599983215332 -42.04100036621094,21.47599983215332 C-42.04100036621094,32.83399963378906 -32.83399963378906,42.04100036621094 -21.47599983215332,42.04100036621094 C-21.47599983215332,42.04100036621094 21.47599983215332,42.04100036621094 21.47599983215332,42.04100036621094 C32.83399963378906,42.04100036621094 42.04100036621094,32.83399963378906 42.04100036621094,21.47599983215332 C42.04100036621094,21.47599983215332 42.04100036621094,-21.47599983215332 42.04100036621094,-21.47599983215332 C42.04100036621094,-32.83399963378906 32.83399963378906,-42.04100036621094 21.47599983215332,-42.04100036621094z"></path></g></g><g transform="matrix(1.4867385625839233,-0.40008044242858887,0.40008044242858887,1.4867385625839233,511.48480224609375,836.6615600585938)" opacity="1" style="display: block;"><g opacity="1" transform="matrix(0.16676874458789825,-0.9859960079193115,0.9859960079193115,0.16676874458789825,0,0)"><path fill="rgb(193,245,240)" fill-opacity="1" d=" M21.47599983215332,-42.04100036621094 C21.47599983215332,-42.04100036621094 -21.47599983215332,-42.04100036621094 -21.47599983215332,-42.04100036621094 C-32.83399963378906,-42.04100036621094 -42.04100036621094,-32.83399963378906 -42.04100036621094,-21.47599983215332 C-42.04100036621094,-21.47599983215332 -42.04100036621094,21.47599983215332 -42.04100036621094,21.47599983215332 C-42.04100036621094,32.83399963378906 -32.83399963378906,42.04100036621094 -21.47599983215332,42.04100036621094 C-21.47599983215332,42.04100036621094 21.47599983215332,42.04100036621094 21.47599983215332,42.04100036621094 C32.83399963378906,42.04100036621094 42.04100036621094,32.83399963378906 42.04100036621094,21.47599983215332 C42.04100036621094,21.47599983215332 42.04100036621094,-21.47599983215332 42.04100036621094,-21.47599983215332 C42.04100036621094,-32.83399963378906 32.83399963378906,-42.04100036621094 21.47599983215332,-42.04100036621094z"></path></g></g><g transform="matrix(1.4867385625839233,-0.40008044242858887,0.40008044242858887,1.4867385625839233,573.9557495117188,989.3800659179688)" opacity="1" style="display: block;"><g opacity="1" transform="matrix(0.919135332107544,-0.3939419090747833,0.3939419090747833,0.919135332107544,0,0)"><path fill="rgb(193,245,240)" fill-opacity="1" d=" M21.47599983215332,-42.04100036621094 C21.47599983215332,-42.04100036621094 -21.47599983215332,-42.04100036621094 -21.47599983215332,-42.04100036621094 C-32.83399963378906,-42.04100036621094 -42.04100036621094,-32.83399963378906 -42.04100036621094,-21.47599983215332 C-42.04100036621094,-21.47599983215332 -42.04100036621094,21.47599983215332 -42.04100036621094,21.47599983215332 C-42.04100036621094,32.83399963378906 -32.83399963378906,42.04100036621094 -21.47599983215332,42.04100036621094 C-21.47599983215332,42.04100036621094 21.47599983215332,42.04100036621094 21.47599983215332,42.04100036621094 C32.83399963378906,42.04100036621094 42.04100036621094,32.83399963378906 42.04100036621094,21.47599983215332 C42.04100036621094,21.47599983215332 42.04100036621094,-21.47599983215332 42.04100036621094,-21.47599983215332 C42.04100036621094,-32.83399963378906 32.83399963378906,-42.04100036621094 21.47599983215332,-42.04100036621094z"></path></g></g><g transform="matrix(1.4867385625839233,-0.40008044242858887,0.40008044242858887,1.4867385625839233,709.1517944335938,1083.884765625)" opacity="1" style="display: block;"><g opacity="1" transform="matrix(0.5591928958892822,-0.8290375471115112,0.8290375471115112,0.5591928958892822,0,0)"><path fill="rgb(193,245,240)" fill-opacity="1" d=" M21.47599983215332,-42.04100036621094 C21.47599983215332,-42.04100036621094 -21.47599983215332,-42.04100036621094 -21.47599983215332,-42.04100036621094 C-32.83399963378906,-42.04100036621094 -42.04100036621094,-32.83399963378906 -42.04100036621094,-21.47599983215332 C-42.04100036621094,-21.47599983215332 -42.04100036621094,21.47599983215332 -42.04100036621094,21.47599983215332 C-42.04100036621094,32.83399963378906 -32.83399963378906,42.04100036621094 -21.47599983215332,42.04100036621094 C-21.47599983215332,42.04100036621094 21.47599983215332,42.04100036621094 21.47599983215332,42.04100036621094 C32.83399963378906,42.04100036621094 42.04100036621094,32.83399963378906 42.04100036621094,21.47599983215332 C42.04100036621094,21.47599983215332 42.04100036621094,-21.47599983215332 42.04100036621094,-21.47599983215332 C42.04100036621094,-32.83399963378906 32.83399963378906,-42.04100036621094 21.47599983215332,-42.04100036621094z"></path></g></g><g transform="matrix(1.4867385625839233,-0.40008044242858887,0.40008044242858887,1.4867385625839233,873.9973754882812,1090.0960693359375)" opacity="1" style="display: block;"><g opacity="1" transform="matrix(0.02094241976737976,-0.9997806549072266,0.9997806549072266,0.02094241976737976,0,0)"><path fill="rgb(193,245,240)" fill-opacity="1" d=" M21.47599983215332,-42.04100036621094 C21.47599983215332,-42.04100036621094 -21.47599983215332,-42.04100036621094 -21.47599983215332,-42.04100036621094 C-32.83399963378906,-42.04100036621094 -42.04100036621094,-32.83399963378906 -42.04100036621094,-21.47599983215332 C-42.04100036621094,-21.47599983215332 -42.04100036621094,21.47599983215332 -42.04100036621094,21.47599983215332 C-42.04100036621094,32.83399963378906 -32.83399963378906,42.04100036621094 -21.47599983215332,42.04100036621094 C-21.47599983215332,42.04100036621094 21.47599983215332,42.04100036621094 21.47599983215332,42.04100036621094 C32.83399963378906,42.04100036621094 42.04100036621094,32.83399963378906 42.04100036621094,21.47599983215332 C42.04100036621094,21.47599983215332 42.04100036621094,-21.47599983215332 42.04100036621094,-21.47599983215332 C42.04100036621094,-32.83399963378906 32.83399963378906,-42.04100036621094 21.47599983215332,-42.04100036621094z"></path></g></g><g transform="matrix(1.4867385625839233,-0.40008044242858887,0.40008044242858887,1.4867385625839233,1015.9592895507812,1006.0377197265625)" opacity="1" style="display: block;"><g opacity="1" transform="matrix(0.8517269492149353,-0.5239859223365784,0.5239859223365784,0.8517269492149353,0,0)"><path fill="rgb(193,245,240)" fill-opacity="1" d=" M21.47599983215332,-42.04100036621094 C21.47599983215332,-42.04100036621094 -21.47599983215332,-42.04100036621094 -21.47599983215332,-42.04100036621094 C-32.83399963378906,-42.04100036621094 -42.04100036621094,-32.83399963378906 -42.04100036621094,-21.47599983215332 C-42.04100036621094,-21.47599983215332 -42.04100036621094,21.47599983215332 -42.04100036621094,21.47599983215332 C-42.04100036621094,32.83399963378906 -32.83399963378906,42.04100036621094 -21.47599983215332,42.04100036621094 C-21.47599983215332,42.04100036621094 21.47599983215332,42.04100036621094 21.47599983215332,42.04100036621094 C32.83399963378906,42.04100036621094 42.04100036621094,32.83399963378906 42.04100036621094,21.47599983215332 C42.04100036621094,21.47599983215332 42.04100036621094,-21.47599983215332 42.04100036621094,-21.47599983215332 C42.04100036621094,-32.83399963378906 32.83399963378906,-42.04100036621094 21.47599983215332,-42.04100036621094z"></path></g></g><g transform="matrix(1.4867385625839233,-0.40008044242858887,0.40008044242858887,1.4867385625839233,1089.70849609375,858.5314331054688)" opacity="1" style="display: block;"><g opacity="1" transform="matrix(0.4320857524871826,-0.9018325209617615,0.9018325209617615,0.4320857524871826,0,0)"><path fill="rgb(193,245,240)" fill-opacity="1" d=" M21.47599983215332,-42.04100036621094 C21.47599983215332,-42.04100036621094 -21.47599983215332,-42.04100036621094 -21.47599983215332,-42.04100036621094 C-32.83399963378906,-42.04100036621094 -42.04100036621094,-32.83399963378906 -42.04100036621094,-21.47599983215332 C-42.04100036621094,-21.47599983215332 -42.04100036621094,21.47599983215332 -42.04100036621094,21.47599983215332 C-42.04100036621094,32.83399963378906 -32.83399963378906,42.04100036621094 -21.47599983215332,42.04100036621094 C-21.47599983215332,42.04100036621094 21.47599983215332,42.04100036621094 21.47599983215332,42.04100036621094 C32.83399963378906,42.04100036621094 42.04100036621094,32.83399963378906 42.04100036621094,21.47599983215332 C42.04100036621094,21.47599983215332 42.04100036621094,-21.47599983215332 42.04100036621094,-21.47599983215332 C42.04100036621094,-32.83399963378906 32.83399963378906,-42.04100036621094 21.47599983215332,-42.04100036621094z"></path></g></g><g transform="matrix(1.4867385625839233,-0.40008044242858887,0.40008044242858887,1.4867385625839233,1071.7681884765625,694.5281372070312)" opacity="1" style="display: block;"><g opacity="1" transform="matrix(0.9921147227287292,-0.12533323466777802,0.12533323466777802,0.9921147227287292,0,0)"><path fill="rgb(193,245,240)" fill-opacity="1" d=" M21.47599983215332,-42.04100036621094 C21.47599983215332,-42.04100036621094 -21.47599983215332,-42.04100036621094 -21.47599983215332,-42.04100036621094 C-32.83399963378906,-42.04100036621094 -42.04100036621094,-32.83399963378906 -42.04100036621094,-21.47599983215332 C-42.04100036621094,-21.47599983215332 -42.04100036621094,21.47599983215332 -42.04100036621094,21.47599983215332 C-42.04100036621094,32.83399963378906 -32.83399963378906,42.04100036621094 -21.47599983215332,42.04100036621094 C-21.47599983215332,42.04100036621094 21.47599983215332,42.04100036621094 21.47599983215332,42.04100036621094 C32.83399963378906,42.04100036621094 42.04100036621094,32.83399963378906 42.04100036621094,21.47599983215332 C42.04100036621094,21.47599983215332 42.04100036621094,-21.47599983215332 42.04100036621094,-21.47599983215332 C42.04100036621094,-32.83399963378906 32.83399963378906,-42.04100036621094 21.47599983215332,-42.04100036621094z"></path></g></g><g transform="matrix(1.4867385625839233,-0.40008044242858887,0.40008044242858887,1.4867385625839233,967.8635864257812,566.374755859375)" opacity="1" style="display: block;"><g opacity="1" transform="matrix(0.7660444378852844,-0.6427876353263855,0.6427876353263855,0.7660444378852844,0,0)"><path fill="rgb(193,245,240)" fill-opacity="1" d=" M21.47599983215332,-42.04100036621094 C21.47599983215332,-42.04100036621094 -21.47599983215332,-42.04100036621094 -21.47599983215332,-42.04100036621094 C-32.83399963378906,-42.04100036621094 -42.04100036621094,-32.83399963378906 -42.04100036621094,-21.47599983215332 C-42.04100036621094,-21.47599983215332 -42.04100036621094,21.47599983215332 -42.04100036621094,21.47599983215332 C-42.04100036621094,32.83399963378906 -32.83399963378906,42.04100036621094 -21.47599983215332,42.04100036621094 C-21.47599983215332,42.04100036621094 21.47599983215332,42.04100036621094 21.47599983215332,42.04100036621094 C32.83399963378906,42.04100036621094 42.04100036621094,32.83399963378906 42.04100036621094,21.47599983215332 C42.04100036621094,21.47599983215332 42.04100036621094,-21.47599983215332 42.04100036621094,-21.47599983215332 C42.04100036621094,-32.83399963378906 32.83399963378906,-42.04100036621094 21.47599983215332,-42.04100036621094z"></path></g></g></g><g clip-path="url(#__lottie_element_5060)" transform="matrix(1,0,0,1,-150,-150)" opacity="1" style="display: none;"><g transform="matrix(-0.30611783266067505,-0.5700427293777466,0.5700427293777466,-0.30611783266067505,556.800048828125,821.7211303710938)" opacity="0.034341722649832346" style="display: block;"><g opacity="1" transform="matrix(1,0,0,1,-148.25,7.25)"><path fill="rgb(193,245,240)" fill-opacity="1" d=" M60,-25.5 C60,-25.5 60,25.5 60,25.5 C60,44.540550231933594 44.540550231933594,60 25.5,60 C25.5,60 -25.5,60 -25.5,60 C-44.540550231933594,60 -60,44.540550231933594 -60,25.5 C-60,25.5 -60,-25.5 -60,-25.5 C-60,-44.540550231933594 -44.540550231933594,-60 -25.5,-60 C-25.5,-60 25.5,-60 25.5,-60 C44.540550231933594,-60 60,-44.540550231933594 60,-25.5z"></path></g></g><g transform="matrix(-0.56570965051651,-0.31405338644981384,0.31405338644981384,-0.56570965051651,607.1497802734375,949.755859375)" opacity="0.034341722649832346" style="display: block;"><g opacity="1" transform="matrix(1,0,0,1,-148.25,7.25)"><path fill="rgb(193,245,240)" fill-opacity="1" d=" M60,-25.5 C60,-25.5 60,25.5 60,25.5 C60,44.540550231933594 44.540550231933594,60 25.5,60 C25.5,60 -25.5,60 -25.5,60 C-44.540550231933594,60 -60,44.540550231933594 -60,25.5 C-60,25.5 -60,-25.5 -60,-25.5 C-60,-44.540550231933594 -44.540550231933594,-60 -25.5,-60 C-25.5,-60 25.5,-60 25.5,-60 C44.540550231933594,-60 60,-44.540550231933594 60,-25.5z"></path></g></g><g transform="matrix(-0.6456954479217529,0.041644103825092316,-0.041644103825092316,-0.6456954479217529,718.7271118164062,1030.244873046875)" opacity="0.034341722649832346" style="display: block;"><g opacity="1" transform="matrix(1,0,0,1,-148.25,7.25)"><path fill="rgb(193,245,240)" fill-opacity="1" d=" M60,-25.5 C60,-25.5 60,25.5 60,25.5 C60,44.540550231933594 44.540550231933594,60 25.5,60 C25.5,60 -25.5,60 -25.5,60 C-44.540550231933594,60 -60,44.540550231933594 -60,25.5 C-60,25.5 -60,-25.5 -60,-25.5 C-60,-44.540550231933594 -44.540550231933594,-60 -25.5,-60 C-25.5,-60 25.5,-60 25.5,-60 C44.540550231933594,-60 60,-44.540550231933594 60,-25.5z"></path></g></g><g transform="matrix(-0.5206742286682129,0.38412919640541077,-0.38412919640541077,-0.5206742286682129,856.1117553710938,1037.633056640625)" opacity="0.034341722649832346" style="display: block;"><g opacity="1" transform="matrix(1,0,0,1,-148.25,7.25)"><path fill="rgb(193,245,240)" fill-opacity="1" d=" M60,-25.5 C60,-25.5 60,25.5 60,25.5 C60,44.540550231933594 44.540550231933594,60 25.5,60 C25.5,60 -25.5,60 -25.5,60 C-44.540550231933594,60 -60,44.540550231933594 -60,25.5 C-60,25.5 -60,-25.5 -60,-25.5 C-60,-44.540550231933594 -44.540550231933594,-60 -25.5,-60 C-25.5,-60 25.5,-60 25.5,-60 C44.540550231933594,-60 60,-44.540550231933594 60,-25.5z"></path></g></g><g transform="matrix(-0.23034599423408508,0.6046466827392578,-0.6046466827392578,-0.23034599423408508,975.6775512695312,969.57421875)" opacity="0.034341722649832346" style="display: block;"><g opacity="1" transform="matrix(1,0,0,1,-148.25,7.25)"><path fill="rgb(193,245,240)" fill-opacity="1" d=" M60,-25.5 C60,-25.5 60,25.5 60,25.5 C60,44.540550231933594 44.540550231933594,60 25.5,60 C25.5,60 -25.5,60 -25.5,60 C-44.540550231933594,60 -60,44.540550231933594 -60,25.5 C-60,25.5 -60,-25.5 -60,-25.5 C-60,-44.540550231933594 -44.540550231933594,-60 -25.5,-60 C-25.5,-60 25.5,-60 25.5,-60 C44.540550231933594,-60 60,-44.540550231933594 60,-25.5z"></path></g></g><g transform="matrix(0.133114293217659,0.633196234703064,-0.633196234703064,0.133114293217659,1039.4678955078125,847.6776123046875)" opacity="0.034341722649832346" style="display: block;"><g opacity="1" transform="matrix(1,0,0,1,-148.25,7.25)"><path fill="rgb(193,245,240)" fill-opacity="1" d=" M60,-25.5 C60,-25.5 60,25.5 60,25.5 C60,44.540550231933594 44.540550231933594,60 25.5,60 C25.5,60 -25.5,60 -25.5,60 C-44.540550231933594,60 -60,44.540550231933594 -60,25.5 C-60,25.5 -60,-25.5 -60,-25.5 C-60,-44.540550231933594 -44.540550231933594,-60 -25.5,-60 C-25.5,-60 25.5,-60 25.5,-60 C44.540550231933594,-60 60,-44.540550231933594 60,-25.5z"></path></g></g><g transform="matrix(0.45431241393089294,0.4607136845588684,-0.4607136845588684,0.45431241393089294,1027.2301025390625,710.6439208984375)" opacity="0.034341722649832346" style="display: block;"><g opacity="1" transform="matrix(1,0,0,1,-148.25,7.25)"><path fill="rgb(193,245,240)" fill-opacity="1" d=" M60,-25.5 C60,-25.5 60,25.5 60,25.5 C60,44.540550231933594 44.540550231933594,60 25.5,60 C25.5,60 -25.5,60 -25.5,60 C-44.540550231933594,60 -60,44.540550231933594 -60,25.5 C-60,25.5 -60,-25.5 -60,-25.5 C-60,-44.540550231933594 -44.540550231933594,-60 -25.5,-60 C-25.5,-60 25.5,-60 25.5,-60 C44.540550231933594,-60 60,-44.540550231933594 60,-25.5z"></path></g></g><g transform="matrix(0.6312743425369263,0.14194916188716888,-0.14194916188716888,0.6312743425369263,942.8460693359375,601.9772338867188)" opacity="0.034341722649832346" style="display: block;"><g opacity="1" transform="matrix(1,0,0,1,-148.25,7.25)"><path fill="rgb(193,245,240)" fill-opacity="1" d=" M60,-25.5 C60,-25.5 60,25.5 60,25.5 C60,44.540550231933594 44.540550231933594,60 25.5,60 C25.5,60 -25.5,60 -25.5,60 C-44.540550231933594,60 -60,44.540550231933594 -60,25.5 C-60,25.5 -60,-25.5 -60,-25.5 C-60,-44.540550231933594 -44.540550231933594,-60 -25.5,-60 C-25.5,-60 25.5,-60 25.5,-60 C44.540550231933594,-60 60,-44.540550231933594 60,-25.5z"></path></g></g><g transform="matrix(0.6078063249588013,-0.22187453508377075,0.22187453508377075,0.6078063249588013,813.1116943359375,556.184326171875)" opacity="0.034341722649832346" style="display: block;"><g opacity="1" transform="matrix(1,0,0,1,-148.25,7.25)"><path fill="rgb(193,245,240)" fill-opacity="1" d=" M60,-25.5 C60,-25.5 60,25.5 60,25.5 C60,44.540550231933594 44.540550231933594,60 25.5,60 C25.5,60 -25.5,60 -25.5,60 C-44.540550231933594,60 -60,44.540550231933594 -60,25.5 C-60,25.5 -60,-25.5 -60,-25.5 C-60,-44.540550231933594 -44.540550231933594,-60 -25.5,-60 C-25.5,-60 25.5,-60 25.5,-60 C44.540550231933594,-60 60,-44.540550231933594 60,-25.5z"></path></g></g><g transform="matrix(0.3913672864437103,-0.5152558088302612,0.5152558088302612,0.3913672864437103,679.2145385742188,587.7998657226562)" opacity="0.034341722649832346" style="display: block;"><g opacity="1" transform="matrix(1,0,0,1,-148.25,7.25)"><path fill="rgb(193,245,240)" fill-opacity="1" d=" M60,-25.5 C60,-25.5 60,25.5 60,25.5 C60,44.540550231933594 44.540550231933594,60 25.5,60 C25.5,60 -25.5,60 -25.5,60 C-44.540550231933594,60 -60,44.540550231933594 -60,25.5 C-60,25.5 -60,-25.5 -60,-25.5 C-60,-44.540550231933594 -44.540550231933594,-60 -25.5,-60 C-25.5,-60 25.5,-60 25.5,-60 C44.540550231933594,-60 60,-44.540550231933594 60,-25.5z"></path></g></g><g transform="matrix(0.05066259577870369,-0.6450505256652832,0.6450505256652832,0.05066259577870369,583.663330078125,686.7901611328125)" opacity="0.034341722649832346" style="display: block;"><g opacity="1" transform="matrix(1,0,0,1,-148.25,7.25)"><path fill="rgb(193,245,240)" fill-opacity="1" d=" M60,-25.5 C60,-25.5 60,25.5 60,25.5 C60,44.540550231933594 44.540550231933594,60 25.5,60 C25.5,60 -25.5,60 -25.5,60 C-44.540550231933594,60 -60,44.540550231933594 -60,25.5 C-60,25.5 -60,-25.5 -60,-25.5 C-60,-44.540550231933594 -44.540550231933594,-60 -25.5,-60 C-25.5,-60 25.5,-60 25.5,-60 C44.540550231933594,-60 60,-44.540550231933594 60,-25.5z"></path></g></g><g transform="matrix(0.014908076263964176,0,0,0.014908076263964176,799.7611694335938,807.6419067382812)" opacity="1" style="display: block;"><g opacity="1" transform="matrix(1,0,0,0,-148.25,7.25)"><path fill="rgb(0,221,213)" fill-opacity="1" d=" M60,-25.5 C60,-25.5 60,25.5 60,25.5 C60,44.540550231933594 44.540550231933594,60 25.5,60 C25.5,60 -25.5,60 -25.5,60 C-44.540550231933594,60 -60,44.540550231933594 -60,25.5 C-60,25.5 -60,-25.5 -60,-25.5 C-60,-44.540550231933594 -44.540550231933594,-60 -25.5,-60 C-25.5,-60 25.5,-60 25.5,-60 C44.540550231933594,-60 60,-44.540550231933594 60,-25.5z"></path><path stroke-linecap="butt" stroke-linejoin="miter" fill-opacity="0" stroke-miterlimit="4" stroke="rgb(33,10,47)" stroke-opacity="1" stroke-width="0" d=" M60,-25.5 C60,-25.5 60,25.5 60,25.5 C60,44.540550231933594 44.540550231933594,60 25.5,60 C25.5,60 -25.5,60 -25.5,60 C-44.540550231933594,60 -60,44.540550231933594 -60,25.5 C-60,25.5 -60,-25.5 -60,-25.5 C-60,-44.540550231933594 -44.540550231933594,-60 -25.5,-60 C-25.5,-60 25.5,-60 25.5,-60 C44.540550231933594,-60 60,-44.540550231933594 60,-25.5z"></path></g></g><g transform="matrix(0.014908076263964176,0,0,0.014908076263964176,804.1590576171875,807.6419067382812)" opacity="1" style="display: block;"><g opacity="1" transform="matrix(1,0,0,0,-148.25,7.25)"><path fill="rgb(0,221,213)" fill-opacity="1" d=" M60,-25.5 C60,-25.5 60,25.5 60,25.5 C60,44.540550231933594 44.540550231933594,60 25.5,60 C25.5,60 -25.5,60 -25.5,60 C-44.540550231933594,60 -60,44.540550231933594 -60,25.5 C-60,25.5 -60,-25.5 -60,-25.5 C-60,-44.540550231933594 -44.540550231933594,-60 -25.5,-60 C-25.5,-60 25.5,-60 25.5,-60 C44.540550231933594,-60 60,-44.540550231933594 60,-25.5z"></path><path stroke-linecap="butt" stroke-linejoin="miter" fill-opacity="0" stroke-miterlimit="4" stroke="rgb(33,10,47)" stroke-opacity="1" stroke-width="0" d=" M60,-25.5 C60,-25.5 60,25.5 60,25.5 C60,44.540550231933594 44.540550231933594,60 25.5,60 C25.5,60 -25.5,60 -25.5,60 C-44.540550231933594,60 -60,44.540550231933594 -60,25.5 C-60,25.5 -60,-25.5 -60,-25.5 C-60,-44.540550231933594 -44.540550231933594,-60 -25.5,-60 C-25.5,-60 25.5,-60 25.5,-60 C44.540550231933594,-60 60,-44.540550231933594 60,-25.5z"></path></g></g></g></g></svg>