<svg xmlns="http://www.w3.org/2000/svg" viewBox="0 0 1300 1300" width="1300" height="1300" preserveAspectRatio="xMidYMid meet" style="width: 100%; height: 100%; transform: translate3d(0px, 0px, 0px); content-visibility: visible;"><defs><clipPath id="__lottie_element_2606"><rect width="1300" height="1300" x="0" y="0"></rect></clipPath><clipPath id="__lottie_element_2608"><path d="M0,0 L1600,0 L1600,1600 L0,1600z"></path></clipPath><clipPath id="__lottie_element_2613"><path d="M0,0 L1600,0 L1600,1600 L0,1600z"></path></clipPath><clipPath id="__lottie_element_2685"><path d="M0,0 L1600,0 L1600,1600 L0,1600z"></path></clipPath><clipPath id="__lottie_element_2757"><path d="M0,0 L1600,0 L1600,1600 L0,1600z"></path></clipPath></defs><g clip-path="url(#__lottie_element_2606)"><g clip-path="url(#__lottie_element_2608)" transform="matrix(1,0,0,1,-150,-150)" opacity="1" style="display: block;"><g clip-path="url(#__lottie_element_2613)" transform="matrix(1,0,0,1,0,0)" opacity="1" style="display: block;"><g transform="matrix(0.15993469953536987,0.990415096282959,-0.990415096282959,0.15993469953536987,1292.82666015625,967.5096435546875)" opacity="1" style="display: block;"><g opacity="1" transform="matrix(1,0,0,1,-148.25,7.25)"><path fill="rgb(221,4,168)" fill-opacity="1" d=" M60,-23.5 C60,-23.5 60,23.5 60,23.5 C60,43.64434814453125 43.64434814453125,60 23.5,60 C23.5,60 -23.5,60 -23.5,60 C-43.64434814453125,60 -60,43.64434814453125 -60,23.5 C-60,23.5 -60,-23.5 -60,-23.5 C-60,-43.64434814453125 -43.64434814453125,-60 -23.5,-60 C-23.5,-60 23.5,-60 23.5,-60 C43.64434814453125,-60 60,-43.64434814453125 60,-23.5z"></path><path stroke-linecap="butt" stroke-linejoin="miter" fill-opacity="0" stroke-miterlimit="4" stroke="rgb(33,10,47)" stroke-opacity="1" stroke-width="0" d=" M60,-23.5 C60,-23.5 60,23.5 60,23.5 C60,43.64434814453125 43.64434814453125,60 23.5,60 C23.5,60 -23.5,60 -23.5,60 C-43.64434814453125,60 -60,43.64434814453125 -60,23.5 C-60,23.5 -60,-23.5 -60,-23.5 C-60,-43.64434814453125 -43.64434814453125,-60 -23.5,-60 C-23.5,-60 23.5,-60 23.5,-60 C43.64434814453125,-60 60,-43.64434814453125 60,-23.5z"></path></g></g><g transform="matrix(-0.4009248614311218,0.9196522831916809,-0.9196522831916809,-0.4009248614311218,1124.0279541015625,1207.3599853515625)" opacity="1" style="display: block;"><g opacity="1" transform="matrix(1,0,0,1,-148.25,7.25)"><path fill="rgb(221,4,168)" fill-opacity="1" d=" M60,-23.5 C60,-23.5 60,23.5 60,23.5 C60,43.64434814453125 43.64434814453125,60 23.5,60 C23.5,60 -23.5,60 -23.5,60 C-43.64434814453125,60 -60,43.64434814453125 -60,23.5 C-60,23.5 -60,-23.5 -60,-23.5 C-60,-43.64434814453125 -43.64434814453125,-60 -23.5,-60 C-23.5,-60 23.5,-60 23.5,-60 C43.64434814453125,-60 60,-43.64434814453125 60,-23.5z"></path><path stroke-linecap="butt" stroke-linejoin="miter" fill-opacity="0" stroke-miterlimit="4" stroke="rgb(33,10,47)" stroke-opacity="1" stroke-width="0" d=" M60,-23.5 C60,-23.5 60,23.5 60,23.5 C60,43.64434814453125 43.64434814453125,60 23.5,60 C23.5,60 -23.5,60 -23.5,60 C-43.64434814453125,60 -60,43.64434814453125 -60,23.5 C-60,23.5 -60,-23.5 -60,-23.5 C-60,-43.64434814453125 -43.64434814453125,-60 -23.5,-60 C-23.5,-60 23.5,-60 23.5,-60 C43.64434814453125,-60 60,-43.64434814453125 60,-23.5z"></path></g></g><g transform="matrix(-0.8344783186912537,0.556908369064331,-0.556908369064331,-0.8344783186912537,852.354248046875,1317.876708984375)" opacity="1" style="display: block;"><g opacity="1" transform="matrix(1,0,0,1,-148.25,7.25)"><path fill="rgb(221,4,168)" fill-opacity="1" d=" M60,-23.5 C60,-23.5 60,23.5 60,23.5 C60,43.64434814453125 43.64434814453125,60 23.5,60 C23.5,60 -23.5,60 -23.5,60 C-43.64434814453125,60 -60,43.64434814453125 -60,23.5 C-60,23.5 -60,-23.5 -60,-23.5 C-60,-43.64434814453125 -43.64434814453125,-60 -23.5,-60 C-23.5,-60 23.5,-60 23.5,-60 C43.64434814453125,-60 60,-43.64434814453125 60,-23.5z"></path><path stroke-linecap="butt" stroke-linejoin="miter" fill-opacity="0" stroke-miterlimit="4" stroke="rgb(33,10,47)" stroke-opacity="1" stroke-width="0" d=" M60,-23.5 C60,-23.5 60,23.5 60,23.5 C60,43.64434814453125 43.64434814453125,60 23.5,60 C23.5,60 -23.5,60 -23.5,60 C-43.64434814453125,60 -60,43.64434814453125 -60,23.5 C-60,23.5 -60,-23.5 -60,-23.5 C-60,-43.64434814453125 -43.64434814453125,-60 -23.5,-60 C-23.5,-60 23.5,-60 23.5,-60 C43.64434814453125,-60 60,-43.64434814453125 60,-23.5z"></path></g></g><g transform="matrix(-1.0030951499938965,0.017352834343910217,-0.017352834343910217,-1.0030951499938965,564.0580444335938,1263.9715576171875)" opacity="1" style="display: block;"><g opacity="1" transform="matrix(1,0,0,1,-148.25,7.25)"><path fill="rgb(221,4,168)" fill-opacity="1" d=" M60,-23.5 C60,-23.5 60,23.5 60,23.5 C60,43.64434814453125 43.64434814453125,60 23.5,60 C23.5,60 -23.5,60 -23.5,60 C-43.64434814453125,60 -60,43.64434814453125 -60,23.5 C-60,23.5 -60,-23.5 -60,-23.5 C-60,-43.64434814453125 -43.64434814453125,-60 -23.5,-60 C-23.5,-60 23.5,-60 23.5,-60 C43.64434814453125,-60 60,-43.64434814453125 60,-23.5z"></path><path stroke-linecap="butt" stroke-linejoin="miter" fill-opacity="0" stroke-miterlimit="4" stroke="rgb(33,10,47)" stroke-opacity="1" stroke-width="0" d=" M60,-23.5 C60,-23.5 60,23.5 60,23.5 C60,43.64434814453125 43.64434814453125,60 23.5,60 C23.5,60 -23.5,60 -23.5,60 C-43.64434814453125,60 -60,43.64434814453125 -60,23.5 C-60,23.5 -60,-23.5 -60,-23.5 C-60,-43.64434814453125 -43.64434814453125,-60 -23.5,-60 C-23.5,-60 23.5,-60 23.5,-60 C43.64434814453125,-60 60,-43.64434814453125 60,-23.5z"></path></g></g><g transform="matrix(-0.8532323241233826,-0.5277268886566162,0.5277268886566162,-0.8532323241233826,350.6722412109375,1062.75537109375)" opacity="1" style="display: block;"><g opacity="1" transform="matrix(1,0,0,1,-148.25,7.25)"><path fill="rgb(221,4,168)" fill-opacity="1" d=" M60,-23.5 C60,-23.5 60,23.5 60,23.5 C60,43.64434814453125 43.64434814453125,60 23.5,60 C23.5,60 -23.5,60 -23.5,60 C-43.64434814453125,60 -60,43.64434814453125 -60,23.5 C-60,23.5 -60,-23.5 -60,-23.5 C-60,-43.64434814453125 -43.64434814453125,-60 -23.5,-60 C-23.5,-60 23.5,-60 23.5,-60 C43.64434814453125,-60 60,-43.64434814453125 60,-23.5z"></path><path stroke-linecap="butt" stroke-linejoin="miter" fill-opacity="0" stroke-miterlimit="4" stroke="rgb(33,10,47)" stroke-opacity="1" stroke-width="0" d=" M60,-23.5 C60,-23.5 60,23.5 60,23.5 C60,43.64434814453125 43.64434814453125,60 23.5,60 C23.5,60 -23.5,60 -23.5,60 C-43.64434814453125,60 -60,43.64434814453125 -60,23.5 C-60,23.5 -60,-23.5 -60,-23.5 C-60,-43.64434814453125 -43.64434814453125,-60 -23.5,-60 C-23.5,-60 23.5,-60 23.5,-60 C43.64434814453125,-60 60,-43.64434814453125 60,-23.5z"></path></g></g><g transform="matrix(-0.4324783384799957,-0.9052423238754272,0.9052423238754272,-0.4324783384799957,279.9438781738281,778.1200561523438)" opacity="1" style="display: block;"><g opacity="1" transform="matrix(1,0,0,1,-148.25,7.25)"><path fill="rgb(221,4,168)" fill-opacity="1" d=" M60,-23.5 C60,-23.5 60,23.5 60,23.5 C60,43.64434814453125 43.64434814453125,60 23.5,60 C23.5,60 -23.5,60 -23.5,60 C-43.64434814453125,60 -60,43.64434814453125 -60,23.5 C-60,23.5 -60,-23.5 -60,-23.5 C-60,-43.64434814453125 -43.64434814453125,-60 -23.5,-60 C-23.5,-60 23.5,-60 23.5,-60 C43.64434814453125,-60 60,-43.64434814453125 60,-23.5z"></path><path stroke-linecap="butt" stroke-linejoin="miter" fill-opacity="0" stroke-miterlimit="4" stroke="rgb(33,10,47)" stroke-opacity="1" stroke-width="0" d=" M60,-23.5 C60,-23.5 60,23.5 60,23.5 C60,43.64434814453125 43.64434814453125,60 23.5,60 C23.5,60 -23.5,60 -23.5,60 C-43.64434814453125,60 -60,43.64434814453125 -60,23.5 C-60,23.5 -60,-23.5 -60,-23.5 C-60,-43.64434814453125 -43.64434814453125,-60 -23.5,-60 C-23.5,-60 23.5,-60 23.5,-60 C43.64434814453125,-60 60,-43.64434814453125 60,-23.5z"></path></g></g><g transform="matrix(0.1255822777748108,-0.9953542947769165,0.9953542947769165,0.1255822777748108,374.3293762207031,500.4294738769531)" opacity="1" style="display: block;"><g opacity="1" transform="matrix(1,0,0,1,-148.25,7.25)"><path fill="rgb(221,4,168)" fill-opacity="1" d=" M60,-23.5 C60,-23.5 60,23.5 60,23.5 C60,43.64434814453125 43.64434814453125,60 23.5,60 C23.5,60 -23.5,60 -23.5,60 C-43.64434814453125,60 -60,43.64434814453125 -60,23.5 C-60,23.5 -60,-23.5 -60,-23.5 C-60,-43.64434814453125 -43.64434814453125,-60 -23.5,-60 C-23.5,-60 23.5,-60 23.5,-60 C43.64434814453125,-60 60,-43.64434814453125 60,-23.5z"></path><path stroke-linecap="butt" stroke-linejoin="miter" fill-opacity="0" stroke-miterlimit="4" stroke="rgb(33,10,47)" stroke-opacity="1" stroke-width="0" d=" M60,-23.5 C60,-23.5 60,23.5 60,23.5 C60,43.64434814453125 43.64434814453125,60 23.5,60 C23.5,60 -23.5,60 -23.5,60 C-43.64434814453125,60 -60,43.64434814453125 -60,23.5 C-60,23.5 -60,-23.5 -60,-23.5 C-60,-43.64434814453125 -43.64434814453125,-60 -23.5,-60 C-23.5,-60 23.5,-60 23.5,-60 C43.64434814453125,-60 60,-43.64434814453125 60,-23.5z"></path></g></g><g transform="matrix(0.6437720656394958,-0.7694535255432129,0.7694535255432129,0.6437720656394958,603.8630981445312,317.8507080078125)" opacity="1" style="display: block;"><g opacity="1" transform="matrix(1,0,0,1,-148.25,7.25)"><path fill="rgb(221,4,168)" fill-opacity="1" d=" M60,-23.5 C60,-23.5 60,23.5 60,23.5 C60,43.64434814453125 43.64434814453125,60 23.5,60 C23.5,60 -23.5,60 -23.5,60 C-43.64434814453125,60 -60,43.64434814453125 -60,23.5 C-60,23.5 -60,-23.5 -60,-23.5 C-60,-43.64434814453125 -43.64434814453125,-60 -23.5,-60 C-23.5,-60 23.5,-60 23.5,-60 C43.64434814453125,-60 60,-43.64434814453125 60,-23.5z"></path><path stroke-linecap="butt" stroke-linejoin="miter" fill-opacity="0" stroke-miterlimit="4" stroke="rgb(33,10,47)" stroke-opacity="1" stroke-width="0" d=" M60,-23.5 C60,-23.5 60,23.5 60,23.5 C60,43.64434814453125 43.64434814453125,60 23.5,60 C23.5,60 -23.5,60 -23.5,60 C-43.64434814453125,60 -60,43.64434814453125 -60,23.5 C-60,23.5 -60,-23.5 -60,-23.5 C-60,-43.64434814453125 -43.64434814453125,-60 -23.5,-60 C-23.5,-60 23.5,-60 23.5,-60 C43.64434814453125,-60 60,-43.64434814453125 60,-23.5z"></path></g></g><g transform="matrix(0.9575772285461426,-0.29924383759498596,0.29924383759498596,0.9575772285461426,895.6699829101562,288.35174560546875)" opacity="1" style="display: block;"><g opacity="1" transform="matrix(1,0,0,1,-148.25,7.25)"><path fill="rgb(221,4,168)" fill-opacity="1" d=" M60,-23.5 C60,-23.5 60,23.5 60,23.5 C60,43.64434814453125 43.64434814453125,60 23.5,60 C23.5,60 -23.5,60 -23.5,60 C-43.64434814453125,60 -60,43.64434814453125 -60,23.5 C-60,23.5 -60,-23.5 -60,-23.5 C-60,-43.64434814453125 -43.64434814453125,-60 -23.5,-60 C-23.5,-60 23.5,-60 23.5,-60 C43.64434814453125,-60 60,-43.64434814453125 60,-23.5z"></path><path stroke-linecap="butt" stroke-linejoin="miter" fill-opacity="0" stroke-miterlimit="4" stroke="rgb(33,10,47)" stroke-opacity="1" stroke-width="0" d=" M60,-23.5 C60,-23.5 60,23.5 60,23.5 C60,43.64434814453125 43.64434814453125,60 23.5,60 C23.5,60 -23.5,60 -23.5,60 C-43.64434814453125,60 -60,43.64434814453125 -60,23.5 C-60,23.5 -60,-23.5 -60,-23.5 C-60,-43.64434814453125 -43.64434814453125,-60 -23.5,-60 C-23.5,-60 23.5,-60 23.5,-60 C43.64434814453125,-60 60,-43.64434814453125 60,-23.5z"></path></g></g><g transform="matrix(0.9673500061035156,0.26596081256866455,-0.26596081256866455,0.9673500061035156,1157.1007080078125,421.2965393066406)" opacity="1" style="display: block;"><g opacity="1" transform="matrix(1,0,0,1,-148.25,7.25)"><path fill="rgb(221,4,168)" fill-opacity="1" d=" M60,-23.5 C60,-23.5 60,23.5 60,23.5 C60,43.64434814453125 43.64434814453125,60 23.5,60 C23.5,60 -23.5,60 -23.5,60 C-43.64434814453125,60 -60,43.64434814453125 -60,23.5 C-60,23.5 -60,-23.5 -60,-23.5 C-60,-43.64434814453125 -43.64434814453125,-60 -23.5,-60 C-23.5,-60 23.5,-60 23.5,-60 C43.64434814453125,-60 60,-43.64434814453125 60,-23.5z"></path><path stroke-linecap="butt" stroke-linejoin="miter" fill-opacity="0" stroke-miterlimit="4" stroke="rgb(33,10,47)" stroke-opacity="1" stroke-width="0" d=" M60,-23.5 C60,-23.5 60,23.5 60,23.5 C60,43.64434814453125 43.64434814453125,60 23.5,60 C23.5,60 -23.5,60 -23.5,60 C-43.64434814453125,60 -60,43.64434814453125 -60,23.5 C-60,23.5 -60,-23.5 -60,-23.5 C-60,-43.64434814453125 -43.64434814453125,-60 -23.5,-60 C-23.5,-60 23.5,-60 23.5,-60 C43.64434814453125,-60 60,-43.64434814453125 60,-23.5z"></path></g></g><g transform="matrix(0.6700008511543274,0.7467260956764221,-0.7467260956764221,0.6700008511543274,1200.4140625,568.6333618164062)" opacity="1" style="display: block;"><g opacity="1" transform="matrix(1,0,0,1,0,0)"><path fill="rgb(221,4,168)" fill-opacity="1" d=" M60,-23.5 C60,-23.5 60,23.5 60,23.5 C60,43.64434814453125 43.64434814453125,60 23.5,60 C23.5,60 -23.5,60 -23.5,60 C-43.64434814453125,60 -60,43.64434814453125 -60,23.5 C-60,23.5 -60,-23.5 -60,-23.5 C-60,-43.64434814453125 -43.64434814453125,-60 -23.5,-60 C-23.5,-60 23.5,-60 23.5,-60 C43.64434814453125,-60 60,-43.64434814453125 60,-23.5z"></path><path stroke-linecap="butt" stroke-linejoin="miter" fill-opacity="0" stroke-miterlimit="4" stroke="rgb(33,10,47)" stroke-opacity="1" stroke-width="0" d=" M60,-23.5 C60,-23.5 60,23.5 60,23.5 C60,43.64434814453125 43.64434814453125,60 23.5,60 C23.5,60 -23.5,60 -23.5,60 C-43.64434814453125,60 -60,43.64434814453125 -60,23.5 C-60,23.5 -60,-23.5 -60,-23.5 C-60,-43.64434814453125 -43.64434814453125,-60 -23.5,-60 C-23.5,-60 23.5,-60 23.5,-60 C43.64434814453125,-60 60,-43.64434814453125 60,-23.5z"></path></g></g><g transform="matrix(-0.06677711009979248,1.0003341436386108,-1.0003341436386108,-0.06677711009979248,1127.6826171875,1047.00341796875)" opacity="1" style="display: block;"><g opacity="1" transform="matrix(1,0,0,1,-148.25,7.25)"><path fill="rgb(247,151,239)" fill-opacity="1" d=" M60,-23.5 C60,-23.5 60,23.5 60,23.5 C60,43.64434814453125 43.64434814453125,60 23.5,60 C23.5,60 -23.5,60 -23.5,60 C-43.64434814453125,60 -60,43.64434814453125 -60,23.5 C-60,23.5 -60,-23.5 -60,-23.5 C-60,-43.64434814453125 -43.64434814453125,-60 -23.5,-60 C-23.5,-60 23.5,-60 23.5,-60 C43.64434814453125,-60 60,-43.64434814453125 60,-23.5z"></path><path stroke-linecap="butt" stroke-linejoin="miter" fill-opacity="0" stroke-miterlimit="4" stroke="rgb(33,10,47)" stroke-opacity="1" stroke-width="0" d=" M60,-23.5 C60,-23.5 60,23.5 60,23.5 C60,43.64434814453125 43.64434814453125,60 23.5,60 C23.5,60 -23.5,60 -23.5,60 C-43.64434814453125,60 -60,43.64434814453125 -60,23.5 C-60,23.5 -60,-23.5 -60,-23.5 C-60,-43.64434814453125 -43.64434814453125,-60 -23.5,-60 C-23.5,-60 23.5,-60 23.5,-60 C43.64434814453125,-60 60,-43.64434814453125 60,-23.5z"></path></g></g><g transform="matrix(-0.5969941020011902,0.8054350018501282,-0.8054350018501282,-0.5969941020011902,942.1242065429688,1184.951904296875)" opacity="1" style="display: block;"><g opacity="1" transform="matrix(1,0,0,1,-148.25,7.25)"><path fill="rgb(247,151,239)" fill-opacity="1" d=" M60,-23.5 C60,-23.5 60,23.5 60,23.5 C60,43.64434814453125 43.64434814453125,60 23.5,60 C23.5,60 -23.5,60 -23.5,60 C-43.64434814453125,60 -60,43.64434814453125 -60,23.5 C-60,23.5 -60,-23.5 -60,-23.5 C-60,-43.64434814453125 -43.64434814453125,-60 -23.5,-60 C-23.5,-60 23.5,-60 23.5,-60 C43.64434814453125,-60 60,-43.64434814453125 60,-23.5z"></path><path stroke-linecap="butt" stroke-linejoin="miter" fill-opacity="0" stroke-miterlimit="4" stroke="rgb(33,10,47)" stroke-opacity="1" stroke-width="0" d=" M60,-23.5 C60,-23.5 60,23.5 60,23.5 C60,43.64434814453125 43.64434814453125,60 23.5,60 C23.5,60 -23.5,60 -23.5,60 C-43.64434814453125,60 -60,43.64434814453125 -60,23.5 C-60,23.5 -60,-23.5 -60,-23.5 C-60,-43.64434814453125 -43.64434814453125,-60 -23.5,-60 C-23.5,-60 23.5,-60 23.5,-60 C43.64434814453125,-60 60,-43.64434814453125 60,-23.5z"></path></g></g><g transform="matrix(-0.9376789927482605,0.35480383038520813,-0.35480383038520813,-0.9376789927482605,711.440673828125,1200.6788330078125)" opacity="1" style="display: block;"><g opacity="1" transform="matrix(1,0,0,1,-148.25,7.25)"><path fill="rgb(247,151,239)" fill-opacity="1" d=" M60,-23.5 C60,-23.5 60,23.5 60,23.5 C60,43.64434814453125 43.64434814453125,60 23.5,60 C23.5,60 -23.5,60 -23.5,60 C-43.64434814453125,60 -60,43.64434814453125 -60,23.5 C-60,23.5 -60,-23.5 -60,-23.5 C-60,-43.64434814453125 -43.64434814453125,-60 -23.5,-60 C-23.5,-60 23.5,-60 23.5,-60 C43.64434814453125,-60 60,-43.64434814453125 60,-23.5z"></path><path stroke-linecap="butt" stroke-linejoin="miter" fill-opacity="0" stroke-miterlimit="4" stroke="rgb(33,10,47)" stroke-opacity="1" stroke-width="0" d=" M60,-23.5 C60,-23.5 60,23.5 60,23.5 C60,43.64434814453125 43.64434814453125,60 23.5,60 C23.5,60 -23.5,60 -23.5,60 C-43.64434814453125,60 -60,43.64434814453125 -60,23.5 C-60,23.5 -60,-23.5 -60,-23.5 C-60,-43.64434814453125 -43.64434814453125,-60 -23.5,-60 C-23.5,-60 23.5,-60 23.5,-60 C43.64434814453125,-60 60,-43.64434814453125 60,-23.5z"></path></g></g><g transform="matrix(-0.9806481599807739,-0.2084628939628601,0.2084628939628601,-0.9806481599807739,508.8756103515625,1089.1949462890625)" opacity="1" style="display: block;"><g opacity="1" transform="matrix(1,0,0,1,-148.25,7.25)"><path fill="rgb(247,151,239)" fill-opacity="1" d=" M60,-23.5 C60,-23.5 60,23.5 60,23.5 C60,43.64434814453125 43.64434814453125,60 23.5,60 C23.5,60 -23.5,60 -23.5,60 C-43.64434814453125,60 -60,43.64434814453125 -60,23.5 C-60,23.5 -60,-23.5 -60,-23.5 C-60,-43.64434814453125 -43.64434814453125,-60 -23.5,-60 C-23.5,-60 23.5,-60 23.5,-60 C43.64434814453125,-60 60,-43.64434814453125 60,-23.5z"></path><path stroke-linecap="butt" stroke-linejoin="miter" fill-opacity="0" stroke-miterlimit="4" stroke="rgb(33,10,47)" stroke-opacity="1" stroke-width="0" d=" M60,-23.5 C60,-23.5 60,23.5 60,23.5 C60,43.64434814453125 43.64434814453125,60 23.5,60 C23.5,60 -23.5,60 -23.5,60 C-43.64434814453125,60 -60,43.64434814453125 -60,23.5 C-60,23.5 -60,-23.5 -60,-23.5 C-60,-43.64434814453125 -43.64434814453125,-60 -23.5,-60 C-23.5,-60 23.5,-60 23.5,-60 C43.64434814453125,-60 60,-43.64434814453125 60,-23.5z"></path></g></g><g transform="matrix(-0.7122734785079956,-0.7055451273918152,0.7055451273918152,-0.7122734785079956,398.7397155761719,885.892822265625)" opacity="1" style="display: block;"><g opacity="1" transform="matrix(1,0,0,1,-148.25,7.25)"><path fill="rgb(247,151,239)" fill-opacity="1" d=" M60,-23.5 C60,-23.5 60,23.5 60,23.5 C60,43.64434814453125 43.64434814453125,60 23.5,60 C23.5,60 -23.5,60 -23.5,60 C-43.64434814453125,60 -60,43.64434814453125 -60,23.5 C-60,23.5 -60,-23.5 -60,-23.5 C-60,-43.64434814453125 -43.64434814453125,-60 -23.5,-60 C-23.5,-60 23.5,-60 23.5,-60 C43.64434814453125,-60 60,-43.64434814453125 60,-23.5z"></path><path stroke-linecap="butt" stroke-linejoin="miter" fill-opacity="0" stroke-miterlimit="4" stroke="rgb(33,10,47)" stroke-opacity="1" stroke-width="0" d=" M60,-23.5 C60,-23.5 60,23.5 60,23.5 C60,43.64434814453125 43.64434814453125,60 23.5,60 C23.5,60 -23.5,60 -23.5,60 C-43.64434814453125,60 -60,43.64434814453125 -60,23.5 C-60,23.5 -60,-23.5 -60,-23.5 C-60,-43.64434814453125 -43.64434814453125,-60 -23.5,-60 C-23.5,-60 23.5,-60 23.5,-60 C43.64434814453125,-60 60,-43.64434814453125 60,-23.5z"></path></g></g><g transform="matrix(-0.21776074171066284,-0.978625476360321,0.978625476360321,-0.21776074171066284,416.0000305175781,655.31982421875)" opacity="1" style="display: block;"><g opacity="1" transform="matrix(1,0,0,1,-148.25,7.25)"><path fill="rgb(247,151,239)" fill-opacity="1" d=" M60,-23.5 C60,-23.5 60,23.5 60,23.5 C60,43.64434814453125 43.64434814453125,60 23.5,60 C23.5,60 -23.5,60 -23.5,60 C-43.64434814453125,60 -60,43.64434814453125 -60,23.5 C-60,23.5 -60,-23.5 -60,-23.5 C-60,-43.64434814453125 -43.64434814453125,-60 -23.5,-60 C-23.5,-60 23.5,-60 23.5,-60 C43.64434814453125,-60 60,-43.64434814453125 60,-23.5z"></path><path stroke-linecap="butt" stroke-linejoin="miter" fill-opacity="0" stroke-miterlimit="4" stroke="rgb(33,10,47)" stroke-opacity="1" stroke-width="0" d=" M60,-23.5 C60,-23.5 60,23.5 60,23.5 C60,43.64434814453125 43.64434814453125,60 23.5,60 C23.5,60 -23.5,60 -23.5,60 C-43.64434814453125,60 -60,43.64434814453125 -60,23.5 C-60,23.5 -60,-23.5 -60,-23.5 C-60,-43.64434814453125 -43.64434814453125,-60 -23.5,-60 C-23.5,-60 23.5,-60 23.5,-60 C43.64434814453125,-60 60,-43.64434814453125 60,-23.5z"></path></g></g><g transform="matrix(0.3459048271179199,-0.9409980773925781,0.9409980773925781,0.3459048271179199,555.1809692382812,470.6822814941406)" opacity="1" style="display: block;"><g opacity="1" transform="matrix(1,0,0,1,-148.25,7.25)"><path fill="rgb(247,151,239)" fill-opacity="1" d=" M60,-23.5 C60,-23.5 60,23.5 60,23.5 C60,43.64434814453125 43.64434814453125,60 23.5,60 C23.5,60 -23.5,60 -23.5,60 C-43.64434814453125,60 -60,43.64434814453125 -60,23.5 C-60,23.5 -60,-23.5 -60,-23.5 C-60,-43.64434814453125 -43.64434814453125,-60 -23.5,-60 C-23.5,-60 23.5,-60 23.5,-60 C43.64434814453125,-60 60,-43.64434814453125 60,-23.5z"></path><path stroke-linecap="butt" stroke-linejoin="miter" fill-opacity="0" stroke-miterlimit="4" stroke="rgb(33,10,47)" stroke-opacity="1" stroke-width="0" d=" M60,-23.5 C60,-23.5 60,23.5 60,23.5 C60,43.64434814453125 43.64434814453125,60 23.5,60 C23.5,60 -23.5,60 -23.5,60 C-43.64434814453125,60 -60,43.64434814453125 -60,23.5 C-60,23.5 -60,-23.5 -60,-23.5 C-60,-43.64434814453125 -43.64434814453125,-60 -23.5,-60 C-23.5,-60 23.5,-60 23.5,-60 C43.64434814453125,-60 60,-43.64434814453125 60,-23.5z"></path></g></g><g transform="matrix(0.7997328042984009,-0.6046115159988403,0.6046115159988403,0.7997328042984009,772.0874633789062,390.6005554199219)" opacity="1" style="display: block;"><g opacity="1" transform="matrix(1,0,0,1,-148.25,7.25)"><path fill="rgb(247,151,239)" fill-opacity="1" d=" M60,-23.5 C60,-23.5 60,23.5 60,23.5 C60,43.64434814453125 43.64434814453125,60 23.5,60 C23.5,60 -23.5,60 -23.5,60 C-43.64434814453125,60 -60,43.64434814453125 -60,23.5 C-60,23.5 -60,-23.5 -60,-23.5 C-60,-43.64434814453125 -43.64434814453125,-60 -23.5,-60 C-23.5,-60 23.5,-60 23.5,-60 C43.64434814453125,-60 60,-43.64434814453125 60,-23.5z"></path><path stroke-linecap="butt" stroke-linejoin="miter" fill-opacity="0" stroke-miterlimit="4" stroke="rgb(33,10,47)" stroke-opacity="1" stroke-width="0" d=" M60,-23.5 C60,-23.5 60,23.5 60,23.5 C60,43.64434814453125 43.64434814453125,60 23.5,60 C23.5,60 -23.5,60 -23.5,60 C-43.64434814453125,60 -60,43.64434814453125 -60,23.5 C-60,23.5 -60,-23.5 -60,-23.5 C-60,-43.64434814453125 -43.64434814453125,-60 -23.5,-60 C-23.5,-60 23.5,-60 23.5,-60 C43.64434814453125,-60 60,-43.64434814453125 60,-23.5z"></path></g></g><g transform="matrix(0.9996553063392639,-0.07626817375421524,0.07626817375421524,0.9996553063392639,997.8560180664062,440.49951171875)" opacity="1" style="display: block;"><g opacity="1" transform="matrix(1,0,0,1,-148.25,7.25)"><path fill="rgb(247,151,239)" fill-opacity="1" d=" M60,-23.5 C60,-23.5 60,23.5 60,23.5 C60,43.64434814453125 43.64434814453125,60 23.5,60 C23.5,60 -23.5,60 -23.5,60 C-43.64434814453125,60 -60,43.64434814453125 -60,23.5 C-60,23.5 -60,-23.5 -60,-23.5 C-60,-43.64434814453125 -43.64434814453125,-60 -23.5,-60 C-23.5,-60 23.5,-60 23.5,-60 C43.64434814453125,-60 60,-43.64434814453125 60,-23.5z"></path><path stroke-linecap="butt" stroke-linejoin="miter" fill-opacity="0" stroke-miterlimit="4" stroke="rgb(33,10,47)" stroke-opacity="1" stroke-width="0" d=" M60,-23.5 C60,-23.5 60,23.5 60,23.5 C60,43.64434814453125 43.64434814453125,60 23.5,60 C23.5,60 -23.5,60 -23.5,60 C-43.64434814453125,60 -60,43.64434814453125 -60,23.5 C-60,23.5 -60,-23.5 -60,-23.5 C-60,-43.64434814453125 -43.64434814453125,-60 -23.5,-60 C-23.5,-60 23.5,-60 23.5,-60 C43.64434814453125,-60 60,-43.64434814453125 60,-23.5z"></path></g></g><g transform="matrix(0.8821911811828613,0.476304829120636,-0.476304829120636,0.8821911811828613,1160.8074951171875,604.5404052734375)" opacity="1" style="display: block;"><g opacity="1" transform="matrix(1,0,0,1,-148.25,7.25)"><path fill="rgb(247,151,239)" fill-opacity="1" d=" M60,-23.5 C60,-23.5 60,23.5 60,23.5 C60,43.64434814453125 43.64434814453125,60 23.5,60 C23.5,60 -23.5,60 -23.5,60 C-43.64434814453125,60 -60,43.64434814453125 -60,23.5 C-60,23.5 -60,-23.5 -60,-23.5 C-60,-43.64434814453125 -43.64434814453125,-60 -23.5,-60 C-23.5,-60 23.5,-60 23.5,-60 C43.64434814453125,-60 60,-43.64434814453125 60,-23.5z"></path><path stroke-linecap="butt" stroke-linejoin="miter" fill-opacity="0" stroke-miterlimit="4" stroke="rgb(33,10,47)" stroke-opacity="1" stroke-width="0" d=" M60,-23.5 C60,-23.5 60,23.5 60,23.5 C60,43.64434814453125 43.64434814453125,60 23.5,60 C23.5,60 -23.5,60 -23.5,60 C-43.64434814453125,60 -60,43.64434814453125 -60,23.5 C-60,23.5 -60,-23.5 -60,-23.5 C-60,-43.64434814453125 -43.64434814453125,-60 -23.5,-60 C-23.5,-60 23.5,-60 23.5,-60 C43.64434814453125,-60 60,-43.64434814453125 60,-23.5z"></path></g></g><g transform="matrix(0.48464080691337585,0.8776393532752991,-0.8776393532752991,0.48464080691337585,1130.993896484375,704.0396728515625)" opacity="1" style="display: block;"><g opacity="1" transform="matrix(1,0,0,1,0,0)"><path fill="rgb(247,151,239)" fill-opacity="1" d=" M60,-23.5 C60,-23.5 60,23.5 60,23.5 C60,43.64434814453125 43.64434814453125,60 23.5,60 C23.5,60 -23.5,60 -23.5,60 C-43.64434814453125,60 -60,43.64434814453125 -60,23.5 C-60,23.5 -60,-23.5 -60,-23.5 C-60,-43.64434814453125 -43.64434814453125,-60 -23.5,-60 C-23.5,-60 23.5,-60 23.5,-60 C43.64434814453125,-60 60,-43.64434814453125 60,-23.5z"></path><path stroke-linecap="butt" stroke-linejoin="miter" fill-opacity="0" stroke-miterlimit="4" stroke="rgb(33,10,47)" stroke-opacity="1" stroke-width="0" d=" M60,-23.5 C60,-23.5 60,23.5 60,23.5 C60,43.64434814453125 43.64434814453125,60 23.5,60 C23.5,60 -23.5,60 -23.5,60 C-43.64434814453125,60 -60,43.64434814453125 -60,23.5 C-60,23.5 -60,-23.5 -60,-23.5 C-60,-43.64434814453125 -43.64434814453125,-60 -23.5,-60 C-23.5,-60 23.5,-60 23.5,-60 C43.64434814453125,-60 60,-43.64434814453125 60,-23.5z"></path></g></g></g><g clip-path="url(#__lottie_element_2685)" transform="matrix(1,0,0,1,0,0)" opacity="1" style="display: none;"><g transform="matrix(0,0,0,0,800,800)" opacity="1" style="display: block;"><g opacity="1" transform="matrix(1,0,0,1,-148.25,7.25)"><path fill="rgb(221,4,168)" fill-opacity="1" d=" M60,-23.5 C60,-23.5 60,23.5 60,23.5 C60,43.64434814453125 43.64434814453125,60 23.5,60 C23.5,60 -23.5,60 -23.5,60 C-43.64434814453125,60 -60,43.64434814453125 -60,23.5 C-60,23.5 -60,-23.5 -60,-23.5 C-60,-43.64434814453125 -43.64434814453125,-60 -23.5,-60 C-23.5,-60 23.5,-60 23.5,-60 C43.64434814453125,-60 60,-43.64434814453125 60,-23.5z"></path><path stroke-linecap="butt" stroke-linejoin="miter" fill-opacity="0" stroke-miterlimit="4" stroke="rgb(33,10,47)" stroke-opacity="1" stroke-width="0" d=" M60,-23.5 C60,-23.5 60,23.5 60,23.5 C60,43.64434814453125 43.64434814453125,60 23.5,60 C23.5,60 -23.5,60 -23.5,60 C-43.64434814453125,60 -60,43.64434814453125 -60,23.5 C-60,23.5 -60,-23.5 -60,-23.5 C-60,-43.64434814453125 -43.64434814453125,-60 -23.5,-60 C-23.5,-60 23.5,-60 23.5,-60 C43.64434814453125,-60 60,-43.64434814453125 60,-23.5z"></path></g></g><g transform="matrix(0,0,0,0,800,800)" opacity="1" style="display: block;"><g opacity="1" transform="matrix(1,0,0,1,-148.25,7.25)"><path fill="rgb(221,4,168)" fill-opacity="1" d=" M60,-23.5 C60,-23.5 60,23.5 60,23.5 C60,43.64434814453125 43.64434814453125,60 23.5,60 C23.5,60 -23.5,60 -23.5,60 C-43.64434814453125,60 -60,43.64434814453125 -60,23.5 C-60,23.5 -60,-23.5 -60,-23.5 C-60,-43.64434814453125 -43.64434814453125,-60 -23.5,-60 C-23.5,-60 23.5,-60 23.5,-60 C43.64434814453125,-60 60,-43.64434814453125 60,-23.5z"></path><path stroke-linecap="butt" stroke-linejoin="miter" fill-opacity="0" stroke-miterlimit="4" stroke="rgb(33,10,47)" stroke-opacity="1" stroke-width="0" d=" M60,-23.5 C60,-23.5 60,23.5 60,23.5 C60,43.64434814453125 43.64434814453125,60 23.5,60 C23.5,60 -23.5,60 -23.5,60 C-43.64434814453125,60 -60,43.64434814453125 -60,23.5 C-60,23.5 -60,-23.5 -60,-23.5 C-60,-43.64434814453125 -43.64434814453125,-60 -23.5,-60 C-23.5,-60 23.5,-60 23.5,-60 C43.64434814453125,-60 60,-43.64434814453125 60,-23.5z"></path></g></g><g transform="matrix(0,0,0,0,800,800)" opacity="1" style="display: block;"><g opacity="1" transform="matrix(1,0,0,1,-148.25,7.25)"><path fill="rgb(221,4,168)" fill-opacity="1" d=" M60,-23.5 C60,-23.5 60,23.5 60,23.5 C60,43.64434814453125 43.64434814453125,60 23.5,60 C23.5,60 -23.5,60 -23.5,60 C-43.64434814453125,60 -60,43.64434814453125 -60,23.5 C-60,23.5 -60,-23.5 -60,-23.5 C-60,-43.64434814453125 -43.64434814453125,-60 -23.5,-60 C-23.5,-60 23.5,-60 23.5,-60 C43.64434814453125,-60 60,-43.64434814453125 60,-23.5z"></path><path stroke-linecap="butt" stroke-linejoin="miter" fill-opacity="0" stroke-miterlimit="4" stroke="rgb(33,10,47)" stroke-opacity="1" stroke-width="0" d=" M60,-23.5 C60,-23.5 60,23.5 60,23.5 C60,43.64434814453125 43.64434814453125,60 23.5,60 C23.5,60 -23.5,60 -23.5,60 C-43.64434814453125,60 -60,43.64434814453125 -60,23.5 C-60,23.5 -60,-23.5 -60,-23.5 C-60,-43.64434814453125 -43.64434814453125,-60 -23.5,-60 C-23.5,-60 23.5,-60 23.5,-60 C43.64434814453125,-60 60,-43.64434814453125 60,-23.5z"></path></g></g><g transform="matrix(0,0,0,0,800,800)" opacity="1" style="display: block;"><g opacity="1" transform="matrix(1,0,0,1,-148.25,7.25)"><path fill="rgb(221,4,168)" fill-opacity="1" d=" M60,-23.5 C60,-23.5 60,23.5 60,23.5 C60,43.64434814453125 43.64434814453125,60 23.5,60 C23.5,60 -23.5,60 -23.5,60 C-43.64434814453125,60 -60,43.64434814453125 -60,23.5 C-60,23.5 -60,-23.5 -60,-23.5 C-60,-43.64434814453125 -43.64434814453125,-60 -23.5,-60 C-23.5,-60 23.5,-60 23.5,-60 C43.64434814453125,-60 60,-43.64434814453125 60,-23.5z"></path><path stroke-linecap="butt" stroke-linejoin="miter" fill-opacity="0" stroke-miterlimit="4" stroke="rgb(33,10,47)" stroke-opacity="1" stroke-width="0" d=" M60,-23.5 C60,-23.5 60,23.5 60,23.5 C60,43.64434814453125 43.64434814453125,60 23.5,60 C23.5,60 -23.5,60 -23.5,60 C-43.64434814453125,60 -60,43.64434814453125 -60,23.5 C-60,23.5 -60,-23.5 -60,-23.5 C-60,-43.64434814453125 -43.64434814453125,-60 -23.5,-60 C-23.5,-60 23.5,-60 23.5,-60 C43.64434814453125,-60 60,-43.64434814453125 60,-23.5z"></path></g></g><g transform="matrix(0,0,0,0,800,800)" opacity="1" style="display: block;"><g opacity="1" transform="matrix(1,0,0,1,-148.25,7.25)"><path fill="rgb(221,4,168)" fill-opacity="1" d=" M60,-23.5 C60,-23.5 60,23.5 60,23.5 C60,43.64434814453125 43.64434814453125,60 23.5,60 C23.5,60 -23.5,60 -23.5,60 C-43.64434814453125,60 -60,43.64434814453125 -60,23.5 C-60,23.5 -60,-23.5 -60,-23.5 C-60,-43.64434814453125 -43.64434814453125,-60 -23.5,-60 C-23.5,-60 23.5,-60 23.5,-60 C43.64434814453125,-60 60,-43.64434814453125 60,-23.5z"></path><path stroke-linecap="butt" stroke-linejoin="miter" fill-opacity="0" stroke-miterlimit="4" stroke="rgb(33,10,47)" stroke-opacity="1" stroke-width="0" d=" M60,-23.5 C60,-23.5 60,23.5 60,23.5 C60,43.64434814453125 43.64434814453125,60 23.5,60 C23.5,60 -23.5,60 -23.5,60 C-43.64434814453125,60 -60,43.64434814453125 -60,23.5 C-60,23.5 -60,-23.5 -60,-23.5 C-60,-43.64434814453125 -43.64434814453125,-60 -23.5,-60 C-23.5,-60 23.5,-60 23.5,-60 C43.64434814453125,-60 60,-43.64434814453125 60,-23.5z"></path></g></g><g transform="matrix(0,0,0,0,800,800)" opacity="1" style="display: block;"><g opacity="1" transform="matrix(1,0,0,1,-148.25,7.25)"><path fill="rgb(221,4,168)" fill-opacity="1" d=" M60,-23.5 C60,-23.5 60,23.5 60,23.5 C60,43.64434814453125 43.64434814453125,60 23.5,60 C23.5,60 -23.5,60 -23.5,60 C-43.64434814453125,60 -60,43.64434814453125 -60,23.5 C-60,23.5 -60,-23.5 -60,-23.5 C-60,-43.64434814453125 -43.64434814453125,-60 -23.5,-60 C-23.5,-60 23.5,-60 23.5,-60 C43.64434814453125,-60 60,-43.64434814453125 60,-23.5z"></path><path stroke-linecap="butt" stroke-linejoin="miter" fill-opacity="0" stroke-miterlimit="4" stroke="rgb(33,10,47)" stroke-opacity="1" stroke-width="0" d=" M60,-23.5 C60,-23.5 60,23.5 60,23.5 C60,43.64434814453125 43.64434814453125,60 23.5,60 C23.5,60 -23.5,60 -23.5,60 C-43.64434814453125,60 -60,43.64434814453125 -60,23.5 C-60,23.5 -60,-23.5 -60,-23.5 C-60,-43.64434814453125 -43.64434814453125,-60 -23.5,-60 C-23.5,-60 23.5,-60 23.5,-60 C43.64434814453125,-60 60,-43.64434814453125 60,-23.5z"></path></g></g><g transform="matrix(0,0,0,0,800,800)" opacity="1" style="display: block;"><g opacity="1" transform="matrix(1,0,0,1,-148.25,7.25)"><path fill="rgb(221,4,168)" fill-opacity="1" d=" M60,-23.5 C60,-23.5 60,23.5 60,23.5 C60,43.64434814453125 43.64434814453125,60 23.5,60 C23.5,60 -23.5,60 -23.5,60 C-43.64434814453125,60 -60,43.64434814453125 -60,23.5 C-60,23.5 -60,-23.5 -60,-23.5 C-60,-43.64434814453125 -43.64434814453125,-60 -23.5,-60 C-23.5,-60 23.5,-60 23.5,-60 C43.64434814453125,-60 60,-43.64434814453125 60,-23.5z"></path><path stroke-linecap="butt" stroke-linejoin="miter" fill-opacity="0" stroke-miterlimit="4" stroke="rgb(33,10,47)" stroke-opacity="1" stroke-width="0" d=" M60,-23.5 C60,-23.5 60,23.5 60,23.5 C60,43.64434814453125 43.64434814453125,60 23.5,60 C23.5,60 -23.5,60 -23.5,60 C-43.64434814453125,60 -60,43.64434814453125 -60,23.5 C-60,23.5 -60,-23.5 -60,-23.5 C-60,-43.64434814453125 -43.64434814453125,-60 -23.5,-60 C-23.5,-60 23.5,-60 23.5,-60 C43.64434814453125,-60 60,-43.64434814453125 60,-23.5z"></path></g></g><g transform="matrix(0,0,0,0,800,800)" opacity="1" style="display: block;"><g opacity="1" transform="matrix(1,0,0,1,-148.25,7.25)"><path fill="rgb(221,4,168)" fill-opacity="1" d=" M60,-23.5 C60,-23.5 60,23.5 60,23.5 C60,43.64434814453125 43.64434814453125,60 23.5,60 C23.5,60 -23.5,60 -23.5,60 C-43.64434814453125,60 -60,43.64434814453125 -60,23.5 C-60,23.5 -60,-23.5 -60,-23.5 C-60,-43.64434814453125 -43.64434814453125,-60 -23.5,-60 C-23.5,-60 23.5,-60 23.5,-60 C43.64434814453125,-60 60,-43.64434814453125 60,-23.5z"></path><path stroke-linecap="butt" stroke-linejoin="miter" fill-opacity="0" stroke-miterlimit="4" stroke="rgb(33,10,47)" stroke-opacity="1" stroke-width="0" d=" M60,-23.5 C60,-23.5 60,23.5 60,23.5 C60,43.64434814453125 43.64434814453125,60 23.5,60 C23.5,60 -23.5,60 -23.5,60 C-43.64434814453125,60 -60,43.64434814453125 -60,23.5 C-60,23.5 -60,-23.5 -60,-23.5 C-60,-43.64434814453125 -43.64434814453125,-60 -23.5,-60 C-23.5,-60 23.5,-60 23.5,-60 C43.64434814453125,-60 60,-43.64434814453125 60,-23.5z"></path></g></g><g transform="matrix(0,0,0,0,800,800)" opacity="1" style="display: block;"><g opacity="1" transform="matrix(1,0,0,1,-148.25,7.25)"><path fill="rgb(221,4,168)" fill-opacity="1" d=" M60,-23.5 C60,-23.5 60,23.5 60,23.5 C60,43.64434814453125 43.64434814453125,60 23.5,60 C23.5,60 -23.5,60 -23.5,60 C-43.64434814453125,60 -60,43.64434814453125 -60,23.5 C-60,23.5 -60,-23.5 -60,-23.5 C-60,-43.64434814453125 -43.64434814453125,-60 -23.5,-60 C-23.5,-60 23.5,-60 23.5,-60 C43.64434814453125,-60 60,-43.64434814453125 60,-23.5z"></path><path stroke-linecap="butt" stroke-linejoin="miter" fill-opacity="0" stroke-miterlimit="4" stroke="rgb(33,10,47)" stroke-opacity="1" stroke-width="0" d=" M60,-23.5 C60,-23.5 60,23.5 60,23.5 C60,43.64434814453125 43.64434814453125,60 23.5,60 C23.5,60 -23.5,60 -23.5,60 C-43.64434814453125,60 -60,43.64434814453125 -60,23.5 C-60,23.5 -60,-23.5 -60,-23.5 C-60,-43.64434814453125 -43.64434814453125,-60 -23.5,-60 C-23.5,-60 23.5,-60 23.5,-60 C43.64434814453125,-60 60,-43.64434814453125 60,-23.5z"></path></g></g><g transform="matrix(0,0,0,0,800,800)" opacity="1" style="display: block;"><g opacity="1" transform="matrix(1,0,0,1,-148.25,7.25)"><path fill="rgb(221,4,168)" fill-opacity="1" d=" M60,-23.5 C60,-23.5 60,23.5 60,23.5 C60,43.64434814453125 43.64434814453125,60 23.5,60 C23.5,60 -23.5,60 -23.5,60 C-43.64434814453125,60 -60,43.64434814453125 -60,23.5 C-60,23.5 -60,-23.5 -60,-23.5 C-60,-43.64434814453125 -43.64434814453125,-60 -23.5,-60 C-23.5,-60 23.5,-60 23.5,-60 C43.64434814453125,-60 60,-43.64434814453125 60,-23.5z"></path><path stroke-linecap="butt" stroke-linejoin="miter" fill-opacity="0" stroke-miterlimit="4" stroke="rgb(33,10,47)" stroke-opacity="1" stroke-width="0" d=" M60,-23.5 C60,-23.5 60,23.5 60,23.5 C60,43.64434814453125 43.64434814453125,60 23.5,60 C23.5,60 -23.5,60 -23.5,60 C-43.64434814453125,60 -60,43.64434814453125 -60,23.5 C-60,23.5 -60,-23.5 -60,-23.5 C-60,-43.64434814453125 -43.64434814453125,-60 -23.5,-60 C-23.5,-60 23.5,-60 23.5,-60 C43.64434814453125,-60 60,-43.64434814453125 60,-23.5z"></path></g></g><g transform="matrix(0,0,0,0,800,800)" opacity="1" style="display: block;"><g opacity="1" transform="matrix(1,0,0,1,0,0)"><path fill="rgb(221,4,168)" fill-opacity="1" d=" M60,-23.5 C60,-23.5 60,23.5 60,23.5 C60,43.64434814453125 43.64434814453125,60 23.5,60 C23.5,60 -23.5,60 -23.5,60 C-43.64434814453125,60 -60,43.64434814453125 -60,23.5 C-60,23.5 -60,-23.5 -60,-23.5 C-60,-43.64434814453125 -43.64434814453125,-60 -23.5,-60 C-23.5,-60 23.5,-60 23.5,-60 C43.64434814453125,-60 60,-43.64434814453125 60,-23.5z"></path><path stroke-linecap="butt" stroke-linejoin="miter" fill-opacity="0" stroke-miterlimit="4" stroke="rgb(33,10,47)" stroke-opacity="1" stroke-width="0" d=" M60,-23.5 C60,-23.5 60,23.5 60,23.5 C60,43.64434814453125 43.64434814453125,60 23.5,60 C23.5,60 -23.5,60 -23.5,60 C-43.64434814453125,60 -60,43.64434814453125 -60,23.5 C-60,23.5 -60,-23.5 -60,-23.5 C-60,-43.64434814453125 -43.64434814453125,-60 -23.5,-60 C-23.5,-60 23.5,-60 23.5,-60 C43.64434814453125,-60 60,-43.64434814453125 60,-23.5z"></path></g></g><g transform="matrix(0.4776502251625061,0.8439077734947205,-0.8439077734947205,0.4776502251625061,1174.637939453125,943.9508666992188)" opacity="1" style="display: none;"><g opacity="1" transform="matrix(1,0,0,1,-148.25,7.25)"><path fill="rgb(247,151,239)" fill-opacity="1" d=" M60,-23.5 C60,-23.5 60,23.5 60,23.5 C60,43.64434814453125 43.64434814453125,60 23.5,60 C23.5,60 -23.5,60 -23.5,60 C-43.64434814453125,60 -60,43.64434814453125 -60,23.5 C-60,23.5 -60,-23.5 -60,-23.5 C-60,-43.64434814453125 -43.64434814453125,-60 -23.5,-60 C-23.5,-60 23.5,-60 23.5,-60 C43.64434814453125,-60 60,-43.64434814453125 60,-23.5z"></path><path stroke-linecap="butt" stroke-linejoin="miter" fill-opacity="0" stroke-miterlimit="4" stroke="rgb(33,10,47)" stroke-opacity="1" stroke-width="0" d=" M60,-23.5 C60,-23.5 60,23.5 60,23.5 C60,43.64434814453125 43.64434814453125,60 23.5,60 C23.5,60 -23.5,60 -23.5,60 C-43.64434814453125,60 -60,43.64434814453125 -60,23.5 C-60,23.5 -60,-23.5 -60,-23.5 C-60,-43.64434814453125 -43.64434814453125,-60 -23.5,-60 C-23.5,-60 23.5,-60 23.5,-60 C43.64434814453125,-60 60,-43.64434814453125 60,-23.5z"></path></g></g><g transform="matrix(-0.05442144349217415,0.968177855014801,-0.968177855014801,-0.05442144349217415,1037.340087890625,1123.6441650390625)" opacity="1" style="display: none;"><g opacity="1" transform="matrix(1,0,0,1,-148.25,7.25)"><path fill="rgb(247,151,239)" fill-opacity="1" d=" M60,-23.5 C60,-23.5 60,23.5 60,23.5 C60,43.64434814453125 43.64434814453125,60 23.5,60 C23.5,60 -23.5,60 -23.5,60 C-43.64434814453125,60 -60,43.64434814453125 -60,23.5 C-60,23.5 -60,-23.5 -60,-23.5 C-60,-43.64434814453125 -43.64434814453125,-60 -23.5,-60 C-23.5,-60 23.5,-60 23.5,-60 C43.64434814453125,-60 60,-43.64434814453125 60,-23.5z"></path><path stroke-linecap="butt" stroke-linejoin="miter" fill-opacity="0" stroke-miterlimit="4" stroke="rgb(33,10,47)" stroke-opacity="1" stroke-width="0" d=" M60,-23.5 C60,-23.5 60,23.5 60,23.5 C60,43.64434814453125 43.64434814453125,60 23.5,60 C23.5,60 -23.5,60 -23.5,60 C-43.64434814453125,60 -60,43.64434814453125 -60,23.5 C-60,23.5 -60,-23.5 -60,-23.5 C-60,-43.64434814453125 -43.64434814453125,-60 -23.5,-60 C-23.5,-60 23.5,-60 23.5,-60 C43.64434814453125,-60 60,-43.64434814453125 60,-23.5z"></path></g></g><g transform="matrix(-0.5692287087440491,0.7850534319877625,-0.7850534319877625,-0.5692287087440491,824.6862182617188,1200.581787109375)" opacity="1" style="display: none;"><g opacity="1" transform="matrix(1,0,0,1,-148.25,7.25)"><path fill="rgb(247,151,239)" fill-opacity="1" d=" M60,-23.5 C60,-23.5 60,23.5 60,23.5 C60,43.64434814453125 43.64434814453125,60 23.5,60 C23.5,60 -23.5,60 -23.5,60 C-43.64434814453125,60 -60,43.64434814453125 -60,23.5 C-60,23.5 -60,-23.5 -60,-23.5 C-60,-43.64434814453125 -43.64434814453125,-60 -23.5,-60 C-23.5,-60 23.5,-60 23.5,-60 C43.64434814453125,-60 60,-43.64434814453125 60,-23.5z"></path><path stroke-linecap="butt" stroke-linejoin="miter" fill-opacity="0" stroke-miterlimit="4" stroke="rgb(33,10,47)" stroke-opacity="1" stroke-width="0" d=" M60,-23.5 C60,-23.5 60,23.5 60,23.5 C60,43.64434814453125 43.64434814453125,60 23.5,60 C23.5,60 -23.5,60 -23.5,60 C-43.64434814453125,60 -60,43.64434814453125 -60,23.5 C-60,23.5 -60,-23.5 -60,-23.5 C-60,-43.64434814453125 -43.64434814453125,-60 -23.5,-60 C-23.5,-60 23.5,-60 23.5,-60 C43.64434814453125,-60 60,-43.64434814453125 60,-23.5z"></path></g></g><g transform="matrix(-0.9032959342002869,0.35268497467041016,-0.35268497467041016,-0.9032959342002869,604.19677734375,1150.3382568359375)" opacity="1" style="display: none;"><g opacity="1" transform="matrix(1,0,0,1,-148.25,7.25)"><path fill="rgb(247,151,239)" fill-opacity="1" d=" M60,-23.5 C60,-23.5 60,23.5 60,23.5 C60,43.64434814453125 43.64434814453125,60 23.5,60 C23.5,60 -23.5,60 -23.5,60 C-43.64434814453125,60 -60,43.64434814453125 -60,23.5 C-60,23.5 -60,-23.5 -60,-23.5 C-60,-43.64434814453125 -43.64434814453125,-60 -23.5,-60 C-23.5,-60 23.5,-60 23.5,-60 C43.64434814453125,-60 60,-43.64434814453125 60,-23.5z"></path><path stroke-linecap="butt" stroke-linejoin="miter" fill-opacity="0" stroke-miterlimit="4" stroke="rgb(33,10,47)" stroke-opacity="1" stroke-width="0" d=" M60,-23.5 C60,-23.5 60,23.5 60,23.5 C60,43.64434814453125 43.64434814453125,60 23.5,60 C23.5,60 -23.5,60 -23.5,60 C-43.64434814453125,60 -60,43.64434814453125 -60,23.5 C-60,23.5 -60,-23.5 -60,-23.5 C-60,-43.64434814453125 -43.64434814453125,-60 -23.5,-60 C-23.5,-60 23.5,-60 23.5,-60 C43.64434814453125,-60 60,-43.64434814453125 60,-23.5z"></path></g></g><g transform="matrix(-0.9505776166915894,-0.19165664911270142,0.19165664911270142,-0.9505776166915894,445.8726501464844,988.8645629882812)" opacity="1" style="display: none;"><g opacity="1" transform="matrix(1,0,0,1,-148.25,7.25)"><path fill="rgb(247,151,239)" fill-opacity="1" d=" M60,-23.5 C60,-23.5 60,23.5 60,23.5 C60,43.64434814453125 43.64434814453125,60 23.5,60 C23.5,60 -23.5,60 -23.5,60 C-43.64434814453125,60 -60,43.64434814453125 -60,23.5 C-60,23.5 -60,-23.5 -60,-23.5 C-60,-43.64434814453125 -43.64434814453125,-60 -23.5,-60 C-23.5,-60 23.5,-60 23.5,-60 C43.64434814453125,-60 60,-43.64434814453125 60,-23.5z"></path><path stroke-linecap="butt" stroke-linejoin="miter" fill-opacity="0" stroke-miterlimit="4" stroke="rgb(33,10,47)" stroke-opacity="1" stroke-width="0" d=" M60,-23.5 C60,-23.5 60,23.5 60,23.5 C60,43.64434814453125 43.64434814453125,60 23.5,60 C23.5,60 -23.5,60 -23.5,60 C-43.64434814453125,60 -60,43.64434814453125 -60,23.5 C-60,23.5 -60,-23.5 -60,-23.5 C-60,-43.64434814453125 -43.64434814453125,-60 -23.5,-60 C-23.5,-60 23.5,-60 23.5,-60 C43.64434814453125,-60 60,-43.64434814453125 60,-23.5z"></path></g></g><g transform="matrix(-0.6960626244544983,-0.6751495599746704,0.6751495599746704,-0.6960626244544983,399.9803161621094,767.4276733398438)" opacity="1" style="display: none;"><g opacity="1" transform="matrix(1,0,0,1,-148.25,7.25)"><path fill="rgb(247,151,239)" fill-opacity="1" d=" M60,-23.5 C60,-23.5 60,23.5 60,23.5 C60,43.64434814453125 43.64434814453125,60 23.5,60 C23.5,60 -23.5,60 -23.5,60 C-43.64434814453125,60 -60,43.64434814453125 -60,23.5 C-60,23.5 -60,-23.5 -60,-23.5 C-60,-43.64434814453125 -43.64434814453125,-60 -23.5,-60 C-23.5,-60 23.5,-60 23.5,-60 C43.64434814453125,-60 60,-43.64434814453125 60,-23.5z"></path><path stroke-linecap="butt" stroke-linejoin="miter" fill-opacity="0" stroke-miterlimit="4" stroke="rgb(33,10,47)" stroke-opacity="1" stroke-width="0" d=" M60,-23.5 C60,-23.5 60,23.5 60,23.5 C60,43.64434814453125 43.64434814453125,60 23.5,60 C23.5,60 -23.5,60 -23.5,60 C-43.64434814453125,60 -60,43.64434814453125 -60,23.5 C-60,23.5 -60,-23.5 -60,-23.5 C-60,-43.64434814453125 -43.64434814453125,-60 -23.5,-60 C-23.5,-60 23.5,-60 23.5,-60 C43.64434814453125,-60 60,-43.64434814453125 60,-23.5z"></path></g></g><g transform="matrix(-0.22053971886634827,-0.9442945718765259,0.9442945718765259,-0.22053971886634827,481.09417724609375,556.3311767578125)" opacity="1" style="display: none;"><g opacity="1" transform="matrix(1,0,0,1,-148.25,7.25)"><path fill="rgb(247,151,239)" fill-opacity="1" d=" M60,-23.5 C60,-23.5 60,23.5 60,23.5 C60,43.64434814453125 43.64434814453125,60 23.5,60 C23.5,60 -23.5,60 -23.5,60 C-43.64434814453125,60 -60,43.64434814453125 -60,23.5 C-60,23.5 -60,-23.5 -60,-23.5 C-60,-43.64434814453125 -43.64434814453125,-60 -23.5,-60 C-23.5,-60 23.5,-60 23.5,-60 C43.64434814453125,-60 60,-43.64434814453125 60,-23.5z"></path><path stroke-linecap="butt" stroke-linejoin="miter" fill-opacity="0" stroke-miterlimit="4" stroke="rgb(33,10,47)" stroke-opacity="1" stroke-width="0" d=" M60,-23.5 C60,-23.5 60,23.5 60,23.5 C60,43.64434814453125 43.64434814453125,60 23.5,60 C23.5,60 -23.5,60 -23.5,60 C-43.64434814453125,60 -60,43.64434814453125 -60,23.5 C-60,23.5 -60,-23.5 -60,-23.5 C-60,-43.64434814453125 -43.64434814453125,-60 -23.5,-60 C-23.5,-60 23.5,-60 23.5,-60 C43.64434814453125,-60 60,-43.64434814453125 60,-23.5z"></path></g></g><g transform="matrix(0.32499003410339355,-0.9136254787445068,0.9136254787445068,0.32499003410339355,663.4561767578125,422.5990295410156)" opacity="1" style="display: none;"><g opacity="1" transform="matrix(1,0,0,1,-148.25,7.25)"><path fill="rgb(247,151,239)" fill-opacity="1" d=" M60,-23.5 C60,-23.5 60,23.5 60,23.5 C60,43.64434814453125 43.64434814453125,60 23.5,60 C23.5,60 -23.5,60 -23.5,60 C-43.64434814453125,60 -60,43.64434814453125 -60,23.5 C-60,23.5 -60,-23.5 -60,-23.5 C-60,-43.64434814453125 -43.64434814453125,-60 -23.5,-60 C-23.5,-60 23.5,-60 23.5,-60 C43.64434814453125,-60 60,-43.64434814453125 60,-23.5z"></path><path stroke-linecap="butt" stroke-linejoin="miter" fill-opacity="0" stroke-miterlimit="4" stroke="rgb(33,10,47)" stroke-opacity="1" stroke-width="0" d=" M60,-23.5 C60,-23.5 60,23.5 60,23.5 C60,43.64434814453125 43.64434814453125,60 23.5,60 C23.5,60 -23.5,60 -23.5,60 C-43.64434814453125,60 -60,43.64434814453125 -60,23.5 C-60,23.5 -60,-23.5 -60,-23.5 C-60,-43.64434814453125 -43.64434814453125,-60 -23.5,-60 C-23.5,-60 23.5,-60 23.5,-60 C43.64434814453125,-60 60,-43.64434814453125 60,-23.5z"></path></g></g><g transform="matrix(0.7673394083976746,-0.5928914546966553,0.5928914546966553,0.7673394083976746,889.1694946289062,408.6881408691406)" opacity="1" style="display: none;"><g opacity="1" transform="matrix(1,0,0,1,-148.25,7.25)"><path fill="rgb(247,151,239)" fill-opacity="1" d=" M60,-23.5 C60,-23.5 60,23.5 60,23.5 C60,43.64434814453125 43.64434814453125,60 23.5,60 C23.5,60 -23.5,60 -23.5,60 C-43.64434814453125,60 -60,43.64434814453125 -60,23.5 C-60,23.5 -60,-23.5 -60,-23.5 C-60,-43.64434814453125 -43.64434814453125,-60 -23.5,-60 C-23.5,-60 23.5,-60 23.5,-60 C43.64434814453125,-60 60,-43.64434814453125 60,-23.5z"></path><path stroke-linecap="butt" stroke-linejoin="miter" fill-opacity="0" stroke-miterlimit="4" stroke="rgb(33,10,47)" stroke-opacity="1" stroke-width="0" d=" M60,-23.5 C60,-23.5 60,23.5 60,23.5 C60,43.64434814453125 43.64434814453125,60 23.5,60 C23.5,60 -23.5,60 -23.5,60 C-43.64434814453125,60 -60,43.64434814453125 -60,23.5 C-60,23.5 -60,-23.5 -60,-23.5 C-60,-43.64434814453125 -43.64434814453125,-60 -23.5,-60 C-23.5,-60 23.5,-60 23.5,-60 C43.64434814453125,-60 60,-43.64434814453125 60,-23.5z"></path></g></g><g transform="matrix(0.9660694003105164,-0.08390475809574127,0.08390475809574127,0.9660694003105164,1086.57421875,519.0185546875)" opacity="1" style="display: none;"><g opacity="1" transform="matrix(1,0,0,1,-148.25,7.25)"><path fill="rgb(247,151,239)" fill-opacity="1" d=" M60,-23.5 C60,-23.5 60,23.5 60,23.5 C60,43.64434814453125 43.64434814453125,60 23.5,60 C23.5,60 -23.5,60 -23.5,60 C-43.64434814453125,60 -60,43.64434814453125 -60,23.5 C-60,23.5 -60,-23.5 -60,-23.5 C-60,-43.64434814453125 -43.64434814453125,-60 -23.5,-60 C-23.5,-60 23.5,-60 23.5,-60 C43.64434814453125,-60 60,-43.64434814453125 60,-23.5z"></path><path stroke-linecap="butt" stroke-linejoin="miter" fill-opacity="0" stroke-miterlimit="4" stroke="rgb(33,10,47)" stroke-opacity="1" stroke-width="0" d=" M60,-23.5 C60,-23.5 60,23.5 60,23.5 C60,43.64434814453125 43.64434814453125,60 23.5,60 C23.5,60 -23.5,60 -23.5,60 C-43.64434814453125,60 -60,43.64434814453125 -60,23.5 C-60,23.5 -60,-23.5 -60,-23.5 C-60,-43.64434814453125 -43.64434814453125,-60 -23.5,-60 C-23.5,-60 23.5,-60 23.5,-60 C43.64434814453125,-60 60,-43.64434814453125 60,-23.5z"></path></g></g><g transform="matrix(0.8580737709999084,0.45170727372169495,-0.45170727372169495,0.8580737709999084,1062.5078125,657.81201171875)" opacity="1" style="display: none;"><g opacity="1" transform="matrix(1,0,0,1,0,0)"><path fill="rgb(247,151,239)" fill-opacity="1" d=" M60,-23.5 C60,-23.5 60,23.5 60,23.5 C60,43.64434814453125 43.64434814453125,60 23.5,60 C23.5,60 -23.5,60 -23.5,60 C-43.64434814453125,60 -60,43.64434814453125 -60,23.5 C-60,23.5 -60,-23.5 -60,-23.5 C-60,-43.64434814453125 -43.64434814453125,-60 -23.5,-60 C-23.5,-60 23.5,-60 23.5,-60 C43.64434814453125,-60 60,-43.64434814453125 60,-23.5z"></path><path stroke-linecap="butt" stroke-linejoin="miter" fill-opacity="0" stroke-miterlimit="4" stroke="rgb(33,10,47)" stroke-opacity="1" stroke-width="0" d=" M60,-23.5 C60,-23.5 60,23.5 60,23.5 C60,43.64434814453125 43.64434814453125,60 23.5,60 C23.5,60 -23.5,60 -23.5,60 C-43.64434814453125,60 -60,43.64434814453125 -60,23.5 C-60,23.5 -60,-23.5 -60,-23.5 C-60,-43.64434814453125 -43.64434814453125,-60 -23.5,-60 C-23.5,-60 23.5,-60 23.5,-60 C43.64434814453125,-60 60,-43.64434814453125 60,-23.5z"></path></g></g></g></g><g clip-path="url(#__lottie_element_2757)" transform="matrix(1,0,0,1,-150,-150)" opacity="1" style="display: none;"><g transform="matrix(1,0,0,1,948.25,284)" opacity="1" style="display: block;"><g opacity="1" transform="matrix(1,0,0,1,-148.25,7.25)"><path fill="rgb(247,151,239)" fill-opacity="1" d=" M60,-25.5 C60,-25.5 60,25.5 60,25.5 C60,44.540550231933594 44.540550231933594,60 25.5,60 C25.5,60 -25.5,60 -25.5,60 C-44.540550231933594,60 -60,44.540550231933594 -60,25.5 C-60,25.5 -60,-25.5 -60,-25.5 C-60,-44.540550231933594 -44.540550231933594,-60 -25.5,-60 C-25.5,-60 25.5,-60 25.5,-60 C44.540550231933594,-60 60,-44.540550231933594 60,-25.5z"></path><path stroke-linecap="butt" stroke-linejoin="miter" fill-opacity="0" stroke-miterlimit="4" stroke="rgb(33,10,47)" stroke-opacity="1" stroke-width="0" d=" M60,-25.5 C60,-25.5 60,25.5 60,25.5 C60,44.540550231933594 44.540550231933594,60 25.5,60 C25.5,60 -25.5,60 -25.5,60 C-44.540550231933594,60 -60,44.540550231933594 -60,25.5 C-60,25.5 -60,-25.5 -60,-25.5 C-60,-44.540550231933594 -44.540550231933594,-60 -25.5,-60 C-25.5,-60 25.5,-60 25.5,-60 C44.540550231933594,-60 60,-44.540550231933594 60,-25.5z"></path></g></g><g transform="matrix(0.8412560820579529,-0.5406368374824524,0.5406368374824524,0.8412560820579529,645.7476196289062,285.762451171875)" opacity="1" style="display: block;"><g opacity="1" transform="matrix(1,0,0,1,-148.25,7.25)"><path fill="rgb(247,151,239)" fill-opacity="1" d=" M60,-25.5 C60,-25.5 60,25.5 60,25.5 C60,44.540550231933594 44.540550231933594,60 25.5,60 C25.5,60 -25.5,60 -25.5,60 C-44.540550231933594,60 -60,44.540550231933594 -60,25.5 C-60,25.5 -60,-25.5 -60,-25.5 C-60,-44.540550231933594 -44.540550231933594,-60 -25.5,-60 C-25.5,-60 25.5,-60 25.5,-60 C44.540550231933594,-60 60,-44.540550231933594 60,-25.5z"></path><path stroke-linecap="butt" stroke-linejoin="miter" fill-opacity="0" stroke-miterlimit="4" stroke="rgb(33,10,47)" stroke-opacity="1" stroke-width="0" d=" M60,-25.5 C60,-25.5 60,25.5 60,25.5 C60,44.540550231933594 44.540550231933594,60 25.5,60 C25.5,60 -25.5,60 -25.5,60 C-44.540550231933594,60 -60,44.540550231933594 -60,25.5 C-60,25.5 -60,-25.5 -60,-25.5 C-60,-44.540550231933594 -44.540550231933594,-60 -25.5,-60 C-25.5,-60 25.5,-60 25.5,-60 C44.540550231933594,-60 60,-44.540550231933594 60,-25.5z"></path></g></g><g transform="matrix(0.4137025475502014,-0.9058594107627869,0.9058594107627869,0.4137025475502014,391.99066162109375,451.3601989746094)" opacity="1" style="display: block;"><g opacity="1" transform="matrix(1,0,0,1,-148.25,7.25)"><path fill="rgb(247,151,239)" fill-opacity="1" d=" M60,-25.5 C60,-25.5 60,25.5 60,25.5 C60,44.540550231933594 44.540550231933594,60 25.5,60 C25.5,60 -25.5,60 -25.5,60 C-44.540550231933594,60 -60,44.540550231933594 -60,25.5 C-60,25.5 -60,-25.5 -60,-25.5 C-60,-44.540550231933594 -44.540550231933594,-60 -25.5,-60 C-25.5,-60 25.5,-60 25.5,-60 C44.540550231933594,-60 60,-44.540550231933594 60,-25.5z"></path><path stroke-linecap="butt" stroke-linejoin="miter" fill-opacity="0" stroke-miterlimit="4" stroke="rgb(33,10,47)" stroke-opacity="1" stroke-width="0" d=" M60,-25.5 C60,-25.5 60,25.5 60,25.5 C60,44.540550231933594 44.540550231933594,60 25.5,60 C25.5,60 -25.5,60 -25.5,60 C-44.540550231933594,60 -60,44.540550231933594 -60,25.5 C-60,25.5 -60,-25.5 -60,-25.5 C-60,-44.540550231933594 -44.540550231933594,-60 -25.5,-60 C-25.5,-60 25.5,-60 25.5,-60 C44.540550231933594,-60 60,-44.540550231933594 60,-25.5z"></path></g></g><g transform="matrix(-0.1423179805278778,-0.9898210167884827,0.9898210167884827,-0.1423179805278778,268.1536865234375,726.6951293945312)" opacity="1" style="display: block;"><g opacity="1" transform="matrix(1,0,0,1,-148.25,7.25)"><path fill="rgb(247,151,239)" fill-opacity="1" d=" M60,-25.5 C60,-25.5 60,25.5 60,25.5 C60,44.540550231933594 44.540550231933594,60 25.5,60 C25.5,60 -25.5,60 -25.5,60 C-44.540550231933594,60 -60,44.540550231933594 -60,25.5 C-60,25.5 -60,-25.5 -60,-25.5 C-60,-44.540550231933594 -44.540550231933594,-60 -25.5,-60 C-25.5,-60 25.5,-60 25.5,-60 C44.540550231933594,-60 60,-44.540550231933594 60,-25.5z"></path><path stroke-linecap="butt" stroke-linejoin="miter" fill-opacity="0" stroke-miterlimit="4" stroke="rgb(33,10,47)" stroke-opacity="1" stroke-width="0" d=" M60,-25.5 C60,-25.5 60,25.5 60,25.5 C60,44.540550231933594 44.540550231933594,60 25.5,60 C25.5,60 -25.5,60 -25.5,60 C-44.540550231933594,60 -60,44.540550231933594 -60,25.5 C-60,25.5 -60,-25.5 -60,-25.5 C-60,-44.540550231933594 -44.540550231933594,-60 -25.5,-60 C-25.5,-60 25.5,-60 25.5,-60 C44.540550231933594,-60 60,-44.540550231933594 60,-25.5z"></path></g></g><g transform="matrix(-0.6548595428466797,-0.7557505965232849,0.7557505965232849,-0.6548595428466797,312.94976806640625,1025.867431640625)" opacity="1" style="display: block;"><g opacity="1" transform="matrix(1,0,0,1,-148.25,7.25)"><path fill="rgb(247,151,239)" fill-opacity="1" d=" M60,-25.5 C60,-25.5 60,25.5 60,25.5 C60,44.540550231933594 44.540550231933594,60 25.5,60 C25.5,60 -25.5,60 -25.5,60 C-44.540550231933594,60 -60,44.540550231933594 -60,25.5 C-60,25.5 -60,-25.5 -60,-25.5 C-60,-44.540550231933594 -44.540550231933594,-60 -25.5,-60 C-25.5,-60 25.5,-60 25.5,-60 C44.540550231933594,-60 60,-44.540550231933594 60,-25.5z"></path><path stroke-linecap="butt" stroke-linejoin="miter" fill-opacity="0" stroke-miterlimit="4" stroke="rgb(33,10,47)" stroke-opacity="1" stroke-width="0" d=" M60,-25.5 C60,-25.5 60,25.5 60,25.5 C60,44.540550231933594 44.540550231933594,60 25.5,60 C25.5,60 -25.5,60 -25.5,60 C-44.540550231933594,60 -60,44.540550231933594 -60,25.5 C-60,25.5 -60,-25.5 -60,-25.5 C-60,-44.540550231933594 -44.540550231933594,-60 -25.5,-60 C-25.5,-60 25.5,-60 25.5,-60 C44.540550231933594,-60 60,-44.540550231933594 60,-25.5z"></path></g></g><g transform="matrix(-0.9594911932945251,-0.28173863887786865,0.28173863887786865,-0.9594911932945251,512.3782958984375,1253.3297119140625)" opacity="1" style="display: block;"><g opacity="1" transform="matrix(1,0,0,1,-148.25,7.25)"><path fill="rgb(247,151,239)" fill-opacity="1" d=" M60,-25.5 C60,-25.5 60,25.5 60,25.5 C60,44.540550231933594 44.540550231933594,60 25.5,60 C25.5,60 -25.5,60 -25.5,60 C-44.540550231933594,60 -60,44.540550231933594 -60,25.5 C-60,25.5 -60,-25.5 -60,-25.5 C-60,-44.540550231933594 -44.540550231933594,-60 -25.5,-60 C-25.5,-60 25.5,-60 25.5,-60 C44.540550231933594,-60 60,-44.540550231933594 60,-25.5z"></path><path stroke-linecap="butt" stroke-linejoin="miter" fill-opacity="0" stroke-miterlimit="4" stroke="rgb(33,10,47)" stroke-opacity="1" stroke-width="0" d=" M60,-25.5 C60,-25.5 60,25.5 60,25.5 C60,44.540550231933594 44.540550231933594,60 25.5,60 C25.5,60 -25.5,60 -25.5,60 C-44.540550231933594,60 -60,44.540550231933594 -60,25.5 C-60,25.5 -60,-25.5 -60,-25.5 C-60,-44.540550231933594 -44.540550231933594,-60 -25.5,-60 C-25.5,-60 25.5,-60 25.5,-60 C44.540550231933594,-60 60,-44.540550231933594 60,-25.5z"></path></g></g><g transform="matrix(-0.9594960808753967,0.28172188997268677,-0.28172188997268677,-0.9594960808753967,803.1232299804688,1336.865234375)" opacity="1" style="display: block;"><g opacity="1" transform="matrix(1,0,0,1,-148.25,7.25)"><path fill="rgb(247,151,239)" fill-opacity="1" d=" M60,-25.5 C60,-25.5 60,25.5 60,25.5 C60,44.540550231933594 44.540550231933594,60 25.5,60 C25.5,60 -25.5,60 -25.5,60 C-44.540550231933594,60 -60,44.540550231933594 -60,25.5 C-60,25.5 -60,-25.5 -60,-25.5 C-60,-44.540550231933594 -44.540550231933594,-60 -25.5,-60 C-25.5,-60 25.5,-60 25.5,-60 C44.540550231933594,-60 60,-44.540550231933594 60,-25.5z"></path><path stroke-linecap="butt" stroke-linejoin="miter" fill-opacity="0" stroke-miterlimit="4" stroke="rgb(33,10,47)" stroke-opacity="1" stroke-width="0" d=" M60,-25.5 C60,-25.5 60,25.5 60,25.5 C60,44.540550231933594 44.540550231933594,60 25.5,60 C25.5,60 -25.5,60 -25.5,60 C-44.540550231933594,60 -60,44.540550231933594 -60,25.5 C-60,25.5 -60,-25.5 -60,-25.5 C-60,-44.540550231933594 -44.540550231933594,-60 -25.5,-60 C-25.5,-60 25.5,-60 25.5,-60 C44.540550231933594,-60 60,-44.540550231933594 60,-25.5z"></path></g></g><g transform="matrix(-0.6548595428466797,0.7557505965232849,-0.7557505965232849,-0.6548595428466797,1092.8843994140625,1249.947509765625)" opacity="1" style="display: block;"><g opacity="1" transform="matrix(1,0,0,1,-148.25,7.25)"><path fill="rgb(247,151,239)" fill-opacity="1" d=" M60,-25.5 C60,-25.5 60,25.5 60,25.5 C60,44.540550231933594 44.540550231933594,60 25.5,60 C25.5,60 -25.5,60 -25.5,60 C-44.540550231933594,60 -60,44.540550231933594 -60,25.5 C-60,25.5 -60,-25.5 -60,-25.5 C-60,-44.540550231933594 -44.540550231933594,-60 -25.5,-60 C-25.5,-60 25.5,-60 25.5,-60 C44.540550231933594,-60 60,-44.540550231933594 60,-25.5z"></path><path stroke-linecap="butt" stroke-linejoin="miter" fill-opacity="0" stroke-miterlimit="4" stroke="rgb(33,10,47)" stroke-opacity="1" stroke-width="0" d=" M60,-25.5 C60,-25.5 60,25.5 60,25.5 C60,44.540550231933594 44.540550231933594,60 25.5,60 C25.5,60 -25.5,60 -25.5,60 C-44.540550231933594,60 -60,44.540550231933594 -60,25.5 C-60,25.5 -60,-25.5 -60,-25.5 C-60,-44.540550231933594 -44.540550231933594,-60 -25.5,-60 C-25.5,-60 25.5,-60 25.5,-60 C44.540550231933594,-60 60,-44.540550231933594 60,-25.5z"></path></g></g><g transform="matrix(-0.14172834157943726,0.985720157623291,-0.985720157623291,-0.14172834157943726,1289.7066650390625,1019.5648193359375)" opacity="1" style="display: block;"><g opacity="1" transform="matrix(1,0,0,1,-148.25,7.25)"><path fill="rgb(247,151,239)" fill-opacity="1" d=" M60,-25.5 C60,-25.5 60,25.5 60,25.5 C60,44.540550231933594 44.540550231933594,60 25.5,60 C25.5,60 -25.5,60 -25.5,60 C-44.540550231933594,60 -60,44.540550231933594 -60,25.5 C-60,25.5 -60,-25.5 -60,-25.5 C-60,-44.540550231933594 -44.540550231933594,-60 -25.5,-60 C-25.5,-60 25.5,-60 25.5,-60 C44.540550231933594,-60 60,-44.540550231933594 60,-25.5z"></path><path stroke-linecap="butt" stroke-linejoin="miter" fill-opacity="0" stroke-miterlimit="4" stroke="rgb(33,10,47)" stroke-opacity="1" stroke-width="0" d=" M60,-25.5 C60,-25.5 60,25.5 60,25.5 C60,44.540550231933594 44.540550231933594,60 25.5,60 C25.5,60 -25.5,60 -25.5,60 C-44.540550231933594,60 -60,44.540550231933594 -60,25.5 C-60,25.5 -60,-25.5 -60,-25.5 C-60,-44.540550231933594 -44.540550231933594,-60 -25.5,-60 C-25.5,-60 25.5,-60 25.5,-60 C44.540550231933594,-60 60,-44.540550231933594 60,-25.5z"></path></g></g><g transform="matrix(0.41368675231933594,0.9058666229248047,-0.9058666229248047,0.41368675231933594,1330.673583984375,719.956787109375)" opacity="1" style="display: block;"><g opacity="1" transform="matrix(1,0,0,1,-148.25,7.25)"><path fill="rgb(247,151,239)" fill-opacity="1" d=" M60,-25.5 C60,-25.5 60,25.5 60,25.5 C60,44.540550231933594 44.540550231933594,60 25.5,60 C25.5,60 -25.5,60 -25.5,60 C-44.540550231933594,60 -60,44.540550231933594 -60,25.5 C-60,25.5 -60,-25.5 -60,-25.5 C-60,-44.540550231933594 -44.540550231933594,-60 -25.5,-60 C-25.5,-60 25.5,-60 25.5,-60 C44.540550231933594,-60 60,-44.540550231933594 60,-25.5z"></path><path stroke-linecap="butt" stroke-linejoin="miter" fill-opacity="0" stroke-miterlimit="4" stroke="rgb(33,10,47)" stroke-opacity="1" stroke-width="0" d=" M60,-25.5 C60,-25.5 60,25.5 60,25.5 C60,44.540550231933594 44.540550231933594,60 25.5,60 C25.5,60 -25.5,60 -25.5,60 C-44.540550231933594,60 -60,44.540550231933594 -60,25.5 C-60,25.5 -60,-25.5 -60,-25.5 C-60,-44.540550231933594 -44.540550231933594,-60 -25.5,-60 C-25.5,-60 25.5,-60 25.5,-60 C44.540550231933594,-60 60,-44.540550231933594 60,-25.5z"></path></g></g><g transform="matrix(0.8377707004547119,0.538396954536438,-0.538396954536438,0.8377707004547119,1203.15185546875,445.75445556640625)" opacity="1" style="display: block;"><g opacity="1" transform="matrix(1,0,0,1,-148.25,7.25)"><path fill="rgb(247,151,239)" fill-opacity="1" d=" M60,-25.5 C60,-25.5 60,25.5 60,25.5 C60,44.540550231933594 44.540550231933594,60 25.5,60 C25.5,60 -25.5,60 -25.5,60 C-44.540550231933594,60 -60,44.540550231933594 -60,25.5 C-60,25.5 -60,-25.5 -60,-25.5 C-60,-44.540550231933594 -44.540550231933594,-60 -25.5,-60 C-25.5,-60 25.5,-60 25.5,-60 C44.540550231933594,-60 60,-44.540550231933594 60,-25.5z"></path><path stroke-linecap="butt" stroke-linejoin="miter" fill-opacity="0" stroke-miterlimit="4" stroke="rgb(33,10,47)" stroke-opacity="1" stroke-width="0" d=" M60,-25.5 C60,-25.5 60,25.5 60,25.5 C60,44.540550231933594 44.540550231933594,60 25.5,60 C25.5,60 -25.5,60 -25.5,60 C-44.540550231933594,60 -60,44.540550231933594 -60,25.5 C-60,25.5 -60,-25.5 -60,-25.5 C-60,-44.540550231933594 -44.540550231933594,-60 -25.5,-60 C-25.5,-60 25.5,-60 25.5,-60 C44.540550231933594,-60 60,-44.540550231933594 60,-25.5z"></path></g></g><g transform="matrix(1,0,0,1,800.5,800.5)" opacity="1" style="display: block;"><g opacity="1" transform="matrix(1,0,0,1,-148.25,7.25)"><path fill="rgb(221,4,168)" fill-opacity="1" d=" M60,-25.5 C60,-25.5 60,25.5 60,25.5 C60,44.540550231933594 44.540550231933594,60 25.5,60 C25.5,60 -25.5,60 -25.5,60 C-44.540550231933594,60 -60,44.540550231933594 -60,25.5 C-60,25.5 -60,-25.5 -60,-25.5 C-60,-44.540550231933594 -44.540550231933594,-60 -25.5,-60 C-25.5,-60 25.5,-60 25.5,-60 C44.540550231933594,-60 60,-44.540550231933594 60,-25.5z"></path><path stroke-linecap="butt" stroke-linejoin="miter" fill-opacity="0" stroke-miterlimit="4" stroke="rgb(33,10,47)" stroke-opacity="1" stroke-width="0" d=" M60,-25.5 C60,-25.5 60,25.5 60,25.5 C60,44.540550231933594 44.540550231933594,60 25.5,60 C25.5,60 -25.5,60 -25.5,60 C-44.540550231933594,60 -60,44.540550231933594 -60,25.5 C-60,25.5 -60,-25.5 -60,-25.5 C-60,-44.540550231933594 -44.540550231933594,-60 -25.5,-60 C-25.5,-60 25.5,-60 25.5,-60 C44.540550231933594,-60 60,-44.540550231933594 60,-25.5z"></path></g></g><g transform="matrix(1,0,0,1,1095.5,800.5)" opacity="1" style="display: block;"><g opacity="1" transform="matrix(1,0,0,1,-148.25,7.25)"><path fill="rgb(221,4,168)" fill-opacity="1" d=" M60,-25.5 C60,-25.5 60,25.5 60,25.5 C60,44.540550231933594 44.540550231933594,60 25.5,60 C25.5,60 -25.5,60 -25.5,60 C-44.540550231933594,60 -60,44.540550231933594 -60,25.5 C-60,25.5 -60,-25.5 -60,-25.5 C-60,-44.540550231933594 -44.540550231933594,-60 -25.5,-60 C-25.5,-60 25.5,-60 25.5,-60 C44.540550231933594,-60 60,-44.540550231933594 60,-25.5z"></path><path stroke-linecap="butt" stroke-linejoin="miter" fill-opacity="0" stroke-miterlimit="4" stroke="rgb(33,10,47)" stroke-opacity="1" stroke-width="0" d=" M60,-25.5 C60,-25.5 60,25.5 60,25.5 C60,44.540550231933594 44.540550231933594,60 25.5,60 C25.5,60 -25.5,60 -25.5,60 C-44.540550231933594,60 -60,44.540550231933594 -60,25.5 C-60,25.5 -60,-25.5 -60,-25.5 C-60,-44.540550231933594 -44.540550231933594,-60 -25.5,-60 C-25.5,-60 25.5,-60 25.5,-60 C44.540550231933594,-60 60,-44.540550231933594 60,-25.5z"></path></g></g></g></g></svg>